%TF.GenerationSoftware,KiCad,Pcbnew,8.0.0*%
%TF.CreationDate,2024-12-15T14:54:56+05:30*%
%TF.ProjectId,RFID_1,52464944-5f31-42e6-9b69-6361645f7063,rev?*%
%TF.SameCoordinates,Original*%
%TF.FileFunction,Copper,L1,Top*%
%TF.FilePolarity,Positive*%
%FSLAX46Y46*%
G04 Gerber Fmt 4.6, Leading zero omitted, Abs format (unit mm)*
G04 Created by KiCad (PCBNEW 8.0.0) date 2024-12-15 14:54:56*
%MOMM*%
%LPD*%
G01*
G04 APERTURE LIST*
G04 Aperture macros list*
%AMRoundRect*
0 Rectangle with rounded corners*
0 $1 Rounding radius*
0 $2 $3 $4 $5 $6 $7 $8 $9 X,Y pos of 4 corners*
0 Add a 4 corners polygon primitive as box body*
4,1,4,$2,$3,$4,$5,$6,$7,$8,$9,$2,$3,0*
0 Add four circle primitives for the rounded corners*
1,1,$1+$1,$2,$3*
1,1,$1+$1,$4,$5*
1,1,$1+$1,$6,$7*
1,1,$1+$1,$8,$9*
0 Add four rect primitives between the rounded corners*
20,1,$1+$1,$2,$3,$4,$5,0*
20,1,$1+$1,$4,$5,$6,$7,0*
20,1,$1+$1,$6,$7,$8,$9,0*
20,1,$1+$1,$8,$9,$2,$3,0*%
G04 Aperture macros list end*
%TA.AperFunction,SMDPad,CuDef*%
%ADD10R,3.505200X1.397000*%
%TD*%
%TA.AperFunction,SMDPad,CuDef*%
%ADD11R,8.407400X10.718800*%
%TD*%
%TA.AperFunction,ComponentPad*%
%ADD12C,1.397000*%
%TD*%
%TA.AperFunction,SMDPad,CuDef*%
%ADD13RoundRect,0.250000X0.450000X-0.350000X0.450000X0.350000X-0.450000X0.350000X-0.450000X-0.350000X0*%
%TD*%
%TA.AperFunction,SMDPad,CuDef*%
%ADD14RoundRect,0.250000X-0.475000X0.337500X-0.475000X-0.337500X0.475000X-0.337500X0.475000X0.337500X0*%
%TD*%
%TA.AperFunction,SMDPad,CuDef*%
%ADD15RoundRect,0.250000X-0.450000X0.350000X-0.450000X-0.350000X0.450000X-0.350000X0.450000X0.350000X0*%
%TD*%
%TA.AperFunction,SMDPad,CuDef*%
%ADD16R,1.550000X1.300000*%
%TD*%
%TA.AperFunction,SMDPad,CuDef*%
%ADD17RoundRect,0.250000X-0.337500X-0.475000X0.337500X-0.475000X0.337500X0.475000X-0.337500X0.475000X0*%
%TD*%
%TA.AperFunction,SMDPad,CuDef*%
%ADD18RoundRect,0.250000X0.450000X-0.325000X0.450000X0.325000X-0.450000X0.325000X-0.450000X-0.325000X0*%
%TD*%
%TA.AperFunction,ComponentPad*%
%ADD19R,1.700000X1.700000*%
%TD*%
%TA.AperFunction,ComponentPad*%
%ADD20O,1.700000X1.700000*%
%TD*%
%TA.AperFunction,SMDPad,CuDef*%
%ADD21R,1.500000X0.900000*%
%TD*%
%TA.AperFunction,SMDPad,CuDef*%
%ADD22R,0.900000X1.500000*%
%TD*%
%TA.AperFunction,SMDPad,CuDef*%
%ADD23R,1.050000X1.050000*%
%TD*%
%TA.AperFunction,HeatsinkPad*%
%ADD24C,0.600000*%
%TD*%
%TA.AperFunction,SMDPad,CuDef*%
%ADD25R,4.200000X4.200000*%
%TD*%
%TA.AperFunction,ViaPad*%
%ADD26C,0.762000*%
%TD*%
%TA.AperFunction,Conductor*%
%ADD27C,0.635000*%
%TD*%
%TA.AperFunction,Conductor*%
%ADD28C,1.066800*%
%TD*%
%TA.AperFunction,Conductor*%
%ADD29C,0.254000*%
%TD*%
G04 APERTURE END LIST*
D10*
%TO.P,U3,1,INPUT*%
%TO.N,/12V*%
X164050300Y-121140000D03*
%TO.P,U3,2,GROUND*%
%TO.N,GND*%
X164050300Y-118600000D03*
%TO.P,U3,3,OUTPUT*%
%TO.N,/5V*%
X164050300Y-116060000D03*
D11*
%TO.P,U3,4,GROUND*%
%TO.N,GND*%
X152709200Y-118600000D03*
%TD*%
D12*
%TO.P,J3,4,Pin_4*%
%TO.N,Net-(J3-Pin_4)*%
X172421000Y-123944900D03*
%TO.P,J3,3,Pin_3*%
%TO.N,/12V*%
X172421000Y-120134900D03*
%TO.P,J3,2,Pin_2*%
%TO.N,GND*%
X172421000Y-116324900D03*
%TO.P,J3,1,Pin_1*%
%TO.N,/5V*%
X172421000Y-112514900D03*
%TD*%
D13*
%TO.P,R3,1*%
%TO.N,VDD*%
X131241800Y-96037400D03*
%TO.P,R3,2*%
%TO.N,/BOOT*%
X131241800Y-94037400D03*
%TD*%
D14*
%TO.P,C3,1*%
%TO.N,/12V*%
X167275000Y-121250000D03*
%TO.P,C3,2*%
%TO.N,GND*%
X167275000Y-123325000D03*
%TD*%
%TO.P,C4,1*%
%TO.N,/5V*%
X146750000Y-121400000D03*
%TO.P,C4,2*%
%TO.N,GND*%
X146750000Y-123475000D03*
%TD*%
D15*
%TO.P,R4,1*%
%TO.N,/BOOT*%
X137718800Y-94012000D03*
%TO.P,R4,2*%
%TO.N,Net-(R4-Pad2)*%
X137718800Y-96012000D03*
%TD*%
D16*
%TO.P,SW1,1,1*%
%TO.N,Net-(R2-Pad2)*%
X130454600Y-84222200D03*
X138404600Y-84222200D03*
%TO.P,SW1,2,2*%
%TO.N,GND*%
X130454600Y-88722200D03*
X138404600Y-88722200D03*
%TD*%
D15*
%TO.P,R2,1*%
%TO.N,/EN*%
X130479800Y-78873600D03*
%TO.P,R2,2*%
%TO.N,Net-(R2-Pad2)*%
X130479800Y-80873600D03*
%TD*%
D17*
%TO.P,C1,1*%
%TO.N,/5V*%
X163300000Y-110375000D03*
%TO.P,C1,2*%
%TO.N,GND*%
X165375000Y-110375000D03*
%TD*%
D18*
%TO.P,D4,1,K*%
%TO.N,GND*%
X166674800Y-106045000D03*
%TO.P,D4,2,A*%
%TO.N,Net-(D4-A)*%
X166674800Y-103995000D03*
%TD*%
D19*
%TO.P,J1,1,Pin_1*%
%TO.N,Net-(J1-Pin_1)*%
X148955600Y-105196800D03*
D20*
%TO.P,J1,2,Pin_2*%
%TO.N,Net-(J1-Pin_2)*%
X151495600Y-105196800D03*
%TO.P,J1,3,Pin_3*%
%TO.N,/BOOT*%
X154035600Y-105196800D03*
%TO.P,J1,4,Pin_4*%
%TO.N,/EN*%
X156575600Y-105196800D03*
%TD*%
D17*
%TO.P,C2,1*%
%TO.N,VDD*%
X145245000Y-109855000D03*
%TO.P,C2,2*%
%TO.N,GND*%
X147320000Y-109855000D03*
%TD*%
D21*
%TO.P,U1,1,GND*%
%TO.N,GND*%
X144755200Y-78511400D03*
%TO.P,U1,2,VDD*%
%TO.N,VDD*%
X144755200Y-79781400D03*
%TO.P,U1,3,EN*%
%TO.N,/EN*%
X144755200Y-81051400D03*
%TO.P,U1,4,SENSOR_VP*%
%TO.N,unconnected-(U1-SENSOR_VP-Pad4)*%
X144755200Y-82321400D03*
%TO.P,U1,5,SENSOR_VN*%
%TO.N,unconnected-(U1-SENSOR_VN-Pad5)*%
X144755200Y-83591400D03*
%TO.P,U1,6,IO34*%
%TO.N,unconnected-(U1-IO34-Pad6)*%
X144755200Y-84861400D03*
%TO.P,U1,7,IO35*%
%TO.N,unconnected-(U1-IO35-Pad7)*%
X144755200Y-86131400D03*
%TO.P,U1,8,IO32*%
%TO.N,unconnected-(U1-IO32-Pad8)*%
X144755200Y-87401400D03*
%TO.P,U1,9,IO33*%
%TO.N,unconnected-(U1-IO33-Pad9)*%
X144755200Y-88671400D03*
%TO.P,U1,10,IO25*%
%TO.N,unconnected-(U1-IO25-Pad10)*%
X144755200Y-89941400D03*
%TO.P,U1,11,IO26*%
%TO.N,unconnected-(U1-IO26-Pad11)*%
X144755200Y-91211400D03*
%TO.P,U1,12,IO27*%
%TO.N,unconnected-(U1-IO27-Pad12)*%
X144755200Y-92481400D03*
%TO.P,U1,13,IO14*%
%TO.N,unconnected-(U1-IO14-Pad13)*%
X144755200Y-93751400D03*
%TO.P,U1,14,IO12*%
%TO.N,unconnected-(U1-IO12-Pad14)*%
X144755200Y-95021400D03*
D22*
%TO.P,U1,15,GND*%
%TO.N,GND*%
X147795200Y-96271400D03*
%TO.P,U1,16,IO13*%
%TO.N,unconnected-(U1-IO13-Pad16)*%
X149065200Y-96271400D03*
%TO.P,U1,17,SHD/SD2*%
%TO.N,unconnected-(U1-SHD{slash}SD2-Pad17)*%
X150335200Y-96271400D03*
%TO.P,U1,18,SWP/SD3*%
%TO.N,unconnected-(U1-SWP{slash}SD3-Pad18)*%
X151605200Y-96271400D03*
%TO.P,U1,19,SCS/CMD*%
%TO.N,unconnected-(U1-SCS{slash}CMD-Pad19)*%
X152875200Y-96271400D03*
%TO.P,U1,20,SCK/CLK*%
%TO.N,unconnected-(U1-SCK{slash}CLK-Pad20)*%
X154145200Y-96271400D03*
%TO.P,U1,21,SDO/SD0*%
%TO.N,unconnected-(U1-SDO{slash}SD0-Pad21)*%
X155415200Y-96271400D03*
%TO.P,U1,22,SDI/SD1*%
%TO.N,unconnected-(U1-SDI{slash}SD1-Pad22)*%
X156685200Y-96271400D03*
%TO.P,U1,23,IO15*%
%TO.N,/Blue*%
X157955200Y-96271400D03*
%TO.P,U1,24,IO2*%
%TO.N,/Green*%
X159225200Y-96271400D03*
D21*
%TO.P,U1,25,IO0*%
%TO.N,/BOOT*%
X162255200Y-95021400D03*
%TO.P,U1,26,IO4*%
%TO.N,/RED*%
X162255200Y-93751400D03*
%TO.P,U1,27,IO16*%
%TO.N,unconnected-(U1-IO16-Pad27)*%
X162255200Y-92481400D03*
%TO.P,U1,28,IO17*%
%TO.N,unconnected-(U1-IO17-Pad28)*%
X162255200Y-91211400D03*
%TO.P,U1,29,IO5*%
%TO.N,Net-(J3-Pin_4)*%
X162255200Y-89941400D03*
%TO.P,U1,30,IO18*%
%TO.N,/SCK*%
X162255200Y-88671400D03*
%TO.P,U1,31,IO19*%
%TO.N,/MISO*%
X162255200Y-87401400D03*
%TO.P,U1,32,NC*%
%TO.N,unconnected-(U1-NC-Pad32)*%
X162255200Y-86131400D03*
%TO.P,U1,33,IO21*%
%TO.N,/SDA*%
X162255200Y-84861400D03*
%TO.P,U1,34,RXD0/IO3*%
%TO.N,Net-(J1-Pin_1)*%
X162255200Y-83591400D03*
%TO.P,U1,35,TXD0/IO1*%
%TO.N,Net-(J1-Pin_2)*%
X162255200Y-82321400D03*
%TO.P,U1,36,IO22*%
%TO.N,/RST*%
X162255200Y-81051400D03*
%TO.P,U1,37,IO23*%
%TO.N,/MOSI*%
X162255200Y-79781400D03*
%TO.P,U1,38,GND*%
%TO.N,GND*%
X162255200Y-78511400D03*
D23*
%TO.P,U1,39,GND*%
X151300200Y-84326400D03*
D24*
X151300200Y-85088900D03*
D23*
X151300200Y-85851400D03*
D24*
X151300200Y-86613900D03*
D23*
X151300200Y-87376400D03*
D24*
X152062700Y-84326400D03*
X152062700Y-85851400D03*
X152062700Y-87376400D03*
D23*
X152825200Y-84326400D03*
D24*
X152825200Y-85088900D03*
D23*
X152825200Y-85851400D03*
D25*
X152825200Y-85851400D03*
D24*
X152825200Y-86613900D03*
D23*
X152825200Y-87376400D03*
D24*
X153587700Y-84326400D03*
X153587700Y-85851400D03*
X153587700Y-87376400D03*
D23*
X154350200Y-84326400D03*
D24*
X154350200Y-85088900D03*
D23*
X154350200Y-85851400D03*
D24*
X154350200Y-86613900D03*
D23*
X154350200Y-87376400D03*
%TD*%
D16*
%TO.P,SW2,1,1*%
%TO.N,Net-(R4-Pad2)*%
X130492600Y-100315200D03*
X138442600Y-100315200D03*
%TO.P,SW2,2,2*%
%TO.N,GND*%
X130492600Y-104815200D03*
X138442600Y-104815200D03*
%TD*%
D10*
%TO.P,U2,1,INPUT*%
%TO.N,/5V*%
X143546100Y-121390000D03*
%TO.P,U2,2,GROUND*%
%TO.N,GND*%
X143546100Y-118850000D03*
%TO.P,U2,3,OUTPUT*%
%TO.N,VDD*%
X143546100Y-116310000D03*
D11*
%TO.P,U2,4,4*%
%TO.N,GND*%
X132205000Y-118850000D03*
%TD*%
D15*
%TO.P,R5,1*%
%TO.N,/Green*%
X163439600Y-99346400D03*
%TO.P,R5,2*%
%TO.N,Net-(D1-A)*%
X163439600Y-101346400D03*
%TD*%
D18*
%TO.P,D1,1,K*%
%TO.N,GND*%
X163634800Y-106045000D03*
%TO.P,D1,2,A*%
%TO.N,Net-(D1-A)*%
X163634800Y-103995000D03*
%TD*%
D13*
%TO.P,R1,1*%
%TO.N,VDD*%
X138506200Y-80949800D03*
%TO.P,R1,2*%
%TO.N,/EN*%
X138506200Y-78949800D03*
%TD*%
D19*
%TO.P,J2,1,Pin_1*%
%TO.N,VDD*%
X173939200Y-79400400D03*
D20*
%TO.P,J2,2,Pin_2*%
%TO.N,/RST*%
X173939200Y-81940400D03*
%TO.P,J2,3,Pin_3*%
%TO.N,GND*%
X173939200Y-84480400D03*
%TO.P,J2,4,Pin_4*%
%TO.N,/NC*%
X173939200Y-87020400D03*
%TO.P,J2,5,Pin_5*%
%TO.N,/MISO*%
X173939200Y-89560400D03*
%TO.P,J2,6,Pin_6*%
%TO.N,/MOSI*%
X173939200Y-92100400D03*
%TO.P,J2,7,Pin_7*%
%TO.N,/SCK*%
X173939200Y-94640400D03*
%TO.P,J2,8,Pin_8*%
%TO.N,/SDA*%
X173939200Y-97180400D03*
%TD*%
D15*
%TO.P,R8,1*%
%TO.N,/RED*%
X166538400Y-99397200D03*
%TO.P,R8,2*%
%TO.N,Net-(D4-A)*%
X166538400Y-101397200D03*
%TD*%
D26*
%TO.N,GND*%
X141900000Y-126075000D03*
X133930000Y-117220000D03*
X135200000Y-115950000D03*
X135200000Y-121030000D03*
X152115000Y-118440000D03*
X155925000Y-117170000D03*
X133930000Y-119760000D03*
X153385000Y-114630000D03*
X131390000Y-115950000D03*
X133930000Y-115950000D03*
X135200000Y-114680000D03*
X132660000Y-115950000D03*
X163830000Y-107950000D03*
X163500000Y-78450000D03*
X153385000Y-117170000D03*
X155925000Y-118440000D03*
X154655000Y-115900000D03*
X130120000Y-119760000D03*
X131390000Y-114680000D03*
X130120000Y-114680000D03*
X150845000Y-122250000D03*
X150845000Y-120980000D03*
X150845000Y-115900000D03*
X154655000Y-117170000D03*
X155925000Y-114630000D03*
X155925000Y-119710000D03*
X132660000Y-114680000D03*
X130120000Y-115950000D03*
X153385000Y-118440000D03*
X154655000Y-120980000D03*
X153385000Y-120980000D03*
X154655000Y-114630000D03*
X132660000Y-121030000D03*
X135200000Y-118490000D03*
X154655000Y-118440000D03*
X154655000Y-122250000D03*
X131390000Y-119760000D03*
X128850000Y-119760000D03*
X135200000Y-119760000D03*
X152115000Y-122250000D03*
X128850000Y-114680000D03*
X133930000Y-122300000D03*
X128850000Y-118490000D03*
X128850000Y-122300000D03*
X150845000Y-119710000D03*
X155925000Y-120980000D03*
X128850000Y-121030000D03*
X166370000Y-107950000D03*
X150845000Y-114630000D03*
X135200000Y-122300000D03*
X133930000Y-118490000D03*
X155925000Y-122250000D03*
X128850000Y-117220000D03*
X130120000Y-118490000D03*
X152115000Y-120980000D03*
X143075000Y-78600000D03*
X150845000Y-117170000D03*
X152115000Y-119710000D03*
X133930000Y-121030000D03*
X149575000Y-119710000D03*
X133930000Y-114680000D03*
X149575000Y-122250000D03*
X132660000Y-117220000D03*
X131390000Y-121030000D03*
X132660000Y-122300000D03*
X150845000Y-118440000D03*
X154655000Y-119710000D03*
X130120000Y-122300000D03*
X149575000Y-114630000D03*
X130120000Y-121030000D03*
X149575000Y-120980000D03*
X135200000Y-117220000D03*
X153385000Y-122250000D03*
X171450000Y-84575000D03*
X149575000Y-118440000D03*
X149575000Y-115900000D03*
X152115000Y-117170000D03*
X155925000Y-115900000D03*
X131390000Y-118490000D03*
X153385000Y-115900000D03*
X153385000Y-119710000D03*
X128850000Y-115950000D03*
X132660000Y-118490000D03*
X130120000Y-117220000D03*
X149575000Y-117170000D03*
X152115000Y-115900000D03*
X132660000Y-119760000D03*
X131390000Y-122300000D03*
X131390000Y-117220000D03*
X152115000Y-114630000D03*
%TO.N,VDD*%
X143052800Y-79959200D03*
X141478000Y-82854800D03*
%TO.N,Net-(J1-Pin_2)*%
X160172400Y-82346800D03*
%TO.N,Net-(J1-Pin_1)*%
X160172400Y-83667600D03*
%TO.N,/BOOT*%
X164185600Y-95123000D03*
%TO.N,/SCK*%
X164185600Y-88747600D03*
%TO.N,/MISO*%
X164160200Y-87452200D03*
%TO.N,/RST*%
X163900000Y-81125000D03*
%TO.N,Net-(J3-Pin_4)*%
X169925000Y-102525000D03*
%TD*%
D27*
%TO.N,GND*%
X135560000Y-118850000D02*
X143546100Y-118850000D01*
X135200000Y-118490000D02*
X135560000Y-118850000D01*
%TO.N,VDD*%
X143546100Y-111553900D02*
X145245000Y-109855000D01*
X143546100Y-116310000D02*
X143546100Y-111553900D01*
%TO.N,/5V*%
X143556100Y-121400000D02*
X143546100Y-121390000D01*
X146750000Y-121400000D02*
X143556100Y-121400000D01*
X146750000Y-114050000D02*
X146750000Y-121400000D01*
X150877500Y-109922500D02*
X146750000Y-114050000D01*
X162847500Y-109922500D02*
X150877500Y-109922500D01*
X163300000Y-110375000D02*
X162847500Y-109922500D01*
X164050300Y-114239600D02*
X165775000Y-112514900D01*
X165775000Y-112514900D02*
X165533696Y-112514900D01*
X172421000Y-112514900D02*
X165775000Y-112514900D01*
X164050300Y-116060000D02*
X164050300Y-114239600D01*
X163393796Y-110375000D02*
X163300000Y-110375000D01*
X165533696Y-112514900D02*
X163393796Y-110375000D01*
D28*
%TO.N,/12V*%
X164160300Y-121250000D02*
X164050300Y-121140000D01*
X167275000Y-121250000D02*
X164160300Y-121250000D01*
X168390100Y-120134900D02*
X167275000Y-121250000D01*
X172421000Y-120134900D02*
X168390100Y-120134900D01*
D29*
%TO.N,GND*%
X163634800Y-106045000D02*
X163634800Y-107754800D01*
X166674800Y-107645200D02*
X166370000Y-107950000D01*
X143163600Y-78511400D02*
X143075000Y-78600000D01*
X163438600Y-78511400D02*
X162255200Y-78511400D01*
X163467600Y-106212200D02*
X163634800Y-106045000D01*
X166674800Y-106045000D02*
X166674800Y-107645200D01*
X144755200Y-78511400D02*
X143163600Y-78511400D01*
X163500000Y-78450000D02*
X163438600Y-78511400D01*
X163634800Y-107754800D02*
X163830000Y-107950000D01*
%TO.N,VDD*%
X140125000Y-92300000D02*
X130850000Y-92300000D01*
X139573000Y-80949800D02*
X138506200Y-80949800D01*
X141478000Y-90947000D02*
X140125000Y-92300000D01*
X129625000Y-95375000D02*
X130287400Y-96037400D01*
X138595100Y-109220000D02*
X128092200Y-109220000D01*
X141478000Y-82854800D02*
X141478000Y-90947000D01*
X128092200Y-100282800D02*
X131241800Y-97133200D01*
X130850000Y-92300000D02*
X129625000Y-93525000D01*
X131241800Y-97133200D02*
X131241800Y-96037400D01*
X144755200Y-79781400D02*
X143230600Y-79781400D01*
X141478000Y-82854800D02*
X139573000Y-80949800D01*
X139230100Y-109855000D02*
X138595100Y-109220000D01*
X145245000Y-109855000D02*
X139230100Y-109855000D01*
X130287400Y-96037400D02*
X131241800Y-96037400D01*
X128092200Y-109220000D02*
X128092200Y-100282800D01*
X129625000Y-93525000D02*
X129625000Y-95375000D01*
X143230600Y-79781400D02*
X143052800Y-79959200D01*
D28*
%TO.N,/12V*%
X167261600Y-121115000D02*
X167192600Y-121046000D01*
D29*
%TO.N,Net-(D1-A)*%
X163439600Y-101346400D02*
X163439600Y-103799800D01*
X163439600Y-103799800D02*
X163634800Y-103995000D01*
%TO.N,Net-(D4-A)*%
X166538400Y-101397200D02*
X166538400Y-103858600D01*
X166538400Y-103858600D02*
X166674800Y-103995000D01*
%TO.N,/EN*%
X142240000Y-94411800D02*
X146100800Y-98272600D01*
X154047600Y-98272600D02*
X156575600Y-100800600D01*
X142240000Y-80540000D02*
X140649800Y-78949800D01*
X138506200Y-78949800D02*
X130556000Y-78949800D01*
X142240000Y-81051400D02*
X142240000Y-81889600D01*
X130556000Y-78949800D02*
X130479800Y-78873600D01*
X156575600Y-100800600D02*
X156575600Y-105196800D01*
X142240000Y-81889600D02*
X142240000Y-94411800D01*
X146100800Y-98272600D02*
X154047600Y-98272600D01*
X142240000Y-81889600D02*
X142240000Y-80540000D01*
X144755200Y-81051400D02*
X142240000Y-81051400D01*
X140649800Y-78949800D02*
X138506200Y-78949800D01*
%TO.N,Net-(J1-Pin_2)*%
X162255200Y-82321400D02*
X160197800Y-82321400D01*
X160197800Y-82321400D02*
X160172400Y-82346800D01*
%TO.N,Net-(J1-Pin_1)*%
X162255200Y-83591400D02*
X160248600Y-83591400D01*
X160248600Y-83591400D02*
X160172400Y-83667600D01*
%TO.N,/BOOT*%
X153100000Y-99200000D02*
X154035600Y-100135600D01*
X146100000Y-99200000D02*
X153100000Y-99200000D01*
X131267200Y-94012000D02*
X131241800Y-94037400D01*
X162255200Y-95021400D02*
X164084000Y-95021400D01*
X154035600Y-100135600D02*
X154035600Y-105196800D01*
X140912000Y-94012000D02*
X146100000Y-99200000D01*
X137718800Y-94012000D02*
X140912000Y-94012000D01*
X137718800Y-94012000D02*
X131267200Y-94012000D01*
X164084000Y-95021400D02*
X164185600Y-95123000D01*
%TO.N,/SDA*%
X167325000Y-86225000D02*
X167325000Y-92175000D01*
X162255200Y-84861400D02*
X165961400Y-84861400D01*
X165961400Y-84861400D02*
X167325000Y-86225000D01*
X172330400Y-97180400D02*
X173939200Y-97180400D01*
X167325000Y-92175000D02*
X172330400Y-97180400D01*
%TO.N,/SCK*%
X162255200Y-88671400D02*
X164109400Y-88671400D01*
X164109400Y-88671400D02*
X164185600Y-88747600D01*
%TO.N,/MISO*%
X162255200Y-87401400D02*
X164109400Y-87401400D01*
X164109400Y-87401400D02*
X164160200Y-87452200D01*
%TO.N,/MOSI*%
X168025000Y-88200000D02*
X171925400Y-92100400D01*
X164531400Y-79781400D02*
X168025000Y-83275000D01*
X171925400Y-92100400D02*
X173939200Y-92100400D01*
X162255200Y-79781400D02*
X164531400Y-79781400D01*
X168025000Y-83275000D02*
X168025000Y-88200000D01*
%TO.N,/RST*%
X163826400Y-81051400D02*
X163900000Y-81125000D01*
X162255200Y-81051400D02*
X163826400Y-81051400D01*
%TO.N,Net-(J3-Pin_4)*%
X162255200Y-89941400D02*
X162947200Y-89941400D01*
X169925000Y-96919200D02*
X169925000Y-102525000D01*
X162947200Y-89941400D02*
X169925000Y-96919200D01*
%TO.N,Net-(R2-Pad2)*%
X130479800Y-84197000D02*
X130454600Y-84222200D01*
X130454600Y-84222200D02*
X138404600Y-84222200D01*
X130479800Y-80873600D02*
X130479800Y-84197000D01*
%TO.N,Net-(R4-Pad2)*%
X138375000Y-100247600D02*
X138442600Y-100315200D01*
X137718800Y-97993800D02*
X138375000Y-98650000D01*
X138375000Y-98650000D02*
X138375000Y-100247600D01*
X137718800Y-96012000D02*
X137718800Y-97993800D01*
X138442600Y-100315200D02*
X130492600Y-100315200D01*
%TO.N,/Green*%
X159822200Y-96271400D02*
X161366200Y-97815400D01*
X161366200Y-97815400D02*
X161908600Y-97815400D01*
X159225200Y-96271400D02*
X159822200Y-96271400D01*
X161908600Y-97815400D02*
X163439600Y-99346400D01*
%TO.N,/RED*%
X162255200Y-93751400D02*
X164973000Y-93751400D01*
X164973000Y-93751400D02*
X166538400Y-95316800D01*
X166538400Y-95316800D02*
X166538400Y-99397200D01*
%TD*%
%TA.AperFunction,Conductor*%
%TO.N,GND*%
G36*
X143619751Y-77520285D02*
G01*
X143665506Y-77573089D01*
X143675450Y-77642247D01*
X143651978Y-77698911D01*
X143561849Y-77819306D01*
X143561845Y-77819313D01*
X143511603Y-77954020D01*
X143511601Y-77954027D01*
X143505200Y-78013555D01*
X143505200Y-78261400D01*
X146005200Y-78261400D01*
X146005200Y-78013572D01*
X146005199Y-78013555D01*
X145998798Y-77954027D01*
X145998796Y-77954020D01*
X145948554Y-77819313D01*
X145948550Y-77819306D01*
X145858422Y-77698911D01*
X145834004Y-77633447D01*
X145848855Y-77565174D01*
X145898260Y-77515768D01*
X145957688Y-77500600D01*
X161052712Y-77500600D01*
X161119751Y-77520285D01*
X161165506Y-77573089D01*
X161175450Y-77642247D01*
X161151978Y-77698911D01*
X161061849Y-77819306D01*
X161061845Y-77819313D01*
X161011603Y-77954020D01*
X161011601Y-77954027D01*
X161005200Y-78013555D01*
X161005200Y-78261400D01*
X163505200Y-78261400D01*
X163505200Y-78013572D01*
X163505199Y-78013555D01*
X163498798Y-77954027D01*
X163498796Y-77954020D01*
X163448554Y-77819313D01*
X163448550Y-77819306D01*
X163358422Y-77698911D01*
X163334004Y-77633447D01*
X163348855Y-77565174D01*
X163398260Y-77515768D01*
X163457688Y-77500600D01*
X176375400Y-77500600D01*
X176442439Y-77520285D01*
X176488194Y-77573089D01*
X176499400Y-77624600D01*
X176499400Y-126375500D01*
X176479715Y-126442539D01*
X176426911Y-126488294D01*
X176375400Y-126499500D01*
X127624500Y-126499500D01*
X127557461Y-126479815D01*
X127511706Y-126427011D01*
X127500500Y-126375500D01*
X127500500Y-124706804D01*
X127520185Y-124639765D01*
X127572989Y-124594010D01*
X127642147Y-124584066D01*
X127698811Y-124607538D01*
X127759206Y-124652750D01*
X127759213Y-124652754D01*
X127893920Y-124702996D01*
X127893927Y-124702998D01*
X127953455Y-124709399D01*
X127953472Y-124709400D01*
X131955000Y-124709400D01*
X131955000Y-119100000D01*
X132455000Y-119100000D01*
X132455000Y-124709400D01*
X136456528Y-124709400D01*
X136456544Y-124709399D01*
X136516072Y-124702998D01*
X136516079Y-124702996D01*
X136650786Y-124652754D01*
X136650793Y-124652750D01*
X136765887Y-124566590D01*
X136765890Y-124566587D01*
X136852050Y-124451493D01*
X136852054Y-124451486D01*
X136902296Y-124316779D01*
X136902298Y-124316772D01*
X136908699Y-124257244D01*
X136908700Y-124257227D01*
X136908700Y-123725000D01*
X145525001Y-123725000D01*
X145525001Y-123862486D01*
X145535494Y-123965197D01*
X145590641Y-124131619D01*
X145590643Y-124131624D01*
X145682684Y-124280845D01*
X145806654Y-124404815D01*
X145955875Y-124496856D01*
X145955880Y-124496858D01*
X146122302Y-124552005D01*
X146122309Y-124552006D01*
X146225019Y-124562499D01*
X146499999Y-124562499D01*
X146500000Y-124562498D01*
X146500000Y-123725000D01*
X145525001Y-123725000D01*
X136908700Y-123725000D01*
X136908700Y-119100000D01*
X132455000Y-119100000D01*
X131955000Y-119100000D01*
X131955000Y-112990600D01*
X132455000Y-112990600D01*
X132455000Y-118600000D01*
X136908700Y-118600000D01*
X136908700Y-113442772D01*
X136908699Y-113442755D01*
X136902298Y-113383227D01*
X136902296Y-113383220D01*
X136852054Y-113248513D01*
X136852050Y-113248506D01*
X136765890Y-113133412D01*
X136765887Y-113133409D01*
X136650793Y-113047249D01*
X136650786Y-113047245D01*
X136516079Y-112997003D01*
X136516072Y-112997001D01*
X136456544Y-112990600D01*
X132455000Y-112990600D01*
X131955000Y-112990600D01*
X127953455Y-112990600D01*
X127893927Y-112997001D01*
X127893920Y-112997003D01*
X127759213Y-113047245D01*
X127759210Y-113047247D01*
X127698811Y-113092462D01*
X127633346Y-113116879D01*
X127565073Y-113102027D01*
X127515668Y-113052622D01*
X127500500Y-112993195D01*
X127500500Y-109811314D01*
X127520185Y-109744275D01*
X127572989Y-109698520D01*
X127642147Y-109688576D01*
X127693391Y-109708212D01*
X127794960Y-109776079D01*
X127794973Y-109776086D01*
X127909160Y-109823383D01*
X127909165Y-109823385D01*
X127909169Y-109823385D01*
X127909170Y-109823386D01*
X128030394Y-109847500D01*
X128030397Y-109847500D01*
X128154003Y-109847500D01*
X138283819Y-109847500D01*
X138350858Y-109867185D01*
X138371500Y-109883819D01*
X138742689Y-110255008D01*
X138830092Y-110342411D01*
X138830094Y-110342413D01*
X138830096Y-110342414D01*
X138932856Y-110411076D01*
X138932858Y-110411077D01*
X138932867Y-110411083D01*
X138957872Y-110421440D01*
X138980171Y-110430677D01*
X139022354Y-110448149D01*
X139047066Y-110458386D01*
X139168292Y-110482499D01*
X139168296Y-110482500D01*
X139168297Y-110482500D01*
X143161311Y-110482500D01*
X143228350Y-110502185D01*
X143274105Y-110554989D01*
X143284049Y-110624147D01*
X143255024Y-110687703D01*
X143248992Y-110694181D01*
X142910720Y-111032451D01*
X142910717Y-111032455D01*
X142821200Y-111166425D01*
X142821193Y-111166438D01*
X142759536Y-111315293D01*
X142759533Y-111315305D01*
X142728100Y-111473329D01*
X142728100Y-114987000D01*
X142708415Y-115054039D01*
X142655611Y-115099794D01*
X142604100Y-115111000D01*
X141745629Y-115111000D01*
X141745623Y-115111001D01*
X141686016Y-115117408D01*
X141551171Y-115167702D01*
X141551164Y-115167706D01*
X141435955Y-115253952D01*
X141435952Y-115253955D01*
X141349706Y-115369164D01*
X141349702Y-115369171D01*
X141299408Y-115504017D01*
X141293001Y-115563616D01*
X141293000Y-115563635D01*
X141293000Y-117056370D01*
X141293001Y-117056376D01*
X141299408Y-117115983D01*
X141349702Y-117250828D01*
X141349706Y-117250835D01*
X141435952Y-117366044D01*
X141435955Y-117366047D01*
X141551164Y-117452293D01*
X141551173Y-117452298D01*
X141582773Y-117464084D01*
X141638707Y-117505954D01*
X141663125Y-117571419D01*
X141648274Y-117639692D01*
X141598869Y-117689098D01*
X141582776Y-117696447D01*
X141551416Y-117708144D01*
X141551406Y-117708149D01*
X141436312Y-117794309D01*
X141436309Y-117794312D01*
X141350149Y-117909406D01*
X141350145Y-117909413D01*
X141299903Y-118044120D01*
X141299901Y-118044127D01*
X141293500Y-118103655D01*
X141293500Y-118600000D01*
X143672100Y-118600000D01*
X143739139Y-118619685D01*
X143784894Y-118672489D01*
X143796100Y-118724000D01*
X143796100Y-118976000D01*
X143776415Y-119043039D01*
X143723611Y-119088794D01*
X143672100Y-119100000D01*
X141293500Y-119100000D01*
X141293500Y-119596344D01*
X141299901Y-119655872D01*
X141299903Y-119655879D01*
X141350145Y-119790586D01*
X141350149Y-119790593D01*
X141436309Y-119905687D01*
X141436312Y-119905690D01*
X141551406Y-119991850D01*
X141551413Y-119991854D01*
X141582774Y-120003551D01*
X141638708Y-120045422D01*
X141663125Y-120110886D01*
X141648274Y-120179159D01*
X141598869Y-120228565D01*
X141582776Y-120235914D01*
X141551174Y-120247701D01*
X141551164Y-120247706D01*
X141435955Y-120333952D01*
X141435952Y-120333955D01*
X141349706Y-120449164D01*
X141349702Y-120449171D01*
X141299408Y-120584017D01*
X141293001Y-120643616D01*
X141293000Y-120643635D01*
X141293000Y-122136370D01*
X141293001Y-122136376D01*
X141299408Y-122195983D01*
X141349702Y-122330828D01*
X141349706Y-122330835D01*
X141435952Y-122446044D01*
X141435955Y-122446047D01*
X141551164Y-122532293D01*
X141551171Y-122532297D01*
X141686017Y-122582591D01*
X141686016Y-122582591D01*
X141692944Y-122583335D01*
X141745627Y-122589000D01*
X145346572Y-122588999D01*
X145406183Y-122582591D01*
X145496071Y-122549064D01*
X145565760Y-122544081D01*
X145627083Y-122577565D01*
X145660568Y-122638888D01*
X145655584Y-122708580D01*
X145644941Y-122730343D01*
X145590646Y-122818371D01*
X145590641Y-122818380D01*
X145535494Y-122984802D01*
X145535493Y-122984809D01*
X145525000Y-123087513D01*
X145525000Y-123225000D01*
X146876000Y-123225000D01*
X146943039Y-123244685D01*
X146988794Y-123297489D01*
X147000000Y-123349000D01*
X147000000Y-124562499D01*
X147274972Y-124562499D01*
X147274986Y-124562498D01*
X147377697Y-124552005D01*
X147544119Y-124496858D01*
X147544124Y-124496856D01*
X147693345Y-124404815D01*
X147817317Y-124280843D01*
X147859116Y-124213076D01*
X147911063Y-124166351D01*
X147980026Y-124155128D01*
X148044108Y-124182971D01*
X148063921Y-124203860D01*
X148148312Y-124316590D01*
X148263406Y-124402750D01*
X148263413Y-124402754D01*
X148398120Y-124452996D01*
X148398127Y-124452998D01*
X148457655Y-124459399D01*
X148457672Y-124459400D01*
X152459200Y-124459400D01*
X152459200Y-118850000D01*
X152959200Y-118850000D01*
X152959200Y-124459400D01*
X156960728Y-124459400D01*
X156960744Y-124459399D01*
X157020272Y-124452998D01*
X157020279Y-124452996D01*
X157154986Y-124402754D01*
X157154993Y-124402750D01*
X157270087Y-124316590D01*
X157270090Y-124316587D01*
X157356250Y-124201493D01*
X157356254Y-124201486D01*
X157406496Y-124066779D01*
X157406498Y-124066772D01*
X157412899Y-124007244D01*
X157412900Y-124007227D01*
X157412900Y-123575000D01*
X166050001Y-123575000D01*
X166050001Y-123712486D01*
X166060494Y-123815197D01*
X166115641Y-123981619D01*
X166115643Y-123981624D01*
X166207684Y-124130845D01*
X166331654Y-124254815D01*
X166480875Y-124346856D01*
X166480880Y-124346858D01*
X166647302Y-124402005D01*
X166647309Y-124402006D01*
X166750019Y-124412499D01*
X167024999Y-124412499D01*
X167025000Y-124412498D01*
X167025000Y-123575000D01*
X167525000Y-123575000D01*
X167525000Y-124412499D01*
X167799972Y-124412499D01*
X167799986Y-124412498D01*
X167902697Y-124402005D01*
X168069119Y-124346858D01*
X168069124Y-124346856D01*
X168218345Y-124254815D01*
X168342315Y-124130845D01*
X168434356Y-123981624D01*
X168434358Y-123981619D01*
X168446526Y-123944900D01*
X171216863Y-123944900D01*
X171237365Y-124166159D01*
X171237366Y-124166161D01*
X171298174Y-124379879D01*
X171298180Y-124379894D01*
X171397222Y-124578796D01*
X171531133Y-124756124D01*
X171695344Y-124905821D01*
X171695346Y-124905823D01*
X171884266Y-125022797D01*
X171884272Y-125022800D01*
X171913206Y-125034009D01*
X172091472Y-125103070D01*
X172309896Y-125143900D01*
X172309899Y-125143900D01*
X172532101Y-125143900D01*
X172532104Y-125143900D01*
X172750528Y-125103070D01*
X172957730Y-125022799D01*
X173146655Y-124905822D01*
X173310868Y-124756122D01*
X173444778Y-124578796D01*
X173543824Y-124379884D01*
X173604634Y-124166160D01*
X173625137Y-123944900D01*
X173604634Y-123723640D01*
X173543824Y-123509916D01*
X173444778Y-123311004D01*
X173310868Y-123133678D01*
X173310866Y-123133675D01*
X173146655Y-122983978D01*
X173146653Y-122983976D01*
X172957733Y-122867002D01*
X172957727Y-122866999D01*
X172850080Y-122825297D01*
X172750528Y-122786730D01*
X172532104Y-122745900D01*
X172309896Y-122745900D01*
X172091472Y-122786730D01*
X172041695Y-122806013D01*
X171884272Y-122866999D01*
X171884266Y-122867002D01*
X171695346Y-122983976D01*
X171695344Y-122983978D01*
X171531133Y-123133675D01*
X171397222Y-123311003D01*
X171298180Y-123509905D01*
X171298174Y-123509920D01*
X171237366Y-123723638D01*
X171237365Y-123723640D01*
X171216863Y-123944899D01*
X171216863Y-123944900D01*
X168446526Y-123944900D01*
X168489505Y-123815197D01*
X168489506Y-123815190D01*
X168499999Y-123712486D01*
X168500000Y-123712473D01*
X168500000Y-123575000D01*
X167525000Y-123575000D01*
X167025000Y-123575000D01*
X166050001Y-123575000D01*
X157412900Y-123575000D01*
X157412900Y-121886370D01*
X161797200Y-121886370D01*
X161797201Y-121886376D01*
X161803608Y-121945983D01*
X161853902Y-122080828D01*
X161853906Y-122080835D01*
X161940152Y-122196044D01*
X161940155Y-122196047D01*
X162055364Y-122282293D01*
X162055371Y-122282297D01*
X162190217Y-122332591D01*
X162190216Y-122332591D01*
X162197144Y-122333335D01*
X162249827Y-122339000D01*
X165850772Y-122338999D01*
X165910383Y-122332591D01*
X166019969Y-122291718D01*
X166063302Y-122283900D01*
X166143577Y-122283900D01*
X166210616Y-122303585D01*
X166256371Y-122356389D01*
X166266315Y-122425547D01*
X166237290Y-122489103D01*
X166231258Y-122495581D01*
X166207684Y-122519154D01*
X166115643Y-122668375D01*
X166115641Y-122668380D01*
X166060494Y-122834802D01*
X166060493Y-122834809D01*
X166050000Y-122937513D01*
X166050000Y-123075000D01*
X168499999Y-123075000D01*
X168499999Y-122937528D01*
X168499998Y-122937513D01*
X168489505Y-122834802D01*
X168434358Y-122668380D01*
X168434356Y-122668375D01*
X168342315Y-122519154D01*
X168218344Y-122395183D01*
X168218341Y-122395181D01*
X168215339Y-122393329D01*
X168213713Y-122391521D01*
X168212677Y-122390702D01*
X168212817Y-122390524D01*
X168168617Y-122341380D01*
X168157397Y-122272417D01*
X168185243Y-122208336D01*
X168215344Y-122182254D01*
X168218656Y-122180212D01*
X168342712Y-122056156D01*
X168434814Y-121906834D01*
X168489999Y-121740297D01*
X168500500Y-121637509D01*
X168500499Y-121538016D01*
X168520183Y-121470979D01*
X168536812Y-121450341D01*
X168782038Y-121205118D01*
X168843362Y-121171634D01*
X168869719Y-121168800D01*
X171777928Y-121168800D01*
X171843205Y-121187373D01*
X171884266Y-121212797D01*
X171884272Y-121212800D01*
X171913206Y-121224009D01*
X172091472Y-121293070D01*
X172309896Y-121333900D01*
X172309899Y-121333900D01*
X172532101Y-121333900D01*
X172532104Y-121333900D01*
X172750528Y-121293070D01*
X172957730Y-121212799D01*
X173146655Y-121095822D01*
X173310868Y-120946122D01*
X173444778Y-120768796D01*
X173543824Y-120569884D01*
X173604634Y-120356160D01*
X173625137Y-120134900D01*
X173612423Y-119997701D01*
X173604634Y-119913640D01*
X173604633Y-119913638D01*
X173582286Y-119835098D01*
X173543824Y-119699916D01*
X173521896Y-119655879D01*
X173464487Y-119540586D01*
X173444778Y-119501004D01*
X173317016Y-119331819D01*
X173310866Y-119323675D01*
X173146655Y-119173978D01*
X173146653Y-119173976D01*
X172957733Y-119057002D01*
X172957727Y-119056999D01*
X172850080Y-119015297D01*
X172750528Y-118976730D01*
X172532104Y-118935900D01*
X172309896Y-118935900D01*
X172091472Y-118976730D01*
X172041695Y-118996013D01*
X171884272Y-119056999D01*
X171884266Y-119057002D01*
X171843205Y-119082427D01*
X171777928Y-119101000D01*
X168498065Y-119101000D01*
X168498045Y-119100999D01*
X168491931Y-119100999D01*
X168288270Y-119100999D01*
X168288268Y-119100999D01*
X168088527Y-119140730D01*
X168088517Y-119140733D01*
X167900371Y-119218665D01*
X167900358Y-119218672D01*
X167731027Y-119331816D01*
X167731023Y-119331819D01*
X167067403Y-119995440D01*
X167006080Y-120028925D01*
X167003913Y-120029376D01*
X166891029Y-120051830D01*
X166891017Y-120051833D01*
X166702866Y-120129767D01*
X166644708Y-120168626D01*
X166614827Y-120183227D01*
X166534626Y-120209805D01*
X166495619Y-120216100D01*
X166321440Y-120216100D01*
X166254401Y-120196415D01*
X166222174Y-120166411D01*
X166160447Y-120083955D01*
X166160444Y-120083952D01*
X166045235Y-119997706D01*
X166045230Y-119997703D01*
X166013624Y-119985915D01*
X165957691Y-119944043D01*
X165933274Y-119878579D01*
X165948126Y-119810306D01*
X165997531Y-119760901D01*
X166013626Y-119753551D01*
X166044984Y-119741855D01*
X166044993Y-119741850D01*
X166160087Y-119655690D01*
X166160090Y-119655687D01*
X166246250Y-119540593D01*
X166246254Y-119540586D01*
X166296496Y-119405879D01*
X166296498Y-119405872D01*
X166302899Y-119346344D01*
X166302900Y-119346327D01*
X166302900Y-118850000D01*
X161797700Y-118850000D01*
X161797700Y-119346344D01*
X161804101Y-119405872D01*
X161804103Y-119405879D01*
X161854345Y-119540586D01*
X161854349Y-119540593D01*
X161940509Y-119655687D01*
X161940512Y-119655690D01*
X162055606Y-119741850D01*
X162055613Y-119741854D01*
X162086974Y-119753551D01*
X162142908Y-119795422D01*
X162167325Y-119860886D01*
X162152474Y-119929159D01*
X162103069Y-119978565D01*
X162086976Y-119985914D01*
X162055374Y-119997701D01*
X162055364Y-119997706D01*
X161940155Y-120083952D01*
X161940152Y-120083955D01*
X161853906Y-120199164D01*
X161853902Y-120199171D01*
X161803608Y-120334017D01*
X161797201Y-120393616D01*
X161797200Y-120393635D01*
X161797200Y-121886370D01*
X157412900Y-121886370D01*
X157412900Y-118850000D01*
X152959200Y-118850000D01*
X152459200Y-118850000D01*
X148005500Y-118850000D01*
X148005500Y-120482270D01*
X147985815Y-120549309D01*
X147933011Y-120595064D01*
X147863853Y-120605008D01*
X147800297Y-120575983D01*
X147793819Y-120569951D01*
X147693655Y-120469787D01*
X147626902Y-120428613D01*
X147580178Y-120376665D01*
X147568000Y-120323075D01*
X147568000Y-114440189D01*
X147587685Y-114373150D01*
X147604319Y-114352508D01*
X147793819Y-114163008D01*
X147855142Y-114129523D01*
X147924834Y-114134507D01*
X147980767Y-114176379D01*
X148005184Y-114241843D01*
X148005500Y-114250689D01*
X148005500Y-118350000D01*
X152459200Y-118350000D01*
X152459200Y-112740600D01*
X152959200Y-112740600D01*
X152959200Y-118350000D01*
X157412900Y-118350000D01*
X157412900Y-113192772D01*
X157412899Y-113192755D01*
X157406498Y-113133227D01*
X157406496Y-113133220D01*
X157356254Y-112998513D01*
X157356250Y-112998506D01*
X157270090Y-112883412D01*
X157270087Y-112883409D01*
X157154993Y-112797249D01*
X157154986Y-112797245D01*
X157020279Y-112747003D01*
X157020272Y-112747001D01*
X156960744Y-112740600D01*
X152959200Y-112740600D01*
X152459200Y-112740600D01*
X149515589Y-112740600D01*
X149448550Y-112720915D01*
X149402795Y-112668111D01*
X149392851Y-112598953D01*
X149421876Y-112535397D01*
X149427908Y-112528919D01*
X151180008Y-110776819D01*
X151241331Y-110743334D01*
X151267689Y-110740500D01*
X162088001Y-110740500D01*
X162155040Y-110760185D01*
X162200795Y-110812989D01*
X162212001Y-110864500D01*
X162212001Y-110900018D01*
X162222500Y-111002796D01*
X162222501Y-111002799D01*
X162248249Y-111080499D01*
X162277686Y-111169334D01*
X162369788Y-111318656D01*
X162493844Y-111442712D01*
X162643166Y-111534814D01*
X162809703Y-111589999D01*
X162912491Y-111600500D01*
X163411106Y-111600499D01*
X163478145Y-111620183D01*
X163498787Y-111636818D01*
X164409839Y-112547870D01*
X164443324Y-112609193D01*
X164438340Y-112678885D01*
X164409839Y-112723232D01*
X163414920Y-113718151D01*
X163414917Y-113718155D01*
X163325400Y-113852125D01*
X163325393Y-113852138D01*
X163263736Y-114000993D01*
X163263733Y-114001005D01*
X163232300Y-114159029D01*
X163232300Y-114737000D01*
X163212615Y-114804039D01*
X163159811Y-114849794D01*
X163108300Y-114861000D01*
X162249829Y-114861000D01*
X162249823Y-114861001D01*
X162190216Y-114867408D01*
X162055371Y-114917702D01*
X162055364Y-114917706D01*
X161940155Y-115003952D01*
X161940152Y-115003955D01*
X161853906Y-115119164D01*
X161853902Y-115119171D01*
X161803608Y-115254017D01*
X161797201Y-115313616D01*
X161797201Y-115313623D01*
X161797200Y-115313635D01*
X161797200Y-116806370D01*
X161797201Y-116806376D01*
X161803608Y-116865983D01*
X161853902Y-117000828D01*
X161853906Y-117000835D01*
X161940152Y-117116044D01*
X161940155Y-117116047D01*
X162055364Y-117202293D01*
X162055373Y-117202298D01*
X162086973Y-117214084D01*
X162142907Y-117255954D01*
X162167325Y-117321419D01*
X162152474Y-117389692D01*
X162103069Y-117439098D01*
X162086976Y-117446447D01*
X162055616Y-117458144D01*
X162055606Y-117458149D01*
X161940512Y-117544309D01*
X161940509Y-117544312D01*
X161854349Y-117659406D01*
X161854345Y-117659413D01*
X161804103Y-117794120D01*
X161804101Y-117794127D01*
X161797700Y-117853655D01*
X161797700Y-118350000D01*
X166302900Y-118350000D01*
X166302900Y-117853672D01*
X166302899Y-117853655D01*
X166296498Y-117794127D01*
X166296496Y-117794120D01*
X166246254Y-117659413D01*
X166246250Y-117659406D01*
X166160090Y-117544312D01*
X166160087Y-117544309D01*
X166044993Y-117458149D01*
X166044981Y-117458143D01*
X166013624Y-117446447D01*
X165957690Y-117404576D01*
X165933274Y-117339111D01*
X165948126Y-117270838D01*
X165997532Y-117221433D01*
X166013620Y-117214085D01*
X166045231Y-117202296D01*
X166160446Y-117116046D01*
X166246696Y-117000831D01*
X166296991Y-116865983D01*
X166303400Y-116806373D01*
X166303400Y-116324900D01*
X171217366Y-116324900D01*
X171237859Y-116546066D01*
X171237860Y-116546068D01*
X171298643Y-116759698D01*
X171298649Y-116759713D01*
X171397652Y-116958536D01*
X171413208Y-116979136D01*
X171983352Y-116408993D01*
X172006792Y-116496471D01*
X172065311Y-116597830D01*
X172148070Y-116680589D01*
X172249429Y-116739108D01*
X172336905Y-116762547D01*
X171768761Y-117330690D01*
X171768762Y-117330691D01*
X171884490Y-117402347D01*
X171884496Y-117402350D01*
X172091607Y-117482584D01*
X172309945Y-117523400D01*
X172532055Y-117523400D01*
X172750392Y-117482584D01*
X172957505Y-117402349D01*
X172957506Y-117402348D01*
X173073237Y-117330690D01*
X172505095Y-116762547D01*
X172592571Y-116739108D01*
X172693930Y-116680589D01*
X172776689Y-116597830D01*
X172835208Y-116496471D01*
X172858647Y-116408994D01*
X173428790Y-116979136D01*
X173444348Y-116958534D01*
X173444353Y-116958526D01*
X173543350Y-116759713D01*
X173543356Y-116759698D01*
X173604139Y-116546068D01*
X173604140Y-116546066D01*
X173624634Y-116324900D01*
X173624634Y-116324899D01*
X173604140Y-116103733D01*
X173604139Y-116103731D01*
X173543356Y-115890101D01*
X173543350Y-115890086D01*
X173444353Y-115691274D01*
X173444348Y-115691267D01*
X173428789Y-115670662D01*
X172858647Y-116240804D01*
X172835208Y-116153329D01*
X172776689Y-116051970D01*
X172693930Y-115969211D01*
X172592571Y-115910692D01*
X172505094Y-115887252D01*
X173073237Y-115319108D01*
X173073236Y-115319107D01*
X172957509Y-115247452D01*
X172957503Y-115247449D01*
X172750392Y-115167215D01*
X172532055Y-115126400D01*
X172309945Y-115126400D01*
X172091607Y-115167215D01*
X171884495Y-115247450D01*
X171768761Y-115319108D01*
X172336906Y-115887252D01*
X172249429Y-115910692D01*
X172148070Y-115969211D01*
X172065311Y-116051970D01*
X172006792Y-116153329D01*
X171983352Y-116240805D01*
X171413209Y-115670662D01*
X171397651Y-115691265D01*
X171298649Y-115890086D01*
X171298643Y-115890101D01*
X171237860Y-116103731D01*
X171237859Y-116103733D01*
X171217366Y-116324899D01*
X171217366Y-116324900D01*
X166303400Y-116324900D01*
X166303399Y-115313628D01*
X166296991Y-115254017D01*
X166294542Y-115247452D01*
X166246697Y-115119171D01*
X166246693Y-115119164D01*
X166160447Y-115003955D01*
X166160444Y-115003952D01*
X166045235Y-114917706D01*
X166045228Y-114917702D01*
X165910382Y-114867408D01*
X165910383Y-114867408D01*
X165850783Y-114861001D01*
X165850781Y-114861000D01*
X165850773Y-114861000D01*
X165850765Y-114861000D01*
X164992300Y-114861000D01*
X164925261Y-114841315D01*
X164879506Y-114788511D01*
X164868300Y-114737000D01*
X164868300Y-114629789D01*
X164887985Y-114562750D01*
X164904619Y-114542108D01*
X166077508Y-113369219D01*
X166138831Y-113335734D01*
X166165189Y-113332900D01*
X171490529Y-113332900D01*
X171557568Y-113352585D01*
X171574067Y-113365263D01*
X171695344Y-113475821D01*
X171695346Y-113475823D01*
X171884266Y-113592797D01*
X171884272Y-113592800D01*
X171913206Y-113604009D01*
X172091472Y-113673070D01*
X172309896Y-113713900D01*
X172309899Y-113713900D01*
X172532101Y-113713900D01*
X172532104Y-113713900D01*
X172750528Y-113673070D01*
X172957730Y-113592799D01*
X173146655Y-113475822D01*
X173310868Y-113326122D01*
X173444778Y-113148796D01*
X173543824Y-112949884D01*
X173604634Y-112736160D01*
X173625137Y-112514900D01*
X173604634Y-112293640D01*
X173543824Y-112079916D01*
X173444778Y-111881004D01*
X173310868Y-111703678D01*
X173310866Y-111703675D01*
X173146655Y-111553978D01*
X173146653Y-111553976D01*
X172957733Y-111437002D01*
X172957727Y-111436999D01*
X172850080Y-111395297D01*
X172750528Y-111356730D01*
X172532104Y-111315900D01*
X172309896Y-111315900D01*
X172091472Y-111356730D01*
X172041695Y-111376013D01*
X171884272Y-111436999D01*
X171884266Y-111437002D01*
X171695346Y-111553976D01*
X171695344Y-111553978D01*
X171574067Y-111664537D01*
X171511263Y-111695154D01*
X171490529Y-111696900D01*
X166205337Y-111696900D01*
X166138298Y-111677215D01*
X166092543Y-111624411D01*
X166082599Y-111555253D01*
X166111624Y-111491697D01*
X166140241Y-111467361D01*
X166180843Y-111442317D01*
X166304815Y-111318345D01*
X166396856Y-111169124D01*
X166396858Y-111169119D01*
X166452005Y-111002697D01*
X166452006Y-111002690D01*
X166462499Y-110899986D01*
X166462500Y-110899973D01*
X166462500Y-110625000D01*
X165249000Y-110625000D01*
X165181961Y-110605315D01*
X165136206Y-110552511D01*
X165125000Y-110501000D01*
X165125000Y-109150000D01*
X165625000Y-109150000D01*
X165625000Y-110125000D01*
X166462499Y-110125000D01*
X166462499Y-109850028D01*
X166462498Y-109850013D01*
X166452005Y-109747302D01*
X166396858Y-109580880D01*
X166396856Y-109580875D01*
X166304815Y-109431654D01*
X166180845Y-109307684D01*
X166031624Y-109215643D01*
X166031619Y-109215641D01*
X165865197Y-109160494D01*
X165865190Y-109160493D01*
X165762486Y-109150000D01*
X165625000Y-109150000D01*
X165125000Y-109150000D01*
X164987527Y-109150000D01*
X164987512Y-109150001D01*
X164884802Y-109160494D01*
X164718380Y-109215641D01*
X164718375Y-109215643D01*
X164569154Y-109307684D01*
X164445183Y-109431655D01*
X164445179Y-109431660D01*
X164443326Y-109434665D01*
X164441518Y-109436290D01*
X164440702Y-109437323D01*
X164440525Y-109437183D01*
X164391374Y-109481385D01*
X164322411Y-109492601D01*
X164258331Y-109464752D01*
X164232253Y-109434653D01*
X164232237Y-109434628D01*
X164230212Y-109431344D01*
X164106156Y-109307288D01*
X164013388Y-109250069D01*
X163956836Y-109215187D01*
X163956831Y-109215185D01*
X163934590Y-109207815D01*
X163790297Y-109160001D01*
X163790295Y-109160000D01*
X163687516Y-109149500D01*
X163687509Y-109149500D01*
X163143517Y-109149500D01*
X163096064Y-109140061D01*
X163086108Y-109135937D01*
X163086095Y-109135933D01*
X162928070Y-109104500D01*
X162928066Y-109104500D01*
X150796934Y-109104500D01*
X150796929Y-109104500D01*
X150638905Y-109135933D01*
X150638893Y-109135936D01*
X150533632Y-109179537D01*
X150490033Y-109197596D01*
X150490028Y-109197599D01*
X150356059Y-109287114D01*
X150356051Y-109287120D01*
X146114620Y-113528551D01*
X146114617Y-113528555D01*
X146025098Y-113662528D01*
X146003820Y-113713900D01*
X145963435Y-113811397D01*
X145963433Y-113811405D01*
X145932000Y-113969429D01*
X145932000Y-115249756D01*
X145912315Y-115316795D01*
X145859511Y-115362550D01*
X145790353Y-115372494D01*
X145726797Y-115343469D01*
X145708734Y-115324068D01*
X145656292Y-115254016D01*
X145656246Y-115253954D01*
X145656244Y-115253953D01*
X145656244Y-115253952D01*
X145541035Y-115167706D01*
X145541028Y-115167702D01*
X145406182Y-115117408D01*
X145406183Y-115117408D01*
X145346583Y-115111001D01*
X145346581Y-115111000D01*
X145346573Y-115111000D01*
X145346565Y-115111000D01*
X144488100Y-115111000D01*
X144421061Y-115091315D01*
X144375306Y-115038511D01*
X144364100Y-114987000D01*
X144364100Y-111944088D01*
X144383785Y-111877049D01*
X144400415Y-111856411D01*
X145140008Y-111116817D01*
X145201331Y-111083333D01*
X145227689Y-111080499D01*
X145632502Y-111080499D01*
X145632508Y-111080499D01*
X145735297Y-111069999D01*
X145901834Y-111014814D01*
X146051156Y-110922712D01*
X146175212Y-110798656D01*
X146177252Y-110795347D01*
X146179245Y-110793555D01*
X146179693Y-110792989D01*
X146179789Y-110793065D01*
X146229194Y-110748623D01*
X146298156Y-110737395D01*
X146362240Y-110765234D01*
X146388329Y-110795339D01*
X146390181Y-110798341D01*
X146390183Y-110798344D01*
X146514154Y-110922315D01*
X146663375Y-111014356D01*
X146663380Y-111014358D01*
X146829802Y-111069505D01*
X146829809Y-111069506D01*
X146932519Y-111079999D01*
X147069999Y-111079999D01*
X147070000Y-111079998D01*
X147070000Y-110105000D01*
X147570000Y-110105000D01*
X147570000Y-111079999D01*
X147707472Y-111079999D01*
X147707486Y-111079998D01*
X147810197Y-111069505D01*
X147976619Y-111014358D01*
X147976624Y-111014356D01*
X148125845Y-110922315D01*
X148249815Y-110798345D01*
X148341856Y-110649124D01*
X148341858Y-110649119D01*
X148397005Y-110482697D01*
X148397006Y-110482690D01*
X148407499Y-110379986D01*
X148407500Y-110379973D01*
X148407500Y-110105000D01*
X147570000Y-110105000D01*
X147070000Y-110105000D01*
X147070000Y-108630000D01*
X147570000Y-108630000D01*
X147570000Y-109605000D01*
X148407499Y-109605000D01*
X148407499Y-109330028D01*
X148407498Y-109330013D01*
X148397005Y-109227302D01*
X148341858Y-109060880D01*
X148341856Y-109060875D01*
X148249815Y-108911654D01*
X148125845Y-108787684D01*
X147976624Y-108695643D01*
X147976619Y-108695641D01*
X147810197Y-108640494D01*
X147810190Y-108640493D01*
X147707486Y-108630000D01*
X147570000Y-108630000D01*
X147070000Y-108630000D01*
X146932527Y-108630000D01*
X146932512Y-108630001D01*
X146829802Y-108640494D01*
X146663380Y-108695641D01*
X146663375Y-108695643D01*
X146514154Y-108787684D01*
X146390183Y-108911655D01*
X146390179Y-108911660D01*
X146388326Y-108914665D01*
X146386518Y-108916290D01*
X146385702Y-108917323D01*
X146385525Y-108917183D01*
X146336374Y-108961385D01*
X146267411Y-108972601D01*
X146203331Y-108944752D01*
X146177253Y-108914653D01*
X146177237Y-108914628D01*
X146175212Y-108911344D01*
X146051156Y-108787288D01*
X145901834Y-108695186D01*
X145735297Y-108640001D01*
X145735295Y-108640000D01*
X145632510Y-108629500D01*
X144857498Y-108629500D01*
X144857480Y-108629501D01*
X144754703Y-108640000D01*
X144754700Y-108640001D01*
X144588168Y-108695185D01*
X144588163Y-108695187D01*
X144438842Y-108787289D01*
X144314789Y-108911342D01*
X144222687Y-109060663D01*
X144222685Y-109060668D01*
X144222615Y-109060880D01*
X144196378Y-109140061D01*
X144195568Y-109142504D01*
X144155795Y-109199949D01*
X144091280Y-109226772D01*
X144077862Y-109227500D01*
X139541381Y-109227500D01*
X139474342Y-109207815D01*
X139453700Y-109191181D01*
X138995111Y-108732591D01*
X138995106Y-108732587D01*
X138957789Y-108707653D01*
X138939130Y-108695186D01*
X138892333Y-108663917D01*
X138892332Y-108663916D01*
X138892330Y-108663915D01*
X138892328Y-108663914D01*
X138858885Y-108650062D01*
X138778135Y-108616614D01*
X138778127Y-108616612D01*
X138656907Y-108592500D01*
X138656903Y-108592500D01*
X128843700Y-108592500D01*
X128776661Y-108572815D01*
X128730906Y-108520011D01*
X128719700Y-108468500D01*
X128719700Y-105065200D01*
X129217600Y-105065200D01*
X129217600Y-105513044D01*
X129224001Y-105572572D01*
X129224003Y-105572579D01*
X129274245Y-105707286D01*
X129274249Y-105707293D01*
X129360409Y-105822387D01*
X129360412Y-105822390D01*
X129475506Y-105908550D01*
X129475513Y-105908554D01*
X129610220Y-105958796D01*
X129610227Y-105958798D01*
X129669755Y-105965199D01*
X129669772Y-105965200D01*
X130242600Y-105965200D01*
X130242600Y-105065200D01*
X130742600Y-105065200D01*
X130742600Y-105965200D01*
X131315428Y-105965200D01*
X131315444Y-105965199D01*
X131374972Y-105958798D01*
X131374979Y-105958796D01*
X131509686Y-105908554D01*
X131509693Y-105908550D01*
X131624787Y-105822390D01*
X131624790Y-105822387D01*
X131710950Y-105707293D01*
X131710954Y-105707286D01*
X131761196Y-105572579D01*
X131761198Y-105572572D01*
X131767599Y-105513044D01*
X131767600Y-105513027D01*
X131767600Y-105065200D01*
X137167600Y-105065200D01*
X137167600Y-105513044D01*
X137174001Y-105572572D01*
X137174003Y-105572579D01*
X137224245Y-105707286D01*
X137224249Y-105707293D01*
X137310409Y-105822387D01*
X137310412Y-105822390D01*
X137425506Y-105908550D01*
X137425513Y-105908554D01*
X137560220Y-105958796D01*
X137560227Y-105958798D01*
X137619755Y-105965199D01*
X137619772Y-105965200D01*
X138192600Y-105965200D01*
X138192600Y-105065200D01*
X138692600Y-105065200D01*
X138692600Y-105965200D01*
X139265428Y-105965200D01*
X139265444Y-105965199D01*
X139324972Y-105958798D01*
X139324979Y-105958796D01*
X139459686Y-105908554D01*
X139459693Y-105908550D01*
X139574787Y-105822390D01*
X139574790Y-105822387D01*
X139660950Y-105707293D01*
X139660954Y-105707286D01*
X139711196Y-105572579D01*
X139711198Y-105572572D01*
X139717599Y-105513044D01*
X139717600Y-105513027D01*
X139717600Y-105065200D01*
X138692600Y-105065200D01*
X138192600Y-105065200D01*
X137167600Y-105065200D01*
X131767600Y-105065200D01*
X130742600Y-105065200D01*
X130242600Y-105065200D01*
X129217600Y-105065200D01*
X128719700Y-105065200D01*
X128719700Y-104565200D01*
X129217600Y-104565200D01*
X130242600Y-104565200D01*
X130242600Y-103665200D01*
X130742600Y-103665200D01*
X130742600Y-104565200D01*
X131767600Y-104565200D01*
X137167600Y-104565200D01*
X138192600Y-104565200D01*
X138192600Y-103665200D01*
X138692600Y-103665200D01*
X138692600Y-104565200D01*
X139717600Y-104565200D01*
X139717600Y-104117372D01*
X139717599Y-104117355D01*
X139711198Y-104057827D01*
X139711196Y-104057820D01*
X139660954Y-103923113D01*
X139660950Y-103923106D01*
X139574790Y-103808012D01*
X139574787Y-103808009D01*
X139459693Y-103721849D01*
X139459686Y-103721845D01*
X139324979Y-103671603D01*
X139324972Y-103671601D01*
X139265444Y-103665200D01*
X138692600Y-103665200D01*
X138192600Y-103665200D01*
X137619755Y-103665200D01*
X137560227Y-103671601D01*
X137560220Y-103671603D01*
X137425513Y-103721845D01*
X137425506Y-103721849D01*
X137310412Y-103808009D01*
X137310409Y-103808012D01*
X137224249Y-103923106D01*
X137224245Y-103923113D01*
X137174003Y-104057820D01*
X137174001Y-104057827D01*
X137167600Y-104117355D01*
X137167600Y-104565200D01*
X131767600Y-104565200D01*
X131767600Y-104117372D01*
X131767599Y-104117355D01*
X131761198Y-104057827D01*
X131761196Y-104057820D01*
X131710954Y-103923113D01*
X131710950Y-103923106D01*
X131624790Y-103808012D01*
X131624787Y-103808009D01*
X131509693Y-103721849D01*
X131509686Y-103721845D01*
X131374979Y-103671603D01*
X131374972Y-103671601D01*
X131315444Y-103665200D01*
X130742600Y-103665200D01*
X130242600Y-103665200D01*
X129669755Y-103665200D01*
X129610227Y-103671601D01*
X129610220Y-103671603D01*
X129475513Y-103721845D01*
X129475506Y-103721849D01*
X129360412Y-103808009D01*
X129360409Y-103808012D01*
X129274249Y-103923106D01*
X129274245Y-103923113D01*
X129224003Y-104057820D01*
X129224001Y-104057827D01*
X129217600Y-104117355D01*
X129217600Y-104565200D01*
X128719700Y-104565200D01*
X128719700Y-100594080D01*
X128739385Y-100527041D01*
X128756015Y-100506403D01*
X129005419Y-100256998D01*
X129066742Y-100223514D01*
X129136434Y-100228498D01*
X129192367Y-100270370D01*
X129216784Y-100335834D01*
X129217100Y-100344680D01*
X129217100Y-101013070D01*
X129217101Y-101013076D01*
X129223508Y-101072683D01*
X129273802Y-101207528D01*
X129273806Y-101207535D01*
X129360052Y-101322744D01*
X129360055Y-101322747D01*
X129475264Y-101408993D01*
X129475271Y-101408997D01*
X129610117Y-101459291D01*
X129610116Y-101459291D01*
X129617044Y-101460035D01*
X129669727Y-101465700D01*
X131315472Y-101465699D01*
X131375083Y-101459291D01*
X131509931Y-101408996D01*
X131625146Y-101322746D01*
X131711396Y-101207531D01*
X131761691Y-101072683D01*
X131762999Y-101060519D01*
X131763760Y-101053443D01*
X131790499Y-100988892D01*
X131847892Y-100949045D01*
X131887049Y-100942700D01*
X137048151Y-100942700D01*
X137115190Y-100962385D01*
X137160945Y-101015189D01*
X137171441Y-101053446D01*
X137173509Y-101072683D01*
X137223802Y-101207528D01*
X137223806Y-101207535D01*
X137310052Y-101322744D01*
X137310055Y-101322747D01*
X137425264Y-101408993D01*
X137425271Y-101408997D01*
X137560117Y-101459291D01*
X137560116Y-101459291D01*
X137567044Y-101460035D01*
X137619727Y-101465700D01*
X139265472Y-101465699D01*
X139325083Y-101459291D01*
X139459931Y-101408996D01*
X139575146Y-101322746D01*
X139661396Y-101207531D01*
X139711691Y-101072683D01*
X139718100Y-101013073D01*
X139718099Y-99617328D01*
X139711691Y-99557717D01*
X139661396Y-99422869D01*
X139661395Y-99422868D01*
X139661393Y-99422864D01*
X139575147Y-99307655D01*
X139575144Y-99307652D01*
X139459935Y-99221406D01*
X139459928Y-99221402D01*
X139325082Y-99171108D01*
X139325083Y-99171108D01*
X139265483Y-99164701D01*
X139265481Y-99164700D01*
X139265473Y-99164700D01*
X139265465Y-99164700D01*
X139126500Y-99164700D01*
X139059461Y-99145015D01*
X139013706Y-99092211D01*
X139002500Y-99040700D01*
X139002500Y-98588195D01*
X138992129Y-98536059D01*
X138990475Y-98527744D01*
X138988032Y-98515463D01*
X138978387Y-98466972D01*
X138978386Y-98466965D01*
X138933412Y-98358392D01*
X138931764Y-98353786D01*
X138862414Y-98249996D01*
X138862413Y-98249994D01*
X138822000Y-98209581D01*
X138775008Y-98162589D01*
X138382619Y-97770200D01*
X138349134Y-97708877D01*
X138346300Y-97682519D01*
X138346300Y-97183353D01*
X138365985Y-97116314D01*
X138418789Y-97070559D01*
X138431282Y-97065652D01*
X138488134Y-97046814D01*
X138637456Y-96954712D01*
X138761512Y-96830656D01*
X138853614Y-96681334D01*
X138908799Y-96514797D01*
X138919300Y-96412009D01*
X138919299Y-95611992D01*
X138913786Y-95558027D01*
X138908799Y-95509203D01*
X138908798Y-95509200D01*
X138884808Y-95436803D01*
X138853614Y-95342666D01*
X138761512Y-95193344D01*
X138667849Y-95099681D01*
X138634364Y-95038358D01*
X138639348Y-94968666D01*
X138667849Y-94924319D01*
X138688263Y-94903905D01*
X138761512Y-94830656D01*
X138843085Y-94698403D01*
X138895033Y-94651679D01*
X138948624Y-94639500D01*
X140600719Y-94639500D01*
X140667758Y-94659185D01*
X140688400Y-94675819D01*
X145612589Y-99600008D01*
X145660770Y-99648189D01*
X145699994Y-99687413D01*
X145699996Y-99687414D01*
X145700451Y-99687718D01*
X145802767Y-99756083D01*
X145836215Y-99769937D01*
X145916965Y-99803386D01*
X146038192Y-99827499D01*
X146038196Y-99827500D01*
X146038197Y-99827500D01*
X146161803Y-99827500D01*
X152788719Y-99827500D01*
X152855758Y-99847185D01*
X152876400Y-99863819D01*
X153371781Y-100359200D01*
X153405266Y-100420523D01*
X153408100Y-100446881D01*
X153408100Y-103922973D01*
X153388415Y-103990012D01*
X153355224Y-104024548D01*
X153164194Y-104158308D01*
X152997105Y-104325397D01*
X152867175Y-104510958D01*
X152812598Y-104554583D01*
X152743100Y-104561777D01*
X152680745Y-104530254D01*
X152664025Y-104510958D01*
X152534094Y-104325397D01*
X152367002Y-104158306D01*
X152366995Y-104158301D01*
X152173434Y-104022767D01*
X152173430Y-104022765D01*
X152173428Y-104022764D01*
X151959263Y-103922897D01*
X151959259Y-103922896D01*
X151959255Y-103922894D01*
X151731013Y-103861738D01*
X151731003Y-103861736D01*
X151495601Y-103841141D01*
X151495599Y-103841141D01*
X151260196Y-103861736D01*
X151260186Y-103861738D01*
X151031944Y-103922894D01*
X151031935Y-103922898D01*
X150817771Y-104022764D01*
X150817769Y-104022765D01*
X150624200Y-104158303D01*
X150502273Y-104280230D01*
X150440950Y-104313714D01*
X150371258Y-104308730D01*
X150315325Y-104266858D01*
X150298410Y-104235881D01*
X150249397Y-104104471D01*
X150249393Y-104104464D01*
X150163147Y-103989255D01*
X150163144Y-103989252D01*
X150047935Y-103903006D01*
X150047928Y-103903002D01*
X149913082Y-103852708D01*
X149913083Y-103852708D01*
X149853483Y-103846301D01*
X149853481Y-103846300D01*
X149853473Y-103846300D01*
X149853464Y-103846300D01*
X148057729Y-103846300D01*
X148057723Y-103846301D01*
X147998116Y-103852708D01*
X147863271Y-103903002D01*
X147863264Y-103903006D01*
X147748055Y-103989252D01*
X147748052Y-103989255D01*
X147661806Y-104104464D01*
X147661802Y-104104471D01*
X147611508Y-104239317D01*
X147605101Y-104298916D01*
X147605100Y-104298935D01*
X147605100Y-106094670D01*
X147605101Y-106094676D01*
X147611508Y-106154283D01*
X147661802Y-106289128D01*
X147661806Y-106289135D01*
X147748052Y-106404344D01*
X147748055Y-106404347D01*
X147863264Y-106490593D01*
X147863271Y-106490597D01*
X147998117Y-106540891D01*
X147998116Y-106540891D01*
X148005044Y-106541635D01*
X148057727Y-106547300D01*
X149853472Y-106547299D01*
X149913083Y-106540891D01*
X150047931Y-106490596D01*
X150163146Y-106404346D01*
X150249396Y-106289131D01*
X150298410Y-106157716D01*
X150340281Y-106101784D01*
X150405745Y-106077366D01*
X150474018Y-106092217D01*
X150502273Y-106113369D01*
X150624199Y-106235295D01*
X150720984Y-106303065D01*
X150817765Y-106370832D01*
X150817767Y-106370833D01*
X150817770Y-106370835D01*
X151031937Y-106470703D01*
X151260192Y-106531863D01*
X151436634Y-106547300D01*
X151495599Y-106552459D01*
X151495600Y-106552459D01*
X151495601Y-106552459D01*
X151554566Y-106547300D01*
X151731008Y-106531863D01*
X151959263Y-106470703D01*
X152173430Y-106370835D01*
X152367001Y-106235295D01*
X152534095Y-106068201D01*
X152664025Y-105882642D01*
X152718602Y-105839017D01*
X152788100Y-105831823D01*
X152850455Y-105863346D01*
X152867175Y-105882642D01*
X152997100Y-106068195D01*
X152997105Y-106068201D01*
X153164199Y-106235295D01*
X153260984Y-106303065D01*
X153357765Y-106370832D01*
X153357767Y-106370833D01*
X153357770Y-106370835D01*
X153571937Y-106470703D01*
X153800192Y-106531863D01*
X153976634Y-106547300D01*
X154035599Y-106552459D01*
X154035600Y-106552459D01*
X154035601Y-106552459D01*
X154094566Y-106547300D01*
X154271008Y-106531863D01*
X154499263Y-106470703D01*
X154713430Y-106370835D01*
X154907001Y-106235295D01*
X155074095Y-106068201D01*
X155204025Y-105882642D01*
X155258602Y-105839017D01*
X155328100Y-105831823D01*
X155390455Y-105863346D01*
X155407175Y-105882642D01*
X155537100Y-106068195D01*
X155537105Y-106068201D01*
X155704199Y-106235295D01*
X155800984Y-106303065D01*
X155897765Y-106370832D01*
X155897767Y-106370833D01*
X155897770Y-106370835D01*
X156111937Y-106470703D01*
X156340192Y-106531863D01*
X156516634Y-106547300D01*
X156575599Y-106552459D01*
X156575600Y-106552459D01*
X156575601Y-106552459D01*
X156634566Y-106547300D01*
X156811008Y-106531863D01*
X157039263Y-106470703D01*
X157253430Y-106370835D01*
X157361734Y-106295000D01*
X162434801Y-106295000D01*
X162434801Y-106419986D01*
X162445294Y-106522697D01*
X162500441Y-106689119D01*
X162500443Y-106689124D01*
X162592484Y-106838345D01*
X162716454Y-106962315D01*
X162865675Y-107054356D01*
X162865680Y-107054358D01*
X163032102Y-107109505D01*
X163032109Y-107109506D01*
X163134819Y-107119999D01*
X163384799Y-107119999D01*
X163384800Y-107119998D01*
X163384800Y-106295000D01*
X163884800Y-106295000D01*
X163884800Y-107119999D01*
X164134772Y-107119999D01*
X164134786Y-107119998D01*
X164237497Y-107109505D01*
X164403919Y-107054358D01*
X164403924Y-107054356D01*
X164553145Y-106962315D01*
X164677115Y-106838345D01*
X164769156Y-106689124D01*
X164769158Y-106689119D01*
X164824305Y-106522697D01*
X164824306Y-106522690D01*
X164834799Y-106419986D01*
X164834800Y-106419973D01*
X164834800Y-106295000D01*
X165474801Y-106295000D01*
X165474801Y-106419986D01*
X165485294Y-106522697D01*
X165540441Y-106689119D01*
X165540443Y-106689124D01*
X165632484Y-106838345D01*
X165756454Y-106962315D01*
X165905675Y-107054356D01*
X165905680Y-107054358D01*
X166072102Y-107109505D01*
X166072109Y-107109506D01*
X166174819Y-107119999D01*
X166424799Y-107119999D01*
X166424800Y-107119998D01*
X166424800Y-106295000D01*
X166924800Y-106295000D01*
X166924800Y-107119999D01*
X167174772Y-107119999D01*
X167174786Y-107119998D01*
X167277497Y-107109505D01*
X167443919Y-107054358D01*
X167443924Y-107054356D01*
X167593145Y-106962315D01*
X167717115Y-106838345D01*
X167809156Y-106689124D01*
X167809158Y-106689119D01*
X167864305Y-106522697D01*
X167864306Y-106522690D01*
X167874799Y-106419986D01*
X167874800Y-106419973D01*
X167874800Y-106295000D01*
X166924800Y-106295000D01*
X166424800Y-106295000D01*
X165474801Y-106295000D01*
X164834800Y-106295000D01*
X163884800Y-106295000D01*
X163384800Y-106295000D01*
X162434801Y-106295000D01*
X157361734Y-106295000D01*
X157447001Y-106235295D01*
X157614095Y-106068201D01*
X157749635Y-105874630D01*
X157849503Y-105660463D01*
X157910663Y-105432208D01*
X157931259Y-105196800D01*
X157910663Y-104961392D01*
X157849503Y-104733137D01*
X157749635Y-104518971D01*
X157744025Y-104510958D01*
X157614094Y-104325397D01*
X157447002Y-104158306D01*
X157447001Y-104158305D01*
X157370108Y-104104464D01*
X157255975Y-104024547D01*
X157212352Y-103969971D01*
X157203100Y-103922973D01*
X157203100Y-100738796D01*
X157198408Y-100715210D01*
X157198408Y-100715208D01*
X157178986Y-100617565D01*
X157134012Y-100508992D01*
X157132364Y-100504386D01*
X157063014Y-100400596D01*
X157063013Y-100400594D01*
X157021619Y-100359200D01*
X156975608Y-100313189D01*
X155720742Y-99058323D01*
X154447614Y-97785194D01*
X154447607Y-97785188D01*
X154445504Y-97783783D01*
X154445504Y-97783782D01*
X154393450Y-97749002D01*
X154348644Y-97695390D01*
X154339937Y-97626065D01*
X154370091Y-97563037D01*
X154429534Y-97526317D01*
X154462338Y-97521899D01*
X154643072Y-97521899D01*
X154702683Y-97515491D01*
X154736867Y-97502740D01*
X154806558Y-97497757D01*
X154823527Y-97502738D01*
X154857717Y-97515491D01*
X154917327Y-97521900D01*
X155913072Y-97521899D01*
X155972683Y-97515491D01*
X156006867Y-97502740D01*
X156076558Y-97497757D01*
X156093527Y-97502738D01*
X156127717Y-97515491D01*
X156187327Y-97521900D01*
X157183072Y-97521899D01*
X157242683Y-97515491D01*
X157276867Y-97502740D01*
X157346558Y-97497757D01*
X157363527Y-97502738D01*
X157397717Y-97515491D01*
X157457327Y-97521900D01*
X158453072Y-97521899D01*
X158512683Y-97515491D01*
X158546867Y-97502740D01*
X158616558Y-97497757D01*
X158633527Y-97502738D01*
X158667717Y-97515491D01*
X158727327Y-97521900D01*
X159723072Y-97521899D01*
X159782683Y-97515491D01*
X159917531Y-97465196D01*
X159917804Y-97464991D01*
X159952210Y-97439236D01*
X160017674Y-97414818D01*
X160085947Y-97429669D01*
X160114202Y-97450821D01*
X160878789Y-98215408D01*
X160954410Y-98291029D01*
X160966194Y-98302813D01*
X160966196Y-98302814D01*
X161068956Y-98371476D01*
X161068958Y-98371477D01*
X161068967Y-98371483D01*
X161093972Y-98381840D01*
X161116271Y-98391077D01*
X161158454Y-98408549D01*
X161183166Y-98418786D01*
X161304392Y-98442899D01*
X161304396Y-98442900D01*
X161304397Y-98442900D01*
X161597319Y-98442900D01*
X161664358Y-98462585D01*
X161685000Y-98479219D01*
X162202781Y-98997000D01*
X162236266Y-99058323D01*
X162239100Y-99084681D01*
X162239100Y-99746401D01*
X162239101Y-99746419D01*
X162249600Y-99849196D01*
X162249601Y-99849199D01*
X162304785Y-100015731D01*
X162304787Y-100015736D01*
X162396889Y-100165057D01*
X162490551Y-100258719D01*
X162524036Y-100320042D01*
X162519052Y-100389734D01*
X162490551Y-100434081D01*
X162396889Y-100527742D01*
X162304787Y-100677063D01*
X162304785Y-100677068D01*
X162287952Y-100727868D01*
X162249601Y-100843603D01*
X162249601Y-100843604D01*
X162249600Y-100843604D01*
X162239100Y-100946383D01*
X162239100Y-101746401D01*
X162239101Y-101746419D01*
X162249600Y-101849196D01*
X162249601Y-101849199D01*
X162304785Y-102015731D01*
X162304787Y-102015736D01*
X162336121Y-102066536D01*
X162396888Y-102165056D01*
X162520944Y-102289112D01*
X162670266Y-102381214D01*
X162727105Y-102400048D01*
X162784548Y-102439818D01*
X162811372Y-102504334D01*
X162812100Y-102517753D01*
X162812100Y-102948894D01*
X162792415Y-103015933D01*
X162753199Y-103054432D01*
X162716142Y-103077289D01*
X162592089Y-103201342D01*
X162499987Y-103350663D01*
X162499986Y-103350666D01*
X162444801Y-103517203D01*
X162444801Y-103517204D01*
X162444800Y-103517204D01*
X162434300Y-103619983D01*
X162434300Y-104370001D01*
X162434301Y-104370019D01*
X162444800Y-104472796D01*
X162444801Y-104472799D01*
X162471902Y-104554583D01*
X162499986Y-104639334D01*
X162592088Y-104788656D01*
X162716144Y-104912712D01*
X162719428Y-104914737D01*
X162719453Y-104914753D01*
X162721245Y-104916746D01*
X162721811Y-104917193D01*
X162721734Y-104917289D01*
X162766179Y-104966699D01*
X162777403Y-105035661D01*
X162749561Y-105099744D01*
X162719465Y-105125826D01*
X162716460Y-105127679D01*
X162716455Y-105127683D01*
X162592484Y-105251654D01*
X162500443Y-105400875D01*
X162500441Y-105400880D01*
X162445294Y-105567302D01*
X162445293Y-105567309D01*
X162434800Y-105670013D01*
X162434800Y-105795000D01*
X164834799Y-105795000D01*
X164834799Y-105670028D01*
X164834798Y-105670013D01*
X164824305Y-105567302D01*
X164769158Y-105400880D01*
X164769156Y-105400875D01*
X164677115Y-105251654D01*
X164553144Y-105127683D01*
X164553141Y-105127681D01*
X164550139Y-105125829D01*
X164548513Y-105124021D01*
X164547477Y-105123202D01*
X164547617Y-105123024D01*
X164503417Y-105073880D01*
X164492197Y-105004917D01*
X164520043Y-104940836D01*
X164550144Y-104914754D01*
X164553456Y-104912712D01*
X164677512Y-104788656D01*
X164769614Y-104639334D01*
X164824799Y-104472797D01*
X164835300Y-104370009D01*
X164835299Y-103619992D01*
X164824799Y-103517203D01*
X164769614Y-103350666D01*
X164677512Y-103201344D01*
X164553456Y-103077288D01*
X164404134Y-102985186D01*
X164237597Y-102930001D01*
X164237594Y-102930000D01*
X164178497Y-102923963D01*
X164113805Y-102897567D01*
X164073654Y-102840386D01*
X164067100Y-102800605D01*
X164067100Y-102517753D01*
X164086785Y-102450714D01*
X164139589Y-102404959D01*
X164152082Y-102400052D01*
X164208934Y-102381214D01*
X164358256Y-102289112D01*
X164482312Y-102165056D01*
X164574414Y-102015734D01*
X164629599Y-101849197D01*
X164640100Y-101746409D01*
X164640099Y-100946392D01*
X164629599Y-100843603D01*
X164574414Y-100677066D01*
X164482312Y-100527744D01*
X164388649Y-100434081D01*
X164355164Y-100372758D01*
X164360148Y-100303066D01*
X164388649Y-100258719D01*
X164431512Y-100215856D01*
X164482312Y-100165056D01*
X164574414Y-100015734D01*
X164629599Y-99849197D01*
X164640100Y-99746409D01*
X164640099Y-98946392D01*
X164638927Y-98934923D01*
X164629599Y-98843603D01*
X164629598Y-98843600D01*
X164591246Y-98727863D01*
X164574414Y-98677066D01*
X164482312Y-98527744D01*
X164358256Y-98403688D01*
X164208934Y-98311586D01*
X164042397Y-98256401D01*
X164042395Y-98256400D01*
X163939616Y-98245900D01*
X163939609Y-98245900D01*
X163277881Y-98245900D01*
X163210842Y-98226215D01*
X163190200Y-98209581D01*
X162308611Y-97327991D01*
X162308610Y-97327990D01*
X162290133Y-97315645D01*
X162235202Y-97278941D01*
X162235200Y-97278940D01*
X162235200Y-97278939D01*
X162205830Y-97259315D01*
X162205828Y-97259314D01*
X162164517Y-97242203D01*
X162091635Y-97212014D01*
X162091627Y-97212012D01*
X161970407Y-97187900D01*
X161970403Y-97187900D01*
X161677481Y-97187900D01*
X161610442Y-97168215D01*
X161589800Y-97151581D01*
X160222211Y-95783991D01*
X160221035Y-95783026D01*
X160220584Y-95782364D01*
X160217901Y-95779681D01*
X160218409Y-95779172D01*
X160181700Y-95725280D01*
X160175699Y-95687172D01*
X160175699Y-95473529D01*
X160175698Y-95473523D01*
X160171751Y-95436807D01*
X160169291Y-95413917D01*
X160152190Y-95368068D01*
X160118997Y-95279071D01*
X160118993Y-95279064D01*
X160032747Y-95163855D01*
X160032744Y-95163852D01*
X159917535Y-95077606D01*
X159917528Y-95077602D01*
X159782682Y-95027308D01*
X159782683Y-95027308D01*
X159723083Y-95020901D01*
X159723081Y-95020900D01*
X159723073Y-95020900D01*
X159723064Y-95020900D01*
X158727329Y-95020900D01*
X158727323Y-95020901D01*
X158667718Y-95027308D01*
X158633531Y-95040059D01*
X158563839Y-95045042D01*
X158546869Y-95040059D01*
X158529340Y-95033521D01*
X158512683Y-95027309D01*
X158512682Y-95027308D01*
X158453083Y-95020901D01*
X158453081Y-95020900D01*
X158453073Y-95020900D01*
X158453064Y-95020900D01*
X157457329Y-95020900D01*
X157457323Y-95020901D01*
X157397718Y-95027308D01*
X157363531Y-95040059D01*
X157293839Y-95045042D01*
X157276869Y-95040059D01*
X157259340Y-95033521D01*
X157242683Y-95027309D01*
X157242682Y-95027308D01*
X157183083Y-95020901D01*
X157183081Y-95020900D01*
X157183073Y-95020900D01*
X157183064Y-95020900D01*
X156187329Y-95020900D01*
X156187323Y-95020901D01*
X156127718Y-95027308D01*
X156093531Y-95040059D01*
X156023839Y-95045042D01*
X156006869Y-95040059D01*
X155989340Y-95033521D01*
X155972683Y-95027309D01*
X155972682Y-95027308D01*
X155913083Y-95020901D01*
X155913081Y-95020900D01*
X155913073Y-95020900D01*
X155913064Y-95020900D01*
X154917329Y-95020900D01*
X154917323Y-95020901D01*
X154857718Y-95027308D01*
X154823531Y-95040059D01*
X154753839Y-95045042D01*
X154736869Y-95040059D01*
X154719340Y-95033521D01*
X154702683Y-95027309D01*
X154702682Y-95027308D01*
X154643083Y-95020901D01*
X154643081Y-95020900D01*
X154643073Y-95020900D01*
X154643064Y-95020900D01*
X153647329Y-95020900D01*
X153647323Y-95020901D01*
X153587718Y-95027308D01*
X153553531Y-95040059D01*
X153483839Y-95045042D01*
X153466869Y-95040059D01*
X153449340Y-95033521D01*
X153432683Y-95027309D01*
X153432682Y-95027308D01*
X153373083Y-95020901D01*
X153373081Y-95020900D01*
X153373073Y-95020900D01*
X153373064Y-95020900D01*
X152377329Y-95020900D01*
X152377323Y-95020901D01*
X152317718Y-95027308D01*
X152283531Y-95040059D01*
X152213839Y-95045042D01*
X152196869Y-95040059D01*
X152179340Y-95033521D01*
X152162683Y-95027309D01*
X152162682Y-95027308D01*
X152103083Y-95020901D01*
X152103081Y-95020900D01*
X152103073Y-95020900D01*
X152103064Y-95020900D01*
X151107329Y-95020900D01*
X151107323Y-95020901D01*
X151047718Y-95027308D01*
X151013531Y-95040059D01*
X150943839Y-95045042D01*
X150926869Y-95040059D01*
X150909340Y-95033521D01*
X150892683Y-95027309D01*
X150892682Y-95027308D01*
X150833083Y-95020901D01*
X150833081Y-95020900D01*
X150833073Y-95020900D01*
X150833064Y-95020900D01*
X149837329Y-95020900D01*
X149837323Y-95020901D01*
X149777718Y-95027308D01*
X149743531Y-95040059D01*
X149673839Y-95045042D01*
X149656869Y-95040059D01*
X149639340Y-95033521D01*
X149622683Y-95027309D01*
X149622682Y-95027308D01*
X149563083Y-95020901D01*
X149563081Y-95020900D01*
X149563073Y-95020900D01*
X149563064Y-95020900D01*
X148567329Y-95020900D01*
X148567323Y-95020901D01*
X148507720Y-95027308D01*
X148507717Y-95027308D01*
X148507717Y-95027309D01*
X148472820Y-95040325D01*
X148472817Y-95040326D01*
X148403125Y-95045309D01*
X148386152Y-95040325D01*
X148352579Y-95027803D01*
X148352572Y-95027801D01*
X148293044Y-95021400D01*
X148045200Y-95021400D01*
X148045200Y-96397400D01*
X148025515Y-96464439D01*
X147972711Y-96510194D01*
X147921200Y-96521400D01*
X146845200Y-96521400D01*
X146845200Y-97069244D01*
X146851601Y-97128772D01*
X146851603Y-97128779D01*
X146901845Y-97263486D01*
X146901849Y-97263493D01*
X146988009Y-97378587D01*
X146988012Y-97378590D01*
X147045778Y-97421834D01*
X147087649Y-97477767D01*
X147092633Y-97547459D01*
X147059147Y-97608782D01*
X146997824Y-97642266D01*
X146971467Y-97645100D01*
X146412081Y-97645100D01*
X146345042Y-97625415D01*
X146324400Y-97608781D01*
X144899199Y-96183580D01*
X144865714Y-96122257D01*
X144870698Y-96052565D01*
X144894028Y-96021400D01*
X146845200Y-96021400D01*
X147545200Y-96021400D01*
X147545200Y-95021400D01*
X147297355Y-95021400D01*
X147237827Y-95027801D01*
X147237820Y-95027803D01*
X147103113Y-95078045D01*
X147103106Y-95078049D01*
X146988012Y-95164209D01*
X146988009Y-95164212D01*
X146901849Y-95279306D01*
X146901845Y-95279313D01*
X146851603Y-95414020D01*
X146851601Y-95414027D01*
X146845200Y-95473555D01*
X146845200Y-96021400D01*
X144894028Y-96021400D01*
X144912570Y-95996632D01*
X144978034Y-95972215D01*
X144986880Y-95971899D01*
X145553071Y-95971899D01*
X145553072Y-95971899D01*
X145612683Y-95965491D01*
X145747531Y-95915196D01*
X145862746Y-95828946D01*
X145948996Y-95713731D01*
X145999291Y-95578883D01*
X146005700Y-95519273D01*
X146005699Y-94523528D01*
X145999291Y-94463917D01*
X145986540Y-94429732D01*
X145981557Y-94360042D01*
X145986540Y-94343069D01*
X145999291Y-94308883D01*
X146005700Y-94249273D01*
X146005699Y-93253528D01*
X145999291Y-93193917D01*
X145986540Y-93159732D01*
X145981557Y-93090042D01*
X145986540Y-93073069D01*
X145999291Y-93038883D01*
X146005700Y-92979273D01*
X146005699Y-91983528D01*
X145999291Y-91923917D01*
X145986540Y-91889732D01*
X145981557Y-91820042D01*
X145986540Y-91803069D01*
X145999291Y-91768883D01*
X146005700Y-91709273D01*
X146005699Y-90713528D01*
X145999291Y-90653917D01*
X145986540Y-90619732D01*
X145981557Y-90550042D01*
X145986540Y-90533069D01*
X145999291Y-90498883D01*
X146005700Y-90439273D01*
X146005699Y-89443528D01*
X145999291Y-89383917D01*
X145986540Y-89349732D01*
X145981557Y-89280042D01*
X145986540Y-89263069D01*
X145999291Y-89228883D01*
X146005700Y-89169273D01*
X146005699Y-88173528D01*
X145999291Y-88113917D01*
X145986540Y-88079732D01*
X145981557Y-88010042D01*
X145986540Y-87993069D01*
X145999291Y-87958883D01*
X146005700Y-87899273D01*
X146005699Y-86903528D01*
X145999291Y-86843917D01*
X145986540Y-86809732D01*
X145981557Y-86740042D01*
X145986540Y-86723069D01*
X145999291Y-86688883D01*
X146005700Y-86629273D01*
X146005699Y-86101400D01*
X150225200Y-86101400D01*
X150225200Y-87999244D01*
X150231601Y-88058772D01*
X150231603Y-88058779D01*
X150281845Y-88193486D01*
X150281849Y-88193493D01*
X150368009Y-88308587D01*
X150368012Y-88308590D01*
X150483106Y-88394750D01*
X150483113Y-88394754D01*
X150617820Y-88444996D01*
X150617827Y-88444998D01*
X150677355Y-88451399D01*
X150677372Y-88451400D01*
X152575200Y-88451400D01*
X153075200Y-88451400D01*
X154973028Y-88451400D01*
X154973044Y-88451399D01*
X155032572Y-88444998D01*
X155032579Y-88444996D01*
X155167286Y-88394754D01*
X155167293Y-88394750D01*
X155282387Y-88308590D01*
X155282390Y-88308587D01*
X155368550Y-88193493D01*
X155368554Y-88193486D01*
X155418796Y-88058779D01*
X155418798Y-88058772D01*
X155425199Y-87999244D01*
X155425200Y-87999227D01*
X155425200Y-86101400D01*
X154600200Y-86101400D01*
X154600200Y-86510347D01*
X154616072Y-86526219D01*
X154649557Y-86587542D01*
X154644573Y-86657234D01*
X154616072Y-86701581D01*
X154600200Y-86717452D01*
X154600200Y-87502400D01*
X154580515Y-87569439D01*
X154527711Y-87615194D01*
X154476200Y-87626400D01*
X153691252Y-87626400D01*
X153675381Y-87642272D01*
X153614058Y-87675757D01*
X153544366Y-87670773D01*
X153500019Y-87642272D01*
X153484147Y-87626400D01*
X153075200Y-87626400D01*
X153075200Y-88451400D01*
X152575200Y-88451400D01*
X152575200Y-87626400D01*
X152166252Y-87626400D01*
X152150381Y-87642272D01*
X152089058Y-87675757D01*
X152019366Y-87670773D01*
X151975019Y-87642272D01*
X151959147Y-87626400D01*
X151174200Y-87626400D01*
X151107161Y-87606715D01*
X151061406Y-87553911D01*
X151050200Y-87502400D01*
X151050200Y-87396291D01*
X151962700Y-87396291D01*
X151977924Y-87433045D01*
X152006055Y-87461176D01*
X152042809Y-87476400D01*
X152082591Y-87476400D01*
X152119345Y-87461176D01*
X152147476Y-87433045D01*
X152162700Y-87396291D01*
X153487700Y-87396291D01*
X153502924Y-87433045D01*
X153531055Y-87461176D01*
X153567809Y-87476400D01*
X153607591Y-87476400D01*
X153644345Y-87461176D01*
X153672476Y-87433045D01*
X153687700Y-87396291D01*
X153687700Y-87356509D01*
X153672476Y-87319755D01*
X153644345Y-87291624D01*
X153607591Y-87276400D01*
X153567809Y-87276400D01*
X153531055Y-87291624D01*
X153502924Y-87319755D01*
X153487700Y-87356509D01*
X153487700Y-87396291D01*
X152162700Y-87396291D01*
X152162700Y-87356509D01*
X152147476Y-87319755D01*
X152119345Y-87291624D01*
X152082591Y-87276400D01*
X152042809Y-87276400D01*
X152006055Y-87291624D01*
X151977924Y-87319755D01*
X151962700Y-87356509D01*
X151962700Y-87396291D01*
X151050200Y-87396291D01*
X151050200Y-86717453D01*
X151034328Y-86701581D01*
X151000843Y-86640258D01*
X151001305Y-86633791D01*
X151200200Y-86633791D01*
X151215424Y-86670545D01*
X151243555Y-86698676D01*
X151280309Y-86713900D01*
X151320091Y-86713900D01*
X151356845Y-86698676D01*
X151384976Y-86670545D01*
X151400200Y-86633791D01*
X151400200Y-86613899D01*
X151653753Y-86613899D01*
X152062700Y-87022846D01*
X152451755Y-86633791D01*
X152725200Y-86633791D01*
X152740424Y-86670545D01*
X152768555Y-86698676D01*
X152805309Y-86713900D01*
X152845091Y-86713900D01*
X152881845Y-86698676D01*
X152909976Y-86670545D01*
X152925200Y-86633791D01*
X152925200Y-86613899D01*
X153178753Y-86613899D01*
X153587700Y-87022846D01*
X153976755Y-86633791D01*
X154250200Y-86633791D01*
X154265424Y-86670545D01*
X154293555Y-86698676D01*
X154330309Y-86713900D01*
X154370091Y-86713900D01*
X154406845Y-86698676D01*
X154434976Y-86670545D01*
X154450200Y-86633791D01*
X154450200Y-86594009D01*
X154434976Y-86557255D01*
X154406845Y-86529124D01*
X154370091Y-86513900D01*
X154330309Y-86513900D01*
X154293555Y-86529124D01*
X154265424Y-86557255D01*
X154250200Y-86594009D01*
X154250200Y-86633791D01*
X153976755Y-86633791D01*
X153996646Y-86613900D01*
X153643092Y-86260346D01*
X153587700Y-86204953D01*
X153532308Y-86260346D01*
X153532307Y-86260347D01*
X153178753Y-86613899D01*
X152925200Y-86613899D01*
X152925200Y-86594009D01*
X152909976Y-86557255D01*
X152881845Y-86529124D01*
X152845091Y-86513900D01*
X152805309Y-86513900D01*
X152768555Y-86529124D01*
X152740424Y-86557255D01*
X152725200Y-86594009D01*
X152725200Y-86633791D01*
X152451755Y-86633791D01*
X152471646Y-86613900D01*
X152118092Y-86260346D01*
X152062700Y-86204953D01*
X152007308Y-86260346D01*
X152007307Y-86260347D01*
X151653753Y-86613899D01*
X151400200Y-86613899D01*
X151400200Y-86594009D01*
X151384976Y-86557255D01*
X151356845Y-86529124D01*
X151320091Y-86513900D01*
X151280309Y-86513900D01*
X151243555Y-86529124D01*
X151215424Y-86557255D01*
X151200200Y-86594009D01*
X151200200Y-86633791D01*
X151001305Y-86633791D01*
X151005827Y-86570566D01*
X151034328Y-86526219D01*
X151050199Y-86510347D01*
X151050200Y-86510346D01*
X151050200Y-86101400D01*
X150225200Y-86101400D01*
X146005699Y-86101400D01*
X146005699Y-85871291D01*
X151962700Y-85871291D01*
X151977924Y-85908045D01*
X152006055Y-85936176D01*
X152042809Y-85951400D01*
X152082591Y-85951400D01*
X152119345Y-85936176D01*
X152147476Y-85908045D01*
X152162700Y-85871291D01*
X153487700Y-85871291D01*
X153502924Y-85908045D01*
X153531055Y-85936176D01*
X153567809Y-85951400D01*
X153607591Y-85951400D01*
X153644345Y-85936176D01*
X153672476Y-85908045D01*
X153687700Y-85871291D01*
X153687700Y-85831509D01*
X153672476Y-85794755D01*
X153644345Y-85766624D01*
X153607591Y-85751400D01*
X153567809Y-85751400D01*
X153531055Y-85766624D01*
X153502924Y-85794755D01*
X153487700Y-85831509D01*
X153487700Y-85871291D01*
X152162700Y-85871291D01*
X152162700Y-85831509D01*
X152147476Y-85794755D01*
X152119345Y-85766624D01*
X152082591Y-85751400D01*
X152042809Y-85751400D01*
X152006055Y-85766624D01*
X151977924Y-85794755D01*
X151962700Y-85831509D01*
X151962700Y-85871291D01*
X146005699Y-85871291D01*
X146005699Y-85633528D01*
X146002245Y-85601400D01*
X150225200Y-85601400D01*
X151050200Y-85601400D01*
X151050200Y-85192453D01*
X151034328Y-85176581D01*
X151000843Y-85115258D01*
X151001305Y-85108791D01*
X151200200Y-85108791D01*
X151215424Y-85145545D01*
X151243555Y-85173676D01*
X151280309Y-85188900D01*
X151320091Y-85188900D01*
X151356845Y-85173676D01*
X151384976Y-85145545D01*
X151400200Y-85108791D01*
X151400200Y-85088899D01*
X151653753Y-85088899D01*
X152062700Y-85497846D01*
X152451755Y-85108791D01*
X152725200Y-85108791D01*
X152740424Y-85145545D01*
X152768555Y-85173676D01*
X152805309Y-85188900D01*
X152845091Y-85188900D01*
X152881845Y-85173676D01*
X152909976Y-85145545D01*
X152925200Y-85108791D01*
X152925200Y-85088899D01*
X153178753Y-85088899D01*
X153587700Y-85497846D01*
X153976755Y-85108791D01*
X154250200Y-85108791D01*
X154265424Y-85145545D01*
X154293555Y-85173676D01*
X154330309Y-85188900D01*
X154370091Y-85188900D01*
X154406845Y-85173676D01*
X154434976Y-85145545D01*
X154450200Y-85108791D01*
X154450200Y-85069009D01*
X154434976Y-85032255D01*
X154406845Y-85004124D01*
X154370091Y-84988900D01*
X154330309Y-84988900D01*
X154293555Y-85004124D01*
X154265424Y-85032255D01*
X154250200Y-85069009D01*
X154250200Y-85108791D01*
X153976755Y-85108791D01*
X153996646Y-85088900D01*
X153623466Y-84715720D01*
X153587700Y-84679953D01*
X153551934Y-84715720D01*
X153551933Y-84715721D01*
X153178753Y-85088899D01*
X152925200Y-85088899D01*
X152925200Y-85069009D01*
X152909976Y-85032255D01*
X152881845Y-85004124D01*
X152845091Y-84988900D01*
X152805309Y-84988900D01*
X152768555Y-85004124D01*
X152740424Y-85032255D01*
X152725200Y-85069009D01*
X152725200Y-85108791D01*
X152451755Y-85108791D01*
X152471646Y-85088900D01*
X152098466Y-84715720D01*
X152062700Y-84679953D01*
X152026934Y-84715720D01*
X152026933Y-84715721D01*
X151653753Y-85088899D01*
X151400200Y-85088899D01*
X151400200Y-85069009D01*
X151384976Y-85032255D01*
X151356845Y-85004124D01*
X151320091Y-84988900D01*
X151280309Y-84988900D01*
X151243555Y-85004124D01*
X151215424Y-85032255D01*
X151200200Y-85069009D01*
X151200200Y-85108791D01*
X151001305Y-85108791D01*
X151005827Y-85045566D01*
X151034328Y-85001219D01*
X151050199Y-84985347D01*
X151050200Y-84985346D01*
X151050200Y-84346291D01*
X151962700Y-84346291D01*
X151977924Y-84383045D01*
X152006055Y-84411176D01*
X152042809Y-84426400D01*
X152082591Y-84426400D01*
X152119345Y-84411176D01*
X152147476Y-84383045D01*
X152162700Y-84346291D01*
X153487700Y-84346291D01*
X153502924Y-84383045D01*
X153531055Y-84411176D01*
X153567809Y-84426400D01*
X153607591Y-84426400D01*
X153644345Y-84411176D01*
X153672476Y-84383045D01*
X153687700Y-84346291D01*
X153687700Y-84306509D01*
X153672476Y-84269755D01*
X153644345Y-84241624D01*
X153607591Y-84226400D01*
X153567809Y-84226400D01*
X153531055Y-84241624D01*
X153502924Y-84269755D01*
X153487700Y-84306509D01*
X153487700Y-84346291D01*
X152162700Y-84346291D01*
X152162700Y-84306509D01*
X152147476Y-84269755D01*
X152119345Y-84241624D01*
X152082591Y-84226400D01*
X152042809Y-84226400D01*
X152006055Y-84241624D01*
X151977924Y-84269755D01*
X151962700Y-84306509D01*
X151962700Y-84346291D01*
X151050200Y-84346291D01*
X151050200Y-84200400D01*
X151069885Y-84133361D01*
X151122689Y-84087606D01*
X151174200Y-84076400D01*
X151959147Y-84076400D01*
X151959147Y-84076399D01*
X151975019Y-84060528D01*
X152036342Y-84027043D01*
X152106034Y-84032027D01*
X152150381Y-84060528D01*
X152166253Y-84076400D01*
X152575200Y-84076400D01*
X152575200Y-83251400D01*
X153075200Y-83251400D01*
X153075200Y-84076400D01*
X153484147Y-84076400D01*
X153484147Y-84076399D01*
X153500019Y-84060528D01*
X153561342Y-84027043D01*
X153631034Y-84032027D01*
X153675381Y-84060528D01*
X153691253Y-84076400D01*
X154476200Y-84076400D01*
X154543239Y-84096085D01*
X154588994Y-84148889D01*
X154600200Y-84200400D01*
X154600200Y-84985347D01*
X154616072Y-85001219D01*
X154649557Y-85062542D01*
X154644573Y-85132234D01*
X154616072Y-85176581D01*
X154600200Y-85192452D01*
X154600200Y-85601400D01*
X155425200Y-85601400D01*
X155425200Y-83703572D01*
X155425199Y-83703555D01*
X155421333Y-83667600D01*
X159286044Y-83667600D01*
X159305413Y-83851886D01*
X159305414Y-83851888D01*
X159362674Y-84028114D01*
X159435743Y-84154674D01*
X159455323Y-84188587D01*
X159478399Y-84214215D01*
X159579306Y-84326286D01*
X159579309Y-84326288D01*
X159579312Y-84326291D01*
X159658259Y-84383649D01*
X159729222Y-84435207D01*
X159898495Y-84510573D01*
X159898498Y-84510573D01*
X159898501Y-84510575D01*
X160079751Y-84549100D01*
X160265049Y-84549100D01*
X160446299Y-84510575D01*
X160446302Y-84510573D01*
X160446304Y-84510573D01*
X160503322Y-84485186D01*
X160615578Y-84435207D01*
X160765488Y-84326291D01*
X160788551Y-84300676D01*
X160848035Y-84264029D01*
X160917892Y-84265358D01*
X160975941Y-84304243D01*
X161003751Y-84368340D01*
X161004700Y-84383649D01*
X161004700Y-85359270D01*
X161004701Y-85359276D01*
X161011108Y-85418881D01*
X161023859Y-85453069D01*
X161028842Y-85522761D01*
X161023859Y-85539731D01*
X161011108Y-85573918D01*
X161008154Y-85601400D01*
X161004701Y-85633523D01*
X161004700Y-85633535D01*
X161004700Y-86629270D01*
X161004701Y-86629276D01*
X161011108Y-86688881D01*
X161023859Y-86723069D01*
X161028842Y-86792761D01*
X161023859Y-86809731D01*
X161011108Y-86843918D01*
X161004701Y-86903516D01*
X161004701Y-86903523D01*
X161004700Y-86903535D01*
X161004700Y-87899270D01*
X161004701Y-87899276D01*
X161011108Y-87958881D01*
X161023859Y-87993069D01*
X161028842Y-88062761D01*
X161023859Y-88079731D01*
X161011108Y-88113918D01*
X161005212Y-88168767D01*
X161004701Y-88173523D01*
X161004700Y-88173535D01*
X161004700Y-89169270D01*
X161004701Y-89169276D01*
X161011108Y-89228881D01*
X161023859Y-89263069D01*
X161028842Y-89332761D01*
X161023859Y-89349731D01*
X161011108Y-89383918D01*
X161004701Y-89443516D01*
X161004701Y-89443523D01*
X161004700Y-89443535D01*
X161004700Y-90439270D01*
X161004701Y-90439276D01*
X161011108Y-90498881D01*
X161023859Y-90533069D01*
X161028842Y-90602761D01*
X161023859Y-90619731D01*
X161011108Y-90653918D01*
X161007543Y-90687081D01*
X161004701Y-90713523D01*
X161004700Y-90713535D01*
X161004700Y-91709270D01*
X161004701Y-91709276D01*
X161011108Y-91768881D01*
X161023859Y-91803069D01*
X161028842Y-91872761D01*
X161023859Y-91889731D01*
X161011108Y-91923918D01*
X161008154Y-91951400D01*
X161004701Y-91983523D01*
X161004700Y-91983535D01*
X161004700Y-92979270D01*
X161004701Y-92979276D01*
X161011108Y-93038881D01*
X161023859Y-93073069D01*
X161028842Y-93142761D01*
X161023859Y-93159731D01*
X161011108Y-93193918D01*
X161004701Y-93253516D01*
X161004701Y-93253523D01*
X161004700Y-93253535D01*
X161004700Y-94249270D01*
X161004701Y-94249276D01*
X161011108Y-94308881D01*
X161023859Y-94343069D01*
X161028842Y-94412761D01*
X161023859Y-94429731D01*
X161011108Y-94463918D01*
X161006626Y-94505612D01*
X161004701Y-94523523D01*
X161004700Y-94523535D01*
X161004700Y-95519270D01*
X161004701Y-95519276D01*
X161011108Y-95578883D01*
X161061402Y-95713728D01*
X161061406Y-95713735D01*
X161147652Y-95828944D01*
X161147655Y-95828947D01*
X161262864Y-95915193D01*
X161262871Y-95915197D01*
X161397717Y-95965491D01*
X161397716Y-95965491D01*
X161404644Y-95966235D01*
X161457327Y-95971900D01*
X163053072Y-95971899D01*
X163112683Y-95965491D01*
X163247531Y-95915196D01*
X163362746Y-95828946D01*
X163395931Y-95784615D01*
X163451863Y-95742745D01*
X163521555Y-95737761D01*
X163582878Y-95771245D01*
X163587346Y-95775954D01*
X163592512Y-95781691D01*
X163704978Y-95863402D01*
X163742422Y-95890607D01*
X163911695Y-95965973D01*
X163911698Y-95965973D01*
X163911701Y-95965975D01*
X164092951Y-96004500D01*
X164278249Y-96004500D01*
X164459499Y-95965975D01*
X164459502Y-95965973D01*
X164459504Y-95965973D01*
X164516522Y-95940586D01*
X164628778Y-95890607D01*
X164778688Y-95781691D01*
X164780957Y-95779172D01*
X164813755Y-95742745D01*
X164902677Y-95643987D01*
X164995326Y-95483513D01*
X165052587Y-95307284D01*
X165071956Y-95123000D01*
X165063313Y-95040774D01*
X165075882Y-94972048D01*
X165123614Y-94921023D01*
X165191354Y-94903905D01*
X165257595Y-94926127D01*
X165274315Y-94940134D01*
X165874581Y-95540400D01*
X165908066Y-95601723D01*
X165910900Y-95628081D01*
X165910900Y-98225845D01*
X165891215Y-98292884D01*
X165838411Y-98338639D01*
X165825905Y-98343550D01*
X165769070Y-98362383D01*
X165769069Y-98362384D01*
X165619742Y-98454489D01*
X165495689Y-98578542D01*
X165403587Y-98727863D01*
X165403586Y-98727866D01*
X165348401Y-98894403D01*
X165348401Y-98894404D01*
X165348400Y-98894404D01*
X165337900Y-98997183D01*
X165337900Y-99797201D01*
X165337901Y-99797219D01*
X165348400Y-99899996D01*
X165348401Y-99899999D01*
X165386753Y-100015736D01*
X165403586Y-100066534D01*
X165464354Y-100165056D01*
X165495689Y-100215857D01*
X165589351Y-100309519D01*
X165622836Y-100370842D01*
X165617852Y-100440534D01*
X165589351Y-100484881D01*
X165495689Y-100578542D01*
X165403587Y-100727863D01*
X165403586Y-100727866D01*
X165348401Y-100894403D01*
X165348401Y-100894404D01*
X165348400Y-100894404D01*
X165337900Y-100997183D01*
X165337900Y-101797201D01*
X165337901Y-101797219D01*
X165348400Y-101899996D01*
X165348401Y-101899999D01*
X165386753Y-102015736D01*
X165403586Y-102066534D01*
X165495688Y-102215856D01*
X165619744Y-102339912D01*
X165769066Y-102432014D01*
X165825905Y-102450848D01*
X165883348Y-102490618D01*
X165910172Y-102555134D01*
X165910900Y-102568553D01*
X165910900Y-102912627D01*
X165891215Y-102979666D01*
X165851997Y-103018166D01*
X165756142Y-103077289D01*
X165632089Y-103201342D01*
X165539987Y-103350663D01*
X165539986Y-103350666D01*
X165484801Y-103517203D01*
X165484801Y-103517204D01*
X165484800Y-103517204D01*
X165474300Y-103619983D01*
X165474300Y-104370001D01*
X165474301Y-104370019D01*
X165484800Y-104472796D01*
X165484801Y-104472799D01*
X165511902Y-104554583D01*
X165539986Y-104639334D01*
X165632088Y-104788656D01*
X165756144Y-104912712D01*
X165759428Y-104914737D01*
X165759453Y-104914753D01*
X165761245Y-104916746D01*
X165761811Y-104917193D01*
X165761734Y-104917289D01*
X165806179Y-104966699D01*
X165817403Y-105035661D01*
X165789561Y-105099744D01*
X165759465Y-105125826D01*
X165756460Y-105127679D01*
X165756455Y-105127683D01*
X165632484Y-105251654D01*
X165540443Y-105400875D01*
X165540441Y-105400880D01*
X165485294Y-105567302D01*
X165485293Y-105567309D01*
X165474800Y-105670013D01*
X165474800Y-105795000D01*
X167874799Y-105795000D01*
X167874799Y-105670028D01*
X167874798Y-105670013D01*
X167864305Y-105567302D01*
X167809158Y-105400880D01*
X167809156Y-105400875D01*
X167717115Y-105251654D01*
X167593144Y-105127683D01*
X167593141Y-105127681D01*
X167590139Y-105125829D01*
X167588513Y-105124021D01*
X167587477Y-105123202D01*
X167587617Y-105123024D01*
X167543417Y-105073880D01*
X167532197Y-105004917D01*
X167560043Y-104940836D01*
X167590144Y-104914754D01*
X167593456Y-104912712D01*
X167717512Y-104788656D01*
X167809614Y-104639334D01*
X167864799Y-104472797D01*
X167875300Y-104370009D01*
X167875299Y-103619992D01*
X167864799Y-103517203D01*
X167809614Y-103350666D01*
X167717512Y-103201344D01*
X167593456Y-103077288D01*
X167444134Y-102985186D01*
X167277597Y-102930001D01*
X167277593Y-102930000D01*
X167277588Y-102929999D01*
X167277291Y-102929969D01*
X167277119Y-102929899D01*
X167270973Y-102928583D01*
X167271207Y-102927486D01*
X167212600Y-102903570D01*
X167172452Y-102846387D01*
X167165900Y-102806612D01*
X167165900Y-102568553D01*
X167185585Y-102501514D01*
X167238389Y-102455759D01*
X167250882Y-102450852D01*
X167307734Y-102432014D01*
X167457056Y-102339912D01*
X167581112Y-102215856D01*
X167673214Y-102066534D01*
X167728399Y-101899997D01*
X167738900Y-101797209D01*
X167738899Y-100997192D01*
X167735343Y-100962385D01*
X167728399Y-100894403D01*
X167728398Y-100894400D01*
X167711566Y-100843604D01*
X167673214Y-100727866D01*
X167581112Y-100578544D01*
X167487449Y-100484881D01*
X167453964Y-100423558D01*
X167458948Y-100353866D01*
X167487449Y-100309519D01*
X167526598Y-100270370D01*
X167581112Y-100215856D01*
X167673214Y-100066534D01*
X167728399Y-99899997D01*
X167738900Y-99797209D01*
X167738899Y-98997192D01*
X167738879Y-98997000D01*
X167728399Y-98894403D01*
X167728398Y-98894400D01*
X167673214Y-98727866D01*
X167581112Y-98578544D01*
X167457056Y-98454488D01*
X167307734Y-98362386D01*
X167307732Y-98362385D01*
X167307730Y-98362384D01*
X167307729Y-98362383D01*
X167250895Y-98343550D01*
X167193450Y-98303777D01*
X167166628Y-98239261D01*
X167165900Y-98225845D01*
X167165900Y-95346881D01*
X167185585Y-95279842D01*
X167238389Y-95234087D01*
X167307547Y-95224143D01*
X167371103Y-95253168D01*
X167377581Y-95259200D01*
X169261181Y-97142800D01*
X169294666Y-97204123D01*
X169297500Y-97230481D01*
X169297500Y-101856927D01*
X169277815Y-101923966D01*
X169265650Y-101939899D01*
X169207926Y-102004007D01*
X169207921Y-102004014D01*
X169115274Y-102164485D01*
X169058014Y-102340711D01*
X169058013Y-102340713D01*
X169038644Y-102525000D01*
X169058013Y-102709286D01*
X169058014Y-102709288D01*
X169115274Y-102885514D01*
X169169633Y-102979666D01*
X169207923Y-103045987D01*
X169251112Y-103093954D01*
X169331906Y-103183686D01*
X169331909Y-103183688D01*
X169331912Y-103183691D01*
X169481822Y-103292607D01*
X169651095Y-103367973D01*
X169651098Y-103367973D01*
X169651101Y-103367975D01*
X169832351Y-103406500D01*
X170017649Y-103406500D01*
X170198899Y-103367975D01*
X170198902Y-103367973D01*
X170198904Y-103367973D01*
X170255922Y-103342586D01*
X170368178Y-103292607D01*
X170518088Y-103183691D01*
X170642077Y-103045987D01*
X170734726Y-102885513D01*
X170791987Y-102709284D01*
X170811356Y-102525000D01*
X170791987Y-102340716D01*
X170734726Y-102164487D01*
X170734725Y-102164485D01*
X170642078Y-102004014D01*
X170642073Y-102004007D01*
X170584350Y-101939899D01*
X170554120Y-101876907D01*
X170552500Y-101856927D01*
X170552500Y-96857396D01*
X170548237Y-96835969D01*
X170548237Y-96835968D01*
X170528385Y-96736165D01*
X170516193Y-96706731D01*
X170481086Y-96621972D01*
X170481079Y-96621960D01*
X170412411Y-96519192D01*
X170412408Y-96519188D01*
X163613463Y-89720244D01*
X163579978Y-89658921D01*
X163584962Y-89589229D01*
X163626834Y-89533296D01*
X163692298Y-89508879D01*
X163751578Y-89519283D01*
X163812426Y-89546374D01*
X163911695Y-89590573D01*
X163911698Y-89590573D01*
X163911701Y-89590575D01*
X164092951Y-89629100D01*
X164278249Y-89629100D01*
X164459499Y-89590575D01*
X164459502Y-89590573D01*
X164459504Y-89590573D01*
X164527275Y-89560399D01*
X164628778Y-89515207D01*
X164778688Y-89406291D01*
X164902677Y-89268587D01*
X164995326Y-89108113D01*
X165052587Y-88931884D01*
X165071956Y-88747600D01*
X165052587Y-88563316D01*
X164995326Y-88387087D01*
X164902677Y-88226613D01*
X164850591Y-88168766D01*
X164820362Y-88105776D01*
X164828987Y-88036441D01*
X164850593Y-88002822D01*
X164877277Y-87973187D01*
X164969926Y-87812713D01*
X165027187Y-87636484D01*
X165046556Y-87452200D01*
X165027187Y-87267916D01*
X164969926Y-87091687D01*
X164877277Y-86931213D01*
X164828714Y-86877278D01*
X164753293Y-86793513D01*
X164753290Y-86793511D01*
X164753289Y-86793510D01*
X164753288Y-86793509D01*
X164609280Y-86688881D01*
X164603377Y-86684592D01*
X164434104Y-86609226D01*
X164434096Y-86609224D01*
X164252849Y-86570700D01*
X164067551Y-86570700D01*
X163886303Y-86609224D01*
X163886295Y-86609226D01*
X163717022Y-86684593D01*
X163717015Y-86684596D01*
X163702580Y-86695084D01*
X163636773Y-86718561D01*
X163568720Y-86702733D01*
X163520027Y-86652625D01*
X163505699Y-86594766D01*
X163505699Y-85633528D01*
X163505698Y-85633526D01*
X163505698Y-85633514D01*
X163504907Y-85626157D01*
X163517311Y-85557398D01*
X163564920Y-85506259D01*
X163628196Y-85488900D01*
X165650119Y-85488900D01*
X165717158Y-85508585D01*
X165737800Y-85525219D01*
X166661181Y-86448600D01*
X166694666Y-86509923D01*
X166697500Y-86536281D01*
X166697500Y-92236807D01*
X166721612Y-92358027D01*
X166721614Y-92358035D01*
X166755062Y-92438785D01*
X166768916Y-92472231D01*
X166768919Y-92472237D01*
X166776131Y-92483030D01*
X166776133Y-92483033D01*
X166776135Y-92483035D01*
X166816920Y-92544075D01*
X166837590Y-92575010D01*
X166837591Y-92575011D01*
X171842989Y-97580408D01*
X171887996Y-97625415D01*
X171930393Y-97667812D01*
X172033160Y-97736479D01*
X172033173Y-97736486D01*
X172074483Y-97753597D01*
X172074484Y-97753597D01*
X172147366Y-97783786D01*
X172268592Y-97807899D01*
X172268596Y-97807900D01*
X172268597Y-97807900D01*
X172392204Y-97807900D01*
X172665373Y-97807900D01*
X172732412Y-97827585D01*
X172766947Y-97860775D01*
X172900705Y-98051801D01*
X173067799Y-98218895D01*
X173112210Y-98249992D01*
X173261365Y-98354432D01*
X173261367Y-98354433D01*
X173261370Y-98354435D01*
X173475537Y-98454303D01*
X173703792Y-98515463D01*
X173892118Y-98531939D01*
X173939199Y-98536059D01*
X173939200Y-98536059D01*
X173939201Y-98536059D01*
X173978434Y-98532626D01*
X174174608Y-98515463D01*
X174402863Y-98454303D01*
X174617030Y-98354435D01*
X174810601Y-98218895D01*
X174977695Y-98051801D01*
X175113235Y-97858230D01*
X175213103Y-97644063D01*
X175274263Y-97415808D01*
X175294859Y-97180400D01*
X175274263Y-96944992D01*
X175213103Y-96716737D01*
X175113235Y-96502571D01*
X175067609Y-96437409D01*
X174977694Y-96308997D01*
X174810602Y-96141906D01*
X174810596Y-96141901D01*
X174625042Y-96011975D01*
X174581417Y-95957398D01*
X174574223Y-95887900D01*
X174605746Y-95825545D01*
X174625042Y-95808825D01*
X174663793Y-95781691D01*
X174810601Y-95678895D01*
X174977695Y-95511801D01*
X175113235Y-95318230D01*
X175213103Y-95104063D01*
X175274263Y-94875808D01*
X175294859Y-94640400D01*
X175291500Y-94602013D01*
X175283066Y-94505612D01*
X175274263Y-94404992D01*
X175227826Y-94231685D01*
X175213105Y-94176744D01*
X175213104Y-94176743D01*
X175213103Y-94176737D01*
X175113235Y-93962571D01*
X174977695Y-93768999D01*
X174977694Y-93768997D01*
X174810602Y-93601906D01*
X174810596Y-93601901D01*
X174625042Y-93471975D01*
X174581417Y-93417398D01*
X174574223Y-93347900D01*
X174605746Y-93285545D01*
X174625042Y-93268825D01*
X174732020Y-93193918D01*
X174810601Y-93138895D01*
X174977695Y-92971801D01*
X175113235Y-92778230D01*
X175213103Y-92564063D01*
X175274263Y-92335808D01*
X175294859Y-92100400D01*
X175274263Y-91864992D01*
X175213103Y-91636737D01*
X175113235Y-91422571D01*
X174977695Y-91228999D01*
X174977694Y-91228997D01*
X174810602Y-91061906D01*
X174810596Y-91061901D01*
X174625042Y-90931975D01*
X174581417Y-90877398D01*
X174574223Y-90807900D01*
X174605746Y-90745545D01*
X174625042Y-90728825D01*
X174732020Y-90653918D01*
X174810601Y-90598895D01*
X174977695Y-90431801D01*
X175113235Y-90238230D01*
X175213103Y-90024063D01*
X175274263Y-89795808D01*
X175294859Y-89560400D01*
X175274263Y-89324992D01*
X175227826Y-89151685D01*
X175213105Y-89096744D01*
X175213104Y-89096743D01*
X175213103Y-89096737D01*
X175113235Y-88882571D01*
X174977695Y-88688999D01*
X174977694Y-88688997D01*
X174810602Y-88521906D01*
X174810596Y-88521901D01*
X174625042Y-88391975D01*
X174581417Y-88337398D01*
X174574223Y-88267900D01*
X174605746Y-88205545D01*
X174625042Y-88188825D01*
X174732020Y-88113918D01*
X174810601Y-88058895D01*
X174977695Y-87891801D01*
X175113235Y-87698230D01*
X175213103Y-87484063D01*
X175274263Y-87255808D01*
X175294859Y-87020400D01*
X175274263Y-86784992D01*
X175216844Y-86570700D01*
X175213105Y-86556744D01*
X175213104Y-86556743D01*
X175213103Y-86556737D01*
X175113235Y-86342571D01*
X175055662Y-86260347D01*
X174977694Y-86148997D01*
X174810602Y-85981906D01*
X174810601Y-85981905D01*
X174624605Y-85851669D01*
X174580981Y-85797092D01*
X174573788Y-85727593D01*
X174605310Y-85665239D01*
X174624605Y-85648519D01*
X174810282Y-85518505D01*
X174977305Y-85351482D01*
X175112800Y-85157978D01*
X175212629Y-84943892D01*
X175212632Y-84943886D01*
X175269836Y-84730400D01*
X174372212Y-84730400D01*
X174405125Y-84673393D01*
X174439200Y-84546226D01*
X174439200Y-84414574D01*
X174405125Y-84287407D01*
X174372212Y-84230400D01*
X175269836Y-84230400D01*
X175269835Y-84230399D01*
X175212632Y-84016913D01*
X175212629Y-84016907D01*
X175112800Y-83802822D01*
X175112799Y-83802820D01*
X174977313Y-83609326D01*
X174977308Y-83609320D01*
X174810278Y-83442290D01*
X174624605Y-83312279D01*
X174580980Y-83257702D01*
X174573788Y-83188204D01*
X174605310Y-83125849D01*
X174624606Y-83109130D01*
X174646878Y-83093535D01*
X174810601Y-82978895D01*
X174977695Y-82811801D01*
X175113235Y-82618230D01*
X175213103Y-82404063D01*
X175274263Y-82175808D01*
X175294859Y-81940400D01*
X175274263Y-81704992D01*
X175215455Y-81485514D01*
X175213105Y-81476744D01*
X175213104Y-81476743D01*
X175213103Y-81476737D01*
X175113235Y-81262571D01*
X174997203Y-81096860D01*
X174977696Y-81069000D01*
X174977695Y-81068999D01*
X174855767Y-80947071D01*
X174822284Y-80885751D01*
X174827268Y-80816059D01*
X174869139Y-80760125D01*
X174900115Y-80743210D01*
X175031531Y-80694196D01*
X175146746Y-80607946D01*
X175232996Y-80492731D01*
X175283291Y-80357883D01*
X175289700Y-80298273D01*
X175289699Y-78502528D01*
X175283291Y-78442917D01*
X175256394Y-78370803D01*
X175232997Y-78308071D01*
X175232993Y-78308064D01*
X175146747Y-78192855D01*
X175146744Y-78192852D01*
X175031535Y-78106606D01*
X175031528Y-78106602D01*
X174896682Y-78056308D01*
X174896683Y-78056308D01*
X174837083Y-78049901D01*
X174837081Y-78049900D01*
X174837073Y-78049900D01*
X174837064Y-78049900D01*
X173041329Y-78049900D01*
X173041323Y-78049901D01*
X172981716Y-78056308D01*
X172846871Y-78106602D01*
X172846864Y-78106606D01*
X172731655Y-78192852D01*
X172731652Y-78192855D01*
X172645406Y-78308064D01*
X172645402Y-78308071D01*
X172595108Y-78442917D01*
X172588701Y-78502516D01*
X172588701Y-78502523D01*
X172588700Y-78502535D01*
X172588700Y-80298270D01*
X172588701Y-80298276D01*
X172595108Y-80357883D01*
X172645402Y-80492728D01*
X172645406Y-80492735D01*
X172731652Y-80607944D01*
X172731655Y-80607947D01*
X172846864Y-80694193D01*
X172846871Y-80694197D01*
X172978281Y-80743210D01*
X173034215Y-80785081D01*
X173058632Y-80850545D01*
X173043780Y-80918818D01*
X173022630Y-80947073D01*
X172900703Y-81069000D01*
X172765165Y-81262569D01*
X172765164Y-81262571D01*
X172665298Y-81476735D01*
X172665294Y-81476744D01*
X172604138Y-81704986D01*
X172604136Y-81704996D01*
X172583541Y-81940399D01*
X172583541Y-81940400D01*
X172604136Y-82175803D01*
X172604138Y-82175813D01*
X172665294Y-82404055D01*
X172665296Y-82404059D01*
X172665297Y-82404063D01*
X172724528Y-82531084D01*
X172765165Y-82618230D01*
X172765167Y-82618234D01*
X172827542Y-82707314D01*
X172900705Y-82811801D01*
X173067799Y-82978895D01*
X173231510Y-83093527D01*
X173253794Y-83109130D01*
X173297419Y-83163707D01*
X173304613Y-83233205D01*
X173273090Y-83295560D01*
X173253795Y-83312280D01*
X173068122Y-83442290D01*
X173068120Y-83442291D01*
X172901091Y-83609320D01*
X172901086Y-83609326D01*
X172765600Y-83802820D01*
X172765599Y-83802822D01*
X172665770Y-84016907D01*
X172665767Y-84016913D01*
X172608564Y-84230399D01*
X172608564Y-84230400D01*
X173506188Y-84230400D01*
X173473275Y-84287407D01*
X173439200Y-84414574D01*
X173439200Y-84546226D01*
X173473275Y-84673393D01*
X173506188Y-84730400D01*
X172608564Y-84730400D01*
X172665767Y-84943886D01*
X172665770Y-84943892D01*
X172765599Y-85157978D01*
X172901094Y-85351482D01*
X173068117Y-85518505D01*
X173253795Y-85648519D01*
X173297419Y-85703096D01*
X173304612Y-85772595D01*
X173273090Y-85834949D01*
X173253795Y-85851669D01*
X173067794Y-85981908D01*
X172900705Y-86148997D01*
X172765165Y-86342569D01*
X172765164Y-86342571D01*
X172665298Y-86556735D01*
X172665294Y-86556744D01*
X172604138Y-86784986D01*
X172604136Y-86784996D01*
X172583541Y-87020399D01*
X172583541Y-87020400D01*
X172604136Y-87255803D01*
X172604138Y-87255813D01*
X172665294Y-87484055D01*
X172665296Y-87484059D01*
X172665297Y-87484063D01*
X172673848Y-87502400D01*
X172765165Y-87698230D01*
X172765167Y-87698234D01*
X172900701Y-87891795D01*
X172900706Y-87891802D01*
X173067797Y-88058893D01*
X173067803Y-88058898D01*
X173253358Y-88188825D01*
X173296983Y-88243402D01*
X173304177Y-88312900D01*
X173272654Y-88375255D01*
X173253358Y-88391975D01*
X173067797Y-88521905D01*
X172900705Y-88688997D01*
X172765165Y-88882569D01*
X172765164Y-88882571D01*
X172665298Y-89096735D01*
X172665294Y-89096744D01*
X172604138Y-89324986D01*
X172604136Y-89324996D01*
X172583541Y-89560399D01*
X172583541Y-89560400D01*
X172604136Y-89795803D01*
X172604138Y-89795813D01*
X172665294Y-90024055D01*
X172665296Y-90024059D01*
X172665297Y-90024063D01*
X172765165Y-90238230D01*
X172765167Y-90238234D01*
X172900701Y-90431795D01*
X172900706Y-90431802D01*
X173067797Y-90598893D01*
X173067803Y-90598898D01*
X173253358Y-90728825D01*
X173296983Y-90783402D01*
X173304177Y-90852900D01*
X173272654Y-90915255D01*
X173253358Y-90931975D01*
X173067797Y-91061905D01*
X172900705Y-91228997D01*
X172766949Y-91420023D01*
X172712372Y-91463648D01*
X172665374Y-91472900D01*
X172236681Y-91472900D01*
X172169642Y-91453215D01*
X172149000Y-91436581D01*
X168688819Y-87976400D01*
X168655334Y-87915077D01*
X168652500Y-87888719D01*
X168652500Y-83213196D01*
X168650185Y-83201558D01*
X168645555Y-83178282D01*
X168628386Y-83091966D01*
X168593982Y-83008909D01*
X168592566Y-83005491D01*
X168584998Y-82987220D01*
X168581083Y-82977767D01*
X168571817Y-82963900D01*
X168512414Y-82874996D01*
X168512413Y-82874994D01*
X168493406Y-82855987D01*
X168425008Y-82787589D01*
X166706418Y-81068999D01*
X164931411Y-79293991D01*
X164931408Y-79293989D01*
X164915753Y-79283529D01*
X164900907Y-79273609D01*
X164900895Y-79273601D01*
X164828638Y-79225320D01*
X164828626Y-79225313D01*
X164795185Y-79211462D01*
X164714435Y-79178014D01*
X164714427Y-79178012D01*
X164593207Y-79153900D01*
X164593203Y-79153900D01*
X163627692Y-79153900D01*
X163560653Y-79134215D01*
X163514898Y-79081411D01*
X163504403Y-79016638D01*
X163505199Y-79009229D01*
X163505200Y-79009227D01*
X163505200Y-78761400D01*
X161005200Y-78761400D01*
X161005200Y-79009244D01*
X161011601Y-79068772D01*
X161011603Y-79068779D01*
X161024125Y-79102352D01*
X161029109Y-79172043D01*
X161024125Y-79189017D01*
X161011109Y-79223914D01*
X161011108Y-79223916D01*
X161005767Y-79273601D01*
X161004701Y-79283523D01*
X161004700Y-79283535D01*
X161004700Y-80279270D01*
X161004701Y-80279276D01*
X161011108Y-80338881D01*
X161023859Y-80373069D01*
X161028842Y-80442761D01*
X161023859Y-80459731D01*
X161011108Y-80493918D01*
X161004701Y-80553516D01*
X161004701Y-80553523D01*
X161004700Y-80553535D01*
X161004700Y-81549270D01*
X161004701Y-81549285D01*
X161005493Y-81556643D01*
X160993089Y-81625402D01*
X160945480Y-81676541D01*
X160882204Y-81693900D01*
X160813748Y-81693900D01*
X160746709Y-81674215D01*
X160740881Y-81670231D01*
X160615578Y-81579193D01*
X160615577Y-81579192D01*
X160446304Y-81503826D01*
X160446296Y-81503824D01*
X160265049Y-81465300D01*
X160079751Y-81465300D01*
X159898503Y-81503824D01*
X159898495Y-81503826D01*
X159729222Y-81579192D01*
X159579309Y-81688111D01*
X159579306Y-81688113D01*
X159455322Y-81825814D01*
X159362674Y-81986285D01*
X159305414Y-82162511D01*
X159305413Y-82162513D01*
X159286044Y-82346800D01*
X159305413Y-82531086D01*
X159305414Y-82531088D01*
X159362674Y-82707314D01*
X159448510Y-82855987D01*
X159455323Y-82867787D01*
X159506143Y-82924228D01*
X159536372Y-82987220D01*
X159527746Y-83056555D01*
X159506143Y-83090170D01*
X159455323Y-83146613D01*
X159455321Y-83146614D01*
X159455320Y-83146617D01*
X159362674Y-83307085D01*
X159305414Y-83483311D01*
X159305413Y-83483313D01*
X159286044Y-83667600D01*
X155421333Y-83667600D01*
X155418798Y-83644027D01*
X155418796Y-83644020D01*
X155368554Y-83509313D01*
X155368550Y-83509306D01*
X155282390Y-83394212D01*
X155282387Y-83394209D01*
X155167293Y-83308049D01*
X155167286Y-83308045D01*
X155032579Y-83257803D01*
X155032572Y-83257801D01*
X154973044Y-83251400D01*
X153075200Y-83251400D01*
X152575200Y-83251400D01*
X150677355Y-83251400D01*
X150617827Y-83257801D01*
X150617820Y-83257803D01*
X150483113Y-83308045D01*
X150483106Y-83308049D01*
X150368012Y-83394209D01*
X150368009Y-83394212D01*
X150281849Y-83509306D01*
X150281845Y-83509313D01*
X150231603Y-83644020D01*
X150231601Y-83644027D01*
X150225200Y-83703555D01*
X150225200Y-85601400D01*
X146002245Y-85601400D01*
X145999291Y-85573917D01*
X145986540Y-85539732D01*
X145981557Y-85470042D01*
X145986540Y-85453069D01*
X145999291Y-85418883D01*
X146005700Y-85359273D01*
X146005699Y-84363528D01*
X145999291Y-84303917D01*
X145986540Y-84269732D01*
X145981557Y-84200042D01*
X145986540Y-84183069D01*
X145999291Y-84148883D01*
X146005700Y-84089273D01*
X146005699Y-83093528D01*
X145999291Y-83033917D01*
X145986540Y-82999732D01*
X145981557Y-82930042D01*
X145986540Y-82913069D01*
X145999291Y-82878883D01*
X146005700Y-82819273D01*
X146005699Y-81823528D01*
X145999291Y-81763917D01*
X145986540Y-81729732D01*
X145981557Y-81660042D01*
X145986538Y-81643072D01*
X145999291Y-81608883D01*
X146005700Y-81549273D01*
X146005699Y-80553528D01*
X145999291Y-80493917D01*
X145986540Y-80459732D01*
X145981557Y-80390042D01*
X145986540Y-80373069D01*
X145999291Y-80338883D01*
X146005700Y-80279273D01*
X146005699Y-79283528D01*
X145999291Y-79223917D01*
X145986273Y-79189016D01*
X145981290Y-79119326D01*
X145986275Y-79102349D01*
X145998797Y-79068775D01*
X145998798Y-79068772D01*
X146005199Y-79009244D01*
X146005200Y-79009227D01*
X146005200Y-78761400D01*
X143505200Y-78761400D01*
X143505200Y-79004755D01*
X143485515Y-79071794D01*
X143432711Y-79117549D01*
X143363553Y-79127493D01*
X143330766Y-79118035D01*
X143326705Y-79116227D01*
X143326696Y-79116224D01*
X143145449Y-79077700D01*
X142960151Y-79077700D01*
X142778903Y-79116224D01*
X142778895Y-79116226D01*
X142609622Y-79191592D01*
X142459709Y-79300511D01*
X142459706Y-79300513D01*
X142335723Y-79438212D01*
X142303021Y-79494854D01*
X142252453Y-79543069D01*
X142183846Y-79556291D01*
X142118982Y-79530323D01*
X142107953Y-79520534D01*
X141049811Y-78462391D01*
X141049810Y-78462390D01*
X141020667Y-78442918D01*
X141020666Y-78442917D01*
X140947038Y-78393720D01*
X140947026Y-78393713D01*
X140913585Y-78379862D01*
X140832835Y-78346414D01*
X140832827Y-78346412D01*
X140711607Y-78322300D01*
X140711603Y-78322300D01*
X139736024Y-78322300D01*
X139668985Y-78302615D01*
X139630485Y-78263396D01*
X139586973Y-78192852D01*
X139548912Y-78131144D01*
X139424856Y-78007088D01*
X139301317Y-77930889D01*
X139275536Y-77914987D01*
X139275531Y-77914985D01*
X139274062Y-77914498D01*
X139108997Y-77859801D01*
X139108995Y-77859800D01*
X139006210Y-77849300D01*
X138006198Y-77849300D01*
X138006180Y-77849301D01*
X137903403Y-77859800D01*
X137903400Y-77859801D01*
X137736868Y-77914985D01*
X137736863Y-77914987D01*
X137587542Y-78007089D01*
X137463487Y-78131144D01*
X137381915Y-78263396D01*
X137329967Y-78310121D01*
X137276376Y-78322300D01*
X131743268Y-78322300D01*
X131676229Y-78302615D01*
X131630474Y-78249811D01*
X131625563Y-78237306D01*
X131614616Y-78204272D01*
X131614615Y-78204271D01*
X131614614Y-78204266D01*
X131522512Y-78054944D01*
X131398456Y-77930888D01*
X131249134Y-77838786D01*
X131082597Y-77783601D01*
X131082595Y-77783600D01*
X130979810Y-77773100D01*
X129979798Y-77773100D01*
X129979780Y-77773101D01*
X129877003Y-77783600D01*
X129877000Y-77783601D01*
X129710468Y-77838785D01*
X129710463Y-77838787D01*
X129561142Y-77930889D01*
X129437089Y-78054942D01*
X129344987Y-78204263D01*
X129344985Y-78204268D01*
X129329894Y-78249811D01*
X129289801Y-78370803D01*
X129289801Y-78370804D01*
X129289800Y-78370804D01*
X129279300Y-78473583D01*
X129279300Y-79273601D01*
X129279301Y-79273619D01*
X129289800Y-79376396D01*
X129289801Y-79376399D01*
X129344985Y-79542931D01*
X129344987Y-79542936D01*
X129366183Y-79577300D01*
X129437087Y-79692255D01*
X129437089Y-79692257D01*
X129530751Y-79785919D01*
X129564236Y-79847242D01*
X129559252Y-79916934D01*
X129530751Y-79961281D01*
X129437089Y-80054942D01*
X129344987Y-80204263D01*
X129344986Y-80204266D01*
X129289801Y-80370803D01*
X129289801Y-80370804D01*
X129289800Y-80370804D01*
X129279300Y-80473583D01*
X129279300Y-81273601D01*
X129279301Y-81273619D01*
X129289800Y-81376396D01*
X129289801Y-81376399D01*
X129332027Y-81503826D01*
X129344986Y-81542934D01*
X129437088Y-81692256D01*
X129561144Y-81816312D01*
X129710466Y-81908414D01*
X129767305Y-81927248D01*
X129824748Y-81967018D01*
X129851572Y-82031534D01*
X129852300Y-82044953D01*
X129852300Y-82947700D01*
X129832615Y-83014739D01*
X129779811Y-83060494D01*
X129728301Y-83071700D01*
X129631730Y-83071700D01*
X129631723Y-83071701D01*
X129572116Y-83078108D01*
X129437271Y-83128402D01*
X129437264Y-83128406D01*
X129322055Y-83214652D01*
X129322052Y-83214655D01*
X129235806Y-83329864D01*
X129235802Y-83329871D01*
X129185508Y-83464717D01*
X129179101Y-83524316D01*
X129179101Y-83524323D01*
X129179100Y-83524335D01*
X129179100Y-84920070D01*
X129179101Y-84920076D01*
X129185508Y-84979683D01*
X129235802Y-85114528D01*
X129235806Y-85114535D01*
X129322052Y-85229744D01*
X129322055Y-85229747D01*
X129437264Y-85315993D01*
X129437271Y-85315997D01*
X129572117Y-85366291D01*
X129572116Y-85366291D01*
X129579044Y-85367035D01*
X129631727Y-85372700D01*
X131277472Y-85372699D01*
X131337083Y-85366291D01*
X131471931Y-85315996D01*
X131587146Y-85229746D01*
X131673396Y-85114531D01*
X131723691Y-84979683D01*
X131723691Y-84979682D01*
X131725760Y-84960443D01*
X131752499Y-84895892D01*
X131809892Y-84856045D01*
X131849049Y-84849700D01*
X137010151Y-84849700D01*
X137077190Y-84869385D01*
X137122945Y-84922189D01*
X137133441Y-84960446D01*
X137135509Y-84979683D01*
X137185802Y-85114528D01*
X137185806Y-85114535D01*
X137272052Y-85229744D01*
X137272055Y-85229747D01*
X137387264Y-85315993D01*
X137387271Y-85315997D01*
X137522117Y-85366291D01*
X137522116Y-85366291D01*
X137529044Y-85367035D01*
X137581727Y-85372700D01*
X139227472Y-85372699D01*
X139287083Y-85366291D01*
X139421931Y-85315996D01*
X139537146Y-85229746D01*
X139623396Y-85114531D01*
X139673691Y-84979683D01*
X139680100Y-84920073D01*
X139680099Y-83524328D01*
X139673691Y-83464717D01*
X139665326Y-83442290D01*
X139623397Y-83329871D01*
X139623393Y-83329864D01*
X139537147Y-83214655D01*
X139537144Y-83214652D01*
X139421935Y-83128406D01*
X139421928Y-83128402D01*
X139287082Y-83078108D01*
X139287083Y-83078108D01*
X139227483Y-83071701D01*
X139227481Y-83071700D01*
X139227473Y-83071700D01*
X139227464Y-83071700D01*
X137581729Y-83071700D01*
X137581723Y-83071701D01*
X137522116Y-83078108D01*
X137387271Y-83128402D01*
X137387264Y-83128406D01*
X137272055Y-83214652D01*
X137272052Y-83214655D01*
X137185806Y-83329864D01*
X137185802Y-83329871D01*
X137135508Y-83464716D01*
X137133440Y-83483957D01*
X137106701Y-83548508D01*
X137049308Y-83588355D01*
X137010151Y-83594700D01*
X131849049Y-83594700D01*
X131782010Y-83575015D01*
X131736255Y-83522211D01*
X131725759Y-83483954D01*
X131725586Y-83482346D01*
X131723691Y-83464717D01*
X131673396Y-83329869D01*
X131673395Y-83329868D01*
X131673393Y-83329864D01*
X131587147Y-83214655D01*
X131587144Y-83214652D01*
X131471935Y-83128406D01*
X131471928Y-83128402D01*
X131337082Y-83078108D01*
X131337083Y-83078108D01*
X131277483Y-83071701D01*
X131277481Y-83071700D01*
X131277473Y-83071700D01*
X131277465Y-83071700D01*
X131231300Y-83071700D01*
X131164261Y-83052015D01*
X131118506Y-82999211D01*
X131107300Y-82947700D01*
X131107300Y-82044953D01*
X131126985Y-81977914D01*
X131179789Y-81932159D01*
X131192282Y-81927252D01*
X131249134Y-81908414D01*
X131398456Y-81816312D01*
X131522512Y-81692256D01*
X131614614Y-81542934D01*
X131669799Y-81376397D01*
X131680300Y-81273609D01*
X131680299Y-80473592D01*
X131678883Y-80459734D01*
X131669799Y-80370803D01*
X131669798Y-80370800D01*
X131645765Y-80298273D01*
X131614614Y-80204266D01*
X131522512Y-80054944D01*
X131428849Y-79961281D01*
X131395364Y-79899958D01*
X131400348Y-79830266D01*
X131428849Y-79785919D01*
X131446313Y-79768455D01*
X131522512Y-79692256D01*
X131557085Y-79636204D01*
X131609033Y-79589479D01*
X131662624Y-79577300D01*
X137276376Y-79577300D01*
X137343415Y-79596985D01*
X137381915Y-79636204D01*
X137463487Y-79768455D01*
X137557151Y-79862119D01*
X137590636Y-79923442D01*
X137585652Y-79993134D01*
X137557151Y-80037481D01*
X137463489Y-80131142D01*
X137371387Y-80280463D01*
X137371385Y-80280468D01*
X137316200Y-80447004D01*
X137305700Y-80549783D01*
X137305700Y-81349801D01*
X137305701Y-81349819D01*
X137316200Y-81452596D01*
X137316201Y-81452599D01*
X137358151Y-81579193D01*
X137371386Y-81619134D01*
X137463488Y-81768456D01*
X137587544Y-81892512D01*
X137736866Y-81984614D01*
X137903403Y-82039799D01*
X138006191Y-82050300D01*
X139006208Y-82050299D01*
X139006216Y-82050298D01*
X139006219Y-82050298D01*
X139062502Y-82044548D01*
X139108997Y-82039799D01*
X139275534Y-81984614D01*
X139424856Y-81892512D01*
X139438892Y-81878475D01*
X139500210Y-81844990D01*
X139569901Y-81849971D01*
X139614255Y-81878474D01*
X140560718Y-82824937D01*
X140594203Y-82886260D01*
X140596357Y-82899652D01*
X140611013Y-83039084D01*
X140611014Y-83039086D01*
X140611014Y-83039088D01*
X140668274Y-83215314D01*
X140760921Y-83375785D01*
X140818650Y-83439899D01*
X140848880Y-83502890D01*
X140850500Y-83522871D01*
X140850500Y-90635719D01*
X140830815Y-90702758D01*
X140814181Y-90723400D01*
X139901400Y-91636181D01*
X139840077Y-91669666D01*
X139813719Y-91672500D01*
X130788192Y-91672500D01*
X130666973Y-91696611D01*
X130666973Y-91696612D01*
X130666970Y-91696613D01*
X130666966Y-91696614D01*
X130600070Y-91724323D01*
X130600068Y-91724323D01*
X130552768Y-91743916D01*
X130552764Y-91743918D01*
X130464092Y-91803167D01*
X130464092Y-91803168D01*
X130449989Y-91812590D01*
X130449988Y-91812591D01*
X129514996Y-92747585D01*
X129224992Y-93037589D01*
X129193434Y-93069147D01*
X129137586Y-93124994D01*
X129137585Y-93124996D01*
X129068233Y-93228789D01*
X129066586Y-93233393D01*
X129021614Y-93341964D01*
X129021612Y-93341972D01*
X129003724Y-93431897D01*
X129003725Y-93431898D01*
X128997500Y-93463196D01*
X128997500Y-95436807D01*
X129021612Y-95558027D01*
X129021614Y-95558035D01*
X129054485Y-95637392D01*
X129068915Y-95672230D01*
X129097704Y-95715316D01*
X129097706Y-95715318D01*
X129137587Y-95775006D01*
X129137591Y-95775011D01*
X129799989Y-96437408D01*
X129862604Y-96500023D01*
X129887393Y-96524812D01*
X129990160Y-96593479D01*
X129990167Y-96593483D01*
X130029663Y-96609842D01*
X130084065Y-96653681D01*
X130099915Y-96685397D01*
X130106984Y-96706731D01*
X130106986Y-96706734D01*
X130186698Y-96835969D01*
X130199089Y-96856057D01*
X130327625Y-96984593D01*
X130361110Y-97045916D01*
X130356126Y-97115608D01*
X130327625Y-97159955D01*
X127712181Y-99775399D01*
X127650858Y-99808884D01*
X127581166Y-99803900D01*
X127525233Y-99762028D01*
X127500816Y-99696564D01*
X127500500Y-99687718D01*
X127500500Y-88972200D01*
X129179600Y-88972200D01*
X129179600Y-89420044D01*
X129186001Y-89479572D01*
X129186003Y-89479579D01*
X129236245Y-89614286D01*
X129236249Y-89614293D01*
X129322409Y-89729387D01*
X129322412Y-89729390D01*
X129437506Y-89815550D01*
X129437513Y-89815554D01*
X129572220Y-89865796D01*
X129572227Y-89865798D01*
X129631755Y-89872199D01*
X129631772Y-89872200D01*
X130204600Y-89872200D01*
X130204600Y-88972200D01*
X130704600Y-88972200D01*
X130704600Y-89872200D01*
X131277428Y-89872200D01*
X131277444Y-89872199D01*
X131336972Y-89865798D01*
X131336979Y-89865796D01*
X131471686Y-89815554D01*
X131471693Y-89815550D01*
X131586787Y-89729390D01*
X131586790Y-89729387D01*
X131672950Y-89614293D01*
X131672954Y-89614286D01*
X131723196Y-89479579D01*
X131723198Y-89479572D01*
X131729599Y-89420044D01*
X131729600Y-89420027D01*
X131729600Y-88972200D01*
X137129600Y-88972200D01*
X137129600Y-89420044D01*
X137136001Y-89479572D01*
X137136003Y-89479579D01*
X137186245Y-89614286D01*
X137186249Y-89614293D01*
X137272409Y-89729387D01*
X137272412Y-89729390D01*
X137387506Y-89815550D01*
X137387513Y-89815554D01*
X137522220Y-89865796D01*
X137522227Y-89865798D01*
X137581755Y-89872199D01*
X137581772Y-89872200D01*
X138154600Y-89872200D01*
X138154600Y-88972200D01*
X138654600Y-88972200D01*
X138654600Y-89872200D01*
X139227428Y-89872200D01*
X139227444Y-89872199D01*
X139286972Y-89865798D01*
X139286979Y-89865796D01*
X139421686Y-89815554D01*
X139421693Y-89815550D01*
X139536787Y-89729390D01*
X139536790Y-89729387D01*
X139622950Y-89614293D01*
X139622954Y-89614286D01*
X139673196Y-89479579D01*
X139673198Y-89479572D01*
X139679599Y-89420044D01*
X139679600Y-89420027D01*
X139679600Y-88972200D01*
X138654600Y-88972200D01*
X138154600Y-88972200D01*
X137129600Y-88972200D01*
X131729600Y-88972200D01*
X130704600Y-88972200D01*
X130204600Y-88972200D01*
X129179600Y-88972200D01*
X127500500Y-88972200D01*
X127500500Y-88472200D01*
X129179600Y-88472200D01*
X130204600Y-88472200D01*
X130204600Y-87572200D01*
X130704600Y-87572200D01*
X130704600Y-88472200D01*
X131729600Y-88472200D01*
X137129600Y-88472200D01*
X138154600Y-88472200D01*
X138154600Y-87572200D01*
X138654600Y-87572200D01*
X138654600Y-88472200D01*
X139679600Y-88472200D01*
X139679600Y-88024372D01*
X139679599Y-88024355D01*
X139673198Y-87964827D01*
X139673196Y-87964820D01*
X139622954Y-87830113D01*
X139622950Y-87830106D01*
X139536790Y-87715012D01*
X139536787Y-87715009D01*
X139421693Y-87628849D01*
X139421686Y-87628845D01*
X139286979Y-87578603D01*
X139286972Y-87578601D01*
X139227444Y-87572200D01*
X138654600Y-87572200D01*
X138154600Y-87572200D01*
X137581755Y-87572200D01*
X137522227Y-87578601D01*
X137522220Y-87578603D01*
X137387513Y-87628845D01*
X137387506Y-87628849D01*
X137272412Y-87715009D01*
X137272409Y-87715012D01*
X137186249Y-87830106D01*
X137186245Y-87830113D01*
X137136003Y-87964820D01*
X137136001Y-87964827D01*
X137129600Y-88024355D01*
X137129600Y-88472200D01*
X131729600Y-88472200D01*
X131729600Y-88024372D01*
X131729599Y-88024355D01*
X131723198Y-87964827D01*
X131723196Y-87964820D01*
X131672954Y-87830113D01*
X131672950Y-87830106D01*
X131586790Y-87715012D01*
X131586787Y-87715009D01*
X131471693Y-87628849D01*
X131471686Y-87628845D01*
X131336979Y-87578603D01*
X131336972Y-87578601D01*
X131277444Y-87572200D01*
X130704600Y-87572200D01*
X130204600Y-87572200D01*
X129631755Y-87572200D01*
X129572227Y-87578601D01*
X129572220Y-87578603D01*
X129437513Y-87628845D01*
X129437506Y-87628849D01*
X129322412Y-87715009D01*
X129322409Y-87715012D01*
X129236249Y-87830106D01*
X129236245Y-87830113D01*
X129186003Y-87964820D01*
X129186001Y-87964827D01*
X129179600Y-88024355D01*
X129179600Y-88472200D01*
X127500500Y-88472200D01*
X127500500Y-77624600D01*
X127520185Y-77557561D01*
X127572989Y-77511806D01*
X127624500Y-77500600D01*
X143552712Y-77500600D01*
X143619751Y-77520285D01*
G37*
%TD.AperFunction*%
%TD*%
M02*
