%TF.GenerationSoftware,KiCad,Pcbnew,8.0.0*%
%TF.CreationDate,2024-12-15T14:54:56+05:30*%
%TF.ProjectId,RFID_1,52464944-5f31-42e6-9b69-6361645f7063,rev?*%
%TF.SameCoordinates,Original*%
%TF.FileFunction,Legend,Bot*%
%TF.FilePolarity,Positive*%
%FSLAX46Y46*%
G04 Gerber Fmt 4.6, Leading zero omitted, Abs format (unit mm)*
G04 Created by KiCad (PCBNEW 8.0.0) date 2024-12-15 14:54:56*
%MOMM*%
%LPD*%
G01*
G04 APERTURE LIST*
%ADD10C,0.150000*%
%ADD11C,0.100000*%
%ADD12C,0.508000*%
G04 APERTURE END LIST*
D10*
X140989411Y-85942438D02*
X141084649Y-85894819D01*
X141084649Y-85894819D02*
X141227506Y-85894819D01*
X141227506Y-85894819D02*
X141370363Y-85942438D01*
X141370363Y-85942438D02*
X141465601Y-86037676D01*
X141465601Y-86037676D02*
X141513220Y-86132914D01*
X141513220Y-86132914D02*
X141560839Y-86323390D01*
X141560839Y-86323390D02*
X141560839Y-86466247D01*
X141560839Y-86466247D02*
X141513220Y-86656723D01*
X141513220Y-86656723D02*
X141465601Y-86751961D01*
X141465601Y-86751961D02*
X141370363Y-86847200D01*
X141370363Y-86847200D02*
X141227506Y-86894819D01*
X141227506Y-86894819D02*
X141132268Y-86894819D01*
X141132268Y-86894819D02*
X140989411Y-86847200D01*
X140989411Y-86847200D02*
X140941792Y-86799580D01*
X140941792Y-86799580D02*
X140941792Y-86466247D01*
X140941792Y-86466247D02*
X141132268Y-86466247D01*
X140322744Y-85894819D02*
X140132268Y-85894819D01*
X140132268Y-85894819D02*
X140037030Y-85942438D01*
X140037030Y-85942438D02*
X139941792Y-86037676D01*
X139941792Y-86037676D02*
X139894173Y-86228152D01*
X139894173Y-86228152D02*
X139894173Y-86561485D01*
X139894173Y-86561485D02*
X139941792Y-86751961D01*
X139941792Y-86751961D02*
X140037030Y-86847200D01*
X140037030Y-86847200D02*
X140132268Y-86894819D01*
X140132268Y-86894819D02*
X140322744Y-86894819D01*
X140322744Y-86894819D02*
X140417982Y-86847200D01*
X140417982Y-86847200D02*
X140513220Y-86751961D01*
X140513220Y-86751961D02*
X140560839Y-86561485D01*
X140560839Y-86561485D02*
X140560839Y-86228152D01*
X140560839Y-86228152D02*
X140513220Y-86037676D01*
X140513220Y-86037676D02*
X140417982Y-85942438D01*
X140417982Y-85942438D02*
X140322744Y-85894819D01*
X139465601Y-86894819D02*
X139465601Y-85894819D01*
X138894173Y-86894819D02*
X139322744Y-86323390D01*
X138894173Y-85894819D02*
X139465601Y-86466247D01*
X138465601Y-85894819D02*
X138465601Y-86704342D01*
X138465601Y-86704342D02*
X138417982Y-86799580D01*
X138417982Y-86799580D02*
X138370363Y-86847200D01*
X138370363Y-86847200D02*
X138275125Y-86894819D01*
X138275125Y-86894819D02*
X138084649Y-86894819D01*
X138084649Y-86894819D02*
X137989411Y-86847200D01*
X137989411Y-86847200D02*
X137941792Y-86799580D01*
X137941792Y-86799580D02*
X137894173Y-86704342D01*
X137894173Y-86704342D02*
X137894173Y-85894819D01*
X136941792Y-86894819D02*
X137417982Y-86894819D01*
X137417982Y-86894819D02*
X137417982Y-85894819D01*
X136037030Y-86894819D02*
X136370363Y-86418628D01*
X136608458Y-86894819D02*
X136608458Y-85894819D01*
X136608458Y-85894819D02*
X136227506Y-85894819D01*
X136227506Y-85894819D02*
X136132268Y-85942438D01*
X136132268Y-85942438D02*
X136084649Y-85990057D01*
X136084649Y-85990057D02*
X136037030Y-86085295D01*
X136037030Y-86085295D02*
X136037030Y-86228152D01*
X136037030Y-86228152D02*
X136084649Y-86323390D01*
X136084649Y-86323390D02*
X136132268Y-86371009D01*
X136132268Y-86371009D02*
X136227506Y-86418628D01*
X136227506Y-86418628D02*
X136608458Y-86418628D01*
X135656077Y-86609104D02*
X135179887Y-86609104D01*
X135751315Y-86894819D02*
X135417982Y-85894819D01*
X135417982Y-85894819D02*
X135084649Y-86894819D01*
X134465601Y-85894819D02*
X134465601Y-86609104D01*
X134465601Y-86609104D02*
X134513220Y-86751961D01*
X134513220Y-86751961D02*
X134608458Y-86847200D01*
X134608458Y-86847200D02*
X134751315Y-86894819D01*
X134751315Y-86894819D02*
X134846553Y-86894819D01*
X134037029Y-86609104D02*
X133560839Y-86609104D01*
X134132267Y-86894819D02*
X133798934Y-85894819D01*
X133798934Y-85894819D02*
X133465601Y-86894819D01*
X132560839Y-86894819D02*
X132894172Y-86418628D01*
X133132267Y-86894819D02*
X133132267Y-85894819D01*
X133132267Y-85894819D02*
X132751315Y-85894819D01*
X132751315Y-85894819D02*
X132656077Y-85942438D01*
X132656077Y-85942438D02*
X132608458Y-85990057D01*
X132608458Y-85990057D02*
X132560839Y-86085295D01*
X132560839Y-86085295D02*
X132560839Y-86228152D01*
X132560839Y-86228152D02*
X132608458Y-86323390D01*
X132608458Y-86323390D02*
X132656077Y-86371009D01*
X132656077Y-86371009D02*
X132751315Y-86418628D01*
X132751315Y-86418628D02*
X133132267Y-86418628D01*
X132179886Y-86609104D02*
X131703696Y-86609104D01*
X132275124Y-86894819D02*
X131941791Y-85894819D01*
X131941791Y-85894819D02*
X131608458Y-86894819D01*
X131275124Y-86894819D02*
X131275124Y-85894819D01*
X131275124Y-85894819D02*
X130941791Y-86609104D01*
X130941791Y-86609104D02*
X130608458Y-85894819D01*
X130608458Y-85894819D02*
X130608458Y-86894819D01*
X129417981Y-86609104D02*
X128941791Y-86609104D01*
X129513219Y-86894819D02*
X129179886Y-85894819D01*
X129179886Y-85894819D02*
X128846553Y-86894819D01*
X144541792Y-85094819D02*
X144875125Y-84618628D01*
X145113220Y-85094819D02*
X145113220Y-84094819D01*
X145113220Y-84094819D02*
X144732268Y-84094819D01*
X144732268Y-84094819D02*
X144637030Y-84142438D01*
X144637030Y-84142438D02*
X144589411Y-84190057D01*
X144589411Y-84190057D02*
X144541792Y-84285295D01*
X144541792Y-84285295D02*
X144541792Y-84428152D01*
X144541792Y-84428152D02*
X144589411Y-84523390D01*
X144589411Y-84523390D02*
X144637030Y-84571009D01*
X144637030Y-84571009D02*
X144732268Y-84618628D01*
X144732268Y-84618628D02*
X145113220Y-84618628D01*
X143779887Y-84571009D02*
X144113220Y-84571009D01*
X144113220Y-85094819D02*
X144113220Y-84094819D01*
X144113220Y-84094819D02*
X143637030Y-84094819D01*
X143256077Y-85094819D02*
X143256077Y-84094819D01*
X142779887Y-85094819D02*
X142779887Y-84094819D01*
X142779887Y-84094819D02*
X142541792Y-84094819D01*
X142541792Y-84094819D02*
X142398935Y-84142438D01*
X142398935Y-84142438D02*
X142303697Y-84237676D01*
X142303697Y-84237676D02*
X142256078Y-84332914D01*
X142256078Y-84332914D02*
X142208459Y-84523390D01*
X142208459Y-84523390D02*
X142208459Y-84666247D01*
X142208459Y-84666247D02*
X142256078Y-84856723D01*
X142256078Y-84856723D02*
X142303697Y-84951961D01*
X142303697Y-84951961D02*
X142398935Y-85047200D01*
X142398935Y-85047200D02*
X142541792Y-85094819D01*
X142541792Y-85094819D02*
X142779887Y-85094819D01*
X142017983Y-85190057D02*
X141256078Y-85190057D01*
X141017982Y-85094819D02*
X141017982Y-84094819D01*
X141017982Y-84475771D02*
X140922744Y-84428152D01*
X140922744Y-84428152D02*
X140732268Y-84428152D01*
X140732268Y-84428152D02*
X140637030Y-84475771D01*
X140637030Y-84475771D02*
X140589411Y-84523390D01*
X140589411Y-84523390D02*
X140541792Y-84618628D01*
X140541792Y-84618628D02*
X140541792Y-84904342D01*
X140541792Y-84904342D02*
X140589411Y-84999580D01*
X140589411Y-84999580D02*
X140637030Y-85047200D01*
X140637030Y-85047200D02*
X140732268Y-85094819D01*
X140732268Y-85094819D02*
X140922744Y-85094819D01*
X140922744Y-85094819D02*
X141017982Y-85047200D01*
X139684649Y-85094819D02*
X139684649Y-84571009D01*
X139684649Y-84571009D02*
X139732268Y-84475771D01*
X139732268Y-84475771D02*
X139827506Y-84428152D01*
X139827506Y-84428152D02*
X140017982Y-84428152D01*
X140017982Y-84428152D02*
X140113220Y-84475771D01*
X139684649Y-85047200D02*
X139779887Y-85094819D01*
X139779887Y-85094819D02*
X140017982Y-85094819D01*
X140017982Y-85094819D02*
X140113220Y-85047200D01*
X140113220Y-85047200D02*
X140160839Y-84951961D01*
X140160839Y-84951961D02*
X140160839Y-84856723D01*
X140160839Y-84856723D02*
X140113220Y-84761485D01*
X140113220Y-84761485D02*
X140017982Y-84713866D01*
X140017982Y-84713866D02*
X139779887Y-84713866D01*
X139779887Y-84713866D02*
X139684649Y-84666247D01*
X139256077Y-85047200D02*
X139160839Y-85094819D01*
X139160839Y-85094819D02*
X138970363Y-85094819D01*
X138970363Y-85094819D02*
X138875125Y-85047200D01*
X138875125Y-85047200D02*
X138827506Y-84951961D01*
X138827506Y-84951961D02*
X138827506Y-84904342D01*
X138827506Y-84904342D02*
X138875125Y-84809104D01*
X138875125Y-84809104D02*
X138970363Y-84761485D01*
X138970363Y-84761485D02*
X139113220Y-84761485D01*
X139113220Y-84761485D02*
X139208458Y-84713866D01*
X139208458Y-84713866D02*
X139256077Y-84618628D01*
X139256077Y-84618628D02*
X139256077Y-84571009D01*
X139256077Y-84571009D02*
X139208458Y-84475771D01*
X139208458Y-84475771D02*
X139113220Y-84428152D01*
X139113220Y-84428152D02*
X138970363Y-84428152D01*
X138970363Y-84428152D02*
X138875125Y-84475771D01*
X138017982Y-85047200D02*
X138113220Y-85094819D01*
X138113220Y-85094819D02*
X138303696Y-85094819D01*
X138303696Y-85094819D02*
X138398934Y-85047200D01*
X138398934Y-85047200D02*
X138446553Y-84951961D01*
X138446553Y-84951961D02*
X138446553Y-84571009D01*
X138446553Y-84571009D02*
X138398934Y-84475771D01*
X138398934Y-84475771D02*
X138303696Y-84428152D01*
X138303696Y-84428152D02*
X138113220Y-84428152D01*
X138113220Y-84428152D02*
X138017982Y-84475771D01*
X138017982Y-84475771D02*
X137970363Y-84571009D01*
X137970363Y-84571009D02*
X137970363Y-84666247D01*
X137970363Y-84666247D02*
X138446553Y-84761485D01*
X137113220Y-85094819D02*
X137113220Y-84094819D01*
X137113220Y-85047200D02*
X137208458Y-85094819D01*
X137208458Y-85094819D02*
X137398934Y-85094819D01*
X137398934Y-85094819D02*
X137494172Y-85047200D01*
X137494172Y-85047200D02*
X137541791Y-84999580D01*
X137541791Y-84999580D02*
X137589410Y-84904342D01*
X137589410Y-84904342D02*
X137589410Y-84618628D01*
X137589410Y-84618628D02*
X137541791Y-84523390D01*
X137541791Y-84523390D02*
X137494172Y-84475771D01*
X137494172Y-84475771D02*
X137398934Y-84428152D01*
X137398934Y-84428152D02*
X137208458Y-84428152D01*
X137208458Y-84428152D02*
X137113220Y-84475771D01*
X136875125Y-85190057D02*
X136113220Y-85190057D01*
X135970362Y-84428152D02*
X135732267Y-85094819D01*
X135732267Y-85094819D02*
X135494172Y-84428152D01*
X134732267Y-85047200D02*
X134827505Y-85094819D01*
X134827505Y-85094819D02*
X135017981Y-85094819D01*
X135017981Y-85094819D02*
X135113219Y-85047200D01*
X135113219Y-85047200D02*
X135160838Y-84951961D01*
X135160838Y-84951961D02*
X135160838Y-84571009D01*
X135160838Y-84571009D02*
X135113219Y-84475771D01*
X135113219Y-84475771D02*
X135017981Y-84428152D01*
X135017981Y-84428152D02*
X134827505Y-84428152D01*
X134827505Y-84428152D02*
X134732267Y-84475771D01*
X134732267Y-84475771D02*
X134684648Y-84571009D01*
X134684648Y-84571009D02*
X134684648Y-84666247D01*
X134684648Y-84666247D02*
X135160838Y-84761485D01*
X134256076Y-84428152D02*
X134256076Y-85094819D01*
X134256076Y-84523390D02*
X134208457Y-84475771D01*
X134208457Y-84475771D02*
X134113219Y-84428152D01*
X134113219Y-84428152D02*
X133970362Y-84428152D01*
X133970362Y-84428152D02*
X133875124Y-84475771D01*
X133875124Y-84475771D02*
X133827505Y-84571009D01*
X133827505Y-84571009D02*
X133827505Y-85094819D01*
X132922743Y-85094819D02*
X132922743Y-84094819D01*
X132922743Y-85047200D02*
X133017981Y-85094819D01*
X133017981Y-85094819D02*
X133208457Y-85094819D01*
X133208457Y-85094819D02*
X133303695Y-85047200D01*
X133303695Y-85047200D02*
X133351314Y-84999580D01*
X133351314Y-84999580D02*
X133398933Y-84904342D01*
X133398933Y-84904342D02*
X133398933Y-84618628D01*
X133398933Y-84618628D02*
X133351314Y-84523390D01*
X133351314Y-84523390D02*
X133303695Y-84475771D01*
X133303695Y-84475771D02*
X133208457Y-84428152D01*
X133208457Y-84428152D02*
X133017981Y-84428152D01*
X133017981Y-84428152D02*
X132922743Y-84475771D01*
X132446552Y-85094819D02*
X132446552Y-84428152D01*
X132446552Y-84094819D02*
X132494171Y-84142438D01*
X132494171Y-84142438D02*
X132446552Y-84190057D01*
X132446552Y-84190057D02*
X132398933Y-84142438D01*
X132398933Y-84142438D02*
X132446552Y-84094819D01*
X132446552Y-84094819D02*
X132446552Y-84190057D01*
X131970362Y-84428152D02*
X131970362Y-85094819D01*
X131970362Y-84523390D02*
X131922743Y-84475771D01*
X131922743Y-84475771D02*
X131827505Y-84428152D01*
X131827505Y-84428152D02*
X131684648Y-84428152D01*
X131684648Y-84428152D02*
X131589410Y-84475771D01*
X131589410Y-84475771D02*
X131541791Y-84571009D01*
X131541791Y-84571009D02*
X131541791Y-85094819D01*
X130637029Y-84428152D02*
X130637029Y-85237676D01*
X130637029Y-85237676D02*
X130684648Y-85332914D01*
X130684648Y-85332914D02*
X130732267Y-85380533D01*
X130732267Y-85380533D02*
X130827505Y-85428152D01*
X130827505Y-85428152D02*
X130970362Y-85428152D01*
X130970362Y-85428152D02*
X131065600Y-85380533D01*
X130637029Y-85047200D02*
X130732267Y-85094819D01*
X130732267Y-85094819D02*
X130922743Y-85094819D01*
X130922743Y-85094819D02*
X131017981Y-85047200D01*
X131017981Y-85047200D02*
X131065600Y-84999580D01*
X131065600Y-84999580D02*
X131113219Y-84904342D01*
X131113219Y-84904342D02*
X131113219Y-84618628D01*
X131113219Y-84618628D02*
X131065600Y-84523390D01*
X131065600Y-84523390D02*
X131017981Y-84475771D01*
X131017981Y-84475771D02*
X130922743Y-84428152D01*
X130922743Y-84428152D02*
X130732267Y-84428152D01*
X130732267Y-84428152D02*
X130637029Y-84475771D01*
X130398934Y-85190057D02*
X129637029Y-85190057D01*
X129541790Y-84094819D02*
X129208457Y-85094819D01*
X129208457Y-85094819D02*
X128875124Y-84094819D01*
X128017981Y-85094819D02*
X128589409Y-85094819D01*
X128303695Y-85094819D02*
X128303695Y-84094819D01*
X128303695Y-84094819D02*
X128398933Y-84237676D01*
X128398933Y-84237676D02*
X128494171Y-84332914D01*
X128494171Y-84332914D02*
X128589409Y-84380533D01*
X136539411Y-88619819D02*
X137110839Y-88619819D01*
X136825125Y-88619819D02*
X136825125Y-87619819D01*
X136825125Y-87619819D02*
X136920363Y-87762676D01*
X136920363Y-87762676D02*
X137015601Y-87857914D01*
X137015601Y-87857914D02*
X137110839Y-87905533D01*
X136158458Y-87715057D02*
X136110839Y-87667438D01*
X136110839Y-87667438D02*
X136015601Y-87619819D01*
X136015601Y-87619819D02*
X135777506Y-87619819D01*
X135777506Y-87619819D02*
X135682268Y-87667438D01*
X135682268Y-87667438D02*
X135634649Y-87715057D01*
X135634649Y-87715057D02*
X135587030Y-87810295D01*
X135587030Y-87810295D02*
X135587030Y-87905533D01*
X135587030Y-87905533D02*
X135634649Y-88048390D01*
X135634649Y-88048390D02*
X136206077Y-88619819D01*
X136206077Y-88619819D02*
X135587030Y-88619819D01*
X134444173Y-87572200D02*
X135301315Y-88857914D01*
X133967982Y-88048390D02*
X134063220Y-88000771D01*
X134063220Y-88000771D02*
X134110839Y-87953152D01*
X134110839Y-87953152D02*
X134158458Y-87857914D01*
X134158458Y-87857914D02*
X134158458Y-87810295D01*
X134158458Y-87810295D02*
X134110839Y-87715057D01*
X134110839Y-87715057D02*
X134063220Y-87667438D01*
X134063220Y-87667438D02*
X133967982Y-87619819D01*
X133967982Y-87619819D02*
X133777506Y-87619819D01*
X133777506Y-87619819D02*
X133682268Y-87667438D01*
X133682268Y-87667438D02*
X133634649Y-87715057D01*
X133634649Y-87715057D02*
X133587030Y-87810295D01*
X133587030Y-87810295D02*
X133587030Y-87857914D01*
X133587030Y-87857914D02*
X133634649Y-87953152D01*
X133634649Y-87953152D02*
X133682268Y-88000771D01*
X133682268Y-88000771D02*
X133777506Y-88048390D01*
X133777506Y-88048390D02*
X133967982Y-88048390D01*
X133967982Y-88048390D02*
X134063220Y-88096009D01*
X134063220Y-88096009D02*
X134110839Y-88143628D01*
X134110839Y-88143628D02*
X134158458Y-88238866D01*
X134158458Y-88238866D02*
X134158458Y-88429342D01*
X134158458Y-88429342D02*
X134110839Y-88524580D01*
X134110839Y-88524580D02*
X134063220Y-88572200D01*
X134063220Y-88572200D02*
X133967982Y-88619819D01*
X133967982Y-88619819D02*
X133777506Y-88619819D01*
X133777506Y-88619819D02*
X133682268Y-88572200D01*
X133682268Y-88572200D02*
X133634649Y-88524580D01*
X133634649Y-88524580D02*
X133587030Y-88429342D01*
X133587030Y-88429342D02*
X133587030Y-88238866D01*
X133587030Y-88238866D02*
X133634649Y-88143628D01*
X133634649Y-88143628D02*
X133682268Y-88096009D01*
X133682268Y-88096009D02*
X133777506Y-88048390D01*
X132444173Y-87572200D02*
X133301315Y-88857914D01*
X132158458Y-87715057D02*
X132110839Y-87667438D01*
X132110839Y-87667438D02*
X132015601Y-87619819D01*
X132015601Y-87619819D02*
X131777506Y-87619819D01*
X131777506Y-87619819D02*
X131682268Y-87667438D01*
X131682268Y-87667438D02*
X131634649Y-87715057D01*
X131634649Y-87715057D02*
X131587030Y-87810295D01*
X131587030Y-87810295D02*
X131587030Y-87905533D01*
X131587030Y-87905533D02*
X131634649Y-88048390D01*
X131634649Y-88048390D02*
X132206077Y-88619819D01*
X132206077Y-88619819D02*
X131587030Y-88619819D01*
X130729887Y-87953152D02*
X130729887Y-88619819D01*
X130967982Y-87572200D02*
X131206077Y-88286485D01*
X131206077Y-88286485D02*
X130587030Y-88286485D01*
D11*
X167642580Y-119008333D02*
X166928295Y-119008333D01*
X166928295Y-119008333D02*
X166785438Y-119055952D01*
X166785438Y-119055952D02*
X166690200Y-119151190D01*
X166690200Y-119151190D02*
X166642580Y-119294047D01*
X166642580Y-119294047D02*
X166642580Y-119389285D01*
X167309247Y-118103571D02*
X166642580Y-118103571D01*
X167690200Y-118341666D02*
X166975914Y-118579761D01*
X166975914Y-118579761D02*
X166975914Y-117960714D01*
X147417580Y-119058333D02*
X146703295Y-119058333D01*
X146703295Y-119058333D02*
X146560438Y-119105952D01*
X146560438Y-119105952D02*
X146465200Y-119201190D01*
X146465200Y-119201190D02*
X146417580Y-119344047D01*
X146417580Y-119344047D02*
X146417580Y-119439285D01*
X147417580Y-118105952D02*
X147417580Y-118582142D01*
X147417580Y-118582142D02*
X146941390Y-118629761D01*
X146941390Y-118629761D02*
X146989009Y-118582142D01*
X146989009Y-118582142D02*
X147036628Y-118486904D01*
X147036628Y-118486904D02*
X147036628Y-118248809D01*
X147036628Y-118248809D02*
X146989009Y-118153571D01*
X146989009Y-118153571D02*
X146941390Y-118105952D01*
X146941390Y-118105952D02*
X146846152Y-118058333D01*
X146846152Y-118058333D02*
X146608057Y-118058333D01*
X146608057Y-118058333D02*
X146512819Y-118105952D01*
X146512819Y-118105952D02*
X146465200Y-118153571D01*
X146465200Y-118153571D02*
X146417580Y-118248809D01*
X146417580Y-118248809D02*
X146417580Y-118486904D01*
X146417580Y-118486904D02*
X146465200Y-118582142D01*
X146465200Y-118582142D02*
X146512819Y-118629761D01*
D12*
%TO.C,J3*%
X173106000Y-108704900D02*
G75*
G02*
X172344000Y-108704900I-381000J0D01*
G01*
X172344000Y-108704900D02*
G75*
G02*
X173106000Y-108704900I381000J0D01*
G01*
%TD*%
M02*
