M48
; DRILL file {KiCad 8.0.0} date 2024-12-15T14:54:33+0530
; FORMAT={-:-/ absolute / inch / decimal}
; #@! TF.CreationDate,2024-12-15T14:54:33+05:30
; #@! TF.GenerationSoftware,Kicad,Pcbnew,8.0.0
; #@! TF.FileFunction,Plated,1,2,PTH
FMAT,2
INCH
; #@! TA.AperFunction,Plated,PTH,ComponentDrill
T1C0.0079
; #@! TA.AperFunction,Plated,PTH,ViaDrill
T2C0.0150
; #@! TA.AperFunction,Plated,PTH,ComponentDrill
T3C0.0350
; #@! TA.AperFunction,Plated,PTH,ComponentDrill
T4C0.0394
%
G90
G05
T1
X5.9567Y-3.35
X5.9567Y-3.41
X5.9867Y-3.3199
X5.9867Y-3.38
X5.9867Y-3.44
X6.0167Y-3.35
X6.0167Y-3.41
X6.0468Y-3.3199
X6.0468Y-3.38
X6.0468Y-3.44
X6.0768Y-3.35
X6.0768Y-3.41
T2
X5.0728Y-4.515
X5.0728Y-4.565
X5.0728Y-4.615
X5.0728Y-4.665
X5.0728Y-4.715
X5.0728Y-4.765
X5.0728Y-4.815
X5.1228Y-4.515
X5.1228Y-4.565
X5.1228Y-4.615
X5.1228Y-4.665
X5.1228Y-4.715
X5.1228Y-4.765
X5.1228Y-4.815
X5.1728Y-4.515
X5.1728Y-4.565
X5.1728Y-4.615
X5.1728Y-4.665
X5.1728Y-4.715
X5.1728Y-4.765
X5.1728Y-4.815
X5.2228Y-4.515
X5.2228Y-4.565
X5.2228Y-4.615
X5.2228Y-4.665
X5.2228Y-4.715
X5.2228Y-4.765
X5.2228Y-4.815
X5.2728Y-4.515
X5.2728Y-4.565
X5.2728Y-4.615
X5.2728Y-4.665
X5.2728Y-4.715
X5.2728Y-4.765
X5.2728Y-4.815
X5.3228Y-4.515
X5.3228Y-4.565
X5.3228Y-4.615
X5.3228Y-4.665
X5.3228Y-4.715
X5.3228Y-4.765
X5.3228Y-4.815
X5.57Y-3.262
X5.5866Y-4.9636
X5.632Y-3.148
X5.6329Y-3.0945
X5.8888Y-4.513
X5.8888Y-4.563
X5.8888Y-4.613
X5.8888Y-4.663
X5.8888Y-4.713
X5.8888Y-4.763
X5.8888Y-4.813
X5.9388Y-4.513
X5.9388Y-4.563
X5.9388Y-4.613
X5.9388Y-4.663
X5.9388Y-4.713
X5.9388Y-4.763
X5.9388Y-4.813
X5.9888Y-4.513
X5.9888Y-4.563
X5.9888Y-4.613
X5.9888Y-4.663
X5.9888Y-4.713
X5.9888Y-4.763
X5.9888Y-4.813
X6.0388Y-4.513
X6.0388Y-4.563
X6.0388Y-4.613
X6.0388Y-4.663
X6.0388Y-4.713
X6.0388Y-4.763
X6.0388Y-4.813
X6.0888Y-4.513
X6.0888Y-4.563
X6.0888Y-4.613
X6.0888Y-4.663
X6.0888Y-4.713
X6.0888Y-4.763
X6.0888Y-4.813
X6.1388Y-4.513
X6.1388Y-4.563
X6.1388Y-4.613
X6.1388Y-4.663
X6.1388Y-4.713
X6.1388Y-4.763
X6.1388Y-4.813
X6.306Y-3.242
X6.306Y-3.294
X6.437Y-3.0886
X6.45Y-4.25
X6.4528Y-3.1939
X6.463Y-3.443
X6.464Y-3.494
X6.464Y-3.745
X6.55Y-4.25
X6.69Y-4.0364
X6.75Y-3.3297
T3
X6.7882Y-4.4297
X6.7882Y-4.5797
X6.7882Y-4.7297
X6.7882Y-4.8797
T4
X5.8644Y-4.1416
X5.9644Y-4.1416
X6.0644Y-4.1416
X6.1644Y-4.1416
X6.848Y-3.126
X6.848Y-3.226
X6.848Y-3.326
X6.848Y-3.426
X6.848Y-3.526
X6.848Y-3.626
X6.848Y-3.726
X6.848Y-3.826
M30
