%TF.GenerationSoftware,KiCad,Pcbnew,8.0.0*%
%TF.CreationDate,2025-02-17T23:08:18+05:30*%
%TF.ProjectId,MCU_motorcycle,4d43555f-6d6f-4746-9f72-6379636c652e,rev?*%
%TF.SameCoordinates,Original*%
%TF.FileFunction,Soldermask,Top*%
%TF.FilePolarity,Negative*%
%FSLAX46Y46*%
G04 Gerber Fmt 4.6, Leading zero omitted, Abs format (unit mm)*
G04 Created by KiCad (PCBNEW 8.0.0) date 2025-02-17 23:08:18*
%MOMM*%
%LPD*%
G01*
G04 APERTURE LIST*
G04 Aperture macros list*
%AMRoundRect*
0 Rectangle with rounded corners*
0 $1 Rounding radius*
0 $2 $3 $4 $5 $6 $7 $8 $9 X,Y pos of 4 corners*
0 Add a 4 corners polygon primitive as box body*
4,1,4,$2,$3,$4,$5,$6,$7,$8,$9,$2,$3,0*
0 Add four circle primitives for the rounded corners*
1,1,$1+$1,$2,$3*
1,1,$1+$1,$4,$5*
1,1,$1+$1,$6,$7*
1,1,$1+$1,$8,$9*
0 Add four rect primitives between the rounded corners*
20,1,$1+$1,$2,$3,$4,$5,0*
20,1,$1+$1,$4,$5,$6,$7,0*
20,1,$1+$1,$6,$7,$8,$9,0*
20,1,$1+$1,$8,$9,$2,$3,0*%
G04 Aperture macros list end*
%ADD10RoundRect,0.102000X-0.825000X-0.825000X0.825000X-0.825000X0.825000X0.825000X-0.825000X0.825000X0*%
%ADD11C,1.854000*%
%ADD12R,1.500000X1.500000*%
%ADD13RoundRect,0.102000X0.664000X0.664000X-0.664000X0.664000X-0.664000X-0.664000X0.664000X-0.664000X0*%
%ADD14C,1.532000*%
%ADD15R,1.550000X1.300000*%
%ADD16RoundRect,0.102000X-0.600000X-0.450000X0.600000X-0.450000X0.600000X0.450000X-0.600000X0.450000X0*%
%ADD17R,1.524000X1.524000*%
%ADD18C,1.524000*%
%ADD19R,1.700000X1.700000*%
%ADD20O,1.700000X1.700000*%
%ADD21R,0.900000X1.500000*%
%ADD22R,1.500000X0.900000*%
%ADD23C,0.600000*%
%ADD24R,4.200000X4.200000*%
%ADD25RoundRect,0.375000X-0.625000X-0.375000X0.625000X-0.375000X0.625000X0.375000X-0.625000X0.375000X0*%
%ADD26RoundRect,0.500000X-0.500000X-1.400000X0.500000X-1.400000X0.500000X1.400000X-0.500000X1.400000X0*%
%ADD27RoundRect,0.250000X0.450000X-0.350000X0.450000X0.350000X-0.450000X0.350000X-0.450000X-0.350000X0*%
%ADD28RoundRect,0.237500X-0.237500X0.300000X-0.237500X-0.300000X0.237500X-0.300000X0.237500X0.300000X0*%
%ADD29RoundRect,0.250000X-0.450000X0.350000X-0.450000X-0.350000X0.450000X-0.350000X0.450000X0.350000X0*%
%ADD30R,1.676400X1.676400*%
%ADD31RoundRect,0.102000X0.825000X-0.825000X0.825000X0.825000X-0.825000X0.825000X-0.825000X-0.825000X0*%
%ADD32RoundRect,0.250000X0.350000X0.450000X-0.350000X0.450000X-0.350000X-0.450000X0.350000X-0.450000X0*%
%ADD33RoundRect,0.102000X-0.825000X0.825000X-0.825000X-0.825000X0.825000X-0.825000X0.825000X0.825000X0*%
%ADD34RoundRect,0.250001X0.462499X0.624999X-0.462499X0.624999X-0.462499X-0.624999X0.462499X-0.624999X0*%
%ADD35RoundRect,0.375000X0.625000X0.375000X-0.625000X0.375000X-0.625000X-0.375000X0.625000X-0.375000X0*%
%ADD36RoundRect,0.500000X0.500000X1.400000X-0.500000X1.400000X-0.500000X-1.400000X0.500000X-1.400000X0*%
%ADD37RoundRect,0.250001X-0.624999X0.462499X-0.624999X-0.462499X0.624999X-0.462499X0.624999X0.462499X0*%
%ADD38RoundRect,0.250001X-0.462499X-0.624999X0.462499X-0.624999X0.462499X0.624999X-0.462499X0.624999X0*%
%ADD39RoundRect,0.237500X0.237500X-0.300000X0.237500X0.300000X-0.237500X0.300000X-0.237500X-0.300000X0*%
%ADD40RoundRect,0.237500X-0.287500X-0.237500X0.287500X-0.237500X0.287500X0.237500X-0.287500X0.237500X0*%
G04 APERTURE END LIST*
D10*
%TO.C,J13*%
X111970000Y-138250000D03*
D11*
X117050000Y-138250000D03*
%TD*%
D12*
%TO.C,TP1*%
X115500000Y-88500000D03*
%TD*%
D13*
%TO.C,U5*%
X149000000Y-110140000D03*
D14*
X149000000Y-107600000D03*
X149000000Y-105060000D03*
X149000000Y-102520000D03*
X149000000Y-99980000D03*
X149000000Y-97440000D03*
X149000000Y-94900000D03*
X149000000Y-92360000D03*
X141380000Y-92360000D03*
X141380000Y-94900000D03*
X141380000Y-97440000D03*
X141380000Y-99980000D03*
X141380000Y-102520000D03*
X141380000Y-105060000D03*
X141380000Y-107600000D03*
X141380000Y-110140000D03*
%TD*%
D15*
%TO.C,SW1*%
X111750000Y-92800000D03*
X119700000Y-92800000D03*
X111750000Y-97300000D03*
X119700000Y-97300000D03*
%TD*%
D16*
%TO.C,D5*%
X167362500Y-111475000D03*
X170162500Y-111475000D03*
X170162500Y-112925000D03*
X167362500Y-112925000D03*
%TD*%
D17*
%TO.C,U10*%
X140600000Y-121770000D03*
D18*
X140600000Y-126850000D03*
X140600000Y-137010000D03*
X140600000Y-139550000D03*
%TD*%
D12*
%TO.C,TP4*%
X100500000Y-49500000D03*
%TD*%
D19*
%TO.C,J8*%
X118320000Y-72800000D03*
D20*
X120860000Y-72800000D03*
X123400000Y-72800000D03*
X125940000Y-72800000D03*
X128480000Y-72800000D03*
X131020000Y-72800000D03*
X133560000Y-72800000D03*
X136100000Y-72800000D03*
%TD*%
D19*
%TO.C,J4*%
X149360000Y-85500000D03*
D20*
X151900000Y-85500000D03*
%TD*%
D21*
%TO.C,U1*%
X201420000Y-83850000D03*
X200150000Y-83850000D03*
X198880000Y-83850000D03*
X197610000Y-83850000D03*
X196340000Y-83850000D03*
X195070000Y-83850000D03*
X193800000Y-83850000D03*
X192530000Y-83850000D03*
X191260000Y-83850000D03*
X189990000Y-83850000D03*
X188720000Y-83850000D03*
X187450000Y-83850000D03*
X186180000Y-83850000D03*
X184910000Y-83850000D03*
D22*
X183660000Y-86890000D03*
X183660000Y-88160000D03*
X183660000Y-89430000D03*
X183660000Y-90700000D03*
X183660000Y-91970000D03*
X183660000Y-93240000D03*
X183660000Y-94510000D03*
X183660000Y-95780000D03*
X183660000Y-97050000D03*
X183660000Y-98320000D03*
D21*
X184910000Y-101350000D03*
X186180000Y-101350000D03*
X187450000Y-101350000D03*
X188720000Y-101350000D03*
X189990000Y-101350000D03*
X191260000Y-101350000D03*
X192530000Y-101350000D03*
X193800000Y-101350000D03*
X195070000Y-101350000D03*
X196340000Y-101350000D03*
X197610000Y-101350000D03*
X198880000Y-101350000D03*
X200150000Y-101350000D03*
X201420000Y-101350000D03*
D23*
X194842500Y-90395000D03*
X193317500Y-90395000D03*
X195605000Y-91157500D03*
X194080000Y-91157500D03*
X192555000Y-91157500D03*
X194842500Y-91920000D03*
D24*
X194080000Y-91920000D03*
D23*
X193317500Y-91920000D03*
X195605000Y-92682500D03*
X194080000Y-92682500D03*
X192555000Y-92682500D03*
X194842500Y-93445000D03*
X193317500Y-93445000D03*
%TD*%
D25*
%TO.C,U13*%
X186500000Y-122525000D03*
X186500000Y-124825000D03*
D26*
X192800000Y-124825000D03*
D25*
X186500000Y-127125000D03*
%TD*%
D27*
%TO.C,R1*%
X162400000Y-113300000D03*
X162400000Y-111300000D03*
%TD*%
D28*
%TO.C,C7*%
X173925000Y-135525000D03*
X173925000Y-137250000D03*
%TD*%
D17*
%TO.C,U9*%
X75280000Y-127980000D03*
D18*
X70200000Y-127980000D03*
X60040000Y-127980000D03*
X57500000Y-127980000D03*
%TD*%
D29*
%TO.C,R6*%
X124900000Y-109800000D03*
X124900000Y-111800000D03*
%TD*%
D17*
%TO.C,U6*%
X122400000Y-121570000D03*
D18*
X122400000Y-126650000D03*
X122400000Y-136810000D03*
X122400000Y-139350000D03*
%TD*%
D30*
%TO.C,CON1*%
X174127500Y-51472500D03*
D18*
X174127500Y-54012500D03*
X174127500Y-56552500D03*
X174127500Y-59092500D03*
X174127500Y-61632500D03*
X174127500Y-64172500D03*
X174127500Y-66712500D03*
X174127500Y-69252500D03*
X196987500Y-69252500D03*
X196987500Y-66712500D03*
X196987500Y-64172500D03*
X196987500Y-61632500D03*
X196987500Y-59092500D03*
X196987500Y-56552500D03*
X196987500Y-54012500D03*
D17*
X196987500Y-51472500D03*
%TD*%
D19*
%TO.C,J18*%
X130720000Y-78200000D03*
D20*
X133260000Y-78200000D03*
X135800000Y-78200000D03*
%TD*%
D12*
%TO.C,TP3*%
X100500000Y-63500000D03*
%TD*%
D31*
%TO.C,J10*%
X197800000Y-138540000D03*
D11*
X197800000Y-133460000D03*
%TD*%
D12*
%TO.C,TP5*%
X176050000Y-119530000D03*
%TD*%
D19*
%TO.C,J6*%
X97150000Y-49875000D03*
D20*
X97150000Y-52415000D03*
X97150000Y-54955000D03*
X97150000Y-57495000D03*
X97150000Y-60035000D03*
X97150000Y-62575000D03*
%TD*%
D12*
%TO.C,TP2*%
X115770000Y-102500000D03*
%TD*%
D17*
%TO.C,U11*%
X75590000Y-107900000D03*
D18*
X70510000Y-107900000D03*
X60350000Y-107900000D03*
X57810000Y-107900000D03*
%TD*%
D15*
%TO.C,SW2*%
X111750000Y-106400000D03*
X119700000Y-106400000D03*
X111750000Y-110900000D03*
X119700000Y-110900000D03*
%TD*%
D10*
%TO.C,J14*%
X94010000Y-138900000D03*
D11*
X99090000Y-138900000D03*
%TD*%
D29*
%TO.C,R8*%
X143800000Y-84300000D03*
X143800000Y-86300000D03*
%TD*%
D32*
%TO.C,R9*%
X196200000Y-113800000D03*
X194200000Y-113800000D03*
%TD*%
D17*
%TO.C,U7*%
X104250000Y-121870000D03*
D18*
X104250000Y-126950000D03*
X104250000Y-137110000D03*
X104250000Y-139650000D03*
%TD*%
D28*
%TO.C,C4*%
X181525000Y-127112500D03*
X181525000Y-128837500D03*
%TD*%
D33*
%TO.C,J16*%
X58700000Y-117520000D03*
D11*
X58700000Y-122600000D03*
%TD*%
D10*
%TO.C,J15*%
X76070000Y-139350000D03*
D11*
X81150000Y-139350000D03*
%TD*%
D34*
%TO.C,F1*%
X192175000Y-138175000D03*
X189200000Y-138175000D03*
%TD*%
D35*
%TO.C,U4*%
X183950000Y-139050000D03*
X183950000Y-136750000D03*
D36*
X177650000Y-136750000D03*
D35*
X183950000Y-134450000D03*
%TD*%
D10*
%TO.C,J12*%
X130270000Y-138350000D03*
D11*
X135350000Y-138350000D03*
%TD*%
D29*
%TO.C,R3*%
X124800000Y-91700000D03*
X124800000Y-93700000D03*
%TD*%
D19*
%TO.C,J3*%
X168700000Y-69640000D03*
D20*
X168700000Y-67100000D03*
X168700000Y-64560000D03*
X168700000Y-62020000D03*
X168700000Y-59480000D03*
X168700000Y-56940000D03*
X168700000Y-54400000D03*
X168700000Y-51860000D03*
%TD*%
D19*
%TO.C,J9*%
X181925000Y-107620000D03*
D20*
X181925000Y-110160000D03*
X181925000Y-112700000D03*
X181925000Y-115240000D03*
%TD*%
D10*
%TO.C,J11*%
X148570000Y-138350000D03*
D11*
X153650000Y-138350000D03*
%TD*%
D17*
%TO.C,U12*%
X158750000Y-121670000D03*
D18*
X158750000Y-126750000D03*
X158750000Y-136910000D03*
X158750000Y-139450000D03*
%TD*%
D37*
%TO.C,F3*%
X199750000Y-119500000D03*
X199750000Y-122475000D03*
%TD*%
D12*
%TO.C,TP8*%
X146000000Y-66000000D03*
%TD*%
%TO.C,TP7*%
X146000000Y-61500000D03*
%TD*%
D19*
%TO.C,J2*%
X107600000Y-77475000D03*
D20*
X107600000Y-80015000D03*
X107600000Y-82555000D03*
%TD*%
D38*
%TO.C,F2*%
X172575000Y-127000000D03*
X175550000Y-127000000D03*
%TD*%
D29*
%TO.C,R4*%
X124900000Y-97100000D03*
X124900000Y-99100000D03*
%TD*%
D19*
%TO.C,J1*%
X147960000Y-76100000D03*
D20*
X150500000Y-76100000D03*
X153040000Y-76100000D03*
%TD*%
D33*
%TO.C,J17*%
X58700000Y-97370000D03*
D11*
X58700000Y-102450000D03*
%TD*%
D39*
%TO.C,C6*%
X187987500Y-134437500D03*
X187987500Y-132712500D03*
%TD*%
D17*
%TO.C,U8*%
X86500000Y-122320000D03*
D18*
X86500000Y-127400000D03*
X86500000Y-137560000D03*
X86500000Y-140100000D03*
%TD*%
D29*
%TO.C,R5*%
X124900000Y-103800000D03*
X124900000Y-105800000D03*
%TD*%
D28*
%TO.C,C5*%
X196950000Y-124850000D03*
X196950000Y-126575000D03*
%TD*%
D40*
%TO.C,D4*%
X189550000Y-113800000D03*
X191300000Y-113800000D03*
%TD*%
M02*
