M48
; DRILL file {KiCad 8.0.0} date 2025-02-17T23:08:15+0530
; FORMAT={-:-/ absolute / inch / decimal}
; #@! TF.CreationDate,2025-02-17T23:08:15+05:30
; #@! TF.GenerationSoftware,Kicad,Pcbnew,8.0.0
; #@! TF.FileFunction,Plated,1,2,PTH
FMAT,2
INCH
; #@! TA.AperFunction,Plated,PTH,ComponentDrill
T1C0.0079
; #@! TA.AperFunction,Plated,PTH,ViaDrill
T2C0.0118
; #@! TA.AperFunction,Plated,PTH,ComponentDrill
T3C0.0323
; #@! TA.AperFunction,Plated,PTH,ComponentDrill
T4C0.0350
; #@! TA.AperFunction,Plated,PTH,ComponentDrill
T5C0.0394
; #@! TA.AperFunction,Plated,PTH,ComponentDrill
T6C0.0400
; #@! TA.AperFunction,Plated,PTH,ComponentDrill
T7C0.0433
%
G90
G05
T1
X7.5809Y-3.5889
X7.5809Y-3.6489
X7.6109Y-3.5589
X7.6109Y-3.6189
X7.6109Y-3.6789
X7.6409Y-3.5889
X7.6409Y-3.6489
X7.671Y-3.5589
X7.671Y-3.6189
X7.671Y-3.6789
X7.701Y-3.5889
X7.701Y-3.6489
T2
X4.0551Y-1.9685
X5.0276Y-3.7047
X5.4114Y-4.3937
X5.4134Y-4.5256
X5.6378Y-2.2126
X5.6713Y-2.6661
X5.815Y-2.7441
X5.9173Y-3.5433
X5.9331Y-3.1339
X5.9882Y-3.7441
X6.0551Y-3.5472
X6.0551Y-3.7283
X6.1181Y-3.1929
X6.1417Y-3.8425
X6.1496Y-3.437
X6.1614Y-3.622
X6.1654Y-4.1929
X6.1732Y-3.3386
X6.185Y-3.5315
X6.2283Y-3.2126
X6.2283Y-3.7677
X6.2913Y-3.8642
X6.3071Y-3.6142
X6.3583Y-3.9055
X6.3583Y-4.0748
X6.3937Y-4.1772
X6.4173Y-1.9685
X6.4173Y-3.5157
X6.4567Y-3.7559
X6.4764Y-3.626
X6.4921Y-3.3504
X6.4961Y-2.9843
X6.5748Y-3.5433
X6.5945Y-4.5039
X6.6024Y-3.063
X6.6457Y-3.4252
X6.7126Y-3.2441
X6.7205Y-3.6732
X6.7205Y-4.1063
X6.7205Y-4.1693
X6.7205Y-4.3307
X6.7441Y-3.1811
X6.7441Y-4.8937
X6.7598Y-3.315
X6.7756Y-1.8268
X6.7874Y-4.1969
X6.8071Y-4.2598
X6.815Y-3.7795
X6.8543Y-3.5945
X6.878Y-4.3898
X6.8819Y-4.0
X6.8937Y-4.0748
X6.9094Y-3.6654
X6.9134Y-3.5512
X6.9331Y-4.1732
X6.9567Y-4.1063
X7.0079Y-4.1063
X7.0236Y-3.3189
X7.0315Y-3.2244
X7.0374Y-4.374
X7.0472Y-3.7874
X7.0472Y-4.063
X7.0492Y-4.4941
X7.0945Y-3.8583
X7.1024Y-3.3661
X7.1142Y-1.9134
X7.1496Y-3.2205
X7.1535Y-3.3031
X7.1535Y-3.8701
X7.1575Y-3.4764
X7.1575Y-3.622
X7.1575Y-3.6732
X7.1575Y-3.7165
X7.1575Y-3.7756
X7.1575Y-3.8189
X7.1654Y-3.0591
X7.2598Y-4.0551
X7.2795Y-3.1693
X7.2795Y-3.2205
X7.3031Y-2.6724
X7.311Y-2.8433
X7.311Y-2.9921
X7.3268Y-3.2205
X7.3307Y-4.063
X7.3327Y-4.376
X7.374Y-3.2165
X7.374Y-3.8425
X7.378Y-2.3583
X7.3819Y-4.0591
X7.4094Y-3.1142
X7.4764Y-2.9409
X7.4774Y-4.061
X7.502Y-2.125
X7.503Y-2.2077
X7.5157Y-3.0787
X7.5266Y-4.0591
X7.5276Y-3.1693
X7.5561Y-2.3612
X7.5787Y-2.6654
X7.5787Y-4.062
X7.5797Y-3.2392
X7.6299Y-3.2374
X7.6299Y-3.378
X7.6772Y-4.063
X7.6807Y-3.2374
X7.7244Y-3.0
X7.811Y-2.9449
X7.8307Y-4.0591
X7.875Y-2.8398
X7.877Y-4.0571
X7.8839Y-3.2185
X7.8976Y-3.1614
X7.9252Y-4.0817
X7.9409Y-3.1772
X7.9537Y-2.1112
X7.9606Y-4.0817
T3
X5.5661Y-3.6362
X5.5661Y-3.7362
X5.5661Y-3.8362
X5.5661Y-3.9362
X5.5661Y-4.0362
X5.5661Y-4.1362
X5.5661Y-4.2362
X5.5661Y-4.3362
X5.8661Y-3.6362
X5.8661Y-3.7362
X5.8661Y-3.8362
X5.8661Y-3.9362
X5.8661Y-4.0362
X5.8661Y-4.1362
X5.8661Y-4.2362
X5.8661Y-4.3362
T4
X6.8554Y-2.0265
X6.8554Y-2.1265
X6.8554Y-2.2265
X6.8554Y-2.3265
X6.8554Y-2.4265
X6.8554Y-2.5265
X6.8554Y-2.6265
X6.8554Y-2.7265
X7.7554Y-2.0265
X7.7554Y-2.1265
X7.7554Y-2.2265
X7.7554Y-2.3265
X7.7554Y-2.4265
X7.7554Y-2.5265
X7.7554Y-2.6265
X7.7554Y-2.7265
T5
X3.8248Y-1.9636
X3.8248Y-2.0636
X3.8248Y-2.1636
X3.8248Y-2.2636
X3.8248Y-2.3636
X3.8248Y-2.4636
X4.2362Y-3.0502
X4.2362Y-3.1502
X4.2362Y-3.2502
X4.6583Y-2.8661
X4.7583Y-2.8661
X4.8583Y-2.8661
X4.9583Y-2.8661
X5.0583Y-2.8661
X5.1465Y-3.0787
X5.1583Y-2.8661
X5.2465Y-3.0787
X5.2583Y-2.8661
X5.3465Y-3.0787
X5.3583Y-2.8661
X5.8252Y-2.9961
X5.8803Y-3.3661
X5.9252Y-2.9961
X5.9803Y-3.3661
X6.0252Y-2.9961
X6.6417Y-2.0417
X6.6417Y-2.1417
X6.6417Y-2.2417
X6.6417Y-2.3417
X6.6417Y-2.4417
X6.6417Y-2.5417
X6.6417Y-2.6417
X6.6417Y-2.7417
X7.1624Y-4.237
X7.1624Y-4.337
X7.1624Y-4.437
X7.1624Y-4.537
T6
X2.2638Y-5.0386
X2.276Y-4.248
X2.3638Y-5.0386
X2.376Y-4.248
X2.7638Y-5.0386
X2.776Y-4.248
X2.9638Y-5.0386
X2.976Y-4.248
X3.4055Y-4.8157
X3.4055Y-5.0157
X3.4055Y-5.4157
X3.4055Y-5.5157
X4.1043Y-4.798
X4.1043Y-4.998
X4.1043Y-5.398
X4.1043Y-5.498
X4.8189Y-4.7862
X4.8189Y-4.9862
X4.8189Y-5.3862
X4.8189Y-5.4862
X5.5354Y-4.7941
X5.5354Y-4.9941
X5.5354Y-5.3941
X5.5354Y-5.4941
X6.25Y-4.7902
X6.25Y-4.9902
X6.25Y-5.3902
X6.25Y-5.4902
T7
X2.311Y-3.8335
X2.311Y-4.0335
X2.311Y-4.6268
X2.311Y-4.8268
X2.9949Y-5.4862
X3.1949Y-5.4862
X3.7012Y-5.4685
X3.9012Y-5.4685
X4.4083Y-5.4429
X4.6083Y-5.4429
X5.1287Y-5.4469
X5.3287Y-5.4469
X5.8492Y-5.4469
X6.0492Y-5.4469
X7.7874Y-5.2543
X7.7874Y-5.4543
M30
