%TF.GenerationSoftware,KiCad,Pcbnew,8.0.0*%
%TF.CreationDate,2025-02-17T23:08:18+05:30*%
%TF.ProjectId,MCU_motorcycle,4d43555f-6d6f-4746-9f72-6379636c652e,rev?*%
%TF.SameCoordinates,Original*%
%TF.FileFunction,Paste,Top*%
%TF.FilePolarity,Positive*%
%FSLAX46Y46*%
G04 Gerber Fmt 4.6, Leading zero omitted, Abs format (unit mm)*
G04 Created by KiCad (PCBNEW 8.0.0) date 2025-02-17 23:08:18*
%MOMM*%
%LPD*%
G01*
G04 APERTURE LIST*
G04 Aperture macros list*
%AMRoundRect*
0 Rectangle with rounded corners*
0 $1 Rounding radius*
0 $2 $3 $4 $5 $6 $7 $8 $9 X,Y pos of 4 corners*
0 Add a 4 corners polygon primitive as box body*
4,1,4,$2,$3,$4,$5,$6,$7,$8,$9,$2,$3,0*
0 Add four circle primitives for the rounded corners*
1,1,$1+$1,$2,$3*
1,1,$1+$1,$4,$5*
1,1,$1+$1,$6,$7*
1,1,$1+$1,$8,$9*
0 Add four rect primitives between the rounded corners*
20,1,$1+$1,$2,$3,$4,$5,0*
20,1,$1+$1,$4,$5,$6,$7,0*
20,1,$1+$1,$6,$7,$8,$9,0*
20,1,$1+$1,$8,$9,$2,$3,0*%
G04 Aperture macros list end*
%ADD10R,1.550000X1.300000*%
%ADD11R,1.200000X0.900000*%
%ADD12R,0.900000X1.500000*%
%ADD13R,1.500000X0.900000*%
%ADD14R,1.050000X1.050000*%
%ADD15RoundRect,0.375000X-0.625000X-0.375000X0.625000X-0.375000X0.625000X0.375000X-0.625000X0.375000X0*%
%ADD16RoundRect,0.500000X-0.500000X-1.400000X0.500000X-1.400000X0.500000X1.400000X-0.500000X1.400000X0*%
%ADD17RoundRect,0.250000X0.450000X-0.350000X0.450000X0.350000X-0.450000X0.350000X-0.450000X-0.350000X0*%
%ADD18RoundRect,0.237500X-0.237500X0.300000X-0.237500X-0.300000X0.237500X-0.300000X0.237500X0.300000X0*%
%ADD19RoundRect,0.250000X-0.450000X0.350000X-0.450000X-0.350000X0.450000X-0.350000X0.450000X0.350000X0*%
%ADD20RoundRect,0.250000X0.350000X0.450000X-0.350000X0.450000X-0.350000X-0.450000X0.350000X-0.450000X0*%
%ADD21RoundRect,0.250001X0.462499X0.624999X-0.462499X0.624999X-0.462499X-0.624999X0.462499X-0.624999X0*%
%ADD22RoundRect,0.375000X0.625000X0.375000X-0.625000X0.375000X-0.625000X-0.375000X0.625000X-0.375000X0*%
%ADD23RoundRect,0.500000X0.500000X1.400000X-0.500000X1.400000X-0.500000X-1.400000X0.500000X-1.400000X0*%
%ADD24RoundRect,0.250001X-0.624999X0.462499X-0.624999X-0.462499X0.624999X-0.462499X0.624999X0.462499X0*%
%ADD25RoundRect,0.250001X-0.462499X-0.624999X0.462499X-0.624999X0.462499X0.624999X-0.462499X0.624999X0*%
%ADD26RoundRect,0.237500X0.237500X-0.300000X0.237500X0.300000X-0.237500X0.300000X-0.237500X-0.300000X0*%
%ADD27RoundRect,0.237500X-0.287500X-0.237500X0.287500X-0.237500X0.287500X0.237500X-0.287500X0.237500X0*%
G04 APERTURE END LIST*
D10*
%TO.C,SW1*%
X111750000Y-92800000D03*
X119700000Y-92800000D03*
X111750000Y-97300000D03*
X119700000Y-97300000D03*
%TD*%
D11*
%TO.C,D5*%
X167362500Y-111475000D03*
X170162500Y-111475000D03*
X170162500Y-112925000D03*
X167362500Y-112925000D03*
%TD*%
D12*
%TO.C,U1*%
X201420000Y-83850000D03*
X200150000Y-83850000D03*
X198880000Y-83850000D03*
X197610000Y-83850000D03*
X196340000Y-83850000D03*
X195070000Y-83850000D03*
X193800000Y-83850000D03*
X192530000Y-83850000D03*
X191260000Y-83850000D03*
X189990000Y-83850000D03*
X188720000Y-83850000D03*
X187450000Y-83850000D03*
X186180000Y-83850000D03*
X184910000Y-83850000D03*
D13*
X183660000Y-86890000D03*
X183660000Y-88160000D03*
X183660000Y-89430000D03*
X183660000Y-90700000D03*
X183660000Y-91970000D03*
X183660000Y-93240000D03*
X183660000Y-94510000D03*
X183660000Y-95780000D03*
X183660000Y-97050000D03*
X183660000Y-98320000D03*
D12*
X184910000Y-101350000D03*
X186180000Y-101350000D03*
X187450000Y-101350000D03*
X188720000Y-101350000D03*
X189990000Y-101350000D03*
X191260000Y-101350000D03*
X192530000Y-101350000D03*
X193800000Y-101350000D03*
X195070000Y-101350000D03*
X196340000Y-101350000D03*
X197610000Y-101350000D03*
X198880000Y-101350000D03*
X200150000Y-101350000D03*
X201420000Y-101350000D03*
D14*
X195605000Y-90395000D03*
X194080000Y-90395000D03*
X192555000Y-90395000D03*
X195605000Y-91920000D03*
X194080000Y-91920000D03*
X192555000Y-91920000D03*
X195605000Y-93445000D03*
X194080000Y-93445000D03*
X192555000Y-93445000D03*
%TD*%
D15*
%TO.C,U13*%
X186500000Y-122525000D03*
X186500000Y-124825000D03*
D16*
X192800000Y-124825000D03*
D15*
X186500000Y-127125000D03*
%TD*%
D17*
%TO.C,R1*%
X162400000Y-113300000D03*
X162400000Y-111300000D03*
%TD*%
D18*
%TO.C,C7*%
X173925000Y-135525000D03*
X173925000Y-137250000D03*
%TD*%
D19*
%TO.C,R6*%
X124900000Y-109800000D03*
X124900000Y-111800000D03*
%TD*%
D10*
%TO.C,SW2*%
X111750000Y-106400000D03*
X119700000Y-106400000D03*
X111750000Y-110900000D03*
X119700000Y-110900000D03*
%TD*%
D19*
%TO.C,R8*%
X143800000Y-84300000D03*
X143800000Y-86300000D03*
%TD*%
D20*
%TO.C,R9*%
X196200000Y-113800000D03*
X194200000Y-113800000D03*
%TD*%
D18*
%TO.C,C4*%
X181525000Y-127112500D03*
X181525000Y-128837500D03*
%TD*%
D21*
%TO.C,F1*%
X192175000Y-138175000D03*
X189200000Y-138175000D03*
%TD*%
D22*
%TO.C,U4*%
X183950000Y-139050000D03*
X183950000Y-136750000D03*
D23*
X177650000Y-136750000D03*
D22*
X183950000Y-134450000D03*
%TD*%
D19*
%TO.C,R3*%
X124800000Y-91700000D03*
X124800000Y-93700000D03*
%TD*%
D24*
%TO.C,F3*%
X199750000Y-119500000D03*
X199750000Y-122475000D03*
%TD*%
D25*
%TO.C,F2*%
X172575000Y-127000000D03*
X175550000Y-127000000D03*
%TD*%
D19*
%TO.C,R4*%
X124900000Y-97100000D03*
X124900000Y-99100000D03*
%TD*%
D26*
%TO.C,C6*%
X187987500Y-134437500D03*
X187987500Y-132712500D03*
%TD*%
D19*
%TO.C,R5*%
X124900000Y-103800000D03*
X124900000Y-105800000D03*
%TD*%
D18*
%TO.C,C5*%
X196950000Y-124850000D03*
X196950000Y-126575000D03*
%TD*%
D27*
%TO.C,D4*%
X189550000Y-113800000D03*
X191300000Y-113800000D03*
%TD*%
M02*
