%TF.GenerationSoftware,KiCad,Pcbnew,8.0.0*%
%TF.CreationDate,2025-02-17T23:08:18+05:30*%
%TF.ProjectId,MCU_motorcycle,4d43555f-6d6f-4746-9f72-6379636c652e,rev?*%
%TF.SameCoordinates,Original*%
%TF.FileFunction,Legend,Top*%
%TF.FilePolarity,Positive*%
%FSLAX46Y46*%
G04 Gerber Fmt 4.6, Leading zero omitted, Abs format (unit mm)*
G04 Created by KiCad (PCBNEW 8.0.0) date 2025-02-17 23:08:18*
%MOMM*%
%LPD*%
G01*
G04 APERTURE LIST*
%ADD10C,0.100000*%
%ADD11C,0.300000*%
%ADD12C,0.150000*%
%ADD13C,0.127000*%
%ADD14C,0.120000*%
%ADD15C,0.240000*%
%ADD16C,0.200000*%
%ADD17C,0.152400*%
%ADD18C,0.304800*%
%ADD19C,0.508000*%
G04 APERTURE END LIST*
D10*
X100097353Y-57843240D02*
X99764020Y-57367049D01*
X99525925Y-57843240D02*
X99525925Y-56843240D01*
X99525925Y-56843240D02*
X99906877Y-56843240D01*
X99906877Y-56843240D02*
X100002115Y-56890859D01*
X100002115Y-56890859D02*
X100049734Y-56938478D01*
X100049734Y-56938478D02*
X100097353Y-57033716D01*
X100097353Y-57033716D02*
X100097353Y-57176573D01*
X100097353Y-57176573D02*
X100049734Y-57271811D01*
X100049734Y-57271811D02*
X100002115Y-57319430D01*
X100002115Y-57319430D02*
X99906877Y-57367049D01*
X99906877Y-57367049D02*
X99525925Y-57367049D01*
X100430687Y-57843240D02*
X100954496Y-57176573D01*
X100430687Y-57176573D02*
X100954496Y-57843240D01*
X164547693Y-69340038D02*
X164452455Y-69292419D01*
X164452455Y-69292419D02*
X164309598Y-69292419D01*
X164309598Y-69292419D02*
X164166741Y-69340038D01*
X164166741Y-69340038D02*
X164071503Y-69435276D01*
X164071503Y-69435276D02*
X164023884Y-69530514D01*
X164023884Y-69530514D02*
X163976265Y-69720990D01*
X163976265Y-69720990D02*
X163976265Y-69863847D01*
X163976265Y-69863847D02*
X164023884Y-70054323D01*
X164023884Y-70054323D02*
X164071503Y-70149561D01*
X164071503Y-70149561D02*
X164166741Y-70244800D01*
X164166741Y-70244800D02*
X164309598Y-70292419D01*
X164309598Y-70292419D02*
X164404836Y-70292419D01*
X164404836Y-70292419D02*
X164547693Y-70244800D01*
X164547693Y-70244800D02*
X164595312Y-70197180D01*
X164595312Y-70197180D02*
X164595312Y-69863847D01*
X164595312Y-69863847D02*
X164404836Y-69863847D01*
X165023884Y-70292419D02*
X165023884Y-69292419D01*
X165023884Y-69292419D02*
X165595312Y-70292419D01*
X165595312Y-70292419D02*
X165595312Y-69292419D01*
X166071503Y-70292419D02*
X166071503Y-69292419D01*
X166071503Y-69292419D02*
X166309598Y-69292419D01*
X166309598Y-69292419D02*
X166452455Y-69340038D01*
X166452455Y-69340038D02*
X166547693Y-69435276D01*
X166547693Y-69435276D02*
X166595312Y-69530514D01*
X166595312Y-69530514D02*
X166642931Y-69720990D01*
X166642931Y-69720990D02*
X166642931Y-69863847D01*
X166642931Y-69863847D02*
X166595312Y-70054323D01*
X166595312Y-70054323D02*
X166547693Y-70149561D01*
X166547693Y-70149561D02*
X166452455Y-70244800D01*
X166452455Y-70244800D02*
X166309598Y-70292419D01*
X166309598Y-70292419D02*
X166071503Y-70292419D01*
X125566265Y-75874800D02*
X125709122Y-75922419D01*
X125709122Y-75922419D02*
X125947217Y-75922419D01*
X125947217Y-75922419D02*
X126042455Y-75874800D01*
X126042455Y-75874800D02*
X126090074Y-75827180D01*
X126090074Y-75827180D02*
X126137693Y-75731942D01*
X126137693Y-75731942D02*
X126137693Y-75636704D01*
X126137693Y-75636704D02*
X126090074Y-75541466D01*
X126090074Y-75541466D02*
X126042455Y-75493847D01*
X126042455Y-75493847D02*
X125947217Y-75446228D01*
X125947217Y-75446228D02*
X125756741Y-75398609D01*
X125756741Y-75398609D02*
X125661503Y-75350990D01*
X125661503Y-75350990D02*
X125613884Y-75303371D01*
X125613884Y-75303371D02*
X125566265Y-75208133D01*
X125566265Y-75208133D02*
X125566265Y-75112895D01*
X125566265Y-75112895D02*
X125613884Y-75017657D01*
X125613884Y-75017657D02*
X125661503Y-74970038D01*
X125661503Y-74970038D02*
X125756741Y-74922419D01*
X125756741Y-74922419D02*
X125994836Y-74922419D01*
X125994836Y-74922419D02*
X126137693Y-74970038D01*
X126566265Y-75922419D02*
X126566265Y-74922419D01*
X126566265Y-74922419D02*
X126804360Y-74922419D01*
X126804360Y-74922419D02*
X126947217Y-74970038D01*
X126947217Y-74970038D02*
X127042455Y-75065276D01*
X127042455Y-75065276D02*
X127090074Y-75160514D01*
X127090074Y-75160514D02*
X127137693Y-75350990D01*
X127137693Y-75350990D02*
X127137693Y-75493847D01*
X127137693Y-75493847D02*
X127090074Y-75684323D01*
X127090074Y-75684323D02*
X127042455Y-75779561D01*
X127042455Y-75779561D02*
X126947217Y-75874800D01*
X126947217Y-75874800D02*
X126804360Y-75922419D01*
X126804360Y-75922419D02*
X126566265Y-75922419D01*
X127518646Y-75636704D02*
X127994836Y-75636704D01*
X127423408Y-75922419D02*
X127756741Y-74922419D01*
X127756741Y-74922419D02*
X128090074Y-75922419D01*
D11*
X176165225Y-50700828D02*
X176665225Y-52200828D01*
X176665225Y-52200828D02*
X177165225Y-50700828D01*
X177665224Y-52200828D02*
X177665224Y-51200828D01*
X177665224Y-50700828D02*
X177593796Y-50772257D01*
X177593796Y-50772257D02*
X177665224Y-50843685D01*
X177665224Y-50843685D02*
X177736653Y-50772257D01*
X177736653Y-50772257D02*
X177665224Y-50700828D01*
X177665224Y-50700828D02*
X177665224Y-50843685D01*
X178379510Y-51200828D02*
X178379510Y-52200828D01*
X178379510Y-51343685D02*
X178450939Y-51272257D01*
X178450939Y-51272257D02*
X178593796Y-51200828D01*
X178593796Y-51200828D02*
X178808082Y-51200828D01*
X178808082Y-51200828D02*
X178950939Y-51272257D01*
X178950939Y-51272257D02*
X179022368Y-51415114D01*
X179022368Y-51415114D02*
X179022368Y-52200828D01*
D10*
X119681027Y-74882419D02*
X120014360Y-75882419D01*
X120014360Y-75882419D02*
X120347693Y-74882419D01*
X121252455Y-75787180D02*
X121204836Y-75834800D01*
X121204836Y-75834800D02*
X121061979Y-75882419D01*
X121061979Y-75882419D02*
X120966741Y-75882419D01*
X120966741Y-75882419D02*
X120823884Y-75834800D01*
X120823884Y-75834800D02*
X120728646Y-75739561D01*
X120728646Y-75739561D02*
X120681027Y-75644323D01*
X120681027Y-75644323D02*
X120633408Y-75453847D01*
X120633408Y-75453847D02*
X120633408Y-75310990D01*
X120633408Y-75310990D02*
X120681027Y-75120514D01*
X120681027Y-75120514D02*
X120728646Y-75025276D01*
X120728646Y-75025276D02*
X120823884Y-74930038D01*
X120823884Y-74930038D02*
X120966741Y-74882419D01*
X120966741Y-74882419D02*
X121061979Y-74882419D01*
X121061979Y-74882419D02*
X121204836Y-74930038D01*
X121204836Y-74930038D02*
X121252455Y-74977657D01*
X122252455Y-75787180D02*
X122204836Y-75834800D01*
X122204836Y-75834800D02*
X122061979Y-75882419D01*
X122061979Y-75882419D02*
X121966741Y-75882419D01*
X121966741Y-75882419D02*
X121823884Y-75834800D01*
X121823884Y-75834800D02*
X121728646Y-75739561D01*
X121728646Y-75739561D02*
X121681027Y-75644323D01*
X121681027Y-75644323D02*
X121633408Y-75453847D01*
X121633408Y-75453847D02*
X121633408Y-75310990D01*
X121633408Y-75310990D02*
X121681027Y-75120514D01*
X121681027Y-75120514D02*
X121728646Y-75025276D01*
X121728646Y-75025276D02*
X121823884Y-74930038D01*
X121823884Y-74930038D02*
X121966741Y-74882419D01*
X121966741Y-74882419D02*
X122061979Y-74882419D01*
X122061979Y-74882419D02*
X122204836Y-74930038D01*
X122204836Y-74930038D02*
X122252455Y-74977657D01*
D11*
X191286653Y-47557971D02*
X191215225Y-47629400D01*
X191215225Y-47629400D02*
X191000939Y-47700828D01*
X191000939Y-47700828D02*
X190858082Y-47700828D01*
X190858082Y-47700828D02*
X190643796Y-47629400D01*
X190643796Y-47629400D02*
X190500939Y-47486542D01*
X190500939Y-47486542D02*
X190429510Y-47343685D01*
X190429510Y-47343685D02*
X190358082Y-47057971D01*
X190358082Y-47057971D02*
X190358082Y-46843685D01*
X190358082Y-46843685D02*
X190429510Y-46557971D01*
X190429510Y-46557971D02*
X190500939Y-46415114D01*
X190500939Y-46415114D02*
X190643796Y-46272257D01*
X190643796Y-46272257D02*
X190858082Y-46200828D01*
X190858082Y-46200828D02*
X191000939Y-46200828D01*
X191000939Y-46200828D02*
X191215225Y-46272257D01*
X191215225Y-46272257D02*
X191286653Y-46343685D01*
X192215225Y-46200828D02*
X192500939Y-46200828D01*
X192500939Y-46200828D02*
X192643796Y-46272257D01*
X192643796Y-46272257D02*
X192786653Y-46415114D01*
X192786653Y-46415114D02*
X192858082Y-46700828D01*
X192858082Y-46700828D02*
X192858082Y-47200828D01*
X192858082Y-47200828D02*
X192786653Y-47486542D01*
X192786653Y-47486542D02*
X192643796Y-47629400D01*
X192643796Y-47629400D02*
X192500939Y-47700828D01*
X192500939Y-47700828D02*
X192215225Y-47700828D01*
X192215225Y-47700828D02*
X192072368Y-47629400D01*
X192072368Y-47629400D02*
X191929510Y-47486542D01*
X191929510Y-47486542D02*
X191858082Y-47200828D01*
X191858082Y-47200828D02*
X191858082Y-46700828D01*
X191858082Y-46700828D02*
X191929510Y-46415114D01*
X191929510Y-46415114D02*
X192072368Y-46272257D01*
X192072368Y-46272257D02*
X192215225Y-46200828D01*
X193500939Y-47700828D02*
X193500939Y-46200828D01*
X193500939Y-46200828D02*
X194358082Y-47700828D01*
X194358082Y-47700828D02*
X194358082Y-46200828D01*
X195858083Y-47700828D02*
X195000940Y-47700828D01*
X195429511Y-47700828D02*
X195429511Y-46200828D01*
X195429511Y-46200828D02*
X195286654Y-46415114D01*
X195286654Y-46415114D02*
X195143797Y-46557971D01*
X195143797Y-46557971D02*
X195000940Y-46629400D01*
D10*
X109111390Y-107757217D02*
X109063771Y-107900074D01*
X109063771Y-107900074D02*
X109016152Y-107947693D01*
X109016152Y-107947693D02*
X108920914Y-107995312D01*
X108920914Y-107995312D02*
X108778057Y-107995312D01*
X108778057Y-107995312D02*
X108682819Y-107947693D01*
X108682819Y-107947693D02*
X108635200Y-107900074D01*
X108635200Y-107900074D02*
X108587580Y-107804836D01*
X108587580Y-107804836D02*
X108587580Y-107423884D01*
X108587580Y-107423884D02*
X109587580Y-107423884D01*
X109587580Y-107423884D02*
X109587580Y-107757217D01*
X109587580Y-107757217D02*
X109539961Y-107852455D01*
X109539961Y-107852455D02*
X109492342Y-107900074D01*
X109492342Y-107900074D02*
X109397104Y-107947693D01*
X109397104Y-107947693D02*
X109301866Y-107947693D01*
X109301866Y-107947693D02*
X109206628Y-107900074D01*
X109206628Y-107900074D02*
X109159009Y-107852455D01*
X109159009Y-107852455D02*
X109111390Y-107757217D01*
X109111390Y-107757217D02*
X109111390Y-107423884D01*
X109587580Y-108614360D02*
X109587580Y-108804836D01*
X109587580Y-108804836D02*
X109539961Y-108900074D01*
X109539961Y-108900074D02*
X109444723Y-108995312D01*
X109444723Y-108995312D02*
X109254247Y-109042931D01*
X109254247Y-109042931D02*
X108920914Y-109042931D01*
X108920914Y-109042931D02*
X108730438Y-108995312D01*
X108730438Y-108995312D02*
X108635200Y-108900074D01*
X108635200Y-108900074D02*
X108587580Y-108804836D01*
X108587580Y-108804836D02*
X108587580Y-108614360D01*
X108587580Y-108614360D02*
X108635200Y-108519122D01*
X108635200Y-108519122D02*
X108730438Y-108423884D01*
X108730438Y-108423884D02*
X108920914Y-108376265D01*
X108920914Y-108376265D02*
X109254247Y-108376265D01*
X109254247Y-108376265D02*
X109444723Y-108423884D01*
X109444723Y-108423884D02*
X109539961Y-108519122D01*
X109539961Y-108519122D02*
X109587580Y-108614360D01*
X109587580Y-109661979D02*
X109587580Y-109852455D01*
X109587580Y-109852455D02*
X109539961Y-109947693D01*
X109539961Y-109947693D02*
X109444723Y-110042931D01*
X109444723Y-110042931D02*
X109254247Y-110090550D01*
X109254247Y-110090550D02*
X108920914Y-110090550D01*
X108920914Y-110090550D02*
X108730438Y-110042931D01*
X108730438Y-110042931D02*
X108635200Y-109947693D01*
X108635200Y-109947693D02*
X108587580Y-109852455D01*
X108587580Y-109852455D02*
X108587580Y-109661979D01*
X108587580Y-109661979D02*
X108635200Y-109566741D01*
X108635200Y-109566741D02*
X108730438Y-109471503D01*
X108730438Y-109471503D02*
X108920914Y-109423884D01*
X108920914Y-109423884D02*
X109254247Y-109423884D01*
X109254247Y-109423884D02*
X109444723Y-109471503D01*
X109444723Y-109471503D02*
X109539961Y-109566741D01*
X109539961Y-109566741D02*
X109587580Y-109661979D01*
X109587580Y-110376265D02*
X109587580Y-110947693D01*
X108587580Y-110661979D02*
X109587580Y-110661979D01*
X191373884Y-142882419D02*
X191373884Y-141882419D01*
X191373884Y-141882419D02*
X191754836Y-141882419D01*
X191754836Y-141882419D02*
X191850074Y-141930038D01*
X191850074Y-141930038D02*
X191897693Y-141977657D01*
X191897693Y-141977657D02*
X191945312Y-142072895D01*
X191945312Y-142072895D02*
X191945312Y-142215752D01*
X191945312Y-142215752D02*
X191897693Y-142310990D01*
X191897693Y-142310990D02*
X191850074Y-142358609D01*
X191850074Y-142358609D02*
X191754836Y-142406228D01*
X191754836Y-142406228D02*
X191373884Y-142406228D01*
X192564360Y-141882419D02*
X192754836Y-141882419D01*
X192754836Y-141882419D02*
X192850074Y-141930038D01*
X192850074Y-141930038D02*
X192945312Y-142025276D01*
X192945312Y-142025276D02*
X192992931Y-142215752D01*
X192992931Y-142215752D02*
X192992931Y-142549085D01*
X192992931Y-142549085D02*
X192945312Y-142739561D01*
X192945312Y-142739561D02*
X192850074Y-142834800D01*
X192850074Y-142834800D02*
X192754836Y-142882419D01*
X192754836Y-142882419D02*
X192564360Y-142882419D01*
X192564360Y-142882419D02*
X192469122Y-142834800D01*
X192469122Y-142834800D02*
X192373884Y-142739561D01*
X192373884Y-142739561D02*
X192326265Y-142549085D01*
X192326265Y-142549085D02*
X192326265Y-142215752D01*
X192326265Y-142215752D02*
X192373884Y-142025276D01*
X192373884Y-142025276D02*
X192469122Y-141930038D01*
X192469122Y-141930038D02*
X192564360Y-141882419D01*
X193326265Y-141882419D02*
X193564360Y-142882419D01*
X193564360Y-142882419D02*
X193754836Y-142168133D01*
X193754836Y-142168133D02*
X193945312Y-142882419D01*
X193945312Y-142882419D02*
X194183408Y-141882419D01*
X194564360Y-142358609D02*
X194897693Y-142358609D01*
X195040550Y-142882419D02*
X194564360Y-142882419D01*
X194564360Y-142882419D02*
X194564360Y-141882419D01*
X194564360Y-141882419D02*
X195040550Y-141882419D01*
X196040550Y-142882419D02*
X195707217Y-142406228D01*
X195469122Y-142882419D02*
X195469122Y-141882419D01*
X195469122Y-141882419D02*
X195850074Y-141882419D01*
X195850074Y-141882419D02*
X195945312Y-141930038D01*
X195945312Y-141930038D02*
X195992931Y-141977657D01*
X195992931Y-141977657D02*
X196040550Y-142072895D01*
X196040550Y-142072895D02*
X196040550Y-142215752D01*
X196040550Y-142215752D02*
X195992931Y-142310990D01*
X195992931Y-142310990D02*
X195945312Y-142358609D01*
X195945312Y-142358609D02*
X195850074Y-142406228D01*
X195850074Y-142406228D02*
X195469122Y-142406228D01*
X197183408Y-142834800D02*
X197326265Y-142882419D01*
X197326265Y-142882419D02*
X197564360Y-142882419D01*
X197564360Y-142882419D02*
X197659598Y-142834800D01*
X197659598Y-142834800D02*
X197707217Y-142787180D01*
X197707217Y-142787180D02*
X197754836Y-142691942D01*
X197754836Y-142691942D02*
X197754836Y-142596704D01*
X197754836Y-142596704D02*
X197707217Y-142501466D01*
X197707217Y-142501466D02*
X197659598Y-142453847D01*
X197659598Y-142453847D02*
X197564360Y-142406228D01*
X197564360Y-142406228D02*
X197373884Y-142358609D01*
X197373884Y-142358609D02*
X197278646Y-142310990D01*
X197278646Y-142310990D02*
X197231027Y-142263371D01*
X197231027Y-142263371D02*
X197183408Y-142168133D01*
X197183408Y-142168133D02*
X197183408Y-142072895D01*
X197183408Y-142072895D02*
X197231027Y-141977657D01*
X197231027Y-141977657D02*
X197278646Y-141930038D01*
X197278646Y-141930038D02*
X197373884Y-141882419D01*
X197373884Y-141882419D02*
X197611979Y-141882419D01*
X197611979Y-141882419D02*
X197754836Y-141930038D01*
X198183408Y-141882419D02*
X198183408Y-142691942D01*
X198183408Y-142691942D02*
X198231027Y-142787180D01*
X198231027Y-142787180D02*
X198278646Y-142834800D01*
X198278646Y-142834800D02*
X198373884Y-142882419D01*
X198373884Y-142882419D02*
X198564360Y-142882419D01*
X198564360Y-142882419D02*
X198659598Y-142834800D01*
X198659598Y-142834800D02*
X198707217Y-142787180D01*
X198707217Y-142787180D02*
X198754836Y-142691942D01*
X198754836Y-142691942D02*
X198754836Y-141882419D01*
X199231027Y-142882419D02*
X199231027Y-141882419D01*
X199231027Y-141882419D02*
X199611979Y-141882419D01*
X199611979Y-141882419D02*
X199707217Y-141930038D01*
X199707217Y-141930038D02*
X199754836Y-141977657D01*
X199754836Y-141977657D02*
X199802455Y-142072895D01*
X199802455Y-142072895D02*
X199802455Y-142215752D01*
X199802455Y-142215752D02*
X199754836Y-142310990D01*
X199754836Y-142310990D02*
X199707217Y-142358609D01*
X199707217Y-142358609D02*
X199611979Y-142406228D01*
X199611979Y-142406228D02*
X199231027Y-142406228D01*
X200231027Y-142882419D02*
X200231027Y-141882419D01*
X200231027Y-141882419D02*
X200611979Y-141882419D01*
X200611979Y-141882419D02*
X200707217Y-141930038D01*
X200707217Y-141930038D02*
X200754836Y-141977657D01*
X200754836Y-141977657D02*
X200802455Y-142072895D01*
X200802455Y-142072895D02*
X200802455Y-142215752D01*
X200802455Y-142215752D02*
X200754836Y-142310990D01*
X200754836Y-142310990D02*
X200707217Y-142358609D01*
X200707217Y-142358609D02*
X200611979Y-142406228D01*
X200611979Y-142406228D02*
X200231027Y-142406228D01*
X201707217Y-142882419D02*
X201231027Y-142882419D01*
X201231027Y-142882419D02*
X201231027Y-141882419D01*
X202231027Y-142406228D02*
X202231027Y-142882419D01*
X201897694Y-141882419D02*
X202231027Y-142406228D01*
X202231027Y-142406228D02*
X202564360Y-141882419D01*
X117387693Y-75050038D02*
X117292455Y-75002419D01*
X117292455Y-75002419D02*
X117149598Y-75002419D01*
X117149598Y-75002419D02*
X117006741Y-75050038D01*
X117006741Y-75050038D02*
X116911503Y-75145276D01*
X116911503Y-75145276D02*
X116863884Y-75240514D01*
X116863884Y-75240514D02*
X116816265Y-75430990D01*
X116816265Y-75430990D02*
X116816265Y-75573847D01*
X116816265Y-75573847D02*
X116863884Y-75764323D01*
X116863884Y-75764323D02*
X116911503Y-75859561D01*
X116911503Y-75859561D02*
X117006741Y-75954800D01*
X117006741Y-75954800D02*
X117149598Y-76002419D01*
X117149598Y-76002419D02*
X117244836Y-76002419D01*
X117244836Y-76002419D02*
X117387693Y-75954800D01*
X117387693Y-75954800D02*
X117435312Y-75907180D01*
X117435312Y-75907180D02*
X117435312Y-75573847D01*
X117435312Y-75573847D02*
X117244836Y-75573847D01*
X117863884Y-76002419D02*
X117863884Y-75002419D01*
X117863884Y-75002419D02*
X118435312Y-76002419D01*
X118435312Y-76002419D02*
X118435312Y-75002419D01*
X118911503Y-76002419D02*
X118911503Y-75002419D01*
X118911503Y-75002419D02*
X119149598Y-75002419D01*
X119149598Y-75002419D02*
X119292455Y-75050038D01*
X119292455Y-75050038D02*
X119387693Y-75145276D01*
X119387693Y-75145276D02*
X119435312Y-75240514D01*
X119435312Y-75240514D02*
X119482931Y-75430990D01*
X119482931Y-75430990D02*
X119482931Y-75573847D01*
X119482931Y-75573847D02*
X119435312Y-75764323D01*
X119435312Y-75764323D02*
X119387693Y-75859561D01*
X119387693Y-75859561D02*
X119292455Y-75954800D01*
X119292455Y-75954800D02*
X119149598Y-76002419D01*
X119149598Y-76002419D02*
X118911503Y-76002419D01*
X197403884Y-131511466D02*
X198165789Y-131511466D01*
D11*
X173133082Y-47919400D02*
X173347368Y-47990828D01*
X173347368Y-47990828D02*
X173704510Y-47990828D01*
X173704510Y-47990828D02*
X173847368Y-47919400D01*
X173847368Y-47919400D02*
X173918796Y-47847971D01*
X173918796Y-47847971D02*
X173990225Y-47705114D01*
X173990225Y-47705114D02*
X173990225Y-47562257D01*
X173990225Y-47562257D02*
X173918796Y-47419400D01*
X173918796Y-47419400D02*
X173847368Y-47347971D01*
X173847368Y-47347971D02*
X173704510Y-47276542D01*
X173704510Y-47276542D02*
X173418796Y-47205114D01*
X173418796Y-47205114D02*
X173275939Y-47133685D01*
X173275939Y-47133685D02*
X173204510Y-47062257D01*
X173204510Y-47062257D02*
X173133082Y-46919400D01*
X173133082Y-46919400D02*
X173133082Y-46776542D01*
X173133082Y-46776542D02*
X173204510Y-46633685D01*
X173204510Y-46633685D02*
X173275939Y-46562257D01*
X173275939Y-46562257D02*
X173418796Y-46490828D01*
X173418796Y-46490828D02*
X173775939Y-46490828D01*
X173775939Y-46490828D02*
X173990225Y-46562257D01*
X174633081Y-47990828D02*
X174633081Y-46490828D01*
X175347367Y-47990828D02*
X175347367Y-46490828D01*
X175347367Y-46490828D02*
X175847367Y-47562257D01*
X175847367Y-47562257D02*
X176347367Y-46490828D01*
X176347367Y-46490828D02*
X176347367Y-47990828D01*
X177275939Y-47133685D02*
X177133082Y-47062257D01*
X177133082Y-47062257D02*
X177061653Y-46990828D01*
X177061653Y-46990828D02*
X176990225Y-46847971D01*
X176990225Y-46847971D02*
X176990225Y-46776542D01*
X176990225Y-46776542D02*
X177061653Y-46633685D01*
X177061653Y-46633685D02*
X177133082Y-46562257D01*
X177133082Y-46562257D02*
X177275939Y-46490828D01*
X177275939Y-46490828D02*
X177561653Y-46490828D01*
X177561653Y-46490828D02*
X177704511Y-46562257D01*
X177704511Y-46562257D02*
X177775939Y-46633685D01*
X177775939Y-46633685D02*
X177847368Y-46776542D01*
X177847368Y-46776542D02*
X177847368Y-46847971D01*
X177847368Y-46847971D02*
X177775939Y-46990828D01*
X177775939Y-46990828D02*
X177704511Y-47062257D01*
X177704511Y-47062257D02*
X177561653Y-47133685D01*
X177561653Y-47133685D02*
X177275939Y-47133685D01*
X177275939Y-47133685D02*
X177133082Y-47205114D01*
X177133082Y-47205114D02*
X177061653Y-47276542D01*
X177061653Y-47276542D02*
X176990225Y-47419400D01*
X176990225Y-47419400D02*
X176990225Y-47705114D01*
X176990225Y-47705114D02*
X177061653Y-47847971D01*
X177061653Y-47847971D02*
X177133082Y-47919400D01*
X177133082Y-47919400D02*
X177275939Y-47990828D01*
X177275939Y-47990828D02*
X177561653Y-47990828D01*
X177561653Y-47990828D02*
X177704511Y-47919400D01*
X177704511Y-47919400D02*
X177775939Y-47847971D01*
X177775939Y-47847971D02*
X177847368Y-47705114D01*
X177847368Y-47705114D02*
X177847368Y-47419400D01*
X177847368Y-47419400D02*
X177775939Y-47276542D01*
X177775939Y-47276542D02*
X177704511Y-47205114D01*
X177704511Y-47205114D02*
X177561653Y-47133685D01*
X178775939Y-46490828D02*
X178918796Y-46490828D01*
X178918796Y-46490828D02*
X179061653Y-46562257D01*
X179061653Y-46562257D02*
X179133082Y-46633685D01*
X179133082Y-46633685D02*
X179204510Y-46776542D01*
X179204510Y-46776542D02*
X179275939Y-47062257D01*
X179275939Y-47062257D02*
X179275939Y-47419400D01*
X179275939Y-47419400D02*
X179204510Y-47705114D01*
X179204510Y-47705114D02*
X179133082Y-47847971D01*
X179133082Y-47847971D02*
X179061653Y-47919400D01*
X179061653Y-47919400D02*
X178918796Y-47990828D01*
X178918796Y-47990828D02*
X178775939Y-47990828D01*
X178775939Y-47990828D02*
X178633082Y-47919400D01*
X178633082Y-47919400D02*
X178561653Y-47847971D01*
X178561653Y-47847971D02*
X178490224Y-47705114D01*
X178490224Y-47705114D02*
X178418796Y-47419400D01*
X178418796Y-47419400D02*
X178418796Y-47062257D01*
X178418796Y-47062257D02*
X178490224Y-46776542D01*
X178490224Y-46776542D02*
X178561653Y-46633685D01*
X178561653Y-46633685D02*
X178633082Y-46562257D01*
X178633082Y-46562257D02*
X178775939Y-46490828D01*
X180204510Y-46490828D02*
X180347367Y-46490828D01*
X180347367Y-46490828D02*
X180490224Y-46562257D01*
X180490224Y-46562257D02*
X180561653Y-46633685D01*
X180561653Y-46633685D02*
X180633081Y-46776542D01*
X180633081Y-46776542D02*
X180704510Y-47062257D01*
X180704510Y-47062257D02*
X180704510Y-47419400D01*
X180704510Y-47419400D02*
X180633081Y-47705114D01*
X180633081Y-47705114D02*
X180561653Y-47847971D01*
X180561653Y-47847971D02*
X180490224Y-47919400D01*
X180490224Y-47919400D02*
X180347367Y-47990828D01*
X180347367Y-47990828D02*
X180204510Y-47990828D01*
X180204510Y-47990828D02*
X180061653Y-47919400D01*
X180061653Y-47919400D02*
X179990224Y-47847971D01*
X179990224Y-47847971D02*
X179918795Y-47705114D01*
X179918795Y-47705114D02*
X179847367Y-47419400D01*
X179847367Y-47419400D02*
X179847367Y-47062257D01*
X179847367Y-47062257D02*
X179918795Y-46776542D01*
X179918795Y-46776542D02*
X179990224Y-46633685D01*
X179990224Y-46633685D02*
X180061653Y-46562257D01*
X180061653Y-46562257D02*
X180204510Y-46490828D01*
X182204509Y-47847971D02*
X182133081Y-47919400D01*
X182133081Y-47919400D02*
X181918795Y-47990828D01*
X181918795Y-47990828D02*
X181775938Y-47990828D01*
X181775938Y-47990828D02*
X181561652Y-47919400D01*
X181561652Y-47919400D02*
X181418795Y-47776542D01*
X181418795Y-47776542D02*
X181347366Y-47633685D01*
X181347366Y-47633685D02*
X181275938Y-47347971D01*
X181275938Y-47347971D02*
X181275938Y-47133685D01*
X181275938Y-47133685D02*
X181347366Y-46847971D01*
X181347366Y-46847971D02*
X181418795Y-46705114D01*
X181418795Y-46705114D02*
X181561652Y-46562257D01*
X181561652Y-46562257D02*
X181775938Y-46490828D01*
X181775938Y-46490828D02*
X181918795Y-46490828D01*
X181918795Y-46490828D02*
X182133081Y-46562257D01*
X182133081Y-46562257D02*
X182204509Y-46633685D01*
D10*
X163513884Y-54822419D02*
X163513884Y-53822419D01*
X163513884Y-53822419D02*
X163847217Y-54536704D01*
X163847217Y-54536704D02*
X164180550Y-53822419D01*
X164180550Y-53822419D02*
X164180550Y-54822419D01*
X164847217Y-53822419D02*
X165037693Y-53822419D01*
X165037693Y-53822419D02*
X165132931Y-53870038D01*
X165132931Y-53870038D02*
X165228169Y-53965276D01*
X165228169Y-53965276D02*
X165275788Y-54155752D01*
X165275788Y-54155752D02*
X165275788Y-54489085D01*
X165275788Y-54489085D02*
X165228169Y-54679561D01*
X165228169Y-54679561D02*
X165132931Y-54774800D01*
X165132931Y-54774800D02*
X165037693Y-54822419D01*
X165037693Y-54822419D02*
X164847217Y-54822419D01*
X164847217Y-54822419D02*
X164751979Y-54774800D01*
X164751979Y-54774800D02*
X164656741Y-54679561D01*
X164656741Y-54679561D02*
X164609122Y-54489085D01*
X164609122Y-54489085D02*
X164609122Y-54155752D01*
X164609122Y-54155752D02*
X164656741Y-53965276D01*
X164656741Y-53965276D02*
X164751979Y-53870038D01*
X164751979Y-53870038D02*
X164847217Y-53822419D01*
X165656741Y-54774800D02*
X165799598Y-54822419D01*
X165799598Y-54822419D02*
X166037693Y-54822419D01*
X166037693Y-54822419D02*
X166132931Y-54774800D01*
X166132931Y-54774800D02*
X166180550Y-54727180D01*
X166180550Y-54727180D02*
X166228169Y-54631942D01*
X166228169Y-54631942D02*
X166228169Y-54536704D01*
X166228169Y-54536704D02*
X166180550Y-54441466D01*
X166180550Y-54441466D02*
X166132931Y-54393847D01*
X166132931Y-54393847D02*
X166037693Y-54346228D01*
X166037693Y-54346228D02*
X165847217Y-54298609D01*
X165847217Y-54298609D02*
X165751979Y-54250990D01*
X165751979Y-54250990D02*
X165704360Y-54203371D01*
X165704360Y-54203371D02*
X165656741Y-54108133D01*
X165656741Y-54108133D02*
X165656741Y-54012895D01*
X165656741Y-54012895D02*
X165704360Y-53917657D01*
X165704360Y-53917657D02*
X165751979Y-53870038D01*
X165751979Y-53870038D02*
X165847217Y-53822419D01*
X165847217Y-53822419D02*
X166085312Y-53822419D01*
X166085312Y-53822419D02*
X166228169Y-53870038D01*
X166656741Y-54822419D02*
X166656741Y-53822419D01*
D11*
X177186653Y-62050828D02*
X176686653Y-61336542D01*
X176329510Y-62050828D02*
X176329510Y-60550828D01*
X176329510Y-60550828D02*
X176900939Y-60550828D01*
X176900939Y-60550828D02*
X177043796Y-60622257D01*
X177043796Y-60622257D02*
X177115225Y-60693685D01*
X177115225Y-60693685D02*
X177186653Y-60836542D01*
X177186653Y-60836542D02*
X177186653Y-61050828D01*
X177186653Y-61050828D02*
X177115225Y-61193685D01*
X177115225Y-61193685D02*
X177043796Y-61265114D01*
X177043796Y-61265114D02*
X176900939Y-61336542D01*
X176900939Y-61336542D02*
X176329510Y-61336542D01*
X177686653Y-62050828D02*
X178472368Y-61050828D01*
X177686653Y-61050828D02*
X178472368Y-62050828D01*
X178686654Y-62193685D02*
X179829511Y-62193685D01*
X180115225Y-61979400D02*
X180258082Y-62050828D01*
X180258082Y-62050828D02*
X180543796Y-62050828D01*
X180543796Y-62050828D02*
X180686653Y-61979400D01*
X180686653Y-61979400D02*
X180758082Y-61836542D01*
X180758082Y-61836542D02*
X180758082Y-61765114D01*
X180758082Y-61765114D02*
X180686653Y-61622257D01*
X180686653Y-61622257D02*
X180543796Y-61550828D01*
X180543796Y-61550828D02*
X180329511Y-61550828D01*
X180329511Y-61550828D02*
X180186653Y-61479400D01*
X180186653Y-61479400D02*
X180115225Y-61336542D01*
X180115225Y-61336542D02*
X180115225Y-61265114D01*
X180115225Y-61265114D02*
X180186653Y-61122257D01*
X180186653Y-61122257D02*
X180329511Y-61050828D01*
X180329511Y-61050828D02*
X180543796Y-61050828D01*
X180543796Y-61050828D02*
X180686653Y-61122257D01*
X176165225Y-53175828D02*
X176665225Y-54675828D01*
X176665225Y-54675828D02*
X177165225Y-53175828D01*
X178308082Y-54604400D02*
X178165224Y-54675828D01*
X178165224Y-54675828D02*
X177879510Y-54675828D01*
X177879510Y-54675828D02*
X177736653Y-54604400D01*
X177736653Y-54604400D02*
X177665224Y-54532971D01*
X177665224Y-54532971D02*
X177593796Y-54390114D01*
X177593796Y-54390114D02*
X177593796Y-53961542D01*
X177593796Y-53961542D02*
X177665224Y-53818685D01*
X177665224Y-53818685D02*
X177736653Y-53747257D01*
X177736653Y-53747257D02*
X177879510Y-53675828D01*
X177879510Y-53675828D02*
X178165224Y-53675828D01*
X178165224Y-53675828D02*
X178308082Y-53747257D01*
X179593796Y-54604400D02*
X179450938Y-54675828D01*
X179450938Y-54675828D02*
X179165224Y-54675828D01*
X179165224Y-54675828D02*
X179022367Y-54604400D01*
X179022367Y-54604400D02*
X178950938Y-54532971D01*
X178950938Y-54532971D02*
X178879510Y-54390114D01*
X178879510Y-54390114D02*
X178879510Y-53961542D01*
X178879510Y-53961542D02*
X178950938Y-53818685D01*
X178950938Y-53818685D02*
X179022367Y-53747257D01*
X179022367Y-53747257D02*
X179165224Y-53675828D01*
X179165224Y-53675828D02*
X179450938Y-53675828D01*
X179450938Y-53675828D02*
X179593796Y-53747257D01*
D10*
X95707580Y-76501027D02*
X95707580Y-77072455D01*
X94707580Y-76786741D02*
X95707580Y-76786741D01*
X94707580Y-77405789D02*
X95374247Y-77405789D01*
X95707580Y-77405789D02*
X95659961Y-77358170D01*
X95659961Y-77358170D02*
X95612342Y-77405789D01*
X95612342Y-77405789D02*
X95659961Y-77453408D01*
X95659961Y-77453408D02*
X95707580Y-77405789D01*
X95707580Y-77405789D02*
X95612342Y-77405789D01*
X94707580Y-78024836D02*
X94755200Y-77929598D01*
X94755200Y-77929598D02*
X94850438Y-77881979D01*
X94850438Y-77881979D02*
X95707580Y-77881979D01*
X95707580Y-78262932D02*
X95707580Y-78834360D01*
X94707580Y-78548646D02*
X95707580Y-78548646D01*
X94755200Y-79881980D02*
X94707580Y-80024837D01*
X94707580Y-80024837D02*
X94707580Y-80262932D01*
X94707580Y-80262932D02*
X94755200Y-80358170D01*
X94755200Y-80358170D02*
X94802819Y-80405789D01*
X94802819Y-80405789D02*
X94898057Y-80453408D01*
X94898057Y-80453408D02*
X94993295Y-80453408D01*
X94993295Y-80453408D02*
X95088533Y-80405789D01*
X95088533Y-80405789D02*
X95136152Y-80358170D01*
X95136152Y-80358170D02*
X95183771Y-80262932D01*
X95183771Y-80262932D02*
X95231390Y-80072456D01*
X95231390Y-80072456D02*
X95279009Y-79977218D01*
X95279009Y-79977218D02*
X95326628Y-79929599D01*
X95326628Y-79929599D02*
X95421866Y-79881980D01*
X95421866Y-79881980D02*
X95517104Y-79881980D01*
X95517104Y-79881980D02*
X95612342Y-79929599D01*
X95612342Y-79929599D02*
X95659961Y-79977218D01*
X95659961Y-79977218D02*
X95707580Y-80072456D01*
X95707580Y-80072456D02*
X95707580Y-80310551D01*
X95707580Y-80310551D02*
X95659961Y-80453408D01*
X94755200Y-81262932D02*
X94707580Y-81167694D01*
X94707580Y-81167694D02*
X94707580Y-80977218D01*
X94707580Y-80977218D02*
X94755200Y-80881980D01*
X94755200Y-80881980D02*
X94850438Y-80834361D01*
X94850438Y-80834361D02*
X95231390Y-80834361D01*
X95231390Y-80834361D02*
X95326628Y-80881980D01*
X95326628Y-80881980D02*
X95374247Y-80977218D01*
X95374247Y-80977218D02*
X95374247Y-81167694D01*
X95374247Y-81167694D02*
X95326628Y-81262932D01*
X95326628Y-81262932D02*
X95231390Y-81310551D01*
X95231390Y-81310551D02*
X95136152Y-81310551D01*
X95136152Y-81310551D02*
X95040914Y-80834361D01*
X95374247Y-81739123D02*
X94707580Y-81739123D01*
X95279009Y-81739123D02*
X95326628Y-81786742D01*
X95326628Y-81786742D02*
X95374247Y-81881980D01*
X95374247Y-81881980D02*
X95374247Y-82024837D01*
X95374247Y-82024837D02*
X95326628Y-82120075D01*
X95326628Y-82120075D02*
X95231390Y-82167694D01*
X95231390Y-82167694D02*
X94707580Y-82167694D01*
X94755200Y-82596266D02*
X94707580Y-82691504D01*
X94707580Y-82691504D02*
X94707580Y-82881980D01*
X94707580Y-82881980D02*
X94755200Y-82977218D01*
X94755200Y-82977218D02*
X94850438Y-83024837D01*
X94850438Y-83024837D02*
X94898057Y-83024837D01*
X94898057Y-83024837D02*
X94993295Y-82977218D01*
X94993295Y-82977218D02*
X95040914Y-82881980D01*
X95040914Y-82881980D02*
X95040914Y-82739123D01*
X95040914Y-82739123D02*
X95088533Y-82643885D01*
X95088533Y-82643885D02*
X95183771Y-82596266D01*
X95183771Y-82596266D02*
X95231390Y-82596266D01*
X95231390Y-82596266D02*
X95326628Y-82643885D01*
X95326628Y-82643885D02*
X95374247Y-82739123D01*
X95374247Y-82739123D02*
X95374247Y-82881980D01*
X95374247Y-82881980D02*
X95326628Y-82977218D01*
X94707580Y-83596266D02*
X94755200Y-83501028D01*
X94755200Y-83501028D02*
X94802819Y-83453409D01*
X94802819Y-83453409D02*
X94898057Y-83405790D01*
X94898057Y-83405790D02*
X95183771Y-83405790D01*
X95183771Y-83405790D02*
X95279009Y-83453409D01*
X95279009Y-83453409D02*
X95326628Y-83501028D01*
X95326628Y-83501028D02*
X95374247Y-83596266D01*
X95374247Y-83596266D02*
X95374247Y-83739123D01*
X95374247Y-83739123D02*
X95326628Y-83834361D01*
X95326628Y-83834361D02*
X95279009Y-83881980D01*
X95279009Y-83881980D02*
X95183771Y-83929599D01*
X95183771Y-83929599D02*
X94898057Y-83929599D01*
X94898057Y-83929599D02*
X94802819Y-83881980D01*
X94802819Y-83881980D02*
X94755200Y-83834361D01*
X94755200Y-83834361D02*
X94707580Y-83739123D01*
X94707580Y-83739123D02*
X94707580Y-83596266D01*
X94707580Y-84358171D02*
X95374247Y-84358171D01*
X95183771Y-84358171D02*
X95279009Y-84405790D01*
X95279009Y-84405790D02*
X95326628Y-84453409D01*
X95326628Y-84453409D02*
X95374247Y-84548647D01*
X95374247Y-84548647D02*
X95374247Y-84643885D01*
D11*
X176965225Y-55797257D02*
X176822368Y-55725828D01*
X176822368Y-55725828D02*
X176608082Y-55725828D01*
X176608082Y-55725828D02*
X176393796Y-55797257D01*
X176393796Y-55797257D02*
X176250939Y-55940114D01*
X176250939Y-55940114D02*
X176179510Y-56082971D01*
X176179510Y-56082971D02*
X176108082Y-56368685D01*
X176108082Y-56368685D02*
X176108082Y-56582971D01*
X176108082Y-56582971D02*
X176179510Y-56868685D01*
X176179510Y-56868685D02*
X176250939Y-57011542D01*
X176250939Y-57011542D02*
X176393796Y-57154400D01*
X176393796Y-57154400D02*
X176608082Y-57225828D01*
X176608082Y-57225828D02*
X176750939Y-57225828D01*
X176750939Y-57225828D02*
X176965225Y-57154400D01*
X176965225Y-57154400D02*
X177036653Y-57082971D01*
X177036653Y-57082971D02*
X177036653Y-56582971D01*
X177036653Y-56582971D02*
X176750939Y-56582971D01*
X177679510Y-57225828D02*
X177679510Y-55725828D01*
X177679510Y-55725828D02*
X178536653Y-57225828D01*
X178536653Y-57225828D02*
X178536653Y-55725828D01*
X179250939Y-57225828D02*
X179250939Y-55725828D01*
X179250939Y-55725828D02*
X179608082Y-55725828D01*
X179608082Y-55725828D02*
X179822368Y-55797257D01*
X179822368Y-55797257D02*
X179965225Y-55940114D01*
X179965225Y-55940114D02*
X180036654Y-56082971D01*
X180036654Y-56082971D02*
X180108082Y-56368685D01*
X180108082Y-56368685D02*
X180108082Y-56582971D01*
X180108082Y-56582971D02*
X180036654Y-56868685D01*
X180036654Y-56868685D02*
X179965225Y-57011542D01*
X179965225Y-57011542D02*
X179822368Y-57154400D01*
X179822368Y-57154400D02*
X179608082Y-57225828D01*
X179608082Y-57225828D02*
X179250939Y-57225828D01*
D10*
X99321027Y-59242419D02*
X99892455Y-59242419D01*
X99606741Y-60242419D02*
X99606741Y-59242419D01*
X100130551Y-60242419D02*
X100654360Y-59575752D01*
X100130551Y-59575752D02*
X100654360Y-60242419D01*
X146715312Y-73017180D02*
X146667693Y-73064800D01*
X146667693Y-73064800D02*
X146524836Y-73112419D01*
X146524836Y-73112419D02*
X146429598Y-73112419D01*
X146429598Y-73112419D02*
X146286741Y-73064800D01*
X146286741Y-73064800D02*
X146191503Y-72969561D01*
X146191503Y-72969561D02*
X146143884Y-72874323D01*
X146143884Y-72874323D02*
X146096265Y-72683847D01*
X146096265Y-72683847D02*
X146096265Y-72540990D01*
X146096265Y-72540990D02*
X146143884Y-72350514D01*
X146143884Y-72350514D02*
X146191503Y-72255276D01*
X146191503Y-72255276D02*
X146286741Y-72160038D01*
X146286741Y-72160038D02*
X146429598Y-72112419D01*
X146429598Y-72112419D02*
X146524836Y-72112419D01*
X146524836Y-72112419D02*
X146667693Y-72160038D01*
X146667693Y-72160038D02*
X146715312Y-72207657D01*
X147572455Y-72445752D02*
X147572455Y-73112419D01*
X147143884Y-72445752D02*
X147143884Y-72969561D01*
X147143884Y-72969561D02*
X147191503Y-73064800D01*
X147191503Y-73064800D02*
X147286741Y-73112419D01*
X147286741Y-73112419D02*
X147429598Y-73112419D01*
X147429598Y-73112419D02*
X147524836Y-73064800D01*
X147524836Y-73064800D02*
X147572455Y-73017180D01*
X148048646Y-73112419D02*
X148048646Y-72445752D01*
X148048646Y-72636228D02*
X148096265Y-72540990D01*
X148096265Y-72540990D02*
X148143884Y-72493371D01*
X148143884Y-72493371D02*
X148239122Y-72445752D01*
X148239122Y-72445752D02*
X148334360Y-72445752D01*
X148667694Y-73112419D02*
X148667694Y-72445752D01*
X148667694Y-72636228D02*
X148715313Y-72540990D01*
X148715313Y-72540990D02*
X148762932Y-72493371D01*
X148762932Y-72493371D02*
X148858170Y-72445752D01*
X148858170Y-72445752D02*
X148953408Y-72445752D01*
X149667694Y-73064800D02*
X149572456Y-73112419D01*
X149572456Y-73112419D02*
X149381980Y-73112419D01*
X149381980Y-73112419D02*
X149286742Y-73064800D01*
X149286742Y-73064800D02*
X149239123Y-72969561D01*
X149239123Y-72969561D02*
X149239123Y-72588609D01*
X149239123Y-72588609D02*
X149286742Y-72493371D01*
X149286742Y-72493371D02*
X149381980Y-72445752D01*
X149381980Y-72445752D02*
X149572456Y-72445752D01*
X149572456Y-72445752D02*
X149667694Y-72493371D01*
X149667694Y-72493371D02*
X149715313Y-72588609D01*
X149715313Y-72588609D02*
X149715313Y-72683847D01*
X149715313Y-72683847D02*
X149239123Y-72779085D01*
X150143885Y-72445752D02*
X150143885Y-73112419D01*
X150143885Y-72540990D02*
X150191504Y-72493371D01*
X150191504Y-72493371D02*
X150286742Y-72445752D01*
X150286742Y-72445752D02*
X150429599Y-72445752D01*
X150429599Y-72445752D02*
X150524837Y-72493371D01*
X150524837Y-72493371D02*
X150572456Y-72588609D01*
X150572456Y-72588609D02*
X150572456Y-73112419D01*
X150905790Y-72445752D02*
X151286742Y-72445752D01*
X151048647Y-72112419D02*
X151048647Y-72969561D01*
X151048647Y-72969561D02*
X151096266Y-73064800D01*
X151096266Y-73064800D02*
X151191504Y-73112419D01*
X151191504Y-73112419D02*
X151286742Y-73112419D01*
X152334362Y-73064800D02*
X152477219Y-73112419D01*
X152477219Y-73112419D02*
X152715314Y-73112419D01*
X152715314Y-73112419D02*
X152810552Y-73064800D01*
X152810552Y-73064800D02*
X152858171Y-73017180D01*
X152858171Y-73017180D02*
X152905790Y-72921942D01*
X152905790Y-72921942D02*
X152905790Y-72826704D01*
X152905790Y-72826704D02*
X152858171Y-72731466D01*
X152858171Y-72731466D02*
X152810552Y-72683847D01*
X152810552Y-72683847D02*
X152715314Y-72636228D01*
X152715314Y-72636228D02*
X152524838Y-72588609D01*
X152524838Y-72588609D02*
X152429600Y-72540990D01*
X152429600Y-72540990D02*
X152381981Y-72493371D01*
X152381981Y-72493371D02*
X152334362Y-72398133D01*
X152334362Y-72398133D02*
X152334362Y-72302895D01*
X152334362Y-72302895D02*
X152381981Y-72207657D01*
X152381981Y-72207657D02*
X152429600Y-72160038D01*
X152429600Y-72160038D02*
X152524838Y-72112419D01*
X152524838Y-72112419D02*
X152762933Y-72112419D01*
X152762933Y-72112419D02*
X152905790Y-72160038D01*
X153715314Y-73064800D02*
X153620076Y-73112419D01*
X153620076Y-73112419D02*
X153429600Y-73112419D01*
X153429600Y-73112419D02*
X153334362Y-73064800D01*
X153334362Y-73064800D02*
X153286743Y-72969561D01*
X153286743Y-72969561D02*
X153286743Y-72588609D01*
X153286743Y-72588609D02*
X153334362Y-72493371D01*
X153334362Y-72493371D02*
X153429600Y-72445752D01*
X153429600Y-72445752D02*
X153620076Y-72445752D01*
X153620076Y-72445752D02*
X153715314Y-72493371D01*
X153715314Y-72493371D02*
X153762933Y-72588609D01*
X153762933Y-72588609D02*
X153762933Y-72683847D01*
X153762933Y-72683847D02*
X153286743Y-72779085D01*
X154191505Y-72445752D02*
X154191505Y-73112419D01*
X154191505Y-72540990D02*
X154239124Y-72493371D01*
X154239124Y-72493371D02*
X154334362Y-72445752D01*
X154334362Y-72445752D02*
X154477219Y-72445752D01*
X154477219Y-72445752D02*
X154572457Y-72493371D01*
X154572457Y-72493371D02*
X154620076Y-72588609D01*
X154620076Y-72588609D02*
X154620076Y-73112419D01*
X155048648Y-73064800D02*
X155143886Y-73112419D01*
X155143886Y-73112419D02*
X155334362Y-73112419D01*
X155334362Y-73112419D02*
X155429600Y-73064800D01*
X155429600Y-73064800D02*
X155477219Y-72969561D01*
X155477219Y-72969561D02*
X155477219Y-72921942D01*
X155477219Y-72921942D02*
X155429600Y-72826704D01*
X155429600Y-72826704D02*
X155334362Y-72779085D01*
X155334362Y-72779085D02*
X155191505Y-72779085D01*
X155191505Y-72779085D02*
X155096267Y-72731466D01*
X155096267Y-72731466D02*
X155048648Y-72636228D01*
X155048648Y-72636228D02*
X155048648Y-72588609D01*
X155048648Y-72588609D02*
X155096267Y-72493371D01*
X155096267Y-72493371D02*
X155191505Y-72445752D01*
X155191505Y-72445752D02*
X155334362Y-72445752D01*
X155334362Y-72445752D02*
X155429600Y-72493371D01*
X156048648Y-73112419D02*
X155953410Y-73064800D01*
X155953410Y-73064800D02*
X155905791Y-73017180D01*
X155905791Y-73017180D02*
X155858172Y-72921942D01*
X155858172Y-72921942D02*
X155858172Y-72636228D01*
X155858172Y-72636228D02*
X155905791Y-72540990D01*
X155905791Y-72540990D02*
X155953410Y-72493371D01*
X155953410Y-72493371D02*
X156048648Y-72445752D01*
X156048648Y-72445752D02*
X156191505Y-72445752D01*
X156191505Y-72445752D02*
X156286743Y-72493371D01*
X156286743Y-72493371D02*
X156334362Y-72540990D01*
X156334362Y-72540990D02*
X156381981Y-72636228D01*
X156381981Y-72636228D02*
X156381981Y-72921942D01*
X156381981Y-72921942D02*
X156334362Y-73017180D01*
X156334362Y-73017180D02*
X156286743Y-73064800D01*
X156286743Y-73064800D02*
X156191505Y-73112419D01*
X156191505Y-73112419D02*
X156048648Y-73112419D01*
X156810553Y-73112419D02*
X156810553Y-72445752D01*
X156810553Y-72636228D02*
X156858172Y-72540990D01*
X156858172Y-72540990D02*
X156905791Y-72493371D01*
X156905791Y-72493371D02*
X157001029Y-72445752D01*
X157001029Y-72445752D02*
X157096267Y-72445752D01*
X164026265Y-52274800D02*
X164169122Y-52322419D01*
X164169122Y-52322419D02*
X164407217Y-52322419D01*
X164407217Y-52322419D02*
X164502455Y-52274800D01*
X164502455Y-52274800D02*
X164550074Y-52227180D01*
X164550074Y-52227180D02*
X164597693Y-52131942D01*
X164597693Y-52131942D02*
X164597693Y-52036704D01*
X164597693Y-52036704D02*
X164550074Y-51941466D01*
X164550074Y-51941466D02*
X164502455Y-51893847D01*
X164502455Y-51893847D02*
X164407217Y-51846228D01*
X164407217Y-51846228D02*
X164216741Y-51798609D01*
X164216741Y-51798609D02*
X164121503Y-51750990D01*
X164121503Y-51750990D02*
X164073884Y-51703371D01*
X164073884Y-51703371D02*
X164026265Y-51608133D01*
X164026265Y-51608133D02*
X164026265Y-51512895D01*
X164026265Y-51512895D02*
X164073884Y-51417657D01*
X164073884Y-51417657D02*
X164121503Y-51370038D01*
X164121503Y-51370038D02*
X164216741Y-51322419D01*
X164216741Y-51322419D02*
X164454836Y-51322419D01*
X164454836Y-51322419D02*
X164597693Y-51370038D01*
X165597693Y-52227180D02*
X165550074Y-52274800D01*
X165550074Y-52274800D02*
X165407217Y-52322419D01*
X165407217Y-52322419D02*
X165311979Y-52322419D01*
X165311979Y-52322419D02*
X165169122Y-52274800D01*
X165169122Y-52274800D02*
X165073884Y-52179561D01*
X165073884Y-52179561D02*
X165026265Y-52084323D01*
X165026265Y-52084323D02*
X164978646Y-51893847D01*
X164978646Y-51893847D02*
X164978646Y-51750990D01*
X164978646Y-51750990D02*
X165026265Y-51560514D01*
X165026265Y-51560514D02*
X165073884Y-51465276D01*
X165073884Y-51465276D02*
X165169122Y-51370038D01*
X165169122Y-51370038D02*
X165311979Y-51322419D01*
X165311979Y-51322419D02*
X165407217Y-51322419D01*
X165407217Y-51322419D02*
X165550074Y-51370038D01*
X165550074Y-51370038D02*
X165597693Y-51417657D01*
X166026265Y-52322419D02*
X166026265Y-51322419D01*
X166597693Y-52322419D02*
X166169122Y-51750990D01*
X166597693Y-51322419D02*
X166026265Y-51893847D01*
X164071027Y-66702419D02*
X164404360Y-67702419D01*
X164404360Y-67702419D02*
X164737693Y-66702419D01*
X165642455Y-67607180D02*
X165594836Y-67654800D01*
X165594836Y-67654800D02*
X165451979Y-67702419D01*
X165451979Y-67702419D02*
X165356741Y-67702419D01*
X165356741Y-67702419D02*
X165213884Y-67654800D01*
X165213884Y-67654800D02*
X165118646Y-67559561D01*
X165118646Y-67559561D02*
X165071027Y-67464323D01*
X165071027Y-67464323D02*
X165023408Y-67273847D01*
X165023408Y-67273847D02*
X165023408Y-67130990D01*
X165023408Y-67130990D02*
X165071027Y-66940514D01*
X165071027Y-66940514D02*
X165118646Y-66845276D01*
X165118646Y-66845276D02*
X165213884Y-66750038D01*
X165213884Y-66750038D02*
X165356741Y-66702419D01*
X165356741Y-66702419D02*
X165451979Y-66702419D01*
X165451979Y-66702419D02*
X165594836Y-66750038D01*
X165594836Y-66750038D02*
X165642455Y-66797657D01*
X166642455Y-67607180D02*
X166594836Y-67654800D01*
X166594836Y-67654800D02*
X166451979Y-67702419D01*
X166451979Y-67702419D02*
X166356741Y-67702419D01*
X166356741Y-67702419D02*
X166213884Y-67654800D01*
X166213884Y-67654800D02*
X166118646Y-67559561D01*
X166118646Y-67559561D02*
X166071027Y-67464323D01*
X166071027Y-67464323D02*
X166023408Y-67273847D01*
X166023408Y-67273847D02*
X166023408Y-67130990D01*
X166023408Y-67130990D02*
X166071027Y-66940514D01*
X166071027Y-66940514D02*
X166118646Y-66845276D01*
X166118646Y-66845276D02*
X166213884Y-66750038D01*
X166213884Y-66750038D02*
X166356741Y-66702419D01*
X166356741Y-66702419D02*
X166451979Y-66702419D01*
X166451979Y-66702419D02*
X166594836Y-66750038D01*
X166594836Y-66750038D02*
X166642455Y-66797657D01*
X122676265Y-75814800D02*
X122819122Y-75862419D01*
X122819122Y-75862419D02*
X123057217Y-75862419D01*
X123057217Y-75862419D02*
X123152455Y-75814800D01*
X123152455Y-75814800D02*
X123200074Y-75767180D01*
X123200074Y-75767180D02*
X123247693Y-75671942D01*
X123247693Y-75671942D02*
X123247693Y-75576704D01*
X123247693Y-75576704D02*
X123200074Y-75481466D01*
X123200074Y-75481466D02*
X123152455Y-75433847D01*
X123152455Y-75433847D02*
X123057217Y-75386228D01*
X123057217Y-75386228D02*
X122866741Y-75338609D01*
X122866741Y-75338609D02*
X122771503Y-75290990D01*
X122771503Y-75290990D02*
X122723884Y-75243371D01*
X122723884Y-75243371D02*
X122676265Y-75148133D01*
X122676265Y-75148133D02*
X122676265Y-75052895D01*
X122676265Y-75052895D02*
X122723884Y-74957657D01*
X122723884Y-74957657D02*
X122771503Y-74910038D01*
X122771503Y-74910038D02*
X122866741Y-74862419D01*
X122866741Y-74862419D02*
X123104836Y-74862419D01*
X123104836Y-74862419D02*
X123247693Y-74910038D01*
X124247693Y-75767180D02*
X124200074Y-75814800D01*
X124200074Y-75814800D02*
X124057217Y-75862419D01*
X124057217Y-75862419D02*
X123961979Y-75862419D01*
X123961979Y-75862419D02*
X123819122Y-75814800D01*
X123819122Y-75814800D02*
X123723884Y-75719561D01*
X123723884Y-75719561D02*
X123676265Y-75624323D01*
X123676265Y-75624323D02*
X123628646Y-75433847D01*
X123628646Y-75433847D02*
X123628646Y-75290990D01*
X123628646Y-75290990D02*
X123676265Y-75100514D01*
X123676265Y-75100514D02*
X123723884Y-75005276D01*
X123723884Y-75005276D02*
X123819122Y-74910038D01*
X123819122Y-74910038D02*
X123961979Y-74862419D01*
X123961979Y-74862419D02*
X124057217Y-74862419D01*
X124057217Y-74862419D02*
X124200074Y-74910038D01*
X124200074Y-74910038D02*
X124247693Y-74957657D01*
X125152455Y-75862419D02*
X124676265Y-75862419D01*
X124676265Y-75862419D02*
X124676265Y-74862419D01*
X165595312Y-64747180D02*
X165547693Y-64794800D01*
X165547693Y-64794800D02*
X165404836Y-64842419D01*
X165404836Y-64842419D02*
X165309598Y-64842419D01*
X165309598Y-64842419D02*
X165166741Y-64794800D01*
X165166741Y-64794800D02*
X165071503Y-64699561D01*
X165071503Y-64699561D02*
X165023884Y-64604323D01*
X165023884Y-64604323D02*
X164976265Y-64413847D01*
X164976265Y-64413847D02*
X164976265Y-64270990D01*
X164976265Y-64270990D02*
X165023884Y-64080514D01*
X165023884Y-64080514D02*
X165071503Y-63985276D01*
X165071503Y-63985276D02*
X165166741Y-63890038D01*
X165166741Y-63890038D02*
X165309598Y-63842419D01*
X165309598Y-63842419D02*
X165404836Y-63842419D01*
X165404836Y-63842419D02*
X165547693Y-63890038D01*
X165547693Y-63890038D02*
X165595312Y-63937657D01*
X165976265Y-64794800D02*
X166119122Y-64842419D01*
X166119122Y-64842419D02*
X166357217Y-64842419D01*
X166357217Y-64842419D02*
X166452455Y-64794800D01*
X166452455Y-64794800D02*
X166500074Y-64747180D01*
X166500074Y-64747180D02*
X166547693Y-64651942D01*
X166547693Y-64651942D02*
X166547693Y-64556704D01*
X166547693Y-64556704D02*
X166500074Y-64461466D01*
X166500074Y-64461466D02*
X166452455Y-64413847D01*
X166452455Y-64413847D02*
X166357217Y-64366228D01*
X166357217Y-64366228D02*
X166166741Y-64318609D01*
X166166741Y-64318609D02*
X166071503Y-64270990D01*
X166071503Y-64270990D02*
X166023884Y-64223371D01*
X166023884Y-64223371D02*
X165976265Y-64128133D01*
X165976265Y-64128133D02*
X165976265Y-64032895D01*
X165976265Y-64032895D02*
X166023884Y-63937657D01*
X166023884Y-63937657D02*
X166071503Y-63890038D01*
X166071503Y-63890038D02*
X166166741Y-63842419D01*
X166166741Y-63842419D02*
X166404836Y-63842419D01*
X166404836Y-63842419D02*
X166547693Y-63890038D01*
X122404360Y-69452419D02*
X122594836Y-69452419D01*
X122594836Y-69452419D02*
X122690074Y-69500038D01*
X122690074Y-69500038D02*
X122785312Y-69595276D01*
X122785312Y-69595276D02*
X122832931Y-69785752D01*
X122832931Y-69785752D02*
X122832931Y-70119085D01*
X122832931Y-70119085D02*
X122785312Y-70309561D01*
X122785312Y-70309561D02*
X122690074Y-70404800D01*
X122690074Y-70404800D02*
X122594836Y-70452419D01*
X122594836Y-70452419D02*
X122404360Y-70452419D01*
X122404360Y-70452419D02*
X122309122Y-70404800D01*
X122309122Y-70404800D02*
X122213884Y-70309561D01*
X122213884Y-70309561D02*
X122166265Y-70119085D01*
X122166265Y-70119085D02*
X122166265Y-69785752D01*
X122166265Y-69785752D02*
X122213884Y-69595276D01*
X122213884Y-69595276D02*
X122309122Y-69500038D01*
X122309122Y-69500038D02*
X122404360Y-69452419D01*
X123737693Y-70452419D02*
X123261503Y-70452419D01*
X123261503Y-70452419D02*
X123261503Y-69452419D01*
X124071027Y-69928609D02*
X124404360Y-69928609D01*
X124547217Y-70452419D02*
X124071027Y-70452419D01*
X124071027Y-70452419D02*
X124071027Y-69452419D01*
X124071027Y-69452419D02*
X124547217Y-69452419D01*
X124975789Y-70452419D02*
X124975789Y-69452419D01*
X124975789Y-69452419D02*
X125213884Y-69452419D01*
X125213884Y-69452419D02*
X125356741Y-69500038D01*
X125356741Y-69500038D02*
X125451979Y-69595276D01*
X125451979Y-69595276D02*
X125499598Y-69690514D01*
X125499598Y-69690514D02*
X125547217Y-69880990D01*
X125547217Y-69880990D02*
X125547217Y-70023847D01*
X125547217Y-70023847D02*
X125499598Y-70214323D01*
X125499598Y-70214323D02*
X125451979Y-70309561D01*
X125451979Y-70309561D02*
X125356741Y-70404800D01*
X125356741Y-70404800D02*
X125213884Y-70452419D01*
X125213884Y-70452419D02*
X124975789Y-70452419D01*
X126737694Y-70452419D02*
X126737694Y-69452419D01*
X126737694Y-69452419D02*
X126975789Y-69452419D01*
X126975789Y-69452419D02*
X127118646Y-69500038D01*
X127118646Y-69500038D02*
X127213884Y-69595276D01*
X127213884Y-69595276D02*
X127261503Y-69690514D01*
X127261503Y-69690514D02*
X127309122Y-69880990D01*
X127309122Y-69880990D02*
X127309122Y-70023847D01*
X127309122Y-70023847D02*
X127261503Y-70214323D01*
X127261503Y-70214323D02*
X127213884Y-70309561D01*
X127213884Y-70309561D02*
X127118646Y-70404800D01*
X127118646Y-70404800D02*
X126975789Y-70452419D01*
X126975789Y-70452419D02*
X126737694Y-70452419D01*
X127737694Y-70452419D02*
X127737694Y-69452419D01*
X128166265Y-70404800D02*
X128309122Y-70452419D01*
X128309122Y-70452419D02*
X128547217Y-70452419D01*
X128547217Y-70452419D02*
X128642455Y-70404800D01*
X128642455Y-70404800D02*
X128690074Y-70357180D01*
X128690074Y-70357180D02*
X128737693Y-70261942D01*
X128737693Y-70261942D02*
X128737693Y-70166704D01*
X128737693Y-70166704D02*
X128690074Y-70071466D01*
X128690074Y-70071466D02*
X128642455Y-70023847D01*
X128642455Y-70023847D02*
X128547217Y-69976228D01*
X128547217Y-69976228D02*
X128356741Y-69928609D01*
X128356741Y-69928609D02*
X128261503Y-69880990D01*
X128261503Y-69880990D02*
X128213884Y-69833371D01*
X128213884Y-69833371D02*
X128166265Y-69738133D01*
X128166265Y-69738133D02*
X128166265Y-69642895D01*
X128166265Y-69642895D02*
X128213884Y-69547657D01*
X128213884Y-69547657D02*
X128261503Y-69500038D01*
X128261503Y-69500038D02*
X128356741Y-69452419D01*
X128356741Y-69452419D02*
X128594836Y-69452419D01*
X128594836Y-69452419D02*
X128737693Y-69500038D01*
X129166265Y-70452419D02*
X129166265Y-69452419D01*
X129166265Y-69452419D02*
X129547217Y-69452419D01*
X129547217Y-69452419D02*
X129642455Y-69500038D01*
X129642455Y-69500038D02*
X129690074Y-69547657D01*
X129690074Y-69547657D02*
X129737693Y-69642895D01*
X129737693Y-69642895D02*
X129737693Y-69785752D01*
X129737693Y-69785752D02*
X129690074Y-69880990D01*
X129690074Y-69880990D02*
X129642455Y-69928609D01*
X129642455Y-69928609D02*
X129547217Y-69976228D01*
X129547217Y-69976228D02*
X129166265Y-69976228D01*
X130642455Y-70452419D02*
X130166265Y-70452419D01*
X130166265Y-70452419D02*
X130166265Y-69452419D01*
X130928170Y-70166704D02*
X131404360Y-70166704D01*
X130832932Y-70452419D02*
X131166265Y-69452419D01*
X131166265Y-69452419D02*
X131499598Y-70452419D01*
X132023408Y-69976228D02*
X132023408Y-70452419D01*
X131690075Y-69452419D02*
X132023408Y-69976228D01*
X132023408Y-69976228D02*
X132356741Y-69452419D01*
D11*
X176190225Y-58150828D02*
X177047368Y-58150828D01*
X176618796Y-59650828D02*
X176618796Y-58150828D01*
X177404510Y-59650828D02*
X178190225Y-58650828D01*
X177404510Y-58650828D02*
X178190225Y-59650828D01*
X178404511Y-59793685D02*
X179547368Y-59793685D01*
X179833082Y-59579400D02*
X179975939Y-59650828D01*
X179975939Y-59650828D02*
X180261653Y-59650828D01*
X180261653Y-59650828D02*
X180404510Y-59579400D01*
X180404510Y-59579400D02*
X180475939Y-59436542D01*
X180475939Y-59436542D02*
X180475939Y-59365114D01*
X180475939Y-59365114D02*
X180404510Y-59222257D01*
X180404510Y-59222257D02*
X180261653Y-59150828D01*
X180261653Y-59150828D02*
X180047368Y-59150828D01*
X180047368Y-59150828D02*
X179904510Y-59079400D01*
X179904510Y-59079400D02*
X179833082Y-58936542D01*
X179833082Y-58936542D02*
X179833082Y-58865114D01*
X179833082Y-58865114D02*
X179904510Y-58722257D01*
X179904510Y-58722257D02*
X180047368Y-58650828D01*
X180047368Y-58650828D02*
X180261653Y-58650828D01*
X180261653Y-58650828D02*
X180404510Y-58722257D01*
X84215114Y-62285489D02*
X84286542Y-62071203D01*
X84286542Y-62071203D02*
X84357971Y-61999774D01*
X84357971Y-61999774D02*
X84500828Y-61928346D01*
X84500828Y-61928346D02*
X84715114Y-61928346D01*
X84715114Y-61928346D02*
X84857971Y-61999774D01*
X84857971Y-61999774D02*
X84929400Y-62071203D01*
X84929400Y-62071203D02*
X85000828Y-62214060D01*
X85000828Y-62214060D02*
X85000828Y-62785489D01*
X85000828Y-62785489D02*
X83500828Y-62785489D01*
X83500828Y-62785489D02*
X83500828Y-62285489D01*
X83500828Y-62285489D02*
X83572257Y-62142632D01*
X83572257Y-62142632D02*
X83643685Y-62071203D01*
X83643685Y-62071203D02*
X83786542Y-61999774D01*
X83786542Y-61999774D02*
X83929400Y-61999774D01*
X83929400Y-61999774D02*
X84072257Y-62071203D01*
X84072257Y-62071203D02*
X84143685Y-62142632D01*
X84143685Y-62142632D02*
X84215114Y-62285489D01*
X84215114Y-62285489D02*
X84215114Y-62785489D01*
X85000828Y-60571203D02*
X85000828Y-61285489D01*
X85000828Y-61285489D02*
X83500828Y-61285489D01*
X83500828Y-60071203D02*
X84715114Y-60071203D01*
X84715114Y-60071203D02*
X84857971Y-59999774D01*
X84857971Y-59999774D02*
X84929400Y-59928346D01*
X84929400Y-59928346D02*
X85000828Y-59785488D01*
X85000828Y-59785488D02*
X85000828Y-59499774D01*
X85000828Y-59499774D02*
X84929400Y-59356917D01*
X84929400Y-59356917D02*
X84857971Y-59285488D01*
X84857971Y-59285488D02*
X84715114Y-59214060D01*
X84715114Y-59214060D02*
X83500828Y-59214060D01*
X84215114Y-58499774D02*
X84215114Y-57999774D01*
X85000828Y-57785488D02*
X85000828Y-58499774D01*
X85000828Y-58499774D02*
X83500828Y-58499774D01*
X83500828Y-58499774D02*
X83500828Y-57785488D01*
X83500828Y-57356916D02*
X83500828Y-56499774D01*
X85000828Y-56928345D02*
X83500828Y-56928345D01*
X83500828Y-55714059D02*
X83500828Y-55428345D01*
X83500828Y-55428345D02*
X83572257Y-55285488D01*
X83572257Y-55285488D02*
X83715114Y-55142631D01*
X83715114Y-55142631D02*
X84000828Y-55071202D01*
X84000828Y-55071202D02*
X84500828Y-55071202D01*
X84500828Y-55071202D02*
X84786542Y-55142631D01*
X84786542Y-55142631D02*
X84929400Y-55285488D01*
X84929400Y-55285488D02*
X85000828Y-55428345D01*
X85000828Y-55428345D02*
X85000828Y-55714059D01*
X85000828Y-55714059D02*
X84929400Y-55856917D01*
X84929400Y-55856917D02*
X84786542Y-55999774D01*
X84786542Y-55999774D02*
X84500828Y-56071202D01*
X84500828Y-56071202D02*
X84000828Y-56071202D01*
X84000828Y-56071202D02*
X83715114Y-55999774D01*
X83715114Y-55999774D02*
X83572257Y-55856917D01*
X83572257Y-55856917D02*
X83500828Y-55714059D01*
X83500828Y-54142630D02*
X83500828Y-53856916D01*
X83500828Y-53856916D02*
X83572257Y-53714059D01*
X83572257Y-53714059D02*
X83715114Y-53571202D01*
X83715114Y-53571202D02*
X84000828Y-53499773D01*
X84000828Y-53499773D02*
X84500828Y-53499773D01*
X84500828Y-53499773D02*
X84786542Y-53571202D01*
X84786542Y-53571202D02*
X84929400Y-53714059D01*
X84929400Y-53714059D02*
X85000828Y-53856916D01*
X85000828Y-53856916D02*
X85000828Y-54142630D01*
X85000828Y-54142630D02*
X84929400Y-54285488D01*
X84929400Y-54285488D02*
X84786542Y-54428345D01*
X84786542Y-54428345D02*
X84500828Y-54499773D01*
X84500828Y-54499773D02*
X84000828Y-54499773D01*
X84000828Y-54499773D02*
X83715114Y-54428345D01*
X83715114Y-54428345D02*
X83572257Y-54285488D01*
X83572257Y-54285488D02*
X83500828Y-54142630D01*
X83500828Y-53071201D02*
X83500828Y-52214059D01*
X85000828Y-52642630D02*
X83500828Y-52642630D01*
X85000828Y-51714059D02*
X83500828Y-51714059D01*
X84215114Y-51714059D02*
X84215114Y-50856916D01*
X85000828Y-50856916D02*
X83500828Y-50856916D01*
D10*
X163833884Y-62462419D02*
X163833884Y-61462419D01*
X164310074Y-62462419D02*
X164310074Y-61462419D01*
X164310074Y-61462419D02*
X164881502Y-62462419D01*
X164881502Y-62462419D02*
X164881502Y-61462419D01*
X165214836Y-61462419D02*
X165786264Y-61462419D01*
X165500550Y-62462419D02*
X165500550Y-61462419D01*
X166643407Y-62462419D02*
X166071979Y-62462419D01*
X166357693Y-62462419D02*
X166357693Y-61462419D01*
X166357693Y-61462419D02*
X166262455Y-61605276D01*
X166262455Y-61605276D02*
X166167217Y-61700514D01*
X166167217Y-61700514D02*
X166071979Y-61748133D01*
D11*
X191179510Y-57250828D02*
X191179510Y-55750828D01*
X191179510Y-55750828D02*
X191750939Y-55750828D01*
X191750939Y-55750828D02*
X191893796Y-55822257D01*
X191893796Y-55822257D02*
X191965225Y-55893685D01*
X191965225Y-55893685D02*
X192036653Y-56036542D01*
X192036653Y-56036542D02*
X192036653Y-56250828D01*
X192036653Y-56250828D02*
X191965225Y-56393685D01*
X191965225Y-56393685D02*
X191893796Y-56465114D01*
X191893796Y-56465114D02*
X191750939Y-56536542D01*
X191750939Y-56536542D02*
X191179510Y-56536542D01*
X192536653Y-55750828D02*
X192893796Y-57250828D01*
X192893796Y-57250828D02*
X193179510Y-56179400D01*
X193179510Y-56179400D02*
X193465225Y-57250828D01*
X193465225Y-57250828D02*
X193822368Y-55750828D01*
X194393796Y-57250828D02*
X194393796Y-55750828D01*
X195250939Y-57250828D02*
X194608082Y-56393685D01*
X195250939Y-55750828D02*
X194393796Y-56607971D01*
X192140225Y-58597257D02*
X191997368Y-58525828D01*
X191997368Y-58525828D02*
X191783082Y-58525828D01*
X191783082Y-58525828D02*
X191568796Y-58597257D01*
X191568796Y-58597257D02*
X191425939Y-58740114D01*
X191425939Y-58740114D02*
X191354510Y-58882971D01*
X191354510Y-58882971D02*
X191283082Y-59168685D01*
X191283082Y-59168685D02*
X191283082Y-59382971D01*
X191283082Y-59382971D02*
X191354510Y-59668685D01*
X191354510Y-59668685D02*
X191425939Y-59811542D01*
X191425939Y-59811542D02*
X191568796Y-59954400D01*
X191568796Y-59954400D02*
X191783082Y-60025828D01*
X191783082Y-60025828D02*
X191925939Y-60025828D01*
X191925939Y-60025828D02*
X192140225Y-59954400D01*
X192140225Y-59954400D02*
X192211653Y-59882971D01*
X192211653Y-59882971D02*
X192211653Y-59382971D01*
X192211653Y-59382971D02*
X191925939Y-59382971D01*
X192854510Y-60025828D02*
X192854510Y-58525828D01*
X192854510Y-58525828D02*
X193711653Y-60025828D01*
X193711653Y-60025828D02*
X193711653Y-58525828D01*
X194425939Y-60025828D02*
X194425939Y-58525828D01*
X194425939Y-58525828D02*
X194783082Y-58525828D01*
X194783082Y-58525828D02*
X194997368Y-58597257D01*
X194997368Y-58597257D02*
X195140225Y-58740114D01*
X195140225Y-58740114D02*
X195211654Y-58882971D01*
X195211654Y-58882971D02*
X195283082Y-59168685D01*
X195283082Y-59168685D02*
X195283082Y-59382971D01*
X195283082Y-59382971D02*
X195211654Y-59668685D01*
X195211654Y-59668685D02*
X195140225Y-59811542D01*
X195140225Y-59811542D02*
X194997368Y-59954400D01*
X194997368Y-59954400D02*
X194783082Y-60025828D01*
X194783082Y-60025828D02*
X194425939Y-60025828D01*
D10*
X161436704Y-68433734D02*
X161436704Y-67957544D01*
X161722419Y-68528972D02*
X160722419Y-68195639D01*
X160722419Y-68195639D02*
X161722419Y-67862306D01*
X161627180Y-66957544D02*
X161674800Y-67005163D01*
X161674800Y-67005163D02*
X161722419Y-67148020D01*
X161722419Y-67148020D02*
X161722419Y-67243258D01*
X161722419Y-67243258D02*
X161674800Y-67386115D01*
X161674800Y-67386115D02*
X161579561Y-67481353D01*
X161579561Y-67481353D02*
X161484323Y-67528972D01*
X161484323Y-67528972D02*
X161293847Y-67576591D01*
X161293847Y-67576591D02*
X161150990Y-67576591D01*
X161150990Y-67576591D02*
X160960514Y-67528972D01*
X160960514Y-67528972D02*
X160865276Y-67481353D01*
X160865276Y-67481353D02*
X160770038Y-67386115D01*
X160770038Y-67386115D02*
X160722419Y-67243258D01*
X160722419Y-67243258D02*
X160722419Y-67148020D01*
X160722419Y-67148020D02*
X160770038Y-67005163D01*
X160770038Y-67005163D02*
X160817657Y-66957544D01*
X161627180Y-65957544D02*
X161674800Y-66005163D01*
X161674800Y-66005163D02*
X161722419Y-66148020D01*
X161722419Y-66148020D02*
X161722419Y-66243258D01*
X161722419Y-66243258D02*
X161674800Y-66386115D01*
X161674800Y-66386115D02*
X161579561Y-66481353D01*
X161579561Y-66481353D02*
X161484323Y-66528972D01*
X161484323Y-66528972D02*
X161293847Y-66576591D01*
X161293847Y-66576591D02*
X161150990Y-66576591D01*
X161150990Y-66576591D02*
X160960514Y-66528972D01*
X160960514Y-66528972D02*
X160865276Y-66481353D01*
X160865276Y-66481353D02*
X160770038Y-66386115D01*
X160770038Y-66386115D02*
X160722419Y-66243258D01*
X160722419Y-66243258D02*
X160722419Y-66148020D01*
X160722419Y-66148020D02*
X160770038Y-66005163D01*
X160770038Y-66005163D02*
X160817657Y-65957544D01*
X161198609Y-65528972D02*
X161198609Y-65195639D01*
X161722419Y-65052782D02*
X161722419Y-65528972D01*
X161722419Y-65528972D02*
X160722419Y-65528972D01*
X160722419Y-65528972D02*
X160722419Y-65052782D01*
X161722419Y-64148020D02*
X161722419Y-64624210D01*
X161722419Y-64624210D02*
X160722419Y-64624210D01*
X160722419Y-63624210D02*
X160722419Y-63433734D01*
X160722419Y-63433734D02*
X160770038Y-63338496D01*
X160770038Y-63338496D02*
X160865276Y-63243258D01*
X160865276Y-63243258D02*
X161055752Y-63195639D01*
X161055752Y-63195639D02*
X161389085Y-63195639D01*
X161389085Y-63195639D02*
X161579561Y-63243258D01*
X161579561Y-63243258D02*
X161674800Y-63338496D01*
X161674800Y-63338496D02*
X161722419Y-63433734D01*
X161722419Y-63433734D02*
X161722419Y-63624210D01*
X161722419Y-63624210D02*
X161674800Y-63719448D01*
X161674800Y-63719448D02*
X161579561Y-63814686D01*
X161579561Y-63814686D02*
X161389085Y-63862305D01*
X161389085Y-63862305D02*
X161055752Y-63862305D01*
X161055752Y-63862305D02*
X160865276Y-63814686D01*
X160865276Y-63814686D02*
X160770038Y-63719448D01*
X160770038Y-63719448D02*
X160722419Y-63624210D01*
X161722419Y-62767067D02*
X160722419Y-62767067D01*
X160722419Y-62767067D02*
X161436704Y-62433734D01*
X161436704Y-62433734D02*
X160722419Y-62100401D01*
X160722419Y-62100401D02*
X161722419Y-62100401D01*
X161198609Y-61624210D02*
X161198609Y-61290877D01*
X161722419Y-61148020D02*
X161722419Y-61624210D01*
X161722419Y-61624210D02*
X160722419Y-61624210D01*
X160722419Y-61624210D02*
X160722419Y-61148020D01*
X160722419Y-60862305D02*
X160722419Y-60290877D01*
X161722419Y-60576591D02*
X160722419Y-60576591D01*
X161198609Y-59957543D02*
X161198609Y-59624210D01*
X161722419Y-59481353D02*
X161722419Y-59957543D01*
X161722419Y-59957543D02*
X160722419Y-59957543D01*
X160722419Y-59957543D02*
X160722419Y-59481353D01*
X161722419Y-58481353D02*
X161246228Y-58814686D01*
X161722419Y-59052781D02*
X160722419Y-59052781D01*
X160722419Y-59052781D02*
X160722419Y-58671829D01*
X160722419Y-58671829D02*
X160770038Y-58576591D01*
X160770038Y-58576591D02*
X160817657Y-58528972D01*
X160817657Y-58528972D02*
X160912895Y-58481353D01*
X160912895Y-58481353D02*
X161055752Y-58481353D01*
X161055752Y-58481353D02*
X161150990Y-58528972D01*
X161150990Y-58528972D02*
X161198609Y-58576591D01*
X161198609Y-58576591D02*
X161246228Y-58671829D01*
X161246228Y-58671829D02*
X161246228Y-59052781D01*
X161674800Y-57338495D02*
X161722419Y-57195638D01*
X161722419Y-57195638D02*
X161722419Y-56957543D01*
X161722419Y-56957543D02*
X161674800Y-56862305D01*
X161674800Y-56862305D02*
X161627180Y-56814686D01*
X161627180Y-56814686D02*
X161531942Y-56767067D01*
X161531942Y-56767067D02*
X161436704Y-56767067D01*
X161436704Y-56767067D02*
X161341466Y-56814686D01*
X161341466Y-56814686D02*
X161293847Y-56862305D01*
X161293847Y-56862305D02*
X161246228Y-56957543D01*
X161246228Y-56957543D02*
X161198609Y-57148019D01*
X161198609Y-57148019D02*
X161150990Y-57243257D01*
X161150990Y-57243257D02*
X161103371Y-57290876D01*
X161103371Y-57290876D02*
X161008133Y-57338495D01*
X161008133Y-57338495D02*
X160912895Y-57338495D01*
X160912895Y-57338495D02*
X160817657Y-57290876D01*
X160817657Y-57290876D02*
X160770038Y-57243257D01*
X160770038Y-57243257D02*
X160722419Y-57148019D01*
X160722419Y-57148019D02*
X160722419Y-56909924D01*
X160722419Y-56909924D02*
X160770038Y-56767067D01*
X161198609Y-56338495D02*
X161198609Y-56005162D01*
X161722419Y-55862305D02*
X161722419Y-56338495D01*
X161722419Y-56338495D02*
X160722419Y-56338495D01*
X160722419Y-56338495D02*
X160722419Y-55862305D01*
X161722419Y-55433733D02*
X160722419Y-55433733D01*
X160722419Y-55433733D02*
X161722419Y-54862305D01*
X161722419Y-54862305D02*
X160722419Y-54862305D01*
X161674800Y-54433733D02*
X161722419Y-54290876D01*
X161722419Y-54290876D02*
X161722419Y-54052781D01*
X161722419Y-54052781D02*
X161674800Y-53957543D01*
X161674800Y-53957543D02*
X161627180Y-53909924D01*
X161627180Y-53909924D02*
X161531942Y-53862305D01*
X161531942Y-53862305D02*
X161436704Y-53862305D01*
X161436704Y-53862305D02*
X161341466Y-53909924D01*
X161341466Y-53909924D02*
X161293847Y-53957543D01*
X161293847Y-53957543D02*
X161246228Y-54052781D01*
X161246228Y-54052781D02*
X161198609Y-54243257D01*
X161198609Y-54243257D02*
X161150990Y-54338495D01*
X161150990Y-54338495D02*
X161103371Y-54386114D01*
X161103371Y-54386114D02*
X161008133Y-54433733D01*
X161008133Y-54433733D02*
X160912895Y-54433733D01*
X160912895Y-54433733D02*
X160817657Y-54386114D01*
X160817657Y-54386114D02*
X160770038Y-54338495D01*
X160770038Y-54338495D02*
X160722419Y-54243257D01*
X160722419Y-54243257D02*
X160722419Y-54005162D01*
X160722419Y-54005162D02*
X160770038Y-53862305D01*
X160722419Y-53243257D02*
X160722419Y-53052781D01*
X160722419Y-53052781D02*
X160770038Y-52957543D01*
X160770038Y-52957543D02*
X160865276Y-52862305D01*
X160865276Y-52862305D02*
X161055752Y-52814686D01*
X161055752Y-52814686D02*
X161389085Y-52814686D01*
X161389085Y-52814686D02*
X161579561Y-52862305D01*
X161579561Y-52862305D02*
X161674800Y-52957543D01*
X161674800Y-52957543D02*
X161722419Y-53052781D01*
X161722419Y-53052781D02*
X161722419Y-53243257D01*
X161722419Y-53243257D02*
X161674800Y-53338495D01*
X161674800Y-53338495D02*
X161579561Y-53433733D01*
X161579561Y-53433733D02*
X161389085Y-53481352D01*
X161389085Y-53481352D02*
X161055752Y-53481352D01*
X161055752Y-53481352D02*
X160865276Y-53433733D01*
X160865276Y-53433733D02*
X160770038Y-53338495D01*
X160770038Y-53338495D02*
X160722419Y-53243257D01*
X161722419Y-51814686D02*
X161246228Y-52148019D01*
X161722419Y-52386114D02*
X160722419Y-52386114D01*
X160722419Y-52386114D02*
X160722419Y-52005162D01*
X160722419Y-52005162D02*
X160770038Y-51909924D01*
X160770038Y-51909924D02*
X160817657Y-51862305D01*
X160817657Y-51862305D02*
X160912895Y-51814686D01*
X160912895Y-51814686D02*
X161055752Y-51814686D01*
X161055752Y-51814686D02*
X161150990Y-51862305D01*
X161150990Y-51862305D02*
X161198609Y-51909924D01*
X161198609Y-51909924D02*
X161246228Y-52005162D01*
X161246228Y-52005162D02*
X161246228Y-52386114D01*
X108447580Y-93865312D02*
X108923771Y-93531979D01*
X108447580Y-93293884D02*
X109447580Y-93293884D01*
X109447580Y-93293884D02*
X109447580Y-93674836D01*
X109447580Y-93674836D02*
X109399961Y-93770074D01*
X109399961Y-93770074D02*
X109352342Y-93817693D01*
X109352342Y-93817693D02*
X109257104Y-93865312D01*
X109257104Y-93865312D02*
X109114247Y-93865312D01*
X109114247Y-93865312D02*
X109019009Y-93817693D01*
X109019009Y-93817693D02*
X108971390Y-93770074D01*
X108971390Y-93770074D02*
X108923771Y-93674836D01*
X108923771Y-93674836D02*
X108923771Y-93293884D01*
X108971390Y-94293884D02*
X108971390Y-94627217D01*
X108447580Y-94770074D02*
X108447580Y-94293884D01*
X108447580Y-94293884D02*
X109447580Y-94293884D01*
X109447580Y-94293884D02*
X109447580Y-94770074D01*
X108495200Y-95151027D02*
X108447580Y-95293884D01*
X108447580Y-95293884D02*
X108447580Y-95531979D01*
X108447580Y-95531979D02*
X108495200Y-95627217D01*
X108495200Y-95627217D02*
X108542819Y-95674836D01*
X108542819Y-95674836D02*
X108638057Y-95722455D01*
X108638057Y-95722455D02*
X108733295Y-95722455D01*
X108733295Y-95722455D02*
X108828533Y-95674836D01*
X108828533Y-95674836D02*
X108876152Y-95627217D01*
X108876152Y-95627217D02*
X108923771Y-95531979D01*
X108923771Y-95531979D02*
X108971390Y-95341503D01*
X108971390Y-95341503D02*
X109019009Y-95246265D01*
X109019009Y-95246265D02*
X109066628Y-95198646D01*
X109066628Y-95198646D02*
X109161866Y-95151027D01*
X109161866Y-95151027D02*
X109257104Y-95151027D01*
X109257104Y-95151027D02*
X109352342Y-95198646D01*
X109352342Y-95198646D02*
X109399961Y-95246265D01*
X109399961Y-95246265D02*
X109447580Y-95341503D01*
X109447580Y-95341503D02*
X109447580Y-95579598D01*
X109447580Y-95579598D02*
X109399961Y-95722455D01*
X108971390Y-96151027D02*
X108971390Y-96484360D01*
X108447580Y-96627217D02*
X108447580Y-96151027D01*
X108447580Y-96151027D02*
X109447580Y-96151027D01*
X109447580Y-96151027D02*
X109447580Y-96627217D01*
X109447580Y-96912932D02*
X109447580Y-97484360D01*
X108447580Y-97198646D02*
X109447580Y-97198646D01*
X126480074Y-81972419D02*
X126003884Y-81972419D01*
X126003884Y-81972419D02*
X126003884Y-80972419D01*
X126813408Y-81972419D02*
X126813408Y-81305752D01*
X126813408Y-80972419D02*
X126765789Y-81020038D01*
X126765789Y-81020038D02*
X126813408Y-81067657D01*
X126813408Y-81067657D02*
X126861027Y-81020038D01*
X126861027Y-81020038D02*
X126813408Y-80972419D01*
X126813408Y-80972419D02*
X126813408Y-81067657D01*
X127718169Y-81305752D02*
X127718169Y-82305752D01*
X127718169Y-81924800D02*
X127622931Y-81972419D01*
X127622931Y-81972419D02*
X127432455Y-81972419D01*
X127432455Y-81972419D02*
X127337217Y-81924800D01*
X127337217Y-81924800D02*
X127289598Y-81877180D01*
X127289598Y-81877180D02*
X127241979Y-81781942D01*
X127241979Y-81781942D02*
X127241979Y-81496228D01*
X127241979Y-81496228D02*
X127289598Y-81400990D01*
X127289598Y-81400990D02*
X127337217Y-81353371D01*
X127337217Y-81353371D02*
X127432455Y-81305752D01*
X127432455Y-81305752D02*
X127622931Y-81305752D01*
X127622931Y-81305752D02*
X127718169Y-81353371D01*
X128622931Y-81305752D02*
X128622931Y-81972419D01*
X128194360Y-81305752D02*
X128194360Y-81829561D01*
X128194360Y-81829561D02*
X128241979Y-81924800D01*
X128241979Y-81924800D02*
X128337217Y-81972419D01*
X128337217Y-81972419D02*
X128480074Y-81972419D01*
X128480074Y-81972419D02*
X128575312Y-81924800D01*
X128575312Y-81924800D02*
X128622931Y-81877180D01*
X129099122Y-81972419D02*
X129099122Y-81305752D01*
X129099122Y-80972419D02*
X129051503Y-81020038D01*
X129051503Y-81020038D02*
X129099122Y-81067657D01*
X129099122Y-81067657D02*
X129146741Y-81020038D01*
X129146741Y-81020038D02*
X129099122Y-80972419D01*
X129099122Y-80972419D02*
X129099122Y-81067657D01*
X130003883Y-81972419D02*
X130003883Y-80972419D01*
X130003883Y-81924800D02*
X129908645Y-81972419D01*
X129908645Y-81972419D02*
X129718169Y-81972419D01*
X129718169Y-81972419D02*
X129622931Y-81924800D01*
X129622931Y-81924800D02*
X129575312Y-81877180D01*
X129575312Y-81877180D02*
X129527693Y-81781942D01*
X129527693Y-81781942D02*
X129527693Y-81496228D01*
X129527693Y-81496228D02*
X129575312Y-81400990D01*
X129575312Y-81400990D02*
X129622931Y-81353371D01*
X129622931Y-81353371D02*
X129718169Y-81305752D01*
X129718169Y-81305752D02*
X129908645Y-81305752D01*
X129908645Y-81305752D02*
X130003883Y-81353371D01*
X131194360Y-81924800D02*
X131337217Y-81972419D01*
X131337217Y-81972419D02*
X131575312Y-81972419D01*
X131575312Y-81972419D02*
X131670550Y-81924800D01*
X131670550Y-81924800D02*
X131718169Y-81877180D01*
X131718169Y-81877180D02*
X131765788Y-81781942D01*
X131765788Y-81781942D02*
X131765788Y-81686704D01*
X131765788Y-81686704D02*
X131718169Y-81591466D01*
X131718169Y-81591466D02*
X131670550Y-81543847D01*
X131670550Y-81543847D02*
X131575312Y-81496228D01*
X131575312Y-81496228D02*
X131384836Y-81448609D01*
X131384836Y-81448609D02*
X131289598Y-81400990D01*
X131289598Y-81400990D02*
X131241979Y-81353371D01*
X131241979Y-81353371D02*
X131194360Y-81258133D01*
X131194360Y-81258133D02*
X131194360Y-81162895D01*
X131194360Y-81162895D02*
X131241979Y-81067657D01*
X131241979Y-81067657D02*
X131289598Y-81020038D01*
X131289598Y-81020038D02*
X131384836Y-80972419D01*
X131384836Y-80972419D02*
X131622931Y-80972419D01*
X131622931Y-80972419D02*
X131765788Y-81020038D01*
X132575312Y-81924800D02*
X132480074Y-81972419D01*
X132480074Y-81972419D02*
X132289598Y-81972419D01*
X132289598Y-81972419D02*
X132194360Y-81924800D01*
X132194360Y-81924800D02*
X132146741Y-81829561D01*
X132146741Y-81829561D02*
X132146741Y-81448609D01*
X132146741Y-81448609D02*
X132194360Y-81353371D01*
X132194360Y-81353371D02*
X132289598Y-81305752D01*
X132289598Y-81305752D02*
X132480074Y-81305752D01*
X132480074Y-81305752D02*
X132575312Y-81353371D01*
X132575312Y-81353371D02*
X132622931Y-81448609D01*
X132622931Y-81448609D02*
X132622931Y-81543847D01*
X132622931Y-81543847D02*
X132146741Y-81639085D01*
X133051503Y-81305752D02*
X133051503Y-81972419D01*
X133051503Y-81400990D02*
X133099122Y-81353371D01*
X133099122Y-81353371D02*
X133194360Y-81305752D01*
X133194360Y-81305752D02*
X133337217Y-81305752D01*
X133337217Y-81305752D02*
X133432455Y-81353371D01*
X133432455Y-81353371D02*
X133480074Y-81448609D01*
X133480074Y-81448609D02*
X133480074Y-81972419D01*
X133908646Y-81924800D02*
X134003884Y-81972419D01*
X134003884Y-81972419D02*
X134194360Y-81972419D01*
X134194360Y-81972419D02*
X134289598Y-81924800D01*
X134289598Y-81924800D02*
X134337217Y-81829561D01*
X134337217Y-81829561D02*
X134337217Y-81781942D01*
X134337217Y-81781942D02*
X134289598Y-81686704D01*
X134289598Y-81686704D02*
X134194360Y-81639085D01*
X134194360Y-81639085D02*
X134051503Y-81639085D01*
X134051503Y-81639085D02*
X133956265Y-81591466D01*
X133956265Y-81591466D02*
X133908646Y-81496228D01*
X133908646Y-81496228D02*
X133908646Y-81448609D01*
X133908646Y-81448609D02*
X133956265Y-81353371D01*
X133956265Y-81353371D02*
X134051503Y-81305752D01*
X134051503Y-81305752D02*
X134194360Y-81305752D01*
X134194360Y-81305752D02*
X134289598Y-81353371D01*
X134908646Y-81972419D02*
X134813408Y-81924800D01*
X134813408Y-81924800D02*
X134765789Y-81877180D01*
X134765789Y-81877180D02*
X134718170Y-81781942D01*
X134718170Y-81781942D02*
X134718170Y-81496228D01*
X134718170Y-81496228D02*
X134765789Y-81400990D01*
X134765789Y-81400990D02*
X134813408Y-81353371D01*
X134813408Y-81353371D02*
X134908646Y-81305752D01*
X134908646Y-81305752D02*
X135051503Y-81305752D01*
X135051503Y-81305752D02*
X135146741Y-81353371D01*
X135146741Y-81353371D02*
X135194360Y-81400990D01*
X135194360Y-81400990D02*
X135241979Y-81496228D01*
X135241979Y-81496228D02*
X135241979Y-81781942D01*
X135241979Y-81781942D02*
X135194360Y-81877180D01*
X135194360Y-81877180D02*
X135146741Y-81924800D01*
X135146741Y-81924800D02*
X135051503Y-81972419D01*
X135051503Y-81972419D02*
X134908646Y-81972419D01*
X135670551Y-81972419D02*
X135670551Y-81305752D01*
X135670551Y-81496228D02*
X135718170Y-81400990D01*
X135718170Y-81400990D02*
X135765789Y-81353371D01*
X135765789Y-81353371D02*
X135861027Y-81305752D01*
X135861027Y-81305752D02*
X135956265Y-81305752D01*
X163593884Y-57332419D02*
X163593884Y-56332419D01*
X163593884Y-56332419D02*
X163927217Y-57046704D01*
X163927217Y-57046704D02*
X164260550Y-56332419D01*
X164260550Y-56332419D02*
X164260550Y-57332419D01*
X164736741Y-57332419D02*
X164736741Y-56332419D01*
X165165312Y-57284800D02*
X165308169Y-57332419D01*
X165308169Y-57332419D02*
X165546264Y-57332419D01*
X165546264Y-57332419D02*
X165641502Y-57284800D01*
X165641502Y-57284800D02*
X165689121Y-57237180D01*
X165689121Y-57237180D02*
X165736740Y-57141942D01*
X165736740Y-57141942D02*
X165736740Y-57046704D01*
X165736740Y-57046704D02*
X165689121Y-56951466D01*
X165689121Y-56951466D02*
X165641502Y-56903847D01*
X165641502Y-56903847D02*
X165546264Y-56856228D01*
X165546264Y-56856228D02*
X165355788Y-56808609D01*
X165355788Y-56808609D02*
X165260550Y-56760990D01*
X165260550Y-56760990D02*
X165212931Y-56713371D01*
X165212931Y-56713371D02*
X165165312Y-56618133D01*
X165165312Y-56618133D02*
X165165312Y-56522895D01*
X165165312Y-56522895D02*
X165212931Y-56427657D01*
X165212931Y-56427657D02*
X165260550Y-56380038D01*
X165260550Y-56380038D02*
X165355788Y-56332419D01*
X165355788Y-56332419D02*
X165593883Y-56332419D01*
X165593883Y-56332419D02*
X165736740Y-56380038D01*
X166355788Y-56332419D02*
X166546264Y-56332419D01*
X166546264Y-56332419D02*
X166641502Y-56380038D01*
X166641502Y-56380038D02*
X166736740Y-56475276D01*
X166736740Y-56475276D02*
X166784359Y-56665752D01*
X166784359Y-56665752D02*
X166784359Y-56999085D01*
X166784359Y-56999085D02*
X166736740Y-57189561D01*
X166736740Y-57189561D02*
X166641502Y-57284800D01*
X166641502Y-57284800D02*
X166546264Y-57332419D01*
X166546264Y-57332419D02*
X166355788Y-57332419D01*
X166355788Y-57332419D02*
X166260550Y-57284800D01*
X166260550Y-57284800D02*
X166165312Y-57189561D01*
X166165312Y-57189561D02*
X166117693Y-56999085D01*
X166117693Y-56999085D02*
X166117693Y-56665752D01*
X166117693Y-56665752D02*
X166165312Y-56475276D01*
X166165312Y-56475276D02*
X166260550Y-56380038D01*
X166260550Y-56380038D02*
X166355788Y-56332419D01*
X146187217Y-82458609D02*
X145853884Y-82458609D01*
X145853884Y-82982419D02*
X145853884Y-81982419D01*
X145853884Y-81982419D02*
X146330074Y-81982419D01*
X147139598Y-82315752D02*
X147139598Y-82982419D01*
X146711027Y-82315752D02*
X146711027Y-82839561D01*
X146711027Y-82839561D02*
X146758646Y-82934800D01*
X146758646Y-82934800D02*
X146853884Y-82982419D01*
X146853884Y-82982419D02*
X146996741Y-82982419D01*
X146996741Y-82982419D02*
X147091979Y-82934800D01*
X147091979Y-82934800D02*
X147139598Y-82887180D01*
X147996741Y-82934800D02*
X147901503Y-82982419D01*
X147901503Y-82982419D02*
X147711027Y-82982419D01*
X147711027Y-82982419D02*
X147615789Y-82934800D01*
X147615789Y-82934800D02*
X147568170Y-82839561D01*
X147568170Y-82839561D02*
X147568170Y-82458609D01*
X147568170Y-82458609D02*
X147615789Y-82363371D01*
X147615789Y-82363371D02*
X147711027Y-82315752D01*
X147711027Y-82315752D02*
X147901503Y-82315752D01*
X147901503Y-82315752D02*
X147996741Y-82363371D01*
X147996741Y-82363371D02*
X148044360Y-82458609D01*
X148044360Y-82458609D02*
X148044360Y-82553847D01*
X148044360Y-82553847D02*
X147568170Y-82649085D01*
X148615789Y-82982419D02*
X148520551Y-82934800D01*
X148520551Y-82934800D02*
X148472932Y-82839561D01*
X148472932Y-82839561D02*
X148472932Y-81982419D01*
X149711028Y-82934800D02*
X149853885Y-82982419D01*
X149853885Y-82982419D02*
X150091980Y-82982419D01*
X150091980Y-82982419D02*
X150187218Y-82934800D01*
X150187218Y-82934800D02*
X150234837Y-82887180D01*
X150234837Y-82887180D02*
X150282456Y-82791942D01*
X150282456Y-82791942D02*
X150282456Y-82696704D01*
X150282456Y-82696704D02*
X150234837Y-82601466D01*
X150234837Y-82601466D02*
X150187218Y-82553847D01*
X150187218Y-82553847D02*
X150091980Y-82506228D01*
X150091980Y-82506228D02*
X149901504Y-82458609D01*
X149901504Y-82458609D02*
X149806266Y-82410990D01*
X149806266Y-82410990D02*
X149758647Y-82363371D01*
X149758647Y-82363371D02*
X149711028Y-82268133D01*
X149711028Y-82268133D02*
X149711028Y-82172895D01*
X149711028Y-82172895D02*
X149758647Y-82077657D01*
X149758647Y-82077657D02*
X149806266Y-82030038D01*
X149806266Y-82030038D02*
X149901504Y-81982419D01*
X149901504Y-81982419D02*
X150139599Y-81982419D01*
X150139599Y-81982419D02*
X150282456Y-82030038D01*
X151091980Y-82934800D02*
X150996742Y-82982419D01*
X150996742Y-82982419D02*
X150806266Y-82982419D01*
X150806266Y-82982419D02*
X150711028Y-82934800D01*
X150711028Y-82934800D02*
X150663409Y-82839561D01*
X150663409Y-82839561D02*
X150663409Y-82458609D01*
X150663409Y-82458609D02*
X150711028Y-82363371D01*
X150711028Y-82363371D02*
X150806266Y-82315752D01*
X150806266Y-82315752D02*
X150996742Y-82315752D01*
X150996742Y-82315752D02*
X151091980Y-82363371D01*
X151091980Y-82363371D02*
X151139599Y-82458609D01*
X151139599Y-82458609D02*
X151139599Y-82553847D01*
X151139599Y-82553847D02*
X150663409Y-82649085D01*
X151568171Y-82315752D02*
X151568171Y-82982419D01*
X151568171Y-82410990D02*
X151615790Y-82363371D01*
X151615790Y-82363371D02*
X151711028Y-82315752D01*
X151711028Y-82315752D02*
X151853885Y-82315752D01*
X151853885Y-82315752D02*
X151949123Y-82363371D01*
X151949123Y-82363371D02*
X151996742Y-82458609D01*
X151996742Y-82458609D02*
X151996742Y-82982419D01*
X152425314Y-82934800D02*
X152520552Y-82982419D01*
X152520552Y-82982419D02*
X152711028Y-82982419D01*
X152711028Y-82982419D02*
X152806266Y-82934800D01*
X152806266Y-82934800D02*
X152853885Y-82839561D01*
X152853885Y-82839561D02*
X152853885Y-82791942D01*
X152853885Y-82791942D02*
X152806266Y-82696704D01*
X152806266Y-82696704D02*
X152711028Y-82649085D01*
X152711028Y-82649085D02*
X152568171Y-82649085D01*
X152568171Y-82649085D02*
X152472933Y-82601466D01*
X152472933Y-82601466D02*
X152425314Y-82506228D01*
X152425314Y-82506228D02*
X152425314Y-82458609D01*
X152425314Y-82458609D02*
X152472933Y-82363371D01*
X152472933Y-82363371D02*
X152568171Y-82315752D01*
X152568171Y-82315752D02*
X152711028Y-82315752D01*
X152711028Y-82315752D02*
X152806266Y-82363371D01*
X153425314Y-82982419D02*
X153330076Y-82934800D01*
X153330076Y-82934800D02*
X153282457Y-82887180D01*
X153282457Y-82887180D02*
X153234838Y-82791942D01*
X153234838Y-82791942D02*
X153234838Y-82506228D01*
X153234838Y-82506228D02*
X153282457Y-82410990D01*
X153282457Y-82410990D02*
X153330076Y-82363371D01*
X153330076Y-82363371D02*
X153425314Y-82315752D01*
X153425314Y-82315752D02*
X153568171Y-82315752D01*
X153568171Y-82315752D02*
X153663409Y-82363371D01*
X153663409Y-82363371D02*
X153711028Y-82410990D01*
X153711028Y-82410990D02*
X153758647Y-82506228D01*
X153758647Y-82506228D02*
X153758647Y-82791942D01*
X153758647Y-82791942D02*
X153711028Y-82887180D01*
X153711028Y-82887180D02*
X153663409Y-82934800D01*
X153663409Y-82934800D02*
X153568171Y-82982419D01*
X153568171Y-82982419D02*
X153425314Y-82982419D01*
X154187219Y-82982419D02*
X154187219Y-82315752D01*
X154187219Y-82506228D02*
X154234838Y-82410990D01*
X154234838Y-82410990D02*
X154282457Y-82363371D01*
X154282457Y-82363371D02*
X154377695Y-82315752D01*
X154377695Y-82315752D02*
X154472933Y-82315752D01*
D12*
X197396779Y-136568866D02*
X198158684Y-136568866D01*
X197777731Y-136949819D02*
X197777731Y-136187914D01*
X112571570Y-132088779D02*
X112571570Y-132804521D01*
X112571570Y-132804521D02*
X112523854Y-132947669D01*
X112523854Y-132947669D02*
X112428422Y-133043102D01*
X112428422Y-133043102D02*
X112285273Y-133090818D01*
X112285273Y-133090818D02*
X112189841Y-133090818D01*
X113573609Y-133090818D02*
X113001015Y-133090818D01*
X113287312Y-133090818D02*
X113287312Y-132088779D01*
X113287312Y-132088779D02*
X113191880Y-132231927D01*
X113191880Y-132231927D02*
X113096447Y-132327359D01*
X113096447Y-132327359D02*
X113001015Y-132375076D01*
X113907622Y-132088779D02*
X114527932Y-132088779D01*
X114527932Y-132088779D02*
X114193919Y-132470508D01*
X114193919Y-132470508D02*
X114337067Y-132470508D01*
X114337067Y-132470508D02*
X114432500Y-132518224D01*
X114432500Y-132518224D02*
X114480216Y-132565940D01*
X114480216Y-132565940D02*
X114527932Y-132661372D01*
X114527932Y-132661372D02*
X114527932Y-132899953D01*
X114527932Y-132899953D02*
X114480216Y-132995385D01*
X114480216Y-132995385D02*
X114432500Y-133043102D01*
X114432500Y-133043102D02*
X114337067Y-133090818D01*
X114337067Y-133090818D02*
X114050770Y-133090818D01*
X114050770Y-133090818D02*
X113955338Y-133043102D01*
X113955338Y-133043102D02*
X113907622Y-132995385D01*
X114238095Y-86306819D02*
X114809523Y-86306819D01*
X114523809Y-87306819D02*
X114523809Y-86306819D01*
X115142857Y-87306819D02*
X115142857Y-86306819D01*
X115142857Y-86306819D02*
X115523809Y-86306819D01*
X115523809Y-86306819D02*
X115619047Y-86354438D01*
X115619047Y-86354438D02*
X115666666Y-86402057D01*
X115666666Y-86402057D02*
X115714285Y-86497295D01*
X115714285Y-86497295D02*
X115714285Y-86640152D01*
X115714285Y-86640152D02*
X115666666Y-86735390D01*
X115666666Y-86735390D02*
X115619047Y-86783009D01*
X115619047Y-86783009D02*
X115523809Y-86830628D01*
X115523809Y-86830628D02*
X115142857Y-86830628D01*
X116666666Y-87306819D02*
X116095238Y-87306819D01*
X116380952Y-87306819D02*
X116380952Y-86306819D01*
X116380952Y-86306819D02*
X116285714Y-86449676D01*
X116285714Y-86449676D02*
X116190476Y-86544914D01*
X116190476Y-86544914D02*
X116095238Y-86592533D01*
X144786653Y-111709536D02*
X144786653Y-112520028D01*
X144786653Y-112520028D02*
X144834329Y-112615380D01*
X144834329Y-112615380D02*
X144882005Y-112663057D01*
X144882005Y-112663057D02*
X144977357Y-112710733D01*
X144977357Y-112710733D02*
X145168061Y-112710733D01*
X145168061Y-112710733D02*
X145263413Y-112663057D01*
X145263413Y-112663057D02*
X145311089Y-112615380D01*
X145311089Y-112615380D02*
X145358765Y-112520028D01*
X145358765Y-112520028D02*
X145358765Y-111709536D01*
X146312286Y-111709536D02*
X145835526Y-111709536D01*
X145835526Y-111709536D02*
X145787850Y-112186296D01*
X145787850Y-112186296D02*
X145835526Y-112138620D01*
X145835526Y-112138620D02*
X145930878Y-112090944D01*
X145930878Y-112090944D02*
X146169258Y-112090944D01*
X146169258Y-112090944D02*
X146264610Y-112138620D01*
X146264610Y-112138620D02*
X146312286Y-112186296D01*
X146312286Y-112186296D02*
X146359962Y-112281648D01*
X146359962Y-112281648D02*
X146359962Y-112520028D01*
X146359962Y-112520028D02*
X146312286Y-112615380D01*
X146312286Y-112615380D02*
X146264610Y-112663057D01*
X146264610Y-112663057D02*
X146169258Y-112710733D01*
X146169258Y-112710733D02*
X145930878Y-112710733D01*
X145930878Y-112710733D02*
X145835526Y-112663057D01*
X145835526Y-112663057D02*
X145787850Y-112615380D01*
X114391667Y-91407200D02*
X114534524Y-91454819D01*
X114534524Y-91454819D02*
X114772619Y-91454819D01*
X114772619Y-91454819D02*
X114867857Y-91407200D01*
X114867857Y-91407200D02*
X114915476Y-91359580D01*
X114915476Y-91359580D02*
X114963095Y-91264342D01*
X114963095Y-91264342D02*
X114963095Y-91169104D01*
X114963095Y-91169104D02*
X114915476Y-91073866D01*
X114915476Y-91073866D02*
X114867857Y-91026247D01*
X114867857Y-91026247D02*
X114772619Y-90978628D01*
X114772619Y-90978628D02*
X114582143Y-90931009D01*
X114582143Y-90931009D02*
X114486905Y-90883390D01*
X114486905Y-90883390D02*
X114439286Y-90835771D01*
X114439286Y-90835771D02*
X114391667Y-90740533D01*
X114391667Y-90740533D02*
X114391667Y-90645295D01*
X114391667Y-90645295D02*
X114439286Y-90550057D01*
X114439286Y-90550057D02*
X114486905Y-90502438D01*
X114486905Y-90502438D02*
X114582143Y-90454819D01*
X114582143Y-90454819D02*
X114820238Y-90454819D01*
X114820238Y-90454819D02*
X114963095Y-90502438D01*
X115296429Y-90454819D02*
X115534524Y-91454819D01*
X115534524Y-91454819D02*
X115725000Y-90740533D01*
X115725000Y-90740533D02*
X115915476Y-91454819D01*
X115915476Y-91454819D02*
X116153572Y-90454819D01*
X117058333Y-91454819D02*
X116486905Y-91454819D01*
X116772619Y-91454819D02*
X116772619Y-90454819D01*
X116772619Y-90454819D02*
X116677381Y-90597676D01*
X116677381Y-90597676D02*
X116582143Y-90692914D01*
X116582143Y-90692914D02*
X116486905Y-90740533D01*
X168949405Y-109769819D02*
X168949405Y-108769819D01*
X168949405Y-108769819D02*
X169187500Y-108769819D01*
X169187500Y-108769819D02*
X169330357Y-108817438D01*
X169330357Y-108817438D02*
X169425595Y-108912676D01*
X169425595Y-108912676D02*
X169473214Y-109007914D01*
X169473214Y-109007914D02*
X169520833Y-109198390D01*
X169520833Y-109198390D02*
X169520833Y-109341247D01*
X169520833Y-109341247D02*
X169473214Y-109531723D01*
X169473214Y-109531723D02*
X169425595Y-109626961D01*
X169425595Y-109626961D02*
X169330357Y-109722200D01*
X169330357Y-109722200D02*
X169187500Y-109769819D01*
X169187500Y-109769819D02*
X168949405Y-109769819D01*
X170425595Y-108769819D02*
X169949405Y-108769819D01*
X169949405Y-108769819D02*
X169901786Y-109246009D01*
X169901786Y-109246009D02*
X169949405Y-109198390D01*
X169949405Y-109198390D02*
X170044643Y-109150771D01*
X170044643Y-109150771D02*
X170282738Y-109150771D01*
X170282738Y-109150771D02*
X170377976Y-109198390D01*
X170377976Y-109198390D02*
X170425595Y-109246009D01*
X170425595Y-109246009D02*
X170473214Y-109341247D01*
X170473214Y-109341247D02*
X170473214Y-109579342D01*
X170473214Y-109579342D02*
X170425595Y-109674580D01*
X170425595Y-109674580D02*
X170377976Y-109722200D01*
X170377976Y-109722200D02*
X170282738Y-109769819D01*
X170282738Y-109769819D02*
X170044643Y-109769819D01*
X170044643Y-109769819D02*
X169949405Y-109722200D01*
X169949405Y-109722200D02*
X169901786Y-109674580D01*
X142415180Y-129421905D02*
X141605657Y-129421905D01*
X141605657Y-129421905D02*
X141510419Y-129469524D01*
X141510419Y-129469524D02*
X141462800Y-129517143D01*
X141462800Y-129517143D02*
X141415180Y-129612381D01*
X141415180Y-129612381D02*
X141415180Y-129802857D01*
X141415180Y-129802857D02*
X141462800Y-129898095D01*
X141462800Y-129898095D02*
X141510419Y-129945714D01*
X141510419Y-129945714D02*
X141605657Y-129993333D01*
X141605657Y-129993333D02*
X142415180Y-129993333D01*
X141415180Y-130993333D02*
X141415180Y-130421905D01*
X141415180Y-130707619D02*
X142415180Y-130707619D01*
X142415180Y-130707619D02*
X142272323Y-130612381D01*
X142272323Y-130612381D02*
X142177085Y-130517143D01*
X142177085Y-130517143D02*
X142129466Y-130421905D01*
X142415180Y-131612381D02*
X142415180Y-131707619D01*
X142415180Y-131707619D02*
X142367561Y-131802857D01*
X142367561Y-131802857D02*
X142319942Y-131850476D01*
X142319942Y-131850476D02*
X142224704Y-131898095D01*
X142224704Y-131898095D02*
X142034228Y-131945714D01*
X142034228Y-131945714D02*
X141796133Y-131945714D01*
X141796133Y-131945714D02*
X141605657Y-131898095D01*
X141605657Y-131898095D02*
X141510419Y-131850476D01*
X141510419Y-131850476D02*
X141462800Y-131802857D01*
X141462800Y-131802857D02*
X141415180Y-131707619D01*
X141415180Y-131707619D02*
X141415180Y-131612381D01*
X141415180Y-131612381D02*
X141462800Y-131517143D01*
X141462800Y-131517143D02*
X141510419Y-131469524D01*
X141510419Y-131469524D02*
X141605657Y-131421905D01*
X141605657Y-131421905D02*
X141796133Y-131374286D01*
X141796133Y-131374286D02*
X142034228Y-131374286D01*
X142034228Y-131374286D02*
X142224704Y-131421905D01*
X142224704Y-131421905D02*
X142319942Y-131469524D01*
X142319942Y-131469524D02*
X142367561Y-131517143D01*
X142367561Y-131517143D02*
X142415180Y-131612381D01*
X141145180Y-117579000D02*
X140907085Y-117579000D01*
X141002323Y-117340905D02*
X140907085Y-117579000D01*
X140907085Y-117579000D02*
X141002323Y-117817095D01*
X140716609Y-117436143D02*
X140907085Y-117579000D01*
X140907085Y-117579000D02*
X140716609Y-117721857D01*
X140054819Y-117578999D02*
X140292914Y-117578999D01*
X140197676Y-117817094D02*
X140292914Y-117578999D01*
X140292914Y-117578999D02*
X140197676Y-117340904D01*
X140483390Y-117721856D02*
X140292914Y-117578999D01*
X140292914Y-117578999D02*
X140483390Y-117436142D01*
X99238095Y-47306819D02*
X99809523Y-47306819D01*
X99523809Y-48306819D02*
X99523809Y-47306819D01*
X100142857Y-48306819D02*
X100142857Y-47306819D01*
X100142857Y-47306819D02*
X100523809Y-47306819D01*
X100523809Y-47306819D02*
X100619047Y-47354438D01*
X100619047Y-47354438D02*
X100666666Y-47402057D01*
X100666666Y-47402057D02*
X100714285Y-47497295D01*
X100714285Y-47497295D02*
X100714285Y-47640152D01*
X100714285Y-47640152D02*
X100666666Y-47735390D01*
X100666666Y-47735390D02*
X100619047Y-47783009D01*
X100619047Y-47783009D02*
X100523809Y-47830628D01*
X100523809Y-47830628D02*
X100142857Y-47830628D01*
X101571428Y-47640152D02*
X101571428Y-48306819D01*
X101333333Y-47259200D02*
X101095238Y-47973485D01*
X101095238Y-47973485D02*
X101714285Y-47973485D01*
X115004819Y-73133333D02*
X115719104Y-73133333D01*
X115719104Y-73133333D02*
X115861961Y-73180952D01*
X115861961Y-73180952D02*
X115957200Y-73276190D01*
X115957200Y-73276190D02*
X116004819Y-73419047D01*
X116004819Y-73419047D02*
X116004819Y-73514285D01*
X115433390Y-72514285D02*
X115385771Y-72609523D01*
X115385771Y-72609523D02*
X115338152Y-72657142D01*
X115338152Y-72657142D02*
X115242914Y-72704761D01*
X115242914Y-72704761D02*
X115195295Y-72704761D01*
X115195295Y-72704761D02*
X115100057Y-72657142D01*
X115100057Y-72657142D02*
X115052438Y-72609523D01*
X115052438Y-72609523D02*
X115004819Y-72514285D01*
X115004819Y-72514285D02*
X115004819Y-72323809D01*
X115004819Y-72323809D02*
X115052438Y-72228571D01*
X115052438Y-72228571D02*
X115100057Y-72180952D01*
X115100057Y-72180952D02*
X115195295Y-72133333D01*
X115195295Y-72133333D02*
X115242914Y-72133333D01*
X115242914Y-72133333D02*
X115338152Y-72180952D01*
X115338152Y-72180952D02*
X115385771Y-72228571D01*
X115385771Y-72228571D02*
X115433390Y-72323809D01*
X115433390Y-72323809D02*
X115433390Y-72514285D01*
X115433390Y-72514285D02*
X115481009Y-72609523D01*
X115481009Y-72609523D02*
X115528628Y-72657142D01*
X115528628Y-72657142D02*
X115623866Y-72704761D01*
X115623866Y-72704761D02*
X115814342Y-72704761D01*
X115814342Y-72704761D02*
X115909580Y-72657142D01*
X115909580Y-72657142D02*
X115957200Y-72609523D01*
X115957200Y-72609523D02*
X116004819Y-72514285D01*
X116004819Y-72514285D02*
X116004819Y-72323809D01*
X116004819Y-72323809D02*
X115957200Y-72228571D01*
X115957200Y-72228571D02*
X115909580Y-72180952D01*
X115909580Y-72180952D02*
X115814342Y-72133333D01*
X115814342Y-72133333D02*
X115623866Y-72133333D01*
X115623866Y-72133333D02*
X115528628Y-72180952D01*
X115528628Y-72180952D02*
X115481009Y-72228571D01*
X115481009Y-72228571D02*
X115433390Y-72323809D01*
X146044819Y-85833333D02*
X146759104Y-85833333D01*
X146759104Y-85833333D02*
X146901961Y-85880952D01*
X146901961Y-85880952D02*
X146997200Y-85976190D01*
X146997200Y-85976190D02*
X147044819Y-86119047D01*
X147044819Y-86119047D02*
X147044819Y-86214285D01*
X146378152Y-84928571D02*
X147044819Y-84928571D01*
X145997200Y-85166666D02*
X146711485Y-85404761D01*
X146711485Y-85404761D02*
X146711485Y-84785714D01*
X182998095Y-77964819D02*
X182998095Y-78774342D01*
X182998095Y-78774342D02*
X183045714Y-78869580D01*
X183045714Y-78869580D02*
X183093333Y-78917200D01*
X183093333Y-78917200D02*
X183188571Y-78964819D01*
X183188571Y-78964819D02*
X183379047Y-78964819D01*
X183379047Y-78964819D02*
X183474285Y-78917200D01*
X183474285Y-78917200D02*
X183521904Y-78869580D01*
X183521904Y-78869580D02*
X183569523Y-78774342D01*
X183569523Y-78774342D02*
X183569523Y-77964819D01*
X184569523Y-78964819D02*
X183998095Y-78964819D01*
X184283809Y-78964819D02*
X184283809Y-77964819D01*
X184283809Y-77964819D02*
X184188571Y-78107676D01*
X184188571Y-78107676D02*
X184093333Y-78202914D01*
X184093333Y-78202914D02*
X183998095Y-78250533D01*
X188411905Y-119779819D02*
X188411905Y-120589342D01*
X188411905Y-120589342D02*
X188459524Y-120684580D01*
X188459524Y-120684580D02*
X188507143Y-120732200D01*
X188507143Y-120732200D02*
X188602381Y-120779819D01*
X188602381Y-120779819D02*
X188792857Y-120779819D01*
X188792857Y-120779819D02*
X188888095Y-120732200D01*
X188888095Y-120732200D02*
X188935714Y-120684580D01*
X188935714Y-120684580D02*
X188983333Y-120589342D01*
X188983333Y-120589342D02*
X188983333Y-119779819D01*
X189983333Y-120779819D02*
X189411905Y-120779819D01*
X189697619Y-120779819D02*
X189697619Y-119779819D01*
X189697619Y-119779819D02*
X189602381Y-119922676D01*
X189602381Y-119922676D02*
X189507143Y-120017914D01*
X189507143Y-120017914D02*
X189411905Y-120065533D01*
X190316667Y-119779819D02*
X190935714Y-119779819D01*
X190935714Y-119779819D02*
X190602381Y-120160771D01*
X190602381Y-120160771D02*
X190745238Y-120160771D01*
X190745238Y-120160771D02*
X190840476Y-120208390D01*
X190840476Y-120208390D02*
X190888095Y-120256009D01*
X190888095Y-120256009D02*
X190935714Y-120351247D01*
X190935714Y-120351247D02*
X190935714Y-120589342D01*
X190935714Y-120589342D02*
X190888095Y-120684580D01*
X190888095Y-120684580D02*
X190840476Y-120732200D01*
X190840476Y-120732200D02*
X190745238Y-120779819D01*
X190745238Y-120779819D02*
X190459524Y-120779819D01*
X190459524Y-120779819D02*
X190364286Y-120732200D01*
X190364286Y-120732200D02*
X190316667Y-120684580D01*
X161204819Y-112466666D02*
X160728628Y-112799999D01*
X161204819Y-113038094D02*
X160204819Y-113038094D01*
X160204819Y-113038094D02*
X160204819Y-112657142D01*
X160204819Y-112657142D02*
X160252438Y-112561904D01*
X160252438Y-112561904D02*
X160300057Y-112514285D01*
X160300057Y-112514285D02*
X160395295Y-112466666D01*
X160395295Y-112466666D02*
X160538152Y-112466666D01*
X160538152Y-112466666D02*
X160633390Y-112514285D01*
X160633390Y-112514285D02*
X160681009Y-112561904D01*
X160681009Y-112561904D02*
X160728628Y-112657142D01*
X160728628Y-112657142D02*
X160728628Y-113038094D01*
X161204819Y-111514285D02*
X161204819Y-112085713D01*
X161204819Y-111799999D02*
X160204819Y-111799999D01*
X160204819Y-111799999D02*
X160347676Y-111895237D01*
X160347676Y-111895237D02*
X160442914Y-111990475D01*
X160442914Y-111990475D02*
X160490533Y-112085713D01*
X173653334Y-139799579D02*
X173605715Y-139847199D01*
X173605715Y-139847199D02*
X173462858Y-139894818D01*
X173462858Y-139894818D02*
X173367620Y-139894818D01*
X173367620Y-139894818D02*
X173224763Y-139847199D01*
X173224763Y-139847199D02*
X173129525Y-139751960D01*
X173129525Y-139751960D02*
X173081906Y-139656722D01*
X173081906Y-139656722D02*
X173034287Y-139466246D01*
X173034287Y-139466246D02*
X173034287Y-139323389D01*
X173034287Y-139323389D02*
X173081906Y-139132913D01*
X173081906Y-139132913D02*
X173129525Y-139037675D01*
X173129525Y-139037675D02*
X173224763Y-138942437D01*
X173224763Y-138942437D02*
X173367620Y-138894818D01*
X173367620Y-138894818D02*
X173462858Y-138894818D01*
X173462858Y-138894818D02*
X173605715Y-138942437D01*
X173605715Y-138942437D02*
X173653334Y-138990056D01*
X173986668Y-138894818D02*
X174653334Y-138894818D01*
X174653334Y-138894818D02*
X174224763Y-139894818D01*
X67151904Y-129795180D02*
X67151904Y-128985657D01*
X67151904Y-128985657D02*
X67104285Y-128890419D01*
X67104285Y-128890419D02*
X67056666Y-128842800D01*
X67056666Y-128842800D02*
X66961428Y-128795180D01*
X66961428Y-128795180D02*
X66770952Y-128795180D01*
X66770952Y-128795180D02*
X66675714Y-128842800D01*
X66675714Y-128842800D02*
X66628095Y-128890419D01*
X66628095Y-128890419D02*
X66580476Y-128985657D01*
X66580476Y-128985657D02*
X66580476Y-129795180D01*
X66056666Y-128795180D02*
X65866190Y-128795180D01*
X65866190Y-128795180D02*
X65770952Y-128842800D01*
X65770952Y-128842800D02*
X65723333Y-128890419D01*
X65723333Y-128890419D02*
X65628095Y-129033276D01*
X65628095Y-129033276D02*
X65580476Y-129223752D01*
X65580476Y-129223752D02*
X65580476Y-129604704D01*
X65580476Y-129604704D02*
X65628095Y-129699942D01*
X65628095Y-129699942D02*
X65675714Y-129747561D01*
X65675714Y-129747561D02*
X65770952Y-129795180D01*
X65770952Y-129795180D02*
X65961428Y-129795180D01*
X65961428Y-129795180D02*
X66056666Y-129747561D01*
X66056666Y-129747561D02*
X66104285Y-129699942D01*
X66104285Y-129699942D02*
X66151904Y-129604704D01*
X66151904Y-129604704D02*
X66151904Y-129366609D01*
X66151904Y-129366609D02*
X66104285Y-129271371D01*
X66104285Y-129271371D02*
X66056666Y-129223752D01*
X66056666Y-129223752D02*
X65961428Y-129176133D01*
X65961428Y-129176133D02*
X65770952Y-129176133D01*
X65770952Y-129176133D02*
X65675714Y-129223752D01*
X65675714Y-129223752D02*
X65628095Y-129271371D01*
X65628095Y-129271371D02*
X65580476Y-129366609D01*
X79471000Y-127434819D02*
X79471000Y-127672914D01*
X79232905Y-127577676D02*
X79471000Y-127672914D01*
X79471000Y-127672914D02*
X79709095Y-127577676D01*
X79328143Y-127863390D02*
X79471000Y-127672914D01*
X79471000Y-127672914D02*
X79613857Y-127863390D01*
X79470999Y-128525180D02*
X79470999Y-128287085D01*
X79709094Y-128382323D02*
X79470999Y-128287085D01*
X79470999Y-128287085D02*
X79232904Y-128382323D01*
X79613856Y-128096609D02*
X79470999Y-128287085D01*
X79470999Y-128287085D02*
X79328142Y-128096609D01*
X127004819Y-110966666D02*
X126528628Y-111299999D01*
X127004819Y-111538094D02*
X126004819Y-111538094D01*
X126004819Y-111538094D02*
X126004819Y-111157142D01*
X126004819Y-111157142D02*
X126052438Y-111061904D01*
X126052438Y-111061904D02*
X126100057Y-111014285D01*
X126100057Y-111014285D02*
X126195295Y-110966666D01*
X126195295Y-110966666D02*
X126338152Y-110966666D01*
X126338152Y-110966666D02*
X126433390Y-111014285D01*
X126433390Y-111014285D02*
X126481009Y-111061904D01*
X126481009Y-111061904D02*
X126528628Y-111157142D01*
X126528628Y-111157142D02*
X126528628Y-111538094D01*
X126004819Y-110109523D02*
X126004819Y-110299999D01*
X126004819Y-110299999D02*
X126052438Y-110395237D01*
X126052438Y-110395237D02*
X126100057Y-110442856D01*
X126100057Y-110442856D02*
X126242914Y-110538094D01*
X126242914Y-110538094D02*
X126433390Y-110585713D01*
X126433390Y-110585713D02*
X126814342Y-110585713D01*
X126814342Y-110585713D02*
X126909580Y-110538094D01*
X126909580Y-110538094D02*
X126957200Y-110490475D01*
X126957200Y-110490475D02*
X127004819Y-110395237D01*
X127004819Y-110395237D02*
X127004819Y-110204761D01*
X127004819Y-110204761D02*
X126957200Y-110109523D01*
X126957200Y-110109523D02*
X126909580Y-110061904D01*
X126909580Y-110061904D02*
X126814342Y-110014285D01*
X126814342Y-110014285D02*
X126576247Y-110014285D01*
X126576247Y-110014285D02*
X126481009Y-110061904D01*
X126481009Y-110061904D02*
X126433390Y-110109523D01*
X126433390Y-110109523D02*
X126385771Y-110204761D01*
X126385771Y-110204761D02*
X126385771Y-110395237D01*
X126385771Y-110395237D02*
X126433390Y-110490475D01*
X126433390Y-110490475D02*
X126481009Y-110538094D01*
X126481009Y-110538094D02*
X126576247Y-110585713D01*
X124215180Y-129698095D02*
X123405657Y-129698095D01*
X123405657Y-129698095D02*
X123310419Y-129745714D01*
X123310419Y-129745714D02*
X123262800Y-129793333D01*
X123262800Y-129793333D02*
X123215180Y-129888571D01*
X123215180Y-129888571D02*
X123215180Y-130079047D01*
X123215180Y-130079047D02*
X123262800Y-130174285D01*
X123262800Y-130174285D02*
X123310419Y-130221904D01*
X123310419Y-130221904D02*
X123405657Y-130269523D01*
X123405657Y-130269523D02*
X124215180Y-130269523D01*
X124215180Y-131174285D02*
X124215180Y-130983809D01*
X124215180Y-130983809D02*
X124167561Y-130888571D01*
X124167561Y-130888571D02*
X124119942Y-130840952D01*
X124119942Y-130840952D02*
X123977085Y-130745714D01*
X123977085Y-130745714D02*
X123786609Y-130698095D01*
X123786609Y-130698095D02*
X123405657Y-130698095D01*
X123405657Y-130698095D02*
X123310419Y-130745714D01*
X123310419Y-130745714D02*
X123262800Y-130793333D01*
X123262800Y-130793333D02*
X123215180Y-130888571D01*
X123215180Y-130888571D02*
X123215180Y-131079047D01*
X123215180Y-131079047D02*
X123262800Y-131174285D01*
X123262800Y-131174285D02*
X123310419Y-131221904D01*
X123310419Y-131221904D02*
X123405657Y-131269523D01*
X123405657Y-131269523D02*
X123643752Y-131269523D01*
X123643752Y-131269523D02*
X123738990Y-131221904D01*
X123738990Y-131221904D02*
X123786609Y-131174285D01*
X123786609Y-131174285D02*
X123834228Y-131079047D01*
X123834228Y-131079047D02*
X123834228Y-130888571D01*
X123834228Y-130888571D02*
X123786609Y-130793333D01*
X123786609Y-130793333D02*
X123738990Y-130745714D01*
X123738990Y-130745714D02*
X123643752Y-130698095D01*
X122945180Y-117379000D02*
X122707085Y-117379000D01*
X122802323Y-117140905D02*
X122707085Y-117379000D01*
X122707085Y-117379000D02*
X122802323Y-117617095D01*
X122516609Y-117236143D02*
X122707085Y-117379000D01*
X122707085Y-117379000D02*
X122516609Y-117521857D01*
X121854819Y-117378999D02*
X122092914Y-117378999D01*
X121997676Y-117617094D02*
X122092914Y-117378999D01*
X122092914Y-117378999D02*
X121997676Y-117140904D01*
X122283390Y-117521856D02*
X122092914Y-117378999D01*
X122092914Y-117378999D02*
X122283390Y-117236142D01*
X127404819Y-79009523D02*
X128119104Y-79009523D01*
X128119104Y-79009523D02*
X128261961Y-79057142D01*
X128261961Y-79057142D02*
X128357200Y-79152380D01*
X128357200Y-79152380D02*
X128404819Y-79295237D01*
X128404819Y-79295237D02*
X128404819Y-79390475D01*
X128404819Y-78009523D02*
X128404819Y-78580951D01*
X128404819Y-78295237D02*
X127404819Y-78295237D01*
X127404819Y-78295237D02*
X127547676Y-78390475D01*
X127547676Y-78390475D02*
X127642914Y-78485713D01*
X127642914Y-78485713D02*
X127690533Y-78580951D01*
X127833390Y-77438094D02*
X127785771Y-77533332D01*
X127785771Y-77533332D02*
X127738152Y-77580951D01*
X127738152Y-77580951D02*
X127642914Y-77628570D01*
X127642914Y-77628570D02*
X127595295Y-77628570D01*
X127595295Y-77628570D02*
X127500057Y-77580951D01*
X127500057Y-77580951D02*
X127452438Y-77533332D01*
X127452438Y-77533332D02*
X127404819Y-77438094D01*
X127404819Y-77438094D02*
X127404819Y-77247618D01*
X127404819Y-77247618D02*
X127452438Y-77152380D01*
X127452438Y-77152380D02*
X127500057Y-77104761D01*
X127500057Y-77104761D02*
X127595295Y-77057142D01*
X127595295Y-77057142D02*
X127642914Y-77057142D01*
X127642914Y-77057142D02*
X127738152Y-77104761D01*
X127738152Y-77104761D02*
X127785771Y-77152380D01*
X127785771Y-77152380D02*
X127833390Y-77247618D01*
X127833390Y-77247618D02*
X127833390Y-77438094D01*
X127833390Y-77438094D02*
X127881009Y-77533332D01*
X127881009Y-77533332D02*
X127928628Y-77580951D01*
X127928628Y-77580951D02*
X128023866Y-77628570D01*
X128023866Y-77628570D02*
X128214342Y-77628570D01*
X128214342Y-77628570D02*
X128309580Y-77580951D01*
X128309580Y-77580951D02*
X128357200Y-77533332D01*
X128357200Y-77533332D02*
X128404819Y-77438094D01*
X128404819Y-77438094D02*
X128404819Y-77247618D01*
X128404819Y-77247618D02*
X128357200Y-77152380D01*
X128357200Y-77152380D02*
X128309580Y-77104761D01*
X128309580Y-77104761D02*
X128214342Y-77057142D01*
X128214342Y-77057142D02*
X128023866Y-77057142D01*
X128023866Y-77057142D02*
X127928628Y-77104761D01*
X127928628Y-77104761D02*
X127881009Y-77152380D01*
X127881009Y-77152380D02*
X127833390Y-77247618D01*
X99238095Y-61306819D02*
X99809523Y-61306819D01*
X99523809Y-62306819D02*
X99523809Y-61306819D01*
X100142857Y-62306819D02*
X100142857Y-61306819D01*
X100142857Y-61306819D02*
X100523809Y-61306819D01*
X100523809Y-61306819D02*
X100619047Y-61354438D01*
X100619047Y-61354438D02*
X100666666Y-61402057D01*
X100666666Y-61402057D02*
X100714285Y-61497295D01*
X100714285Y-61497295D02*
X100714285Y-61640152D01*
X100714285Y-61640152D02*
X100666666Y-61735390D01*
X100666666Y-61735390D02*
X100619047Y-61783009D01*
X100619047Y-61783009D02*
X100523809Y-61830628D01*
X100523809Y-61830628D02*
X100142857Y-61830628D01*
X101047619Y-61306819D02*
X101666666Y-61306819D01*
X101666666Y-61306819D02*
X101333333Y-61687771D01*
X101333333Y-61687771D02*
X101476190Y-61687771D01*
X101476190Y-61687771D02*
X101571428Y-61735390D01*
X101571428Y-61735390D02*
X101619047Y-61783009D01*
X101619047Y-61783009D02*
X101666666Y-61878247D01*
X101666666Y-61878247D02*
X101666666Y-62116342D01*
X101666666Y-62116342D02*
X101619047Y-62211580D01*
X101619047Y-62211580D02*
X101571428Y-62259200D01*
X101571428Y-62259200D02*
X101476190Y-62306819D01*
X101476190Y-62306819D02*
X101190476Y-62306819D01*
X101190476Y-62306819D02*
X101095238Y-62259200D01*
X101095238Y-62259200D02*
X101047619Y-62211580D01*
X192083724Y-136061174D02*
X192799466Y-136061174D01*
X192799466Y-136061174D02*
X192942614Y-136108890D01*
X192942614Y-136108890D02*
X193038047Y-136204322D01*
X193038047Y-136204322D02*
X193085763Y-136347471D01*
X193085763Y-136347471D02*
X193085763Y-136442903D01*
X193085763Y-135059135D02*
X193085763Y-135631729D01*
X193085763Y-135345432D02*
X192083724Y-135345432D01*
X192083724Y-135345432D02*
X192226872Y-135440864D01*
X192226872Y-135440864D02*
X192322304Y-135536297D01*
X192322304Y-135536297D02*
X192370021Y-135631729D01*
X192083724Y-134438825D02*
X192083724Y-134343393D01*
X192083724Y-134343393D02*
X192131440Y-134247961D01*
X192131440Y-134247961D02*
X192179156Y-134200245D01*
X192179156Y-134200245D02*
X192274588Y-134152528D01*
X192274588Y-134152528D02*
X192465453Y-134104812D01*
X192465453Y-134104812D02*
X192704034Y-134104812D01*
X192704034Y-134104812D02*
X192894898Y-134152528D01*
X192894898Y-134152528D02*
X192990330Y-134200245D01*
X192990330Y-134200245D02*
X193038047Y-134247961D01*
X193038047Y-134247961D02*
X193085763Y-134343393D01*
X193085763Y-134343393D02*
X193085763Y-134438825D01*
X193085763Y-134438825D02*
X193038047Y-134534258D01*
X193038047Y-134534258D02*
X192990330Y-134581974D01*
X192990330Y-134581974D02*
X192894898Y-134629690D01*
X192894898Y-134629690D02*
X192704034Y-134677406D01*
X192704034Y-134677406D02*
X192465453Y-134677406D01*
X192465453Y-134677406D02*
X192274588Y-134629690D01*
X192274588Y-134629690D02*
X192179156Y-134581974D01*
X192179156Y-134581974D02*
X192131440Y-134534258D01*
X192131440Y-134534258D02*
X192083724Y-134438825D01*
X174788095Y-117336819D02*
X175359523Y-117336819D01*
X175073809Y-118336819D02*
X175073809Y-117336819D01*
X175692857Y-118336819D02*
X175692857Y-117336819D01*
X175692857Y-117336819D02*
X176073809Y-117336819D01*
X176073809Y-117336819D02*
X176169047Y-117384438D01*
X176169047Y-117384438D02*
X176216666Y-117432057D01*
X176216666Y-117432057D02*
X176264285Y-117527295D01*
X176264285Y-117527295D02*
X176264285Y-117670152D01*
X176264285Y-117670152D02*
X176216666Y-117765390D01*
X176216666Y-117765390D02*
X176169047Y-117813009D01*
X176169047Y-117813009D02*
X176073809Y-117860628D01*
X176073809Y-117860628D02*
X175692857Y-117860628D01*
X177169047Y-117336819D02*
X176692857Y-117336819D01*
X176692857Y-117336819D02*
X176645238Y-117813009D01*
X176645238Y-117813009D02*
X176692857Y-117765390D01*
X176692857Y-117765390D02*
X176788095Y-117717771D01*
X176788095Y-117717771D02*
X177026190Y-117717771D01*
X177026190Y-117717771D02*
X177121428Y-117765390D01*
X177121428Y-117765390D02*
X177169047Y-117813009D01*
X177169047Y-117813009D02*
X177216666Y-117908247D01*
X177216666Y-117908247D02*
X177216666Y-118146342D01*
X177216666Y-118146342D02*
X177169047Y-118241580D01*
X177169047Y-118241580D02*
X177121428Y-118289200D01*
X177121428Y-118289200D02*
X177026190Y-118336819D01*
X177026190Y-118336819D02*
X176788095Y-118336819D01*
X176788095Y-118336819D02*
X176692857Y-118289200D01*
X176692857Y-118289200D02*
X176645238Y-118241580D01*
X92436666Y-46559819D02*
X92436666Y-47274104D01*
X92436666Y-47274104D02*
X92389047Y-47416961D01*
X92389047Y-47416961D02*
X92293809Y-47512200D01*
X92293809Y-47512200D02*
X92150952Y-47559819D01*
X92150952Y-47559819D02*
X92055714Y-47559819D01*
X93341428Y-46559819D02*
X93150952Y-46559819D01*
X93150952Y-46559819D02*
X93055714Y-46607438D01*
X93055714Y-46607438D02*
X93008095Y-46655057D01*
X93008095Y-46655057D02*
X92912857Y-46797914D01*
X92912857Y-46797914D02*
X92865238Y-46988390D01*
X92865238Y-46988390D02*
X92865238Y-47369342D01*
X92865238Y-47369342D02*
X92912857Y-47464580D01*
X92912857Y-47464580D02*
X92960476Y-47512200D01*
X92960476Y-47512200D02*
X93055714Y-47559819D01*
X93055714Y-47559819D02*
X93246190Y-47559819D01*
X93246190Y-47559819D02*
X93341428Y-47512200D01*
X93341428Y-47512200D02*
X93389047Y-47464580D01*
X93389047Y-47464580D02*
X93436666Y-47369342D01*
X93436666Y-47369342D02*
X93436666Y-47131247D01*
X93436666Y-47131247D02*
X93389047Y-47036009D01*
X93389047Y-47036009D02*
X93341428Y-46988390D01*
X93341428Y-46988390D02*
X93246190Y-46940771D01*
X93246190Y-46940771D02*
X93055714Y-46940771D01*
X93055714Y-46940771D02*
X92960476Y-46988390D01*
X92960476Y-46988390D02*
X92912857Y-47036009D01*
X92912857Y-47036009D02*
X92865238Y-47131247D01*
X114508095Y-100306819D02*
X115079523Y-100306819D01*
X114793809Y-101306819D02*
X114793809Y-100306819D01*
X115412857Y-101306819D02*
X115412857Y-100306819D01*
X115412857Y-100306819D02*
X115793809Y-100306819D01*
X115793809Y-100306819D02*
X115889047Y-100354438D01*
X115889047Y-100354438D02*
X115936666Y-100402057D01*
X115936666Y-100402057D02*
X115984285Y-100497295D01*
X115984285Y-100497295D02*
X115984285Y-100640152D01*
X115984285Y-100640152D02*
X115936666Y-100735390D01*
X115936666Y-100735390D02*
X115889047Y-100783009D01*
X115889047Y-100783009D02*
X115793809Y-100830628D01*
X115793809Y-100830628D02*
X115412857Y-100830628D01*
X116365238Y-100402057D02*
X116412857Y-100354438D01*
X116412857Y-100354438D02*
X116508095Y-100306819D01*
X116508095Y-100306819D02*
X116746190Y-100306819D01*
X116746190Y-100306819D02*
X116841428Y-100354438D01*
X116841428Y-100354438D02*
X116889047Y-100402057D01*
X116889047Y-100402057D02*
X116936666Y-100497295D01*
X116936666Y-100497295D02*
X116936666Y-100592533D01*
X116936666Y-100592533D02*
X116889047Y-100735390D01*
X116889047Y-100735390D02*
X116317619Y-101306819D01*
X116317619Y-101306819D02*
X116936666Y-101306819D01*
X67938094Y-109715180D02*
X67938094Y-108905657D01*
X67938094Y-108905657D02*
X67890475Y-108810419D01*
X67890475Y-108810419D02*
X67842856Y-108762800D01*
X67842856Y-108762800D02*
X67747618Y-108715180D01*
X67747618Y-108715180D02*
X67557142Y-108715180D01*
X67557142Y-108715180D02*
X67461904Y-108762800D01*
X67461904Y-108762800D02*
X67414285Y-108810419D01*
X67414285Y-108810419D02*
X67366666Y-108905657D01*
X67366666Y-108905657D02*
X67366666Y-109715180D01*
X66366666Y-108715180D02*
X66938094Y-108715180D01*
X66652380Y-108715180D02*
X66652380Y-109715180D01*
X66652380Y-109715180D02*
X66747618Y-109572323D01*
X66747618Y-109572323D02*
X66842856Y-109477085D01*
X66842856Y-109477085D02*
X66938094Y-109429466D01*
X65414285Y-108715180D02*
X65985713Y-108715180D01*
X65699999Y-108715180D02*
X65699999Y-109715180D01*
X65699999Y-109715180D02*
X65795237Y-109572323D01*
X65795237Y-109572323D02*
X65890475Y-109477085D01*
X65890475Y-109477085D02*
X65985713Y-109429466D01*
X79781000Y-107354819D02*
X79781000Y-107592914D01*
X79542905Y-107497676D02*
X79781000Y-107592914D01*
X79781000Y-107592914D02*
X80019095Y-107497676D01*
X79638143Y-107783390D02*
X79781000Y-107592914D01*
X79781000Y-107592914D02*
X79923857Y-107783390D01*
X79780999Y-108445180D02*
X79780999Y-108207085D01*
X80019094Y-108302323D02*
X79780999Y-108207085D01*
X79780999Y-108207085D02*
X79542904Y-108302323D01*
X79923856Y-108016609D02*
X79780999Y-108207085D01*
X79780999Y-108207085D02*
X79638142Y-108016609D01*
X114391667Y-105007200D02*
X114534524Y-105054819D01*
X114534524Y-105054819D02*
X114772619Y-105054819D01*
X114772619Y-105054819D02*
X114867857Y-105007200D01*
X114867857Y-105007200D02*
X114915476Y-104959580D01*
X114915476Y-104959580D02*
X114963095Y-104864342D01*
X114963095Y-104864342D02*
X114963095Y-104769104D01*
X114963095Y-104769104D02*
X114915476Y-104673866D01*
X114915476Y-104673866D02*
X114867857Y-104626247D01*
X114867857Y-104626247D02*
X114772619Y-104578628D01*
X114772619Y-104578628D02*
X114582143Y-104531009D01*
X114582143Y-104531009D02*
X114486905Y-104483390D01*
X114486905Y-104483390D02*
X114439286Y-104435771D01*
X114439286Y-104435771D02*
X114391667Y-104340533D01*
X114391667Y-104340533D02*
X114391667Y-104245295D01*
X114391667Y-104245295D02*
X114439286Y-104150057D01*
X114439286Y-104150057D02*
X114486905Y-104102438D01*
X114486905Y-104102438D02*
X114582143Y-104054819D01*
X114582143Y-104054819D02*
X114820238Y-104054819D01*
X114820238Y-104054819D02*
X114963095Y-104102438D01*
X115296429Y-104054819D02*
X115534524Y-105054819D01*
X115534524Y-105054819D02*
X115725000Y-104340533D01*
X115725000Y-104340533D02*
X115915476Y-105054819D01*
X115915476Y-105054819D02*
X116153572Y-104054819D01*
X116486905Y-104150057D02*
X116534524Y-104102438D01*
X116534524Y-104102438D02*
X116629762Y-104054819D01*
X116629762Y-104054819D02*
X116867857Y-104054819D01*
X116867857Y-104054819D02*
X116963095Y-104102438D01*
X116963095Y-104102438D02*
X117010714Y-104150057D01*
X117010714Y-104150057D02*
X117058333Y-104245295D01*
X117058333Y-104245295D02*
X117058333Y-104340533D01*
X117058333Y-104340533D02*
X117010714Y-104483390D01*
X117010714Y-104483390D02*
X116439286Y-105054819D01*
X116439286Y-105054819D02*
X117058333Y-105054819D01*
X94611570Y-132738779D02*
X94611570Y-133454521D01*
X94611570Y-133454521D02*
X94563854Y-133597669D01*
X94563854Y-133597669D02*
X94468422Y-133693102D01*
X94468422Y-133693102D02*
X94325273Y-133740818D01*
X94325273Y-133740818D02*
X94229841Y-133740818D01*
X95613609Y-133740818D02*
X95041015Y-133740818D01*
X95327312Y-133740818D02*
X95327312Y-132738779D01*
X95327312Y-132738779D02*
X95231880Y-132881927D01*
X95231880Y-132881927D02*
X95136447Y-132977359D01*
X95136447Y-132977359D02*
X95041015Y-133025076D01*
X96472500Y-133072792D02*
X96472500Y-133740818D01*
X96233919Y-132691063D02*
X95995338Y-133406805D01*
X95995338Y-133406805D02*
X96615648Y-133406805D01*
X145904819Y-85466666D02*
X145428628Y-85799999D01*
X145904819Y-86038094D02*
X144904819Y-86038094D01*
X144904819Y-86038094D02*
X144904819Y-85657142D01*
X144904819Y-85657142D02*
X144952438Y-85561904D01*
X144952438Y-85561904D02*
X145000057Y-85514285D01*
X145000057Y-85514285D02*
X145095295Y-85466666D01*
X145095295Y-85466666D02*
X145238152Y-85466666D01*
X145238152Y-85466666D02*
X145333390Y-85514285D01*
X145333390Y-85514285D02*
X145381009Y-85561904D01*
X145381009Y-85561904D02*
X145428628Y-85657142D01*
X145428628Y-85657142D02*
X145428628Y-86038094D01*
X145333390Y-84895237D02*
X145285771Y-84990475D01*
X145285771Y-84990475D02*
X145238152Y-85038094D01*
X145238152Y-85038094D02*
X145142914Y-85085713D01*
X145142914Y-85085713D02*
X145095295Y-85085713D01*
X145095295Y-85085713D02*
X145000057Y-85038094D01*
X145000057Y-85038094D02*
X144952438Y-84990475D01*
X144952438Y-84990475D02*
X144904819Y-84895237D01*
X144904819Y-84895237D02*
X144904819Y-84704761D01*
X144904819Y-84704761D02*
X144952438Y-84609523D01*
X144952438Y-84609523D02*
X145000057Y-84561904D01*
X145000057Y-84561904D02*
X145095295Y-84514285D01*
X145095295Y-84514285D02*
X145142914Y-84514285D01*
X145142914Y-84514285D02*
X145238152Y-84561904D01*
X145238152Y-84561904D02*
X145285771Y-84609523D01*
X145285771Y-84609523D02*
X145333390Y-84704761D01*
X145333390Y-84704761D02*
X145333390Y-84895237D01*
X145333390Y-84895237D02*
X145381009Y-84990475D01*
X145381009Y-84990475D02*
X145428628Y-85038094D01*
X145428628Y-85038094D02*
X145523866Y-85085713D01*
X145523866Y-85085713D02*
X145714342Y-85085713D01*
X145714342Y-85085713D02*
X145809580Y-85038094D01*
X145809580Y-85038094D02*
X145857200Y-84990475D01*
X145857200Y-84990475D02*
X145904819Y-84895237D01*
X145904819Y-84895237D02*
X145904819Y-84704761D01*
X145904819Y-84704761D02*
X145857200Y-84609523D01*
X145857200Y-84609523D02*
X145809580Y-84561904D01*
X145809580Y-84561904D02*
X145714342Y-84514285D01*
X145714342Y-84514285D02*
X145523866Y-84514285D01*
X145523866Y-84514285D02*
X145428628Y-84561904D01*
X145428628Y-84561904D02*
X145381009Y-84609523D01*
X145381009Y-84609523D02*
X145333390Y-84704761D01*
X195033333Y-115904819D02*
X194700000Y-115428628D01*
X194461905Y-115904819D02*
X194461905Y-114904819D01*
X194461905Y-114904819D02*
X194842857Y-114904819D01*
X194842857Y-114904819D02*
X194938095Y-114952438D01*
X194938095Y-114952438D02*
X194985714Y-115000057D01*
X194985714Y-115000057D02*
X195033333Y-115095295D01*
X195033333Y-115095295D02*
X195033333Y-115238152D01*
X195033333Y-115238152D02*
X194985714Y-115333390D01*
X194985714Y-115333390D02*
X194938095Y-115381009D01*
X194938095Y-115381009D02*
X194842857Y-115428628D01*
X194842857Y-115428628D02*
X194461905Y-115428628D01*
X195509524Y-115904819D02*
X195700000Y-115904819D01*
X195700000Y-115904819D02*
X195795238Y-115857200D01*
X195795238Y-115857200D02*
X195842857Y-115809580D01*
X195842857Y-115809580D02*
X195938095Y-115666723D01*
X195938095Y-115666723D02*
X195985714Y-115476247D01*
X195985714Y-115476247D02*
X195985714Y-115095295D01*
X195985714Y-115095295D02*
X195938095Y-115000057D01*
X195938095Y-115000057D02*
X195890476Y-114952438D01*
X195890476Y-114952438D02*
X195795238Y-114904819D01*
X195795238Y-114904819D02*
X195604762Y-114904819D01*
X195604762Y-114904819D02*
X195509524Y-114952438D01*
X195509524Y-114952438D02*
X195461905Y-115000057D01*
X195461905Y-115000057D02*
X195414286Y-115095295D01*
X195414286Y-115095295D02*
X195414286Y-115333390D01*
X195414286Y-115333390D02*
X195461905Y-115428628D01*
X195461905Y-115428628D02*
X195509524Y-115476247D01*
X195509524Y-115476247D02*
X195604762Y-115523866D01*
X195604762Y-115523866D02*
X195795238Y-115523866D01*
X195795238Y-115523866D02*
X195890476Y-115476247D01*
X195890476Y-115476247D02*
X195938095Y-115428628D01*
X195938095Y-115428628D02*
X195985714Y-115333390D01*
X106065180Y-129998095D02*
X105255657Y-129998095D01*
X105255657Y-129998095D02*
X105160419Y-130045714D01*
X105160419Y-130045714D02*
X105112800Y-130093333D01*
X105112800Y-130093333D02*
X105065180Y-130188571D01*
X105065180Y-130188571D02*
X105065180Y-130379047D01*
X105065180Y-130379047D02*
X105112800Y-130474285D01*
X105112800Y-130474285D02*
X105160419Y-130521904D01*
X105160419Y-130521904D02*
X105255657Y-130569523D01*
X105255657Y-130569523D02*
X106065180Y-130569523D01*
X106065180Y-130950476D02*
X106065180Y-131617142D01*
X106065180Y-131617142D02*
X105065180Y-131188571D01*
X103704819Y-117678999D02*
X103942914Y-117678999D01*
X103847676Y-117917094D02*
X103942914Y-117678999D01*
X103942914Y-117678999D02*
X103847676Y-117440904D01*
X104133390Y-117821856D02*
X103942914Y-117678999D01*
X103942914Y-117678999D02*
X104133390Y-117536142D01*
X104795180Y-117679000D02*
X104557085Y-117679000D01*
X104652323Y-117440905D02*
X104557085Y-117679000D01*
X104557085Y-117679000D02*
X104652323Y-117917095D01*
X104366609Y-117536143D02*
X104557085Y-117679000D01*
X104557085Y-117679000D02*
X104366609Y-117821857D01*
X181303334Y-131509579D02*
X181255715Y-131557199D01*
X181255715Y-131557199D02*
X181112858Y-131604818D01*
X181112858Y-131604818D02*
X181017620Y-131604818D01*
X181017620Y-131604818D02*
X180874763Y-131557199D01*
X180874763Y-131557199D02*
X180779525Y-131461960D01*
X180779525Y-131461960D02*
X180731906Y-131366722D01*
X180731906Y-131366722D02*
X180684287Y-131176246D01*
X180684287Y-131176246D02*
X180684287Y-131033389D01*
X180684287Y-131033389D02*
X180731906Y-130842913D01*
X180731906Y-130842913D02*
X180779525Y-130747675D01*
X180779525Y-130747675D02*
X180874763Y-130652437D01*
X180874763Y-130652437D02*
X181017620Y-130604818D01*
X181017620Y-130604818D02*
X181112858Y-130604818D01*
X181112858Y-130604818D02*
X181255715Y-130652437D01*
X181255715Y-130652437D02*
X181303334Y-130700056D01*
X182160477Y-130938151D02*
X182160477Y-131604818D01*
X181922382Y-130557199D02*
X181684287Y-131271484D01*
X181684287Y-131271484D02*
X182303334Y-131271484D01*
X63768669Y-119743919D02*
X64484411Y-119743919D01*
X64484411Y-119743919D02*
X64627559Y-119791635D01*
X64627559Y-119791635D02*
X64722992Y-119887067D01*
X64722992Y-119887067D02*
X64770708Y-120030216D01*
X64770708Y-120030216D02*
X64770708Y-120125648D01*
X64770708Y-118741880D02*
X64770708Y-119314474D01*
X64770708Y-119028177D02*
X63768669Y-119028177D01*
X63768669Y-119028177D02*
X63911817Y-119123609D01*
X63911817Y-119123609D02*
X64007249Y-119219042D01*
X64007249Y-119219042D02*
X64054966Y-119314474D01*
X63768669Y-117882990D02*
X63768669Y-118073854D01*
X63768669Y-118073854D02*
X63816385Y-118169286D01*
X63816385Y-118169286D02*
X63864101Y-118217003D01*
X63864101Y-118217003D02*
X64007249Y-118312435D01*
X64007249Y-118312435D02*
X64198114Y-118360151D01*
X64198114Y-118360151D02*
X64579843Y-118360151D01*
X64579843Y-118360151D02*
X64675275Y-118312435D01*
X64675275Y-118312435D02*
X64722992Y-118264719D01*
X64722992Y-118264719D02*
X64770708Y-118169286D01*
X64770708Y-118169286D02*
X64770708Y-117978422D01*
X64770708Y-117978422D02*
X64722992Y-117882990D01*
X64722992Y-117882990D02*
X64675275Y-117835273D01*
X64675275Y-117835273D02*
X64579843Y-117787557D01*
X64579843Y-117787557D02*
X64341262Y-117787557D01*
X64341262Y-117787557D02*
X64245830Y-117835273D01*
X64245830Y-117835273D02*
X64198114Y-117882990D01*
X64198114Y-117882990D02*
X64150398Y-117978422D01*
X64150398Y-117978422D02*
X64150398Y-118169286D01*
X64150398Y-118169286D02*
X64198114Y-118264719D01*
X64198114Y-118264719D02*
X64245830Y-118312435D01*
X64245830Y-118312435D02*
X64341262Y-118360151D01*
X76671570Y-133188779D02*
X76671570Y-133904521D01*
X76671570Y-133904521D02*
X76623854Y-134047669D01*
X76623854Y-134047669D02*
X76528422Y-134143102D01*
X76528422Y-134143102D02*
X76385273Y-134190818D01*
X76385273Y-134190818D02*
X76289841Y-134190818D01*
X77673609Y-134190818D02*
X77101015Y-134190818D01*
X77387312Y-134190818D02*
X77387312Y-133188779D01*
X77387312Y-133188779D02*
X77291880Y-133331927D01*
X77291880Y-133331927D02*
X77196447Y-133427359D01*
X77196447Y-133427359D02*
X77101015Y-133475076D01*
X78580216Y-133188779D02*
X78103054Y-133188779D01*
X78103054Y-133188779D02*
X78055338Y-133665940D01*
X78055338Y-133665940D02*
X78103054Y-133618224D01*
X78103054Y-133618224D02*
X78198487Y-133570508D01*
X78198487Y-133570508D02*
X78437067Y-133570508D01*
X78437067Y-133570508D02*
X78532500Y-133618224D01*
X78532500Y-133618224D02*
X78580216Y-133665940D01*
X78580216Y-133665940D02*
X78627932Y-133761372D01*
X78627932Y-133761372D02*
X78627932Y-133999953D01*
X78627932Y-133999953D02*
X78580216Y-134095385D01*
X78580216Y-134095385D02*
X78532500Y-134143102D01*
X78532500Y-134143102D02*
X78437067Y-134190818D01*
X78437067Y-134190818D02*
X78198487Y-134190818D01*
X78198487Y-134190818D02*
X78103054Y-134143102D01*
X78103054Y-134143102D02*
X78055338Y-134095385D01*
X190354166Y-139926009D02*
X190020833Y-139926009D01*
X190020833Y-140449819D02*
X190020833Y-139449819D01*
X190020833Y-139449819D02*
X190497023Y-139449819D01*
X191401785Y-140449819D02*
X190830357Y-140449819D01*
X191116071Y-140449819D02*
X191116071Y-139449819D01*
X191116071Y-139449819D02*
X191020833Y-139592676D01*
X191020833Y-139592676D02*
X190925595Y-139687914D01*
X190925595Y-139687914D02*
X190830357Y-139735533D01*
X180038095Y-140704819D02*
X180038095Y-141514342D01*
X180038095Y-141514342D02*
X180085714Y-141609580D01*
X180085714Y-141609580D02*
X180133333Y-141657200D01*
X180133333Y-141657200D02*
X180228571Y-141704819D01*
X180228571Y-141704819D02*
X180419047Y-141704819D01*
X180419047Y-141704819D02*
X180514285Y-141657200D01*
X180514285Y-141657200D02*
X180561904Y-141609580D01*
X180561904Y-141609580D02*
X180609523Y-141514342D01*
X180609523Y-141514342D02*
X180609523Y-140704819D01*
X181514285Y-141038152D02*
X181514285Y-141704819D01*
X181276190Y-140657200D02*
X181038095Y-141371485D01*
X181038095Y-141371485D02*
X181657142Y-141371485D01*
X130871570Y-132188779D02*
X130871570Y-132904521D01*
X130871570Y-132904521D02*
X130823854Y-133047669D01*
X130823854Y-133047669D02*
X130728422Y-133143102D01*
X130728422Y-133143102D02*
X130585273Y-133190818D01*
X130585273Y-133190818D02*
X130489841Y-133190818D01*
X131873609Y-133190818D02*
X131301015Y-133190818D01*
X131587312Y-133190818D02*
X131587312Y-132188779D01*
X131587312Y-132188779D02*
X131491880Y-132331927D01*
X131491880Y-132331927D02*
X131396447Y-132427359D01*
X131396447Y-132427359D02*
X131301015Y-132475076D01*
X132255338Y-132284211D02*
X132303054Y-132236495D01*
X132303054Y-132236495D02*
X132398487Y-132188779D01*
X132398487Y-132188779D02*
X132637067Y-132188779D01*
X132637067Y-132188779D02*
X132732500Y-132236495D01*
X132732500Y-132236495D02*
X132780216Y-132284211D01*
X132780216Y-132284211D02*
X132827932Y-132379643D01*
X132827932Y-132379643D02*
X132827932Y-132475076D01*
X132827932Y-132475076D02*
X132780216Y-132618224D01*
X132780216Y-132618224D02*
X132207622Y-133190818D01*
X132207622Y-133190818D02*
X132827932Y-133190818D01*
X126904819Y-92866666D02*
X126428628Y-93199999D01*
X126904819Y-93438094D02*
X125904819Y-93438094D01*
X125904819Y-93438094D02*
X125904819Y-93057142D01*
X125904819Y-93057142D02*
X125952438Y-92961904D01*
X125952438Y-92961904D02*
X126000057Y-92914285D01*
X126000057Y-92914285D02*
X126095295Y-92866666D01*
X126095295Y-92866666D02*
X126238152Y-92866666D01*
X126238152Y-92866666D02*
X126333390Y-92914285D01*
X126333390Y-92914285D02*
X126381009Y-92961904D01*
X126381009Y-92961904D02*
X126428628Y-93057142D01*
X126428628Y-93057142D02*
X126428628Y-93438094D01*
X125904819Y-92533332D02*
X125904819Y-91914285D01*
X125904819Y-91914285D02*
X126285771Y-92247618D01*
X126285771Y-92247618D02*
X126285771Y-92104761D01*
X126285771Y-92104761D02*
X126333390Y-92009523D01*
X126333390Y-92009523D02*
X126381009Y-91961904D01*
X126381009Y-91961904D02*
X126476247Y-91914285D01*
X126476247Y-91914285D02*
X126714342Y-91914285D01*
X126714342Y-91914285D02*
X126809580Y-91961904D01*
X126809580Y-91961904D02*
X126857200Y-92009523D01*
X126857200Y-92009523D02*
X126904819Y-92104761D01*
X126904819Y-92104761D02*
X126904819Y-92390475D01*
X126904819Y-92390475D02*
X126857200Y-92485713D01*
X126857200Y-92485713D02*
X126809580Y-92533332D01*
X168366666Y-71864819D02*
X168366666Y-72579104D01*
X168366666Y-72579104D02*
X168319047Y-72721961D01*
X168319047Y-72721961D02*
X168223809Y-72817200D01*
X168223809Y-72817200D02*
X168080952Y-72864819D01*
X168080952Y-72864819D02*
X167985714Y-72864819D01*
X168747619Y-71864819D02*
X169366666Y-71864819D01*
X169366666Y-71864819D02*
X169033333Y-72245771D01*
X169033333Y-72245771D02*
X169176190Y-72245771D01*
X169176190Y-72245771D02*
X169271428Y-72293390D01*
X169271428Y-72293390D02*
X169319047Y-72341009D01*
X169319047Y-72341009D02*
X169366666Y-72436247D01*
X169366666Y-72436247D02*
X169366666Y-72674342D01*
X169366666Y-72674342D02*
X169319047Y-72769580D01*
X169319047Y-72769580D02*
X169271428Y-72817200D01*
X169271428Y-72817200D02*
X169176190Y-72864819D01*
X169176190Y-72864819D02*
X168890476Y-72864819D01*
X168890476Y-72864819D02*
X168795238Y-72817200D01*
X168795238Y-72817200D02*
X168747619Y-72769580D01*
X181591666Y-104304819D02*
X181591666Y-105019104D01*
X181591666Y-105019104D02*
X181544047Y-105161961D01*
X181544047Y-105161961D02*
X181448809Y-105257200D01*
X181448809Y-105257200D02*
X181305952Y-105304819D01*
X181305952Y-105304819D02*
X181210714Y-105304819D01*
X182115476Y-105304819D02*
X182305952Y-105304819D01*
X182305952Y-105304819D02*
X182401190Y-105257200D01*
X182401190Y-105257200D02*
X182448809Y-105209580D01*
X182448809Y-105209580D02*
X182544047Y-105066723D01*
X182544047Y-105066723D02*
X182591666Y-104876247D01*
X182591666Y-104876247D02*
X182591666Y-104495295D01*
X182591666Y-104495295D02*
X182544047Y-104400057D01*
X182544047Y-104400057D02*
X182496428Y-104352438D01*
X182496428Y-104352438D02*
X182401190Y-104304819D01*
X182401190Y-104304819D02*
X182210714Y-104304819D01*
X182210714Y-104304819D02*
X182115476Y-104352438D01*
X182115476Y-104352438D02*
X182067857Y-104400057D01*
X182067857Y-104400057D02*
X182020238Y-104495295D01*
X182020238Y-104495295D02*
X182020238Y-104733390D01*
X182020238Y-104733390D02*
X182067857Y-104828628D01*
X182067857Y-104828628D02*
X182115476Y-104876247D01*
X182115476Y-104876247D02*
X182210714Y-104923866D01*
X182210714Y-104923866D02*
X182401190Y-104923866D01*
X182401190Y-104923866D02*
X182496428Y-104876247D01*
X182496428Y-104876247D02*
X182544047Y-104828628D01*
X182544047Y-104828628D02*
X182591666Y-104733390D01*
X149171570Y-132188779D02*
X149171570Y-132904521D01*
X149171570Y-132904521D02*
X149123854Y-133047669D01*
X149123854Y-133047669D02*
X149028422Y-133143102D01*
X149028422Y-133143102D02*
X148885273Y-133190818D01*
X148885273Y-133190818D02*
X148789841Y-133190818D01*
X150173609Y-133190818D02*
X149601015Y-133190818D01*
X149887312Y-133190818D02*
X149887312Y-132188779D01*
X149887312Y-132188779D02*
X149791880Y-132331927D01*
X149791880Y-132331927D02*
X149696447Y-132427359D01*
X149696447Y-132427359D02*
X149601015Y-132475076D01*
X151127932Y-133190818D02*
X150555338Y-133190818D01*
X150841635Y-133190818D02*
X150841635Y-132188779D01*
X150841635Y-132188779D02*
X150746203Y-132331927D01*
X150746203Y-132331927D02*
X150650770Y-132427359D01*
X150650770Y-132427359D02*
X150555338Y-132475076D01*
X160565180Y-129321905D02*
X159755657Y-129321905D01*
X159755657Y-129321905D02*
X159660419Y-129369524D01*
X159660419Y-129369524D02*
X159612800Y-129417143D01*
X159612800Y-129417143D02*
X159565180Y-129512381D01*
X159565180Y-129512381D02*
X159565180Y-129702857D01*
X159565180Y-129702857D02*
X159612800Y-129798095D01*
X159612800Y-129798095D02*
X159660419Y-129845714D01*
X159660419Y-129845714D02*
X159755657Y-129893333D01*
X159755657Y-129893333D02*
X160565180Y-129893333D01*
X159565180Y-130893333D02*
X159565180Y-130321905D01*
X159565180Y-130607619D02*
X160565180Y-130607619D01*
X160565180Y-130607619D02*
X160422323Y-130512381D01*
X160422323Y-130512381D02*
X160327085Y-130417143D01*
X160327085Y-130417143D02*
X160279466Y-130321905D01*
X160469942Y-131274286D02*
X160517561Y-131321905D01*
X160517561Y-131321905D02*
X160565180Y-131417143D01*
X160565180Y-131417143D02*
X160565180Y-131655238D01*
X160565180Y-131655238D02*
X160517561Y-131750476D01*
X160517561Y-131750476D02*
X160469942Y-131798095D01*
X160469942Y-131798095D02*
X160374704Y-131845714D01*
X160374704Y-131845714D02*
X160279466Y-131845714D01*
X160279466Y-131845714D02*
X160136609Y-131798095D01*
X160136609Y-131798095D02*
X159565180Y-131226667D01*
X159565180Y-131226667D02*
X159565180Y-131845714D01*
X158204819Y-117478999D02*
X158442914Y-117478999D01*
X158347676Y-117717094D02*
X158442914Y-117478999D01*
X158442914Y-117478999D02*
X158347676Y-117240904D01*
X158633390Y-117621856D02*
X158442914Y-117478999D01*
X158442914Y-117478999D02*
X158633390Y-117336142D01*
X159295180Y-117479000D02*
X159057085Y-117479000D01*
X159152323Y-117240905D02*
X159057085Y-117479000D01*
X159057085Y-117479000D02*
X159152323Y-117717095D01*
X158866609Y-117336143D02*
X159057085Y-117479000D01*
X159057085Y-117479000D02*
X158866609Y-117621857D01*
X201501009Y-121320833D02*
X201501009Y-121654166D01*
X202024819Y-121654166D02*
X201024819Y-121654166D01*
X201024819Y-121654166D02*
X201024819Y-121177976D01*
X201024819Y-120892261D02*
X201024819Y-120273214D01*
X201024819Y-120273214D02*
X201405771Y-120606547D01*
X201405771Y-120606547D02*
X201405771Y-120463690D01*
X201405771Y-120463690D02*
X201453390Y-120368452D01*
X201453390Y-120368452D02*
X201501009Y-120320833D01*
X201501009Y-120320833D02*
X201596247Y-120273214D01*
X201596247Y-120273214D02*
X201834342Y-120273214D01*
X201834342Y-120273214D02*
X201929580Y-120320833D01*
X201929580Y-120320833D02*
X201977200Y-120368452D01*
X201977200Y-120368452D02*
X202024819Y-120463690D01*
X202024819Y-120463690D02*
X202024819Y-120749404D01*
X202024819Y-120749404D02*
X201977200Y-120844642D01*
X201977200Y-120844642D02*
X201929580Y-120892261D01*
X144738095Y-63806819D02*
X145309523Y-63806819D01*
X145023809Y-64806819D02*
X145023809Y-63806819D01*
X145642857Y-64806819D02*
X145642857Y-63806819D01*
X145642857Y-63806819D02*
X146023809Y-63806819D01*
X146023809Y-63806819D02*
X146119047Y-63854438D01*
X146119047Y-63854438D02*
X146166666Y-63902057D01*
X146166666Y-63902057D02*
X146214285Y-63997295D01*
X146214285Y-63997295D02*
X146214285Y-64140152D01*
X146214285Y-64140152D02*
X146166666Y-64235390D01*
X146166666Y-64235390D02*
X146119047Y-64283009D01*
X146119047Y-64283009D02*
X146023809Y-64330628D01*
X146023809Y-64330628D02*
X145642857Y-64330628D01*
X146785714Y-64235390D02*
X146690476Y-64187771D01*
X146690476Y-64187771D02*
X146642857Y-64140152D01*
X146642857Y-64140152D02*
X146595238Y-64044914D01*
X146595238Y-64044914D02*
X146595238Y-63997295D01*
X146595238Y-63997295D02*
X146642857Y-63902057D01*
X146642857Y-63902057D02*
X146690476Y-63854438D01*
X146690476Y-63854438D02*
X146785714Y-63806819D01*
X146785714Y-63806819D02*
X146976190Y-63806819D01*
X146976190Y-63806819D02*
X147071428Y-63854438D01*
X147071428Y-63854438D02*
X147119047Y-63902057D01*
X147119047Y-63902057D02*
X147166666Y-63997295D01*
X147166666Y-63997295D02*
X147166666Y-64044914D01*
X147166666Y-64044914D02*
X147119047Y-64140152D01*
X147119047Y-64140152D02*
X147071428Y-64187771D01*
X147071428Y-64187771D02*
X146976190Y-64235390D01*
X146976190Y-64235390D02*
X146785714Y-64235390D01*
X146785714Y-64235390D02*
X146690476Y-64283009D01*
X146690476Y-64283009D02*
X146642857Y-64330628D01*
X146642857Y-64330628D02*
X146595238Y-64425866D01*
X146595238Y-64425866D02*
X146595238Y-64616342D01*
X146595238Y-64616342D02*
X146642857Y-64711580D01*
X146642857Y-64711580D02*
X146690476Y-64759200D01*
X146690476Y-64759200D02*
X146785714Y-64806819D01*
X146785714Y-64806819D02*
X146976190Y-64806819D01*
X146976190Y-64806819D02*
X147071428Y-64759200D01*
X147071428Y-64759200D02*
X147119047Y-64711580D01*
X147119047Y-64711580D02*
X147166666Y-64616342D01*
X147166666Y-64616342D02*
X147166666Y-64425866D01*
X147166666Y-64425866D02*
X147119047Y-64330628D01*
X147119047Y-64330628D02*
X147071428Y-64283009D01*
X147071428Y-64283009D02*
X146976190Y-64235390D01*
X144738095Y-59306819D02*
X145309523Y-59306819D01*
X145023809Y-60306819D02*
X145023809Y-59306819D01*
X145642857Y-60306819D02*
X145642857Y-59306819D01*
X145642857Y-59306819D02*
X146023809Y-59306819D01*
X146023809Y-59306819D02*
X146119047Y-59354438D01*
X146119047Y-59354438D02*
X146166666Y-59402057D01*
X146166666Y-59402057D02*
X146214285Y-59497295D01*
X146214285Y-59497295D02*
X146214285Y-59640152D01*
X146214285Y-59640152D02*
X146166666Y-59735390D01*
X146166666Y-59735390D02*
X146119047Y-59783009D01*
X146119047Y-59783009D02*
X146023809Y-59830628D01*
X146023809Y-59830628D02*
X145642857Y-59830628D01*
X146547619Y-59306819D02*
X147214285Y-59306819D01*
X147214285Y-59306819D02*
X146785714Y-60306819D01*
X102886666Y-74159819D02*
X102886666Y-74874104D01*
X102886666Y-74874104D02*
X102839047Y-75016961D01*
X102839047Y-75016961D02*
X102743809Y-75112200D01*
X102743809Y-75112200D02*
X102600952Y-75159819D01*
X102600952Y-75159819D02*
X102505714Y-75159819D01*
X103315238Y-74255057D02*
X103362857Y-74207438D01*
X103362857Y-74207438D02*
X103458095Y-74159819D01*
X103458095Y-74159819D02*
X103696190Y-74159819D01*
X103696190Y-74159819D02*
X103791428Y-74207438D01*
X103791428Y-74207438D02*
X103839047Y-74255057D01*
X103839047Y-74255057D02*
X103886666Y-74350295D01*
X103886666Y-74350295D02*
X103886666Y-74445533D01*
X103886666Y-74445533D02*
X103839047Y-74588390D01*
X103839047Y-74588390D02*
X103267619Y-75159819D01*
X103267619Y-75159819D02*
X103886666Y-75159819D01*
X173729166Y-125111009D02*
X173395833Y-125111009D01*
X173395833Y-125634819D02*
X173395833Y-124634819D01*
X173395833Y-124634819D02*
X173872023Y-124634819D01*
X174205357Y-124730057D02*
X174252976Y-124682438D01*
X174252976Y-124682438D02*
X174348214Y-124634819D01*
X174348214Y-124634819D02*
X174586309Y-124634819D01*
X174586309Y-124634819D02*
X174681547Y-124682438D01*
X174681547Y-124682438D02*
X174729166Y-124730057D01*
X174729166Y-124730057D02*
X174776785Y-124825295D01*
X174776785Y-124825295D02*
X174776785Y-124920533D01*
X174776785Y-124920533D02*
X174729166Y-125063390D01*
X174729166Y-125063390D02*
X174157738Y-125634819D01*
X174157738Y-125634819D02*
X174776785Y-125634819D01*
X127004819Y-98266666D02*
X126528628Y-98599999D01*
X127004819Y-98838094D02*
X126004819Y-98838094D01*
X126004819Y-98838094D02*
X126004819Y-98457142D01*
X126004819Y-98457142D02*
X126052438Y-98361904D01*
X126052438Y-98361904D02*
X126100057Y-98314285D01*
X126100057Y-98314285D02*
X126195295Y-98266666D01*
X126195295Y-98266666D02*
X126338152Y-98266666D01*
X126338152Y-98266666D02*
X126433390Y-98314285D01*
X126433390Y-98314285D02*
X126481009Y-98361904D01*
X126481009Y-98361904D02*
X126528628Y-98457142D01*
X126528628Y-98457142D02*
X126528628Y-98838094D01*
X126338152Y-97409523D02*
X127004819Y-97409523D01*
X125957200Y-97647618D02*
X126671485Y-97885713D01*
X126671485Y-97885713D02*
X126671485Y-97266666D01*
X144644819Y-76433333D02*
X145359104Y-76433333D01*
X145359104Y-76433333D02*
X145501961Y-76480952D01*
X145501961Y-76480952D02*
X145597200Y-76576190D01*
X145597200Y-76576190D02*
X145644819Y-76719047D01*
X145644819Y-76719047D02*
X145644819Y-76814285D01*
X145644819Y-75433333D02*
X145644819Y-76004761D01*
X145644819Y-75719047D02*
X144644819Y-75719047D01*
X144644819Y-75719047D02*
X144787676Y-75814285D01*
X144787676Y-75814285D02*
X144882914Y-75909523D01*
X144882914Y-75909523D02*
X144930533Y-76004761D01*
X63768669Y-99593919D02*
X64484411Y-99593919D01*
X64484411Y-99593919D02*
X64627559Y-99641635D01*
X64627559Y-99641635D02*
X64722992Y-99737067D01*
X64722992Y-99737067D02*
X64770708Y-99880216D01*
X64770708Y-99880216D02*
X64770708Y-99975648D01*
X64770708Y-98591880D02*
X64770708Y-99164474D01*
X64770708Y-98878177D02*
X63768669Y-98878177D01*
X63768669Y-98878177D02*
X63911817Y-98973609D01*
X63911817Y-98973609D02*
X64007249Y-99069042D01*
X64007249Y-99069042D02*
X64054966Y-99164474D01*
X63768669Y-98257867D02*
X63768669Y-97589841D01*
X63768669Y-97589841D02*
X64770708Y-98019286D01*
X186917080Y-133741666D02*
X186964700Y-133789285D01*
X186964700Y-133789285D02*
X187012319Y-133932142D01*
X187012319Y-133932142D02*
X187012319Y-134027380D01*
X187012319Y-134027380D02*
X186964700Y-134170237D01*
X186964700Y-134170237D02*
X186869461Y-134265475D01*
X186869461Y-134265475D02*
X186774223Y-134313094D01*
X186774223Y-134313094D02*
X186583747Y-134360713D01*
X186583747Y-134360713D02*
X186440890Y-134360713D01*
X186440890Y-134360713D02*
X186250414Y-134313094D01*
X186250414Y-134313094D02*
X186155176Y-134265475D01*
X186155176Y-134265475D02*
X186059938Y-134170237D01*
X186059938Y-134170237D02*
X186012319Y-134027380D01*
X186012319Y-134027380D02*
X186012319Y-133932142D01*
X186012319Y-133932142D02*
X186059938Y-133789285D01*
X186059938Y-133789285D02*
X186107557Y-133741666D01*
X186012319Y-132884523D02*
X186012319Y-133074999D01*
X186012319Y-133074999D02*
X186059938Y-133170237D01*
X186059938Y-133170237D02*
X186107557Y-133217856D01*
X186107557Y-133217856D02*
X186250414Y-133313094D01*
X186250414Y-133313094D02*
X186440890Y-133360713D01*
X186440890Y-133360713D02*
X186821842Y-133360713D01*
X186821842Y-133360713D02*
X186917080Y-133313094D01*
X186917080Y-133313094D02*
X186964700Y-133265475D01*
X186964700Y-133265475D02*
X187012319Y-133170237D01*
X187012319Y-133170237D02*
X187012319Y-132979761D01*
X187012319Y-132979761D02*
X186964700Y-132884523D01*
X186964700Y-132884523D02*
X186917080Y-132836904D01*
X186917080Y-132836904D02*
X186821842Y-132789285D01*
X186821842Y-132789285D02*
X186583747Y-132789285D01*
X186583747Y-132789285D02*
X186488509Y-132836904D01*
X186488509Y-132836904D02*
X186440890Y-132884523D01*
X186440890Y-132884523D02*
X186393271Y-132979761D01*
X186393271Y-132979761D02*
X186393271Y-133170237D01*
X186393271Y-133170237D02*
X186440890Y-133265475D01*
X186440890Y-133265475D02*
X186488509Y-133313094D01*
X186488509Y-133313094D02*
X186583747Y-133360713D01*
X88315180Y-130448095D02*
X87505657Y-130448095D01*
X87505657Y-130448095D02*
X87410419Y-130495714D01*
X87410419Y-130495714D02*
X87362800Y-130543333D01*
X87362800Y-130543333D02*
X87315180Y-130638571D01*
X87315180Y-130638571D02*
X87315180Y-130829047D01*
X87315180Y-130829047D02*
X87362800Y-130924285D01*
X87362800Y-130924285D02*
X87410419Y-130971904D01*
X87410419Y-130971904D02*
X87505657Y-131019523D01*
X87505657Y-131019523D02*
X88315180Y-131019523D01*
X87886609Y-131638571D02*
X87934228Y-131543333D01*
X87934228Y-131543333D02*
X87981847Y-131495714D01*
X87981847Y-131495714D02*
X88077085Y-131448095D01*
X88077085Y-131448095D02*
X88124704Y-131448095D01*
X88124704Y-131448095D02*
X88219942Y-131495714D01*
X88219942Y-131495714D02*
X88267561Y-131543333D01*
X88267561Y-131543333D02*
X88315180Y-131638571D01*
X88315180Y-131638571D02*
X88315180Y-131829047D01*
X88315180Y-131829047D02*
X88267561Y-131924285D01*
X88267561Y-131924285D02*
X88219942Y-131971904D01*
X88219942Y-131971904D02*
X88124704Y-132019523D01*
X88124704Y-132019523D02*
X88077085Y-132019523D01*
X88077085Y-132019523D02*
X87981847Y-131971904D01*
X87981847Y-131971904D02*
X87934228Y-131924285D01*
X87934228Y-131924285D02*
X87886609Y-131829047D01*
X87886609Y-131829047D02*
X87886609Y-131638571D01*
X87886609Y-131638571D02*
X87838990Y-131543333D01*
X87838990Y-131543333D02*
X87791371Y-131495714D01*
X87791371Y-131495714D02*
X87696133Y-131448095D01*
X87696133Y-131448095D02*
X87505657Y-131448095D01*
X87505657Y-131448095D02*
X87410419Y-131495714D01*
X87410419Y-131495714D02*
X87362800Y-131543333D01*
X87362800Y-131543333D02*
X87315180Y-131638571D01*
X87315180Y-131638571D02*
X87315180Y-131829047D01*
X87315180Y-131829047D02*
X87362800Y-131924285D01*
X87362800Y-131924285D02*
X87410419Y-131971904D01*
X87410419Y-131971904D02*
X87505657Y-132019523D01*
X87505657Y-132019523D02*
X87696133Y-132019523D01*
X87696133Y-132019523D02*
X87791371Y-131971904D01*
X87791371Y-131971904D02*
X87838990Y-131924285D01*
X87838990Y-131924285D02*
X87886609Y-131829047D01*
X87045180Y-118129000D02*
X86807085Y-118129000D01*
X86902323Y-117890905D02*
X86807085Y-118129000D01*
X86807085Y-118129000D02*
X86902323Y-118367095D01*
X86616609Y-117986143D02*
X86807085Y-118129000D01*
X86807085Y-118129000D02*
X86616609Y-118271857D01*
X85954819Y-118128999D02*
X86192914Y-118128999D01*
X86097676Y-118367094D02*
X86192914Y-118128999D01*
X86192914Y-118128999D02*
X86097676Y-117890904D01*
X86383390Y-118271856D02*
X86192914Y-118128999D01*
X86192914Y-118128999D02*
X86383390Y-117986142D01*
X127004819Y-104966666D02*
X126528628Y-105299999D01*
X127004819Y-105538094D02*
X126004819Y-105538094D01*
X126004819Y-105538094D02*
X126004819Y-105157142D01*
X126004819Y-105157142D02*
X126052438Y-105061904D01*
X126052438Y-105061904D02*
X126100057Y-105014285D01*
X126100057Y-105014285D02*
X126195295Y-104966666D01*
X126195295Y-104966666D02*
X126338152Y-104966666D01*
X126338152Y-104966666D02*
X126433390Y-105014285D01*
X126433390Y-105014285D02*
X126481009Y-105061904D01*
X126481009Y-105061904D02*
X126528628Y-105157142D01*
X126528628Y-105157142D02*
X126528628Y-105538094D01*
X126004819Y-104061904D02*
X126004819Y-104538094D01*
X126004819Y-104538094D02*
X126481009Y-104585713D01*
X126481009Y-104585713D02*
X126433390Y-104538094D01*
X126433390Y-104538094D02*
X126385771Y-104442856D01*
X126385771Y-104442856D02*
X126385771Y-104204761D01*
X126385771Y-104204761D02*
X126433390Y-104109523D01*
X126433390Y-104109523D02*
X126481009Y-104061904D01*
X126481009Y-104061904D02*
X126576247Y-104014285D01*
X126576247Y-104014285D02*
X126814342Y-104014285D01*
X126814342Y-104014285D02*
X126909580Y-104061904D01*
X126909580Y-104061904D02*
X126957200Y-104109523D01*
X126957200Y-104109523D02*
X127004819Y-104204761D01*
X127004819Y-104204761D02*
X127004819Y-104442856D01*
X127004819Y-104442856D02*
X126957200Y-104538094D01*
X126957200Y-104538094D02*
X126909580Y-104585713D01*
X199269580Y-126316666D02*
X199317200Y-126364285D01*
X199317200Y-126364285D02*
X199364819Y-126507142D01*
X199364819Y-126507142D02*
X199364819Y-126602380D01*
X199364819Y-126602380D02*
X199317200Y-126745237D01*
X199317200Y-126745237D02*
X199221961Y-126840475D01*
X199221961Y-126840475D02*
X199126723Y-126888094D01*
X199126723Y-126888094D02*
X198936247Y-126935713D01*
X198936247Y-126935713D02*
X198793390Y-126935713D01*
X198793390Y-126935713D02*
X198602914Y-126888094D01*
X198602914Y-126888094D02*
X198507676Y-126840475D01*
X198507676Y-126840475D02*
X198412438Y-126745237D01*
X198412438Y-126745237D02*
X198364819Y-126602380D01*
X198364819Y-126602380D02*
X198364819Y-126507142D01*
X198364819Y-126507142D02*
X198412438Y-126364285D01*
X198412438Y-126364285D02*
X198460057Y-126316666D01*
X198364819Y-125411904D02*
X198364819Y-125888094D01*
X198364819Y-125888094D02*
X198841009Y-125935713D01*
X198841009Y-125935713D02*
X198793390Y-125888094D01*
X198793390Y-125888094D02*
X198745771Y-125792856D01*
X198745771Y-125792856D02*
X198745771Y-125554761D01*
X198745771Y-125554761D02*
X198793390Y-125459523D01*
X198793390Y-125459523D02*
X198841009Y-125411904D01*
X198841009Y-125411904D02*
X198936247Y-125364285D01*
X198936247Y-125364285D02*
X199174342Y-125364285D01*
X199174342Y-125364285D02*
X199269580Y-125411904D01*
X199269580Y-125411904D02*
X199317200Y-125459523D01*
X199317200Y-125459523D02*
X199364819Y-125554761D01*
X199364819Y-125554761D02*
X199364819Y-125792856D01*
X199364819Y-125792856D02*
X199317200Y-125888094D01*
X199317200Y-125888094D02*
X199269580Y-125935713D01*
X189686905Y-112824819D02*
X189686905Y-111824819D01*
X189686905Y-111824819D02*
X189925000Y-111824819D01*
X189925000Y-111824819D02*
X190067857Y-111872438D01*
X190067857Y-111872438D02*
X190163095Y-111967676D01*
X190163095Y-111967676D02*
X190210714Y-112062914D01*
X190210714Y-112062914D02*
X190258333Y-112253390D01*
X190258333Y-112253390D02*
X190258333Y-112396247D01*
X190258333Y-112396247D02*
X190210714Y-112586723D01*
X190210714Y-112586723D02*
X190163095Y-112681961D01*
X190163095Y-112681961D02*
X190067857Y-112777200D01*
X190067857Y-112777200D02*
X189925000Y-112824819D01*
X189925000Y-112824819D02*
X189686905Y-112824819D01*
X191115476Y-112158152D02*
X191115476Y-112824819D01*
X190877381Y-111777200D02*
X190639286Y-112491485D01*
X190639286Y-112491485D02*
X191258333Y-112491485D01*
D13*
%TO.C,J13*%
X109430000Y-134150000D02*
X119590000Y-134150000D01*
X109430000Y-141350000D02*
X109430000Y-134150000D01*
X109430000Y-141350000D02*
X119590000Y-141350000D01*
X109430000Y-142350000D02*
X109430000Y-141350000D01*
X119590000Y-134150000D02*
X119590000Y-141350000D01*
X119590000Y-141350000D02*
X119590000Y-142350000D01*
X119590000Y-142350000D02*
X109430000Y-142350000D01*
D14*
%TO.C,TP1*%
X114550000Y-87550000D02*
X116450000Y-87550000D01*
X114550000Y-89450000D02*
X114550000Y-87550000D01*
X116450000Y-87550000D02*
X116450000Y-89450000D01*
X116450000Y-89450000D02*
X114550000Y-89450000D01*
D13*
%TO.C,U5*%
X141630000Y-91400000D02*
X148750000Y-91400000D01*
X148750000Y-111100000D02*
X141630000Y-111100000D01*
D15*
X150510000Y-111050000D02*
G75*
G02*
X150270000Y-111050000I-120000J0D01*
G01*
X150270000Y-111050000D02*
G75*
G02*
X150510000Y-111050000I120000J0D01*
G01*
D14*
%TO.C,SW1*%
X112495000Y-91820000D02*
X118955000Y-91820000D01*
X112495000Y-91850000D02*
X112495000Y-91820000D01*
X112495000Y-93750000D02*
X112495000Y-96350000D01*
X112495000Y-98280000D02*
X112495000Y-98250000D01*
X112495000Y-98280000D02*
X118955000Y-98280000D01*
X118955000Y-91820000D02*
X118955000Y-91850000D01*
X118955000Y-93750000D02*
X118955000Y-96350000D01*
X118955000Y-98280000D02*
X118955000Y-98250000D01*
D13*
%TO.C,D5*%
X168282500Y-110800000D02*
X169242500Y-110800000D01*
X168282500Y-113600000D02*
X169242500Y-113600000D01*
D16*
X166262500Y-111300000D02*
G75*
G02*
X166062500Y-111300000I-100000J0D01*
G01*
X166062500Y-111300000D02*
G75*
G02*
X166262500Y-111300000I100000J0D01*
G01*
D17*
%TO.C,U10*%
X139203000Y-118468000D02*
X139203000Y-142852000D01*
X139203000Y-142852000D02*
X144537000Y-142852000D01*
X144537000Y-118468000D02*
X139203000Y-118468000D01*
X144537000Y-142852000D02*
X144537000Y-118468000D01*
D14*
%TO.C,TP4*%
X99550000Y-48550000D02*
X101450000Y-48550000D01*
X99550000Y-50450000D02*
X99550000Y-48550000D01*
X101450000Y-48550000D02*
X101450000Y-50450000D01*
X101450000Y-50450000D02*
X99550000Y-50450000D01*
%TO.C,J8*%
X116990000Y-71470000D02*
X118320000Y-71470000D01*
X116990000Y-72800000D02*
X116990000Y-71470000D01*
X119590000Y-71470000D02*
X137430000Y-71470000D01*
X119590000Y-74130000D02*
X119590000Y-71470000D01*
X119590000Y-74130000D02*
X137430000Y-74130000D01*
X137430000Y-74130000D02*
X137430000Y-71470000D01*
%TO.C,J4*%
X148030000Y-84170000D02*
X149360000Y-84170000D01*
X148030000Y-85500000D02*
X148030000Y-84170000D01*
X150630000Y-84170000D02*
X153230000Y-84170000D01*
X150630000Y-86830000D02*
X150630000Y-84170000D01*
X150630000Y-86830000D02*
X153230000Y-86830000D01*
X153230000Y-86830000D02*
X153230000Y-84170000D01*
%TO.C,U1*%
X183290000Y-83480000D02*
X183290000Y-84480000D01*
X183290000Y-101720000D02*
X183290000Y-100720000D01*
X184070000Y-83480000D02*
X183290000Y-83480000D01*
X184070000Y-101720000D02*
X183290000Y-101720000D01*
X209030000Y-83480000D02*
X202870000Y-83480000D01*
X209030000Y-83480000D02*
X209030000Y-101720000D01*
X209030000Y-101720000D02*
X202615000Y-101720000D01*
X202645000Y-83475000D02*
X202145000Y-83475000D01*
X202145000Y-82975000D01*
X202645000Y-83475000D01*
G36*
X202645000Y-83475000D02*
G01*
X202145000Y-83475000D01*
X202145000Y-82975000D01*
X202645000Y-83475000D01*
G37*
%TO.C,U13*%
X187800000Y-121415000D02*
X191560000Y-121415000D01*
X187800000Y-128235000D02*
X191560000Y-128235000D01*
X191560000Y-121415000D02*
X191560000Y-122675000D01*
X191560000Y-128235000D02*
X191560000Y-126975000D01*
X186520000Y-121515000D02*
X186280000Y-121185000D01*
X186760000Y-121185000D01*
X186520000Y-121515000D01*
G36*
X186520000Y-121515000D02*
G01*
X186280000Y-121185000D01*
X186760000Y-121185000D01*
X186520000Y-121515000D01*
G37*
%TO.C,R1*%
X161665000Y-112527064D02*
X161665000Y-112072936D01*
X163135000Y-112527064D02*
X163135000Y-112072936D01*
%TO.C,C7*%
X173415000Y-136241233D02*
X173415000Y-136533767D01*
X174435000Y-136241233D02*
X174435000Y-136533767D01*
D17*
%TO.C,U9*%
X54198000Y-126583000D02*
X54198000Y-131917000D01*
X54198000Y-131917000D02*
X78582000Y-131917000D01*
X78582000Y-126583000D02*
X54198000Y-126583000D01*
X78582000Y-131917000D02*
X78582000Y-126583000D01*
D14*
%TO.C,R6*%
X124165000Y-110572936D02*
X124165000Y-111027064D01*
X125635000Y-110572936D02*
X125635000Y-111027064D01*
D17*
%TO.C,U6*%
X121003000Y-118268000D02*
X121003000Y-142652000D01*
X121003000Y-142652000D02*
X126337000Y-142652000D01*
X126337000Y-118268000D02*
X121003000Y-118268000D01*
X126337000Y-142652000D02*
X126337000Y-118268000D01*
D13*
%TO.C,CON1*%
X171587500Y-48297500D02*
X171587500Y-71792500D01*
X172857500Y-50202500D02*
X172857500Y-52742500D01*
X172857500Y-52742500D02*
X172857500Y-70522500D01*
X172857500Y-52742500D02*
X175397500Y-52742500D01*
X172857500Y-70522500D02*
X175397500Y-70522500D01*
X174127500Y-74332500D02*
X196987500Y-74332500D01*
X175397500Y-50202500D02*
X172857500Y-50202500D01*
X175397500Y-52742500D02*
X175397500Y-50202500D01*
X175397500Y-70522500D02*
X175397500Y-52742500D01*
D18*
X183223500Y-48043500D02*
X183223500Y-49567500D01*
X183223500Y-48043500D02*
X184239500Y-48043500D01*
X184239500Y-48043500D02*
X184239500Y-46392500D01*
X184239500Y-48043500D02*
X185382500Y-48043500D01*
X185382500Y-48043500D02*
X185382500Y-49567500D01*
X185382500Y-48043500D02*
X186525500Y-48043500D01*
X186525500Y-48043500D02*
X186525500Y-46392500D01*
X186525500Y-48043500D02*
X187668500Y-48043500D01*
X187668500Y-48043500D02*
X187668500Y-49567500D01*
D13*
X195717500Y-50202500D02*
X195717500Y-52742500D01*
X195717500Y-50202500D02*
X198257500Y-50202500D01*
X195717500Y-52742500D02*
X195717500Y-70522500D01*
X195717500Y-52742500D02*
X198257500Y-52742500D01*
X195717500Y-70522500D02*
X198257500Y-70522500D01*
X198257500Y-50202500D02*
X198257500Y-70522500D01*
X198257500Y-70522500D02*
X195727500Y-73112500D01*
X199527500Y-48297500D02*
X199527500Y-71792500D01*
X171587500Y-48297500D02*
G75*
G02*
X174127500Y-45757500I2540000J0D01*
G01*
X174127500Y-74332500D02*
G75*
G02*
X171587500Y-71792500I0J2540000D01*
G01*
X196987500Y-45757500D02*
G75*
G02*
X199527500Y-48297500I0J-2540000D01*
G01*
X199527500Y-71792500D02*
G75*
G02*
X196987500Y-74332500I-2540000J0D01*
G01*
X199527500Y-71792500D02*
G75*
G02*
X196987500Y-74332500I-2540000J0D01*
G01*
D19*
X183452100Y-49567500D02*
G75*
G02*
X182994900Y-49567500I-228600J0D01*
G01*
X182994900Y-49567500D02*
G75*
G02*
X183452100Y-49567500I228600J0D01*
G01*
X184468100Y-46392500D02*
G75*
G02*
X184010900Y-46392500I-228600J0D01*
G01*
X184010900Y-46392500D02*
G75*
G02*
X184468100Y-46392500I228600J0D01*
G01*
X185611100Y-49567500D02*
G75*
G02*
X185153900Y-49567500I-228600J0D01*
G01*
X185153900Y-49567500D02*
G75*
G02*
X185611100Y-49567500I228600J0D01*
G01*
X186754100Y-46392500D02*
G75*
G02*
X186296900Y-46392500I-228600J0D01*
G01*
X186296900Y-46392500D02*
G75*
G02*
X186754100Y-46392500I228600J0D01*
G01*
X187897100Y-49567500D02*
G75*
G02*
X187439900Y-49567500I-228600J0D01*
G01*
X187439900Y-49567500D02*
G75*
G02*
X187897100Y-49567500I228600J0D01*
G01*
D14*
%TO.C,J18*%
X129390000Y-76870000D02*
X130720000Y-76870000D01*
X129390000Y-78200000D02*
X129390000Y-76870000D01*
X131990000Y-76870000D02*
X137130000Y-76870000D01*
X131990000Y-79530000D02*
X131990000Y-76870000D01*
X131990000Y-79530000D02*
X137130000Y-79530000D01*
X137130000Y-79530000D02*
X137130000Y-76870000D01*
%TO.C,TP3*%
X99550000Y-62550000D02*
X101450000Y-62550000D01*
X99550000Y-64450000D02*
X99550000Y-62550000D01*
X101450000Y-62550000D02*
X101450000Y-64450000D01*
X101450000Y-64450000D02*
X99550000Y-64450000D01*
D13*
%TO.C,J10*%
X193700000Y-130920000D02*
X200900000Y-130920000D01*
X193700000Y-141080000D02*
X193700000Y-130920000D01*
X200900000Y-130920000D02*
X201900000Y-130920000D01*
X200900000Y-141080000D02*
X193700000Y-141080000D01*
X200900000Y-141080000D02*
X200900000Y-130920000D01*
X201900000Y-130920000D02*
X201900000Y-141080000D01*
X201900000Y-141080000D02*
X200900000Y-141080000D01*
D14*
%TO.C,TP5*%
X175100000Y-118580000D02*
X177000000Y-118580000D01*
X175100000Y-120480000D02*
X175100000Y-118580000D01*
X177000000Y-118580000D02*
X177000000Y-120480000D01*
X177000000Y-120480000D02*
X175100000Y-120480000D01*
%TO.C,J6*%
X87060000Y-48545000D02*
X87060000Y-63905000D01*
X87060000Y-48545000D02*
X95690000Y-48545000D01*
X87060000Y-48665000D02*
X95690000Y-48665000D01*
X87060000Y-48783095D02*
X95690000Y-48783095D01*
X87060000Y-48901190D02*
X95690000Y-48901190D01*
X87060000Y-49019285D02*
X95690000Y-49019285D01*
X87060000Y-49137380D02*
X95690000Y-49137380D01*
X87060000Y-49255475D02*
X95690000Y-49255475D01*
X87060000Y-49373570D02*
X95690000Y-49373570D01*
X87060000Y-49491665D02*
X95690000Y-49491665D01*
X87060000Y-49609760D02*
X95690000Y-49609760D01*
X87060000Y-49727855D02*
X95690000Y-49727855D01*
X87060000Y-49845950D02*
X95690000Y-49845950D01*
X87060000Y-49964045D02*
X95690000Y-49964045D01*
X87060000Y-50082140D02*
X95690000Y-50082140D01*
X87060000Y-50200235D02*
X95690000Y-50200235D01*
X87060000Y-50318330D02*
X95690000Y-50318330D01*
X87060000Y-50436425D02*
X95690000Y-50436425D01*
X87060000Y-50554520D02*
X95690000Y-50554520D01*
X87060000Y-50672615D02*
X95690000Y-50672615D01*
X87060000Y-50790710D02*
X95690000Y-50790710D01*
X87060000Y-50908805D02*
X95690000Y-50908805D01*
X87060000Y-51026900D02*
X95690000Y-51026900D01*
X87060000Y-51145000D02*
X95690000Y-51145000D01*
X87060000Y-53685000D02*
X95690000Y-53685000D01*
X87060000Y-56225000D02*
X95690000Y-56225000D01*
X87060000Y-58765000D02*
X95690000Y-58765000D01*
X87060000Y-61305000D02*
X95690000Y-61305000D01*
X87060000Y-63905000D02*
X95690000Y-63905000D01*
X95690000Y-48545000D02*
X95690000Y-63905000D01*
X95690000Y-49515000D02*
X96040000Y-49515000D01*
X95690000Y-50235000D02*
X96040000Y-50235000D01*
X95690000Y-52055000D02*
X96100000Y-52055000D01*
X95690000Y-52775000D02*
X96100000Y-52775000D01*
X95690000Y-54595000D02*
X96100000Y-54595000D01*
X95690000Y-55315000D02*
X96100000Y-55315000D01*
X95690000Y-57135000D02*
X96100000Y-57135000D01*
X95690000Y-57855000D02*
X96100000Y-57855000D01*
X95690000Y-59675000D02*
X96100000Y-59675000D01*
X95690000Y-60395000D02*
X96100000Y-60395000D01*
X95690000Y-62215000D02*
X96100000Y-62215000D01*
X95690000Y-62935000D02*
X96100000Y-62935000D01*
X97150000Y-48545000D02*
X98260000Y-48545000D01*
X98260000Y-48545000D02*
X98260000Y-49875000D01*
%TO.C,TP2*%
X114820000Y-101550000D02*
X116720000Y-101550000D01*
X114820000Y-103450000D02*
X114820000Y-101550000D01*
X116720000Y-101550000D02*
X116720000Y-103450000D01*
X116720000Y-103450000D02*
X114820000Y-103450000D01*
D17*
%TO.C,U11*%
X54508000Y-106503000D02*
X54508000Y-111837000D01*
X54508000Y-111837000D02*
X78892000Y-111837000D01*
X78892000Y-106503000D02*
X54508000Y-106503000D01*
X78892000Y-111837000D02*
X78892000Y-106503000D01*
D14*
%TO.C,SW2*%
X112495000Y-105420000D02*
X118955000Y-105420000D01*
X112495000Y-105450000D02*
X112495000Y-105420000D01*
X112495000Y-107350000D02*
X112495000Y-109950000D01*
X112495000Y-111880000D02*
X112495000Y-111850000D01*
X112495000Y-111880000D02*
X118955000Y-111880000D01*
X118955000Y-105420000D02*
X118955000Y-105450000D01*
X118955000Y-107350000D02*
X118955000Y-109950000D01*
X118955000Y-111880000D02*
X118955000Y-111850000D01*
D13*
%TO.C,J14*%
X91470000Y-134800000D02*
X101630000Y-134800000D01*
X91470000Y-142000000D02*
X91470000Y-134800000D01*
X91470000Y-142000000D02*
X101630000Y-142000000D01*
X91470000Y-143000000D02*
X91470000Y-142000000D01*
X101630000Y-134800000D02*
X101630000Y-142000000D01*
X101630000Y-142000000D02*
X101630000Y-143000000D01*
X101630000Y-143000000D02*
X91470000Y-143000000D01*
D14*
%TO.C,R8*%
X143065000Y-85072936D02*
X143065000Y-85527064D01*
X144535000Y-85072936D02*
X144535000Y-85527064D01*
%TO.C,R9*%
X195427064Y-113065000D02*
X194972936Y-113065000D01*
X195427064Y-114535000D02*
X194972936Y-114535000D01*
D17*
%TO.C,U7*%
X102853000Y-118568000D02*
X102853000Y-142952000D01*
X102853000Y-142952000D02*
X108187000Y-142952000D01*
X108187000Y-118568000D02*
X102853000Y-118568000D01*
X108187000Y-142952000D02*
X108187000Y-118568000D01*
D14*
%TO.C,C4*%
X181015000Y-127828733D02*
X181015000Y-128121267D01*
X182035000Y-127828733D02*
X182035000Y-128121267D01*
D13*
%TO.C,J16*%
X54600000Y-114980000D02*
X55600000Y-114980000D01*
X54600000Y-125140000D02*
X54600000Y-114980000D01*
X55600000Y-114980000D02*
X55600000Y-125140000D01*
X55600000Y-114980000D02*
X62800000Y-114980000D01*
X55600000Y-125140000D02*
X54600000Y-125140000D01*
X62800000Y-114980000D02*
X62800000Y-125140000D01*
X62800000Y-125140000D02*
X55600000Y-125140000D01*
%TO.C,J15*%
X73530000Y-135250000D02*
X83690000Y-135250000D01*
X73530000Y-142450000D02*
X73530000Y-135250000D01*
X73530000Y-142450000D02*
X83690000Y-142450000D01*
X73530000Y-143450000D02*
X73530000Y-142450000D01*
X83690000Y-135250000D02*
X83690000Y-142450000D01*
X83690000Y-142450000D02*
X83690000Y-143450000D01*
X83690000Y-143450000D02*
X73530000Y-143450000D01*
D14*
%TO.C,F1*%
X191289564Y-137265000D02*
X190085436Y-137265000D01*
X191289564Y-139085000D02*
X190085436Y-139085000D01*
%TO.C,U4*%
X178890000Y-133340000D02*
X178890000Y-134600000D01*
X178890000Y-140160000D02*
X178890000Y-138900000D01*
X182650000Y-133340000D02*
X178890000Y-133340000D01*
X182650000Y-140160000D02*
X178890000Y-140160000D01*
X184170000Y-140390000D02*
X183690000Y-140390000D01*
X183930000Y-140060000D01*
X184170000Y-140390000D01*
G36*
X184170000Y-140390000D02*
G01*
X183690000Y-140390000D01*
X183930000Y-140060000D01*
X184170000Y-140390000D01*
G37*
D13*
%TO.C,J12*%
X127730000Y-134250000D02*
X137890000Y-134250000D01*
X127730000Y-141450000D02*
X127730000Y-134250000D01*
X127730000Y-141450000D02*
X137890000Y-141450000D01*
X127730000Y-142450000D02*
X127730000Y-141450000D01*
X137890000Y-134250000D02*
X137890000Y-141450000D01*
X137890000Y-141450000D02*
X137890000Y-142450000D01*
X137890000Y-142450000D02*
X127730000Y-142450000D01*
D14*
%TO.C,R3*%
X124065000Y-92472936D02*
X124065000Y-92927064D01*
X125535000Y-92472936D02*
X125535000Y-92927064D01*
%TO.C,J3*%
X167370000Y-68370000D02*
X167370000Y-50530000D01*
X167370000Y-70970000D02*
X167370000Y-69640000D01*
X168700000Y-70970000D02*
X167370000Y-70970000D01*
X170030000Y-50530000D02*
X167370000Y-50530000D01*
X170030000Y-68370000D02*
X167370000Y-68370000D01*
X170030000Y-68370000D02*
X170030000Y-50530000D01*
%TO.C,J9*%
X180595000Y-108890000D02*
X180595000Y-116570000D01*
X180595000Y-108890000D02*
X183255000Y-108890000D01*
X180595000Y-116570000D02*
X183255000Y-116570000D01*
X181925000Y-106290000D02*
X183255000Y-106290000D01*
X183255000Y-106290000D02*
X183255000Y-107620000D01*
X183255000Y-108890000D02*
X183255000Y-116570000D01*
D13*
%TO.C,J11*%
X146030000Y-134250000D02*
X156190000Y-134250000D01*
X146030000Y-141450000D02*
X146030000Y-134250000D01*
X146030000Y-141450000D02*
X156190000Y-141450000D01*
X146030000Y-142450000D02*
X146030000Y-141450000D01*
X156190000Y-134250000D02*
X156190000Y-141450000D01*
X156190000Y-141450000D02*
X156190000Y-142450000D01*
X156190000Y-142450000D02*
X146030000Y-142450000D01*
D17*
%TO.C,U12*%
X157353000Y-118368000D02*
X157353000Y-142752000D01*
X157353000Y-142752000D02*
X162687000Y-142752000D01*
X162687000Y-118368000D02*
X157353000Y-118368000D01*
X162687000Y-142752000D02*
X162687000Y-118368000D01*
D14*
%TO.C,F3*%
X198840000Y-120385436D02*
X198840000Y-121589564D01*
X200660000Y-120385436D02*
X200660000Y-121589564D01*
%TO.C,TP8*%
X145050000Y-65050000D02*
X146950000Y-65050000D01*
X145050000Y-66950000D02*
X145050000Y-65050000D01*
X146950000Y-65050000D02*
X146950000Y-66950000D01*
X146950000Y-66950000D02*
X145050000Y-66950000D01*
%TO.C,TP7*%
X145050000Y-60550000D02*
X146950000Y-60550000D01*
X145050000Y-62450000D02*
X145050000Y-60550000D01*
X146950000Y-60550000D02*
X146950000Y-62450000D01*
X146950000Y-62450000D02*
X145050000Y-62450000D01*
%TO.C,J2*%
X97510000Y-76145000D02*
X97510000Y-83885000D01*
X97510000Y-76145000D02*
X106140000Y-76145000D01*
X97510000Y-76265000D02*
X106140000Y-76265000D01*
X97510000Y-76383095D02*
X106140000Y-76383095D01*
X97510000Y-76501190D02*
X106140000Y-76501190D01*
X97510000Y-76619285D02*
X106140000Y-76619285D01*
X97510000Y-76737380D02*
X106140000Y-76737380D01*
X97510000Y-76855475D02*
X106140000Y-76855475D01*
X97510000Y-76973570D02*
X106140000Y-76973570D01*
X97510000Y-77091665D02*
X106140000Y-77091665D01*
X97510000Y-77209760D02*
X106140000Y-77209760D01*
X97510000Y-77327855D02*
X106140000Y-77327855D01*
X97510000Y-77445950D02*
X106140000Y-77445950D01*
X97510000Y-77564045D02*
X106140000Y-77564045D01*
X97510000Y-77682140D02*
X106140000Y-77682140D01*
X97510000Y-77800235D02*
X106140000Y-77800235D01*
X97510000Y-77918330D02*
X106140000Y-77918330D01*
X97510000Y-78036425D02*
X106140000Y-78036425D01*
X97510000Y-78154520D02*
X106140000Y-78154520D01*
X97510000Y-78272615D02*
X106140000Y-78272615D01*
X97510000Y-78390710D02*
X106140000Y-78390710D01*
X97510000Y-78508805D02*
X106140000Y-78508805D01*
X97510000Y-78626900D02*
X106140000Y-78626900D01*
X97510000Y-78745000D02*
X106140000Y-78745000D01*
X97510000Y-81285000D02*
X106140000Y-81285000D01*
X97510000Y-83885000D02*
X106140000Y-83885000D01*
X106140000Y-76145000D02*
X106140000Y-83885000D01*
X106140000Y-77115000D02*
X106490000Y-77115000D01*
X106140000Y-77835000D02*
X106490000Y-77835000D01*
X106140000Y-79655000D02*
X106550000Y-79655000D01*
X106140000Y-80375000D02*
X106550000Y-80375000D01*
X106140000Y-82195000D02*
X106550000Y-82195000D01*
X106140000Y-82915000D02*
X106550000Y-82915000D01*
X107600000Y-76145000D02*
X108710000Y-76145000D01*
X108710000Y-76145000D02*
X108710000Y-77475000D01*
%TO.C,F2*%
X173460436Y-126090000D02*
X174664564Y-126090000D01*
X173460436Y-127910000D02*
X174664564Y-127910000D01*
%TO.C,R4*%
X124165000Y-97872936D02*
X124165000Y-98327064D01*
X125635000Y-97872936D02*
X125635000Y-98327064D01*
%TO.C,J1*%
X146630000Y-74770000D02*
X147960000Y-74770000D01*
X146630000Y-76100000D02*
X146630000Y-74770000D01*
X149230000Y-74770000D02*
X154370000Y-74770000D01*
X149230000Y-77430000D02*
X149230000Y-74770000D01*
X149230000Y-77430000D02*
X154370000Y-77430000D01*
X154370000Y-77430000D02*
X154370000Y-74770000D01*
D13*
%TO.C,J17*%
X54600000Y-94830000D02*
X55600000Y-94830000D01*
X54600000Y-104990000D02*
X54600000Y-94830000D01*
X55600000Y-94830000D02*
X55600000Y-104990000D01*
X55600000Y-94830000D02*
X62800000Y-94830000D01*
X55600000Y-104990000D02*
X54600000Y-104990000D01*
X62800000Y-94830000D02*
X62800000Y-104990000D01*
X62800000Y-104990000D02*
X55600000Y-104990000D01*
D14*
%TO.C,C6*%
X187477500Y-133721267D02*
X187477500Y-133428733D01*
X188497500Y-133721267D02*
X188497500Y-133428733D01*
D17*
%TO.C,U8*%
X85103000Y-119018000D02*
X85103000Y-143402000D01*
X85103000Y-143402000D02*
X90437000Y-143402000D01*
X90437000Y-119018000D02*
X85103000Y-119018000D01*
X90437000Y-143402000D02*
X90437000Y-119018000D01*
D14*
%TO.C,R5*%
X124165000Y-104572936D02*
X124165000Y-105027064D01*
X125635000Y-104572936D02*
X125635000Y-105027064D01*
%TO.C,C5*%
X196440000Y-125566233D02*
X196440000Y-125858767D01*
X197460000Y-125566233D02*
X197460000Y-125858767D01*
%TO.C,D4*%
X188765000Y-113065000D02*
X188765000Y-114535000D01*
X188765000Y-114535000D02*
X191225000Y-114535000D01*
X191225000Y-113065000D02*
X188765000Y-113065000D01*
%TD*%
M02*
