%TF.GenerationSoftware,KiCad,Pcbnew,8.0.0*%
%TF.CreationDate,2024-12-08T13:18:30+05:30*%
%TF.ProjectId,RFID_1,52464944-5f31-42e6-9b69-6361645f7063,rev?*%
%TF.SameCoordinates,Original*%
%TF.FileFunction,Copper,L2,Bot*%
%TF.FilePolarity,Positive*%
%FSLAX46Y46*%
G04 Gerber Fmt 4.6, Leading zero omitted, Abs format (unit mm)*
G04 Created by KiCad (PCBNEW 8.0.0) date 2024-12-08 13:18:30*
%MOMM*%
%LPD*%
G01*
G04 APERTURE LIST*
G04 Aperture macros list*
%AMRoundRect*
0 Rectangle with rounded corners*
0 $1 Rounding radius*
0 $2 $3 $4 $5 $6 $7 $8 $9 X,Y pos of 4 corners*
0 Add a 4 corners polygon primitive as box body*
4,1,4,$2,$3,$4,$5,$6,$7,$8,$9,$2,$3,0*
0 Add four circle primitives for the rounded corners*
1,1,$1+$1,$2,$3*
1,1,$1+$1,$4,$5*
1,1,$1+$1,$6,$7*
1,1,$1+$1,$8,$9*
0 Add four rect primitives between the rounded corners*
20,1,$1+$1,$2,$3,$4,$5,0*
20,1,$1+$1,$4,$5,$6,$7,0*
20,1,$1+$1,$6,$7,$8,$9,0*
20,1,$1+$1,$8,$9,$2,$3,0*%
G04 Aperture macros list end*
%TA.AperFunction,ComponentPad*%
%ADD10R,1.700000X1.700000*%
%TD*%
%TA.AperFunction,ComponentPad*%
%ADD11O,1.700000X1.700000*%
%TD*%
%TA.AperFunction,HeatsinkPad*%
%ADD12C,0.600000*%
%TD*%
%TA.AperFunction,SMDPad,CuDef*%
%ADD13RoundRect,0.250000X8.750000X-5.750000X8.750000X5.750000X-8.750000X5.750000X-8.750000X-5.750000X0*%
%TD*%
%TA.AperFunction,ViaPad*%
%ADD14C,0.762000*%
%TD*%
%TA.AperFunction,Conductor*%
%ADD15C,0.254000*%
%TD*%
G04 APERTURE END LIST*
D10*
%TO.P,J3,1,Pin_1*%
%TO.N,/5V*%
X173990000Y-108534200D03*
D11*
%TO.P,J3,2,Pin_2*%
%TO.N,GND*%
X173990000Y-111074200D03*
%TO.P,J3,3,Pin_3*%
%TO.N,/12V*%
X173990000Y-113614200D03*
%TO.P,J3,4,Pin_4*%
%TO.N,Net-(J3-Pin_4)*%
X173990000Y-116154200D03*
%TD*%
D10*
%TO.P,J1,1,Pin_1*%
%TO.N,Net-(J1-Pin_1)*%
X148955600Y-105196800D03*
D11*
%TO.P,J1,2,Pin_2*%
%TO.N,Net-(J1-Pin_2)*%
X151495600Y-105196800D03*
%TO.P,J1,3,Pin_3*%
%TO.N,/BOOT*%
X154035600Y-105196800D03*
%TO.P,J1,4,Pin_4*%
%TO.N,/EN*%
X156575600Y-105196800D03*
%TD*%
D12*
%TO.P,U1,39,GND*%
%TO.N,GND*%
X151300200Y-85088900D03*
X151300200Y-86613900D03*
X152062700Y-84326400D03*
X152062700Y-85851400D03*
X152062700Y-87376400D03*
X152825200Y-85088900D03*
X152825200Y-86613900D03*
X153587700Y-84326400D03*
X153587700Y-85851400D03*
X153587700Y-87376400D03*
X154350200Y-85088900D03*
X154350200Y-86613900D03*
%TD*%
D10*
%TO.P,J2,1,Pin_1*%
%TO.N,VDD*%
X173939200Y-79400400D03*
D11*
%TO.P,J2,2,Pin_2*%
%TO.N,/RST*%
X173939200Y-81940400D03*
%TO.P,J2,3,Pin_3*%
%TO.N,GND*%
X173939200Y-84480400D03*
%TO.P,J2,4,Pin_4*%
%TO.N,/NC*%
X173939200Y-87020400D03*
%TO.P,J2,5,Pin_5*%
%TO.N,/MISO*%
X173939200Y-89560400D03*
%TO.P,J2,6,Pin_6*%
%TO.N,/MOSI*%
X173939200Y-92100400D03*
%TO.P,J2,7,Pin_7*%
%TO.N,/SCK*%
X173939200Y-94640400D03*
%TO.P,J2,8,Pin_8*%
%TO.N,/SDA*%
X173939200Y-97180400D03*
%TD*%
D13*
%TO.P,J5,1,Pin_1*%
%TO.N,GND*%
X138557000Y-118567200D03*
%TD*%
%TO.P,J4,1,Pin_1*%
%TO.N,GND*%
X160372700Y-118404400D03*
%TD*%
D14*
%TO.N,Net-(J3-Pin_4)*%
X169925000Y-102525000D03*
%TO.N,GND*%
X171450000Y-111125000D03*
X135890000Y-116840000D03*
X137160000Y-115570000D03*
X137160000Y-120650000D03*
X154962500Y-118125000D03*
X158772500Y-116855000D03*
X135890000Y-119380000D03*
X156232500Y-114315000D03*
X133350000Y-115570000D03*
X135890000Y-115570000D03*
X137160000Y-114300000D03*
X134620000Y-115570000D03*
X163830000Y-107950000D03*
X163500000Y-78450000D03*
X156232500Y-116855000D03*
X158772500Y-118125000D03*
X157502500Y-115585000D03*
X132080000Y-119380000D03*
X133350000Y-114300000D03*
X162175000Y-110875000D03*
X132080000Y-114300000D03*
X153692500Y-121935000D03*
X153692500Y-120665000D03*
X153692500Y-115585000D03*
X157502500Y-116855000D03*
X158772500Y-114315000D03*
X158772500Y-119395000D03*
X134620000Y-114300000D03*
X132080000Y-115570000D03*
X156232500Y-118125000D03*
X157502500Y-120665000D03*
X156232500Y-120665000D03*
X157502500Y-114315000D03*
X134620000Y-120650000D03*
X137160000Y-118110000D03*
X157502500Y-118125000D03*
X157502500Y-121935000D03*
X133350000Y-119380000D03*
X130810000Y-119380000D03*
X137160000Y-119380000D03*
X154962500Y-121935000D03*
X130810000Y-114300000D03*
X135890000Y-121920000D03*
X130810000Y-118110000D03*
X130810000Y-121920000D03*
X153692500Y-119395000D03*
X158772500Y-120665000D03*
X130810000Y-120650000D03*
X166370000Y-107950000D03*
X153692500Y-114315000D03*
X137160000Y-121920000D03*
X135890000Y-118110000D03*
X158772500Y-121935000D03*
X130810000Y-116840000D03*
X132080000Y-118110000D03*
X154962500Y-120665000D03*
X143075000Y-78600000D03*
X153692500Y-116855000D03*
X154962500Y-119395000D03*
X135890000Y-120650000D03*
X152422500Y-119395000D03*
X135890000Y-114300000D03*
X152422500Y-121935000D03*
X134620000Y-116840000D03*
X133350000Y-120650000D03*
X134620000Y-121920000D03*
X153692500Y-118125000D03*
X157502500Y-119395000D03*
X132080000Y-121920000D03*
X152422500Y-114315000D03*
X132080000Y-120650000D03*
X152422500Y-120665000D03*
X137160000Y-116840000D03*
X156232500Y-121935000D03*
X171450000Y-84575000D03*
X152422500Y-118125000D03*
X152422500Y-115585000D03*
X154962500Y-116855000D03*
X158772500Y-115585000D03*
X133350000Y-118110000D03*
X156232500Y-115585000D03*
X156232500Y-119395000D03*
X130810000Y-115570000D03*
X134620000Y-118110000D03*
X132080000Y-116840000D03*
X152422500Y-116855000D03*
X154962500Y-115585000D03*
X134620000Y-119380000D03*
X133350000Y-121920000D03*
X133350000Y-116840000D03*
X154962500Y-114315000D03*
%TO.N,VDD*%
X143052800Y-79959200D03*
X141478000Y-82854800D03*
%TO.N,Net-(J1-Pin_2)*%
X160172400Y-82346800D03*
%TO.N,Net-(J1-Pin_1)*%
X160172400Y-83667600D03*
%TO.N,/BOOT*%
X164185600Y-95123000D03*
%TO.N,/SCK*%
X164185600Y-88747600D03*
%TO.N,/MISO*%
X164160200Y-87452200D03*
%TO.N,/RST*%
X163900000Y-81125000D03*
%TD*%
D15*
%TO.N,Net-(J3-Pin_4)*%
X170475000Y-110075000D02*
X170475000Y-112639200D01*
X169925000Y-102525000D02*
X169925000Y-109525000D01*
X169925000Y-109525000D02*
X170475000Y-110075000D01*
X170475000Y-112639200D02*
X173990000Y-116154200D01*
%TO.N,GND*%
X173990000Y-111074200D02*
X171500800Y-111074200D01*
X171500800Y-111074200D02*
X171450000Y-111125000D01*
X171544600Y-84480400D02*
X171450000Y-84575000D01*
X162175000Y-110875000D02*
X162175000Y-108425000D01*
X162175000Y-108425000D02*
X161800000Y-108050000D01*
X173939200Y-84480400D02*
X171544600Y-84480400D01*
%TO.N,VDD*%
X173939200Y-79400400D02*
X143611600Y-79400400D01*
X143611600Y-79400400D02*
X143052800Y-79959200D01*
X143052800Y-79959200D02*
X143052800Y-81280000D01*
X143052800Y-81280000D02*
X141478000Y-82854800D01*
%TO.N,Net-(J1-Pin_2)*%
X160934400Y-85665600D02*
X151495600Y-95104400D01*
X160934400Y-83108800D02*
X160934400Y-85665600D01*
X151495600Y-95104400D02*
X151495600Y-105196800D01*
X160172400Y-82346800D02*
X160934400Y-83108800D01*
%TO.N,Net-(J1-Pin_1)*%
X160172400Y-83667600D02*
X160172400Y-85202600D01*
X160172400Y-85202600D02*
X148955600Y-96419400D01*
X148955600Y-96419400D02*
X148955600Y-105196800D01*
%TO.N,/BOOT*%
X164185600Y-95123000D02*
X155602000Y-95123000D01*
X154035600Y-96689400D02*
X154035600Y-105196800D01*
X155602000Y-95123000D02*
X154035600Y-96689400D01*
%TO.N,/SCK*%
X168022600Y-88747600D02*
X173915400Y-94640400D01*
X173915400Y-94640400D02*
X173939200Y-94640400D01*
X164185600Y-88747600D02*
X168022600Y-88747600D01*
%TO.N,/MISO*%
X168702200Y-87452200D02*
X170810400Y-89560400D01*
X164160200Y-87452200D02*
X168702200Y-87452200D01*
X170810400Y-89560400D02*
X173939200Y-89560400D01*
%TO.N,/RST*%
X163900000Y-81125000D02*
X165250000Y-81125000D01*
X166065400Y-81940400D02*
X173939200Y-81940400D01*
X165250000Y-81125000D02*
X166065400Y-81940400D01*
%TD*%
%TA.AperFunction,Conductor*%
%TO.N,GND*%
G36*
X176442439Y-77520285D02*
G01*
X176488194Y-77573089D01*
X176499400Y-77624600D01*
X176499400Y-126375500D01*
X176479715Y-126442539D01*
X176426911Y-126488294D01*
X176375400Y-126499500D01*
X127624500Y-126499500D01*
X127557461Y-126479815D01*
X127511706Y-126427011D01*
X127500500Y-126375500D01*
X127500500Y-124367171D01*
X129057000Y-124367171D01*
X129057001Y-124367187D01*
X129067494Y-124469897D01*
X129122641Y-124636319D01*
X129122643Y-124636324D01*
X129214684Y-124785545D01*
X129338654Y-124909515D01*
X129487875Y-125001556D01*
X129487880Y-125001558D01*
X129654302Y-125056705D01*
X129654309Y-125056706D01*
X129757019Y-125067199D01*
X131703446Y-125067199D01*
X131703447Y-125067198D01*
X132410552Y-125067198D01*
X132410553Y-125067199D01*
X144703446Y-125067199D01*
X144703446Y-125067198D01*
X138557000Y-118920753D01*
X132410552Y-125067198D01*
X131703447Y-125067198D01*
X138203445Y-118567200D01*
X138910553Y-118567200D01*
X145410552Y-125067199D01*
X147356972Y-125067199D01*
X147356986Y-125067198D01*
X147459697Y-125056705D01*
X147626119Y-125001558D01*
X147626124Y-125001556D01*
X147775345Y-124909515D01*
X147899315Y-124785545D01*
X147991356Y-124636324D01*
X147991358Y-124636319D01*
X148046505Y-124469897D01*
X148046506Y-124469890D01*
X148056999Y-124367186D01*
X148056999Y-124204371D01*
X150872700Y-124204371D01*
X150872701Y-124204387D01*
X150883194Y-124307097D01*
X150938341Y-124473519D01*
X150938343Y-124473524D01*
X151030384Y-124622745D01*
X151154354Y-124746715D01*
X151303575Y-124838756D01*
X151303580Y-124838758D01*
X151470002Y-124893905D01*
X151470009Y-124893906D01*
X151572719Y-124904399D01*
X153519146Y-124904399D01*
X153519147Y-124904398D01*
X154226252Y-124904398D01*
X154226253Y-124904399D01*
X166519146Y-124904399D01*
X166519146Y-124904398D01*
X160372700Y-118757953D01*
X154226252Y-124904398D01*
X153519147Y-124904398D01*
X160019147Y-118404400D01*
X160726253Y-118404400D01*
X167226252Y-124904399D01*
X169172672Y-124904399D01*
X169172686Y-124904398D01*
X169275397Y-124893905D01*
X169441819Y-124838758D01*
X169441824Y-124838756D01*
X169591045Y-124746715D01*
X169715015Y-124622745D01*
X169807056Y-124473524D01*
X169807058Y-124473519D01*
X169862205Y-124307097D01*
X169862206Y-124307090D01*
X169872699Y-124204386D01*
X169872699Y-113223680D01*
X169892384Y-113156641D01*
X169945188Y-113110886D01*
X170014346Y-113100942D01*
X170077902Y-113129967D01*
X170084380Y-113135999D01*
X172649164Y-115700783D01*
X172682649Y-115762106D01*
X172681258Y-115820556D01*
X172654939Y-115918783D01*
X172654936Y-115918796D01*
X172634341Y-116154199D01*
X172634341Y-116154200D01*
X172654936Y-116389603D01*
X172654938Y-116389613D01*
X172716094Y-116617855D01*
X172716096Y-116617859D01*
X172716097Y-116617863D01*
X172815965Y-116832030D01*
X172815967Y-116832034D01*
X172924281Y-116986721D01*
X172951505Y-117025601D01*
X173118599Y-117192695D01*
X173215384Y-117260465D01*
X173312165Y-117328232D01*
X173312167Y-117328233D01*
X173312170Y-117328235D01*
X173526337Y-117428103D01*
X173754592Y-117489263D01*
X173942918Y-117505739D01*
X173989999Y-117509859D01*
X173990000Y-117509859D01*
X173990001Y-117509859D01*
X174029234Y-117506426D01*
X174225408Y-117489263D01*
X174453663Y-117428103D01*
X174667830Y-117328235D01*
X174861401Y-117192695D01*
X175028495Y-117025601D01*
X175164035Y-116832030D01*
X175263903Y-116617863D01*
X175325063Y-116389608D01*
X175345659Y-116154200D01*
X175325063Y-115918792D01*
X175263903Y-115690537D01*
X175164035Y-115476371D01*
X175028495Y-115282799D01*
X175028494Y-115282797D01*
X174861402Y-115115706D01*
X174861396Y-115115701D01*
X174675842Y-114985775D01*
X174632217Y-114931198D01*
X174625023Y-114861700D01*
X174656546Y-114799345D01*
X174675842Y-114782625D01*
X174698026Y-114767091D01*
X174861401Y-114652695D01*
X175028495Y-114485601D01*
X175164035Y-114292030D01*
X175263903Y-114077863D01*
X175325063Y-113849608D01*
X175345659Y-113614200D01*
X175325063Y-113378792D01*
X175263903Y-113150537D01*
X175164035Y-112936371D01*
X175140658Y-112902984D01*
X175028494Y-112742797D01*
X174861402Y-112575706D01*
X174861401Y-112575705D01*
X174675405Y-112445469D01*
X174631781Y-112390892D01*
X174624588Y-112321393D01*
X174656110Y-112259039D01*
X174675405Y-112242319D01*
X174861082Y-112112305D01*
X175028105Y-111945282D01*
X175163600Y-111751778D01*
X175263429Y-111537692D01*
X175263432Y-111537686D01*
X175320636Y-111324200D01*
X174423012Y-111324200D01*
X174455925Y-111267193D01*
X174490000Y-111140026D01*
X174490000Y-111008374D01*
X174455925Y-110881207D01*
X174423012Y-110824200D01*
X175320636Y-110824200D01*
X175320635Y-110824199D01*
X175263432Y-110610713D01*
X175263429Y-110610707D01*
X175163600Y-110396622D01*
X175163599Y-110396620D01*
X175028113Y-110203126D01*
X175028108Y-110203120D01*
X174906053Y-110081065D01*
X174872568Y-110019742D01*
X174877552Y-109950050D01*
X174919424Y-109894117D01*
X174950400Y-109877202D01*
X175082331Y-109827996D01*
X175197546Y-109741746D01*
X175283796Y-109626531D01*
X175334091Y-109491683D01*
X175340500Y-109432073D01*
X175340499Y-107636328D01*
X175334091Y-107576717D01*
X175283796Y-107441869D01*
X175283795Y-107441868D01*
X175283793Y-107441864D01*
X175197547Y-107326655D01*
X175197544Y-107326652D01*
X175082335Y-107240406D01*
X175082328Y-107240402D01*
X174947482Y-107190108D01*
X174947483Y-107190108D01*
X174887883Y-107183701D01*
X174887881Y-107183700D01*
X174887873Y-107183700D01*
X174887864Y-107183700D01*
X173092129Y-107183700D01*
X173092123Y-107183701D01*
X173032516Y-107190108D01*
X172897671Y-107240402D01*
X172897664Y-107240406D01*
X172782455Y-107326652D01*
X172782452Y-107326655D01*
X172696206Y-107441864D01*
X172696202Y-107441871D01*
X172645908Y-107576717D01*
X172639501Y-107636316D01*
X172639501Y-107636323D01*
X172639500Y-107636335D01*
X172639500Y-109432070D01*
X172639501Y-109432076D01*
X172645908Y-109491683D01*
X172696202Y-109626528D01*
X172696206Y-109626535D01*
X172782452Y-109741744D01*
X172782455Y-109741747D01*
X172897664Y-109827993D01*
X172897671Y-109827997D01*
X172897674Y-109827998D01*
X173029598Y-109877202D01*
X173085531Y-109919073D01*
X173109949Y-109984537D01*
X173095098Y-110052810D01*
X173073947Y-110081065D01*
X172951886Y-110203126D01*
X172816400Y-110396620D01*
X172816399Y-110396622D01*
X172716570Y-110610707D01*
X172716567Y-110610713D01*
X172659364Y-110824199D01*
X172659364Y-110824200D01*
X173556988Y-110824200D01*
X173524075Y-110881207D01*
X173490000Y-111008374D01*
X173490000Y-111140026D01*
X173524075Y-111267193D01*
X173556988Y-111324200D01*
X172659364Y-111324200D01*
X172716567Y-111537686D01*
X172716570Y-111537692D01*
X172816399Y-111751778D01*
X172951894Y-111945282D01*
X173118917Y-112112305D01*
X173304595Y-112242319D01*
X173348219Y-112296896D01*
X173355412Y-112366395D01*
X173323890Y-112428749D01*
X173304595Y-112445469D01*
X173118594Y-112575708D01*
X172951505Y-112742797D01*
X172815965Y-112936369D01*
X172815964Y-112936371D01*
X172716098Y-113150535D01*
X172716094Y-113150544D01*
X172654938Y-113378786D01*
X172654936Y-113378796D01*
X172633869Y-113619594D01*
X172632086Y-113619438D01*
X172614656Y-113678799D01*
X172561852Y-113724554D01*
X172492694Y-113734498D01*
X172429138Y-113705473D01*
X172422660Y-113699441D01*
X171138819Y-112415600D01*
X171105334Y-112354277D01*
X171102500Y-112327919D01*
X171102500Y-110013194D01*
X171078386Y-109891970D01*
X171078385Y-109891969D01*
X171078385Y-109891965D01*
X171031083Y-109777767D01*
X170984490Y-109708035D01*
X170984490Y-109708034D01*
X170962409Y-109674988D01*
X170588819Y-109301398D01*
X170555334Y-109240075D01*
X170552500Y-109213717D01*
X170552500Y-103193071D01*
X170572185Y-103126032D01*
X170584350Y-103110099D01*
X170642077Y-103045987D01*
X170734726Y-102885513D01*
X170791987Y-102709284D01*
X170811356Y-102525000D01*
X170791987Y-102340716D01*
X170734726Y-102164487D01*
X170642077Y-102004013D01*
X170593514Y-101950078D01*
X170518093Y-101866313D01*
X170518090Y-101866311D01*
X170518089Y-101866310D01*
X170518088Y-101866309D01*
X170368178Y-101757393D01*
X170368177Y-101757392D01*
X170198904Y-101682026D01*
X170198896Y-101682024D01*
X170017649Y-101643500D01*
X169832351Y-101643500D01*
X169651103Y-101682024D01*
X169651095Y-101682026D01*
X169481822Y-101757392D01*
X169331909Y-101866311D01*
X169331906Y-101866313D01*
X169207922Y-102004014D01*
X169115274Y-102164485D01*
X169058014Y-102340711D01*
X169058013Y-102340713D01*
X169038644Y-102525000D01*
X169058013Y-102709286D01*
X169058014Y-102709288D01*
X169115274Y-102885514D01*
X169207921Y-103045985D01*
X169265650Y-103110099D01*
X169295880Y-103173090D01*
X169297500Y-103193071D01*
X169297500Y-109586807D01*
X169321612Y-109708028D01*
X169321615Y-109708038D01*
X169335578Y-109741747D01*
X169368915Y-109822229D01*
X169368920Y-109822239D01*
X169437588Y-109925007D01*
X169437591Y-109925011D01*
X169811181Y-110298600D01*
X169844666Y-110359923D01*
X169847500Y-110386281D01*
X169847500Y-112019177D01*
X169827815Y-112086216D01*
X169775011Y-112131971D01*
X169705853Y-112141915D01*
X169642297Y-112112890D01*
X169635819Y-112106858D01*
X169591045Y-112062084D01*
X169441824Y-111970043D01*
X169441819Y-111970041D01*
X169275397Y-111914894D01*
X169275390Y-111914893D01*
X169172686Y-111904400D01*
X167226251Y-111904400D01*
X160726253Y-118404399D01*
X160726253Y-118404400D01*
X160019147Y-118404400D01*
X153519147Y-111904400D01*
X154226252Y-111904400D01*
X160372699Y-118050847D01*
X166519146Y-111904400D01*
X154226252Y-111904400D01*
X153519147Y-111904400D01*
X151572728Y-111904400D01*
X151572712Y-111904401D01*
X151470002Y-111914894D01*
X151303580Y-111970041D01*
X151303575Y-111970043D01*
X151154354Y-112062084D01*
X151030384Y-112186054D01*
X150938343Y-112335275D01*
X150938341Y-112335280D01*
X150883194Y-112501702D01*
X150883193Y-112501709D01*
X150872700Y-112604413D01*
X150872700Y-124204371D01*
X148056999Y-124204371D01*
X148056999Y-112767228D01*
X148056998Y-112767212D01*
X148046505Y-112664502D01*
X147991358Y-112498080D01*
X147991356Y-112498075D01*
X147899315Y-112348854D01*
X147775345Y-112224884D01*
X147626124Y-112132843D01*
X147626119Y-112132841D01*
X147459697Y-112077694D01*
X147459690Y-112077693D01*
X147356986Y-112067200D01*
X145410551Y-112067200D01*
X138910553Y-118567199D01*
X138910553Y-118567200D01*
X138203445Y-118567200D01*
X138203446Y-118567199D01*
X131703447Y-112067200D01*
X132410552Y-112067200D01*
X138556999Y-118213647D01*
X144703446Y-112067200D01*
X132410552Y-112067200D01*
X131703447Y-112067200D01*
X129757028Y-112067200D01*
X129757012Y-112067201D01*
X129654302Y-112077694D01*
X129487880Y-112132841D01*
X129487875Y-112132843D01*
X129338654Y-112224884D01*
X129214684Y-112348854D01*
X129122643Y-112498075D01*
X129122641Y-112498080D01*
X129067494Y-112664502D01*
X129067493Y-112664509D01*
X129057000Y-112767213D01*
X129057000Y-124367171D01*
X127500500Y-124367171D01*
X127500500Y-106094670D01*
X147605100Y-106094670D01*
X147605101Y-106094676D01*
X147611508Y-106154283D01*
X147661802Y-106289128D01*
X147661806Y-106289135D01*
X147748052Y-106404344D01*
X147748055Y-106404347D01*
X147863264Y-106490593D01*
X147863271Y-106490597D01*
X147998117Y-106540891D01*
X147998116Y-106540891D01*
X148005044Y-106541635D01*
X148057727Y-106547300D01*
X149853472Y-106547299D01*
X149913083Y-106540891D01*
X150047931Y-106490596D01*
X150163146Y-106404346D01*
X150249396Y-106289131D01*
X150298410Y-106157716D01*
X150340281Y-106101784D01*
X150405745Y-106077366D01*
X150474018Y-106092217D01*
X150502273Y-106113369D01*
X150624199Y-106235295D01*
X150720984Y-106303065D01*
X150817765Y-106370832D01*
X150817767Y-106370833D01*
X150817770Y-106370835D01*
X151031937Y-106470703D01*
X151260192Y-106531863D01*
X151436634Y-106547300D01*
X151495599Y-106552459D01*
X151495600Y-106552459D01*
X151495601Y-106552459D01*
X151554566Y-106547300D01*
X151731008Y-106531863D01*
X151959263Y-106470703D01*
X152173430Y-106370835D01*
X152367001Y-106235295D01*
X152534095Y-106068201D01*
X152664025Y-105882642D01*
X152718602Y-105839017D01*
X152788100Y-105831823D01*
X152850455Y-105863346D01*
X152867175Y-105882642D01*
X152997100Y-106068195D01*
X152997105Y-106068201D01*
X153164199Y-106235295D01*
X153260984Y-106303065D01*
X153357765Y-106370832D01*
X153357767Y-106370833D01*
X153357770Y-106370835D01*
X153571937Y-106470703D01*
X153800192Y-106531863D01*
X153976634Y-106547300D01*
X154035599Y-106552459D01*
X154035600Y-106552459D01*
X154035601Y-106552459D01*
X154094566Y-106547300D01*
X154271008Y-106531863D01*
X154499263Y-106470703D01*
X154713430Y-106370835D01*
X154907001Y-106235295D01*
X155074095Y-106068201D01*
X155204025Y-105882642D01*
X155258602Y-105839017D01*
X155328100Y-105831823D01*
X155390455Y-105863346D01*
X155407175Y-105882642D01*
X155537100Y-106068195D01*
X155537105Y-106068201D01*
X155704199Y-106235295D01*
X155800984Y-106303065D01*
X155897765Y-106370832D01*
X155897767Y-106370833D01*
X155897770Y-106370835D01*
X156111937Y-106470703D01*
X156340192Y-106531863D01*
X156516634Y-106547300D01*
X156575599Y-106552459D01*
X156575600Y-106552459D01*
X156575601Y-106552459D01*
X156634566Y-106547300D01*
X156811008Y-106531863D01*
X157039263Y-106470703D01*
X157253430Y-106370835D01*
X157447001Y-106235295D01*
X157614095Y-106068201D01*
X157749635Y-105874630D01*
X157849503Y-105660463D01*
X157910663Y-105432208D01*
X157931259Y-105196800D01*
X157910663Y-104961392D01*
X157849503Y-104733137D01*
X157749635Y-104518971D01*
X157744025Y-104510958D01*
X157614094Y-104325397D01*
X157447002Y-104158306D01*
X157446995Y-104158301D01*
X157253434Y-104022767D01*
X157253430Y-104022765D01*
X157253428Y-104022764D01*
X157039263Y-103922897D01*
X157039259Y-103922896D01*
X157039255Y-103922894D01*
X156811013Y-103861738D01*
X156811003Y-103861736D01*
X156575601Y-103841141D01*
X156575599Y-103841141D01*
X156340196Y-103861736D01*
X156340186Y-103861738D01*
X156111944Y-103922894D01*
X156111935Y-103922898D01*
X155897771Y-104022764D01*
X155897769Y-104022765D01*
X155704197Y-104158305D01*
X155537105Y-104325397D01*
X155407175Y-104510958D01*
X155352598Y-104554583D01*
X155283100Y-104561777D01*
X155220745Y-104530254D01*
X155204025Y-104510958D01*
X155074094Y-104325397D01*
X154907002Y-104158306D01*
X154907001Y-104158305D01*
X154715976Y-104024548D01*
X154672352Y-103969971D01*
X154663100Y-103922973D01*
X154663100Y-97000681D01*
X154682785Y-96933642D01*
X154699419Y-96913000D01*
X155825600Y-95786819D01*
X155886923Y-95753334D01*
X155913281Y-95750500D01*
X163510272Y-95750500D01*
X163577311Y-95770185D01*
X163589783Y-95779708D01*
X163742422Y-95890607D01*
X163911695Y-95965973D01*
X163911698Y-95965973D01*
X163911701Y-95965975D01*
X164092951Y-96004500D01*
X164278249Y-96004500D01*
X164459499Y-95965975D01*
X164459502Y-95965973D01*
X164459504Y-95965973D01*
X164516522Y-95940586D01*
X164628778Y-95890607D01*
X164778688Y-95781691D01*
X164780474Y-95779708D01*
X164806772Y-95750500D01*
X164902677Y-95643987D01*
X164995326Y-95483513D01*
X165052587Y-95307284D01*
X165071956Y-95123000D01*
X165052587Y-94938716D01*
X164995326Y-94762487D01*
X164902677Y-94602013D01*
X164828484Y-94519613D01*
X164778693Y-94464313D01*
X164778690Y-94464311D01*
X164778689Y-94464310D01*
X164778688Y-94464309D01*
X164628778Y-94355393D01*
X164628777Y-94355392D01*
X164459504Y-94280026D01*
X164459496Y-94280024D01*
X164278249Y-94241500D01*
X164092951Y-94241500D01*
X163911703Y-94280024D01*
X163911695Y-94280026D01*
X163742422Y-94355392D01*
X163674149Y-94404996D01*
X163592512Y-94464309D01*
X163592510Y-94464310D01*
X163587255Y-94468129D01*
X163586390Y-94466938D01*
X163530253Y-94493880D01*
X163510272Y-94495500D01*
X155540195Y-94495500D01*
X155418970Y-94519613D01*
X155418960Y-94519616D01*
X155304773Y-94566913D01*
X155304761Y-94566920D01*
X155229829Y-94616989D01*
X155229828Y-94616990D01*
X155201989Y-94635590D01*
X155201988Y-94635591D01*
X154023146Y-95814435D01*
X153635592Y-96201989D01*
X153601219Y-96236362D01*
X153548186Y-96289394D01*
X153548185Y-96289396D01*
X153478833Y-96393189D01*
X153477186Y-96397793D01*
X153432214Y-96506364D01*
X153432214Y-96506365D01*
X153413105Y-96602435D01*
X153413105Y-96602437D01*
X153408100Y-96627596D01*
X153408100Y-103922973D01*
X153388415Y-103990012D01*
X153355224Y-104024548D01*
X153164194Y-104158308D01*
X152997105Y-104325397D01*
X152867175Y-104510958D01*
X152812598Y-104554583D01*
X152743100Y-104561777D01*
X152680745Y-104530254D01*
X152664025Y-104510958D01*
X152534094Y-104325397D01*
X152367002Y-104158306D01*
X152367001Y-104158305D01*
X152175976Y-104024548D01*
X152132352Y-103969971D01*
X152123100Y-103922973D01*
X152123100Y-95415681D01*
X152142785Y-95348642D01*
X152159419Y-95328000D01*
X161421809Y-86065610D01*
X161421811Y-86065608D01*
X161452352Y-86019900D01*
X161490483Y-85962833D01*
X161504337Y-85929384D01*
X161537786Y-85848635D01*
X161561900Y-85727403D01*
X161561900Y-85603797D01*
X161561900Y-83046997D01*
X161553644Y-83005491D01*
X161537786Y-82925766D01*
X161508391Y-82854800D01*
X161490483Y-82811567D01*
X161490481Y-82811564D01*
X161490479Y-82811560D01*
X161421812Y-82708793D01*
X161383530Y-82670511D01*
X161334408Y-82621389D01*
X161089680Y-82376661D01*
X161056195Y-82315338D01*
X161054042Y-82301959D01*
X161039387Y-82162516D01*
X160982126Y-81986287D01*
X160971552Y-81967973D01*
X160928040Y-81892607D01*
X160889477Y-81825813D01*
X160840914Y-81771878D01*
X160765493Y-81688113D01*
X160765490Y-81688111D01*
X160765489Y-81688110D01*
X160765488Y-81688109D01*
X160615578Y-81579193D01*
X160615577Y-81579192D01*
X160446304Y-81503826D01*
X160446296Y-81503824D01*
X160265049Y-81465300D01*
X160079751Y-81465300D01*
X159898503Y-81503824D01*
X159898495Y-81503826D01*
X159729222Y-81579192D01*
X159579309Y-81688111D01*
X159579306Y-81688113D01*
X159455322Y-81825814D01*
X159362674Y-81986285D01*
X159305414Y-82162511D01*
X159305413Y-82162513D01*
X159286044Y-82346800D01*
X159305413Y-82531086D01*
X159305414Y-82531088D01*
X159362674Y-82707314D01*
X159436418Y-82835042D01*
X159455323Y-82867787D01*
X159506143Y-82924228D01*
X159536372Y-82987220D01*
X159527746Y-83056555D01*
X159506143Y-83090170D01*
X159455323Y-83146613D01*
X159455321Y-83146614D01*
X159455320Y-83146617D01*
X159362674Y-83307085D01*
X159305414Y-83483311D01*
X159305413Y-83483313D01*
X159286044Y-83667600D01*
X159305413Y-83851886D01*
X159305414Y-83851888D01*
X159362674Y-84028114D01*
X159455321Y-84188585D01*
X159513050Y-84252699D01*
X159543280Y-84315690D01*
X159544900Y-84335671D01*
X159544900Y-84891319D01*
X159525215Y-84958358D01*
X159508581Y-84979000D01*
X148555592Y-95931989D01*
X148530183Y-95957398D01*
X148468186Y-96019394D01*
X148468185Y-96019396D01*
X148398833Y-96123189D01*
X148397186Y-96127793D01*
X148352215Y-96236362D01*
X148352212Y-96236372D01*
X148337766Y-96309000D01*
X148337766Y-96309001D01*
X148328100Y-96357594D01*
X148328100Y-103722300D01*
X148308415Y-103789339D01*
X148255611Y-103835094D01*
X148204101Y-103846300D01*
X148057730Y-103846300D01*
X148057723Y-103846301D01*
X147998116Y-103852708D01*
X147863271Y-103903002D01*
X147863264Y-103903006D01*
X147748055Y-103989252D01*
X147748052Y-103989255D01*
X147661806Y-104104464D01*
X147661802Y-104104471D01*
X147611508Y-104239317D01*
X147605101Y-104298916D01*
X147605100Y-104298935D01*
X147605100Y-106094670D01*
X127500500Y-106094670D01*
X127500500Y-88093061D01*
X151699592Y-88093061D01*
X151713392Y-88101733D01*
X151713391Y-88101733D01*
X151883561Y-88161278D01*
X152062697Y-88181462D01*
X152062703Y-88181462D01*
X152241838Y-88161278D01*
X152241841Y-88161277D01*
X152412005Y-88101734D01*
X152412006Y-88101734D01*
X152425806Y-88093061D01*
X153224592Y-88093061D01*
X153238392Y-88101733D01*
X153238391Y-88101733D01*
X153408561Y-88161278D01*
X153587697Y-88181462D01*
X153587703Y-88181462D01*
X153766838Y-88161278D01*
X153766841Y-88161277D01*
X153937005Y-88101734D01*
X153937006Y-88101734D01*
X153950806Y-88093061D01*
X153950806Y-88093060D01*
X153587701Y-87729953D01*
X153587700Y-87729953D01*
X153224592Y-88093060D01*
X153224592Y-88093061D01*
X152425806Y-88093061D01*
X152425806Y-88093060D01*
X152062701Y-87729953D01*
X152062700Y-87729953D01*
X151699592Y-88093060D01*
X151699592Y-88093061D01*
X127500500Y-88093061D01*
X127500500Y-87330561D01*
X150937092Y-87330561D01*
X150950892Y-87339233D01*
X150950891Y-87339233D01*
X151121061Y-87398778D01*
X151163682Y-87403580D01*
X151228096Y-87430646D01*
X151267651Y-87488240D01*
X151273019Y-87512915D01*
X151277821Y-87555538D01*
X151337365Y-87725704D01*
X151346038Y-87739507D01*
X151689255Y-87396291D01*
X151962700Y-87396291D01*
X151977924Y-87433045D01*
X152006055Y-87461176D01*
X152042809Y-87476400D01*
X152082591Y-87476400D01*
X152119345Y-87461176D01*
X152147476Y-87433045D01*
X152162700Y-87396291D01*
X152162700Y-87376400D01*
X152416253Y-87376400D01*
X152779360Y-87739506D01*
X152811322Y-87735906D01*
X152839085Y-87735907D01*
X152871038Y-87739507D01*
X153214255Y-87396291D01*
X153487700Y-87396291D01*
X153502924Y-87433045D01*
X153531055Y-87461176D01*
X153567809Y-87476400D01*
X153607591Y-87476400D01*
X153644345Y-87461176D01*
X153672476Y-87433045D01*
X153687700Y-87396291D01*
X153687700Y-87376399D01*
X153941254Y-87376399D01*
X154304360Y-87739506D01*
X154304361Y-87739506D01*
X154313034Y-87725706D01*
X154313034Y-87725705D01*
X154372578Y-87555539D01*
X154377380Y-87512918D01*
X154404446Y-87448503D01*
X154462040Y-87408948D01*
X154486718Y-87403580D01*
X154529339Y-87398778D01*
X154699505Y-87339234D01*
X154699506Y-87339234D01*
X154713306Y-87330561D01*
X154713306Y-87330560D01*
X154350200Y-86967453D01*
X154297255Y-87020399D01*
X154297254Y-87020400D01*
X153941254Y-87376399D01*
X153687700Y-87376399D01*
X153687700Y-87356509D01*
X153672476Y-87319755D01*
X153644345Y-87291624D01*
X153607591Y-87276400D01*
X153567809Y-87276400D01*
X153531055Y-87291624D01*
X153502924Y-87319755D01*
X153487700Y-87356509D01*
X153487700Y-87396291D01*
X153214255Y-87396291D01*
X153234146Y-87376400D01*
X152878145Y-87020399D01*
X152825200Y-86967453D01*
X152772255Y-87020399D01*
X152772254Y-87020400D01*
X152416253Y-87376400D01*
X152162700Y-87376400D01*
X152162700Y-87356509D01*
X152147476Y-87319755D01*
X152119345Y-87291624D01*
X152082591Y-87276400D01*
X152042809Y-87276400D01*
X152006055Y-87291624D01*
X151977924Y-87319755D01*
X151962700Y-87356509D01*
X151962700Y-87396291D01*
X151689255Y-87396291D01*
X151709146Y-87376400D01*
X151300199Y-86967453D01*
X151300198Y-86967453D01*
X150937092Y-87330560D01*
X150937092Y-87330561D01*
X127500500Y-87330561D01*
X127500500Y-86613902D01*
X150495138Y-86613902D01*
X150515321Y-86793038D01*
X150574865Y-86963204D01*
X150583538Y-86977007D01*
X150926755Y-86633791D01*
X151200200Y-86633791D01*
X151215424Y-86670545D01*
X151243555Y-86698676D01*
X151280309Y-86713900D01*
X151320091Y-86713900D01*
X151356845Y-86698676D01*
X151384976Y-86670545D01*
X151400200Y-86633791D01*
X151400200Y-86613899D01*
X151653753Y-86613899D01*
X152062700Y-87022846D01*
X152451755Y-86633791D01*
X152725200Y-86633791D01*
X152740424Y-86670545D01*
X152768555Y-86698676D01*
X152805309Y-86713900D01*
X152845091Y-86713900D01*
X152881845Y-86698676D01*
X152909976Y-86670545D01*
X152925200Y-86633791D01*
X152925200Y-86613899D01*
X153178753Y-86613899D01*
X153587700Y-87022846D01*
X153976755Y-86633791D01*
X154250200Y-86633791D01*
X154265424Y-86670545D01*
X154293555Y-86698676D01*
X154330309Y-86713900D01*
X154370091Y-86713900D01*
X154406845Y-86698676D01*
X154434976Y-86670545D01*
X154450200Y-86633791D01*
X154450200Y-86613900D01*
X154703753Y-86613900D01*
X155066860Y-86977006D01*
X155066861Y-86977006D01*
X155075534Y-86963206D01*
X155075534Y-86963205D01*
X155135077Y-86793041D01*
X155135078Y-86793038D01*
X155155262Y-86613902D01*
X155155262Y-86613897D01*
X155135078Y-86434761D01*
X155075533Y-86264592D01*
X155066861Y-86250792D01*
X155066860Y-86250792D01*
X154703753Y-86613900D01*
X154450200Y-86613900D01*
X154450200Y-86594009D01*
X154434976Y-86557255D01*
X154406845Y-86529124D01*
X154370091Y-86513900D01*
X154330309Y-86513900D01*
X154293555Y-86529124D01*
X154265424Y-86557255D01*
X154250200Y-86594009D01*
X154250200Y-86633791D01*
X153976755Y-86633791D01*
X153996646Y-86613900D01*
X153643092Y-86260346D01*
X153587700Y-86204953D01*
X153532308Y-86260346D01*
X153532307Y-86260347D01*
X153178753Y-86613899D01*
X152925200Y-86613899D01*
X152925200Y-86594009D01*
X152909976Y-86557255D01*
X152881845Y-86529124D01*
X152845091Y-86513900D01*
X152805309Y-86513900D01*
X152768555Y-86529124D01*
X152740424Y-86557255D01*
X152725200Y-86594009D01*
X152725200Y-86633791D01*
X152451755Y-86633791D01*
X152471646Y-86613900D01*
X152118092Y-86260346D01*
X152062700Y-86204953D01*
X152007308Y-86260346D01*
X152007307Y-86260347D01*
X151653753Y-86613899D01*
X151400200Y-86613899D01*
X151400200Y-86594009D01*
X151384976Y-86557255D01*
X151356845Y-86529124D01*
X151320091Y-86513900D01*
X151280309Y-86513900D01*
X151243555Y-86529124D01*
X151215424Y-86557255D01*
X151200200Y-86594009D01*
X151200200Y-86633791D01*
X150926755Y-86633791D01*
X150946646Y-86613900D01*
X150946646Y-86613899D01*
X150583538Y-86250791D01*
X150583537Y-86250791D01*
X150574867Y-86264591D01*
X150574862Y-86264601D01*
X150515322Y-86434758D01*
X150515321Y-86434761D01*
X150495138Y-86613897D01*
X150495138Y-86613902D01*
X127500500Y-86613902D01*
X127500500Y-85897238D01*
X150937091Y-85897238D01*
X151300198Y-86260346D01*
X151300199Y-86260346D01*
X151671982Y-85888564D01*
X151689255Y-85871291D01*
X151962700Y-85871291D01*
X151977924Y-85908045D01*
X152006055Y-85936176D01*
X152042809Y-85951400D01*
X152082591Y-85951400D01*
X152119345Y-85936176D01*
X152147476Y-85908045D01*
X152162700Y-85871291D01*
X152162700Y-85851400D01*
X152416253Y-85851400D01*
X152453417Y-85888563D01*
X152825200Y-86260346D01*
X153214255Y-85871291D01*
X153487700Y-85871291D01*
X153502924Y-85908045D01*
X153531055Y-85936176D01*
X153567809Y-85951400D01*
X153607591Y-85951400D01*
X153644345Y-85936176D01*
X153672476Y-85908045D01*
X153687700Y-85871291D01*
X153687700Y-85851400D01*
X153941253Y-85851400D01*
X153978417Y-85888563D01*
X154350200Y-86260346D01*
X154350201Y-86260346D01*
X154713307Y-85897238D01*
X154709707Y-85865285D01*
X154709706Y-85837522D01*
X154713306Y-85805560D01*
X154350200Y-85442453D01*
X154294808Y-85497846D01*
X154294807Y-85497847D01*
X153941253Y-85851400D01*
X153687700Y-85851400D01*
X153687700Y-85831509D01*
X153672476Y-85794755D01*
X153644345Y-85766624D01*
X153607591Y-85751400D01*
X153567809Y-85751400D01*
X153531055Y-85766624D01*
X153502924Y-85794755D01*
X153487700Y-85831509D01*
X153487700Y-85871291D01*
X153214255Y-85871291D01*
X153234146Y-85851400D01*
X152880592Y-85497846D01*
X152825200Y-85442453D01*
X152769808Y-85497846D01*
X152769807Y-85497847D01*
X152416253Y-85851400D01*
X152162700Y-85851400D01*
X152162700Y-85831509D01*
X152147476Y-85794755D01*
X152119345Y-85766624D01*
X152082591Y-85751400D01*
X152042809Y-85751400D01*
X152006055Y-85766624D01*
X151977924Y-85794755D01*
X151962700Y-85831509D01*
X151962700Y-85871291D01*
X151689255Y-85871291D01*
X151709146Y-85851400D01*
X151300199Y-85442453D01*
X151300198Y-85442453D01*
X150937092Y-85805560D01*
X150940693Y-85837519D01*
X150940692Y-85865284D01*
X150937091Y-85897238D01*
X127500500Y-85897238D01*
X127500500Y-85088902D01*
X150495138Y-85088902D01*
X150515321Y-85268038D01*
X150574865Y-85438204D01*
X150583538Y-85452007D01*
X150926755Y-85108791D01*
X151200200Y-85108791D01*
X151215424Y-85145545D01*
X151243555Y-85173676D01*
X151280309Y-85188900D01*
X151320091Y-85188900D01*
X151356845Y-85173676D01*
X151384976Y-85145545D01*
X151400200Y-85108791D01*
X151400200Y-85088899D01*
X151653753Y-85088899D01*
X152062700Y-85497846D01*
X152451755Y-85108791D01*
X152725200Y-85108791D01*
X152740424Y-85145545D01*
X152768555Y-85173676D01*
X152805309Y-85188900D01*
X152845091Y-85188900D01*
X152881845Y-85173676D01*
X152909976Y-85145545D01*
X152925200Y-85108791D01*
X152925200Y-85088899D01*
X153178753Y-85088899D01*
X153587700Y-85497846D01*
X153976755Y-85108791D01*
X154250200Y-85108791D01*
X154265424Y-85145545D01*
X154293555Y-85173676D01*
X154330309Y-85188900D01*
X154370091Y-85188900D01*
X154406845Y-85173676D01*
X154434976Y-85145545D01*
X154450200Y-85108791D01*
X154450200Y-85088900D01*
X154703753Y-85088900D01*
X155066860Y-85452006D01*
X155066861Y-85452006D01*
X155075534Y-85438206D01*
X155075534Y-85438205D01*
X155135077Y-85268041D01*
X155135078Y-85268038D01*
X155155262Y-85088902D01*
X155155262Y-85088897D01*
X155135078Y-84909761D01*
X155075533Y-84739592D01*
X155066861Y-84725792D01*
X155066860Y-84725792D01*
X154703753Y-85088900D01*
X154450200Y-85088900D01*
X154450200Y-85069009D01*
X154434976Y-85032255D01*
X154406845Y-85004124D01*
X154370091Y-84988900D01*
X154330309Y-84988900D01*
X154293555Y-85004124D01*
X154265424Y-85032255D01*
X154250200Y-85069009D01*
X154250200Y-85108791D01*
X153976755Y-85108791D01*
X153996646Y-85088900D01*
X153623466Y-84715720D01*
X153587700Y-84679953D01*
X153551934Y-84715720D01*
X153551933Y-84715721D01*
X153178753Y-85088899D01*
X152925200Y-85088899D01*
X152925200Y-85069009D01*
X152909976Y-85032255D01*
X152881845Y-85004124D01*
X152845091Y-84988900D01*
X152805309Y-84988900D01*
X152768555Y-85004124D01*
X152740424Y-85032255D01*
X152725200Y-85069009D01*
X152725200Y-85108791D01*
X152451755Y-85108791D01*
X152471646Y-85088900D01*
X152098466Y-84715720D01*
X152062700Y-84679953D01*
X152026934Y-84715720D01*
X152026933Y-84715721D01*
X151653753Y-85088899D01*
X151400200Y-85088899D01*
X151400200Y-85069009D01*
X151384976Y-85032255D01*
X151356845Y-85004124D01*
X151320091Y-84988900D01*
X151280309Y-84988900D01*
X151243555Y-85004124D01*
X151215424Y-85032255D01*
X151200200Y-85069009D01*
X151200200Y-85108791D01*
X150926755Y-85108791D01*
X150946646Y-85088900D01*
X150946646Y-85088899D01*
X150583538Y-84725791D01*
X150583537Y-84725791D01*
X150574867Y-84739591D01*
X150574862Y-84739601D01*
X150515322Y-84909758D01*
X150515321Y-84909761D01*
X150495138Y-85088897D01*
X150495138Y-85088902D01*
X127500500Y-85088902D01*
X127500500Y-84372238D01*
X150937091Y-84372238D01*
X151300198Y-84735346D01*
X151300199Y-84735346D01*
X151671983Y-84363564D01*
X151689255Y-84346291D01*
X151962700Y-84346291D01*
X151977924Y-84383045D01*
X152006055Y-84411176D01*
X152042809Y-84426400D01*
X152082591Y-84426400D01*
X152119345Y-84411176D01*
X152147476Y-84383045D01*
X152162700Y-84346291D01*
X152162700Y-84326399D01*
X152416253Y-84326399D01*
X152825200Y-84735346D01*
X153196983Y-84363564D01*
X153214255Y-84346291D01*
X153487700Y-84346291D01*
X153502924Y-84383045D01*
X153531055Y-84411176D01*
X153567809Y-84426400D01*
X153607591Y-84426400D01*
X153644345Y-84411176D01*
X153672476Y-84383045D01*
X153687700Y-84346291D01*
X153687700Y-84326399D01*
X153941253Y-84326399D01*
X154350200Y-84735346D01*
X154350201Y-84735346D01*
X154713307Y-84372238D01*
X154699504Y-84363565D01*
X154529338Y-84304021D01*
X154486715Y-84299219D01*
X154422302Y-84272152D01*
X154382747Y-84214557D01*
X154377380Y-84189882D01*
X154372578Y-84147261D01*
X154313033Y-83977092D01*
X154304361Y-83963292D01*
X154304360Y-83963292D01*
X153941253Y-84326398D01*
X153941253Y-84326399D01*
X153687700Y-84326399D01*
X153687700Y-84306509D01*
X153672476Y-84269755D01*
X153644345Y-84241624D01*
X153607591Y-84226400D01*
X153567809Y-84226400D01*
X153531055Y-84241624D01*
X153502924Y-84269755D01*
X153487700Y-84306509D01*
X153487700Y-84346291D01*
X153214255Y-84346291D01*
X153234146Y-84326399D01*
X153234146Y-84326398D01*
X152871037Y-83963290D01*
X152839085Y-83966891D01*
X152811322Y-83966892D01*
X152779360Y-83963291D01*
X152416253Y-84326398D01*
X152416253Y-84326399D01*
X152162700Y-84326399D01*
X152162700Y-84306509D01*
X152147476Y-84269755D01*
X152119345Y-84241624D01*
X152082591Y-84226400D01*
X152042809Y-84226400D01*
X152006055Y-84241624D01*
X151977924Y-84269755D01*
X151962700Y-84306509D01*
X151962700Y-84346291D01*
X151689255Y-84346291D01*
X151709146Y-84326399D01*
X151709146Y-84326398D01*
X151346038Y-83963291D01*
X151346037Y-83963291D01*
X151337367Y-83977091D01*
X151337362Y-83977101D01*
X151277822Y-84147258D01*
X151273019Y-84189884D01*
X151245952Y-84254298D01*
X151188356Y-84293852D01*
X151163684Y-84299219D01*
X151121058Y-84304022D01*
X150950901Y-84363562D01*
X150950894Y-84363566D01*
X150937091Y-84372237D01*
X150937091Y-84372238D01*
X127500500Y-84372238D01*
X127500500Y-82854800D01*
X140591644Y-82854800D01*
X140593009Y-82867787D01*
X140611013Y-83039086D01*
X140611014Y-83039088D01*
X140668274Y-83215314D01*
X140692747Y-83257702D01*
X140760923Y-83375787D01*
X140804112Y-83423754D01*
X140884906Y-83513486D01*
X140884909Y-83513488D01*
X140884912Y-83513491D01*
X141005443Y-83601062D01*
X141034822Y-83622407D01*
X141204095Y-83697773D01*
X141204098Y-83697773D01*
X141204101Y-83697775D01*
X141385351Y-83736300D01*
X141570649Y-83736300D01*
X141751899Y-83697775D01*
X141751902Y-83697773D01*
X141751904Y-83697773D01*
X141819673Y-83667600D01*
X141921178Y-83622407D01*
X141938615Y-83609738D01*
X151699591Y-83609738D01*
X152062700Y-83972846D01*
X152062701Y-83972846D01*
X152425807Y-83609738D01*
X153224591Y-83609738D01*
X153587700Y-83972846D01*
X153587701Y-83972846D01*
X153950807Y-83609738D01*
X153937004Y-83601065D01*
X153766838Y-83541521D01*
X153587703Y-83521338D01*
X153587697Y-83521338D01*
X153408561Y-83541521D01*
X153408558Y-83541522D01*
X153238401Y-83601062D01*
X153238391Y-83601067D01*
X153224591Y-83609737D01*
X153224591Y-83609738D01*
X152425807Y-83609738D01*
X152412004Y-83601065D01*
X152241838Y-83541521D01*
X152062703Y-83521338D01*
X152062697Y-83521338D01*
X151883561Y-83541521D01*
X151883558Y-83541522D01*
X151713401Y-83601062D01*
X151713391Y-83601067D01*
X151699591Y-83609737D01*
X151699591Y-83609738D01*
X141938615Y-83609738D01*
X142071088Y-83513491D01*
X142195077Y-83375787D01*
X142287726Y-83215313D01*
X142344987Y-83039084D01*
X142359641Y-82899653D01*
X142386224Y-82835042D01*
X142395271Y-82824946D01*
X143540211Y-81680008D01*
X143556386Y-81655800D01*
X143608883Y-81577233D01*
X143630515Y-81525008D01*
X143656186Y-81463034D01*
X143680300Y-81341803D01*
X143680300Y-81218196D01*
X143680300Y-80627271D01*
X143699985Y-80560232D01*
X143712150Y-80544299D01*
X143769877Y-80480187D01*
X143862526Y-80319713D01*
X143919787Y-80143484D01*
X143920265Y-80138935D01*
X143946849Y-80074324D01*
X144004146Y-80034339D01*
X144043585Y-80027900D01*
X163641887Y-80027900D01*
X163708926Y-80047585D01*
X163754681Y-80100389D01*
X163764625Y-80169547D01*
X163735600Y-80233103D01*
X163676822Y-80270877D01*
X163667667Y-80273190D01*
X163626103Y-80282024D01*
X163626095Y-80282026D01*
X163456822Y-80357392D01*
X163306909Y-80466311D01*
X163306906Y-80466313D01*
X163182922Y-80604014D01*
X163090274Y-80764485D01*
X163033014Y-80940711D01*
X163033013Y-80940713D01*
X163013644Y-81125000D01*
X163033013Y-81309286D01*
X163033014Y-81309288D01*
X163090274Y-81485514D01*
X163113076Y-81525008D01*
X163182923Y-81645987D01*
X163213556Y-81680008D01*
X163306906Y-81783686D01*
X163306909Y-81783688D01*
X163306912Y-81783691D01*
X163456822Y-81892607D01*
X163626095Y-81967973D01*
X163626098Y-81967973D01*
X163626101Y-81967975D01*
X163807351Y-82006500D01*
X163992649Y-82006500D01*
X164173899Y-81967975D01*
X164173902Y-81967973D01*
X164173904Y-81967973D01*
X164235836Y-81940399D01*
X164343178Y-81892607D01*
X164493088Y-81783691D01*
X164493091Y-81783688D01*
X164498345Y-81779871D01*
X164499209Y-81781061D01*
X164555347Y-81754120D01*
X164575328Y-81752500D01*
X164938719Y-81752500D01*
X165005758Y-81772185D01*
X165026400Y-81788819D01*
X165577989Y-82340408D01*
X165641636Y-82404055D01*
X165665394Y-82427813D01*
X165665396Y-82427814D01*
X165768156Y-82496476D01*
X165768158Y-82496477D01*
X165768167Y-82496483D01*
X165789729Y-82505414D01*
X165789730Y-82505415D01*
X165789731Y-82505415D01*
X165882366Y-82543786D01*
X166003592Y-82567899D01*
X166003596Y-82567900D01*
X166003597Y-82567900D01*
X166127203Y-82567900D01*
X172665373Y-82567900D01*
X172732412Y-82587585D01*
X172766948Y-82620776D01*
X172900705Y-82811801D01*
X173067797Y-82978893D01*
X173067803Y-82978898D01*
X173253794Y-83109130D01*
X173297419Y-83163707D01*
X173304613Y-83233205D01*
X173273090Y-83295560D01*
X173253795Y-83312280D01*
X173068122Y-83442290D01*
X173068120Y-83442291D01*
X172901091Y-83609320D01*
X172901086Y-83609326D01*
X172765600Y-83802820D01*
X172765599Y-83802822D01*
X172665770Y-84016907D01*
X172665767Y-84016913D01*
X172608564Y-84230399D01*
X172608564Y-84230400D01*
X173506188Y-84230400D01*
X173473275Y-84287407D01*
X173439200Y-84414574D01*
X173439200Y-84546226D01*
X173473275Y-84673393D01*
X173506188Y-84730400D01*
X172608564Y-84730400D01*
X172665767Y-84943886D01*
X172665770Y-84943892D01*
X172765599Y-85157978D01*
X172901094Y-85351482D01*
X173068117Y-85518505D01*
X173253795Y-85648519D01*
X173297419Y-85703096D01*
X173304612Y-85772595D01*
X173273090Y-85834949D01*
X173253795Y-85851669D01*
X173067794Y-85981908D01*
X172900705Y-86148997D01*
X172765165Y-86342569D01*
X172765164Y-86342571D01*
X172665298Y-86556735D01*
X172665294Y-86556744D01*
X172604138Y-86784986D01*
X172604136Y-86784996D01*
X172583541Y-87020399D01*
X172604136Y-87255803D01*
X172604138Y-87255813D01*
X172665294Y-87484055D01*
X172665296Y-87484059D01*
X172665297Y-87484063D01*
X172698627Y-87555539D01*
X172765165Y-87698230D01*
X172765167Y-87698234D01*
X172900701Y-87891795D01*
X172900706Y-87891802D01*
X173067797Y-88058893D01*
X173067803Y-88058898D01*
X173253358Y-88188825D01*
X173296983Y-88243402D01*
X173304177Y-88312900D01*
X173272654Y-88375255D01*
X173253358Y-88391975D01*
X173067797Y-88521905D01*
X172900705Y-88688997D01*
X172766949Y-88880023D01*
X172712372Y-88923648D01*
X172665374Y-88932900D01*
X171121681Y-88932900D01*
X171054642Y-88913215D01*
X171034000Y-88896581D01*
X169102211Y-86964791D01*
X169102203Y-86964785D01*
X168999443Y-86896123D01*
X168999429Y-86896115D01*
X168958934Y-86879342D01*
X168958932Y-86879341D01*
X168885235Y-86848814D01*
X168885227Y-86848812D01*
X168764007Y-86824700D01*
X168764003Y-86824700D01*
X164835528Y-86824700D01*
X164768489Y-86805015D01*
X164756016Y-86795491D01*
X164603377Y-86684592D01*
X164434104Y-86609226D01*
X164434096Y-86609224D01*
X164252849Y-86570700D01*
X164067551Y-86570700D01*
X163886303Y-86609224D01*
X163886295Y-86609226D01*
X163717022Y-86684592D01*
X163567109Y-86793511D01*
X163567106Y-86793513D01*
X163443122Y-86931214D01*
X163350474Y-87091685D01*
X163293214Y-87267911D01*
X163293213Y-87267913D01*
X163273844Y-87452200D01*
X163293213Y-87636486D01*
X163293214Y-87636488D01*
X163350474Y-87812714D01*
X163423543Y-87939274D01*
X163443123Y-87973187D01*
X163495207Y-88031032D01*
X163525437Y-88094023D01*
X163516812Y-88163359D01*
X163495209Y-88196974D01*
X163468526Y-88226608D01*
X163468521Y-88226615D01*
X163375874Y-88387085D01*
X163318614Y-88563311D01*
X163318613Y-88563313D01*
X163299244Y-88747600D01*
X163318613Y-88931886D01*
X163318614Y-88931888D01*
X163375874Y-89108114D01*
X163448943Y-89234674D01*
X163468523Y-89268587D01*
X163511712Y-89316554D01*
X163592506Y-89406286D01*
X163592509Y-89406288D01*
X163592512Y-89406291D01*
X163742422Y-89515207D01*
X163911695Y-89590573D01*
X163911698Y-89590573D01*
X163911701Y-89590575D01*
X164092951Y-89629100D01*
X164278249Y-89629100D01*
X164459499Y-89590575D01*
X164459502Y-89590573D01*
X164459504Y-89590573D01*
X164527275Y-89560399D01*
X164628778Y-89515207D01*
X164778688Y-89406291D01*
X164778691Y-89406288D01*
X164783945Y-89402471D01*
X164784809Y-89403661D01*
X164840947Y-89376720D01*
X164860928Y-89375100D01*
X167711319Y-89375100D01*
X167778358Y-89394785D01*
X167799000Y-89411419D01*
X172593334Y-94205753D01*
X172626819Y-94267076D01*
X172625428Y-94325525D01*
X172604137Y-94404988D01*
X172604137Y-94404990D01*
X172583541Y-94640399D01*
X172583541Y-94640400D01*
X172604136Y-94875803D01*
X172604138Y-94875813D01*
X172665294Y-95104055D01*
X172665296Y-95104059D01*
X172665297Y-95104063D01*
X172760061Y-95307284D01*
X172765165Y-95318230D01*
X172765167Y-95318234D01*
X172900701Y-95511795D01*
X172900706Y-95511802D01*
X173067797Y-95678893D01*
X173067803Y-95678898D01*
X173253358Y-95808825D01*
X173296983Y-95863402D01*
X173304177Y-95932900D01*
X173272654Y-95995255D01*
X173253358Y-96011975D01*
X173067797Y-96141905D01*
X172900705Y-96308997D01*
X172765165Y-96502569D01*
X172765164Y-96502571D01*
X172665298Y-96716735D01*
X172665294Y-96716744D01*
X172604138Y-96944986D01*
X172604136Y-96944996D01*
X172583541Y-97180399D01*
X172583541Y-97180400D01*
X172604136Y-97415803D01*
X172604138Y-97415813D01*
X172665294Y-97644055D01*
X172665296Y-97644059D01*
X172665297Y-97644063D01*
X172765165Y-97858230D01*
X172765167Y-97858234D01*
X172873481Y-98012921D01*
X172900705Y-98051801D01*
X173067799Y-98218895D01*
X173164584Y-98286665D01*
X173261365Y-98354432D01*
X173261367Y-98354433D01*
X173261370Y-98354435D01*
X173475537Y-98454303D01*
X173703792Y-98515463D01*
X173892118Y-98531939D01*
X173939199Y-98536059D01*
X173939200Y-98536059D01*
X173939201Y-98536059D01*
X173978434Y-98532626D01*
X174174608Y-98515463D01*
X174402863Y-98454303D01*
X174617030Y-98354435D01*
X174810601Y-98218895D01*
X174977695Y-98051801D01*
X175113235Y-97858230D01*
X175213103Y-97644063D01*
X175274263Y-97415808D01*
X175294859Y-97180400D01*
X175274263Y-96944992D01*
X175213103Y-96716737D01*
X175113235Y-96502571D01*
X175036646Y-96393189D01*
X174977694Y-96308997D01*
X174810602Y-96141906D01*
X174810596Y-96141901D01*
X174625042Y-96011975D01*
X174581417Y-95957398D01*
X174574223Y-95887900D01*
X174605746Y-95825545D01*
X174625042Y-95808825D01*
X174663793Y-95781691D01*
X174810601Y-95678895D01*
X174977695Y-95511801D01*
X175113235Y-95318230D01*
X175213103Y-95104063D01*
X175274263Y-94875808D01*
X175294859Y-94640400D01*
X175291500Y-94602013D01*
X175288430Y-94566913D01*
X175274263Y-94404992D01*
X175213103Y-94176737D01*
X175113235Y-93962571D01*
X174977695Y-93768999D01*
X174977694Y-93768997D01*
X174810602Y-93601906D01*
X174810596Y-93601901D01*
X174625042Y-93471975D01*
X174581417Y-93417398D01*
X174574223Y-93347900D01*
X174605746Y-93285545D01*
X174625042Y-93268825D01*
X174647226Y-93253291D01*
X174810601Y-93138895D01*
X174977695Y-92971801D01*
X175113235Y-92778230D01*
X175213103Y-92564063D01*
X175274263Y-92335808D01*
X175294859Y-92100400D01*
X175274263Y-91864992D01*
X175213103Y-91636737D01*
X175113235Y-91422571D01*
X174977695Y-91228999D01*
X174977694Y-91228997D01*
X174810602Y-91061906D01*
X174810596Y-91061901D01*
X174625042Y-90931975D01*
X174581417Y-90877398D01*
X174574223Y-90807900D01*
X174605746Y-90745545D01*
X174625042Y-90728825D01*
X174647226Y-90713291D01*
X174810601Y-90598895D01*
X174977695Y-90431801D01*
X175113235Y-90238230D01*
X175213103Y-90024063D01*
X175274263Y-89795808D01*
X175294859Y-89560400D01*
X175274263Y-89324992D01*
X175227826Y-89151685D01*
X175213105Y-89096744D01*
X175213104Y-89096743D01*
X175213103Y-89096737D01*
X175113235Y-88882571D01*
X174977695Y-88688999D01*
X174977694Y-88688997D01*
X174810602Y-88521906D01*
X174810596Y-88521901D01*
X174625042Y-88391975D01*
X174581417Y-88337398D01*
X174574223Y-88267900D01*
X174605746Y-88205545D01*
X174625042Y-88188825D01*
X174736343Y-88110891D01*
X174810601Y-88058895D01*
X174977695Y-87891801D01*
X175113235Y-87698230D01*
X175213103Y-87484063D01*
X175274263Y-87255808D01*
X175294859Y-87020400D01*
X175274263Y-86784992D01*
X175213103Y-86556737D01*
X175113235Y-86342571D01*
X175055662Y-86260347D01*
X174977694Y-86148997D01*
X174810602Y-85981906D01*
X174810601Y-85981905D01*
X174624605Y-85851669D01*
X174580981Y-85797092D01*
X174573788Y-85727593D01*
X174605310Y-85665239D01*
X174624605Y-85648519D01*
X174810282Y-85518505D01*
X174977305Y-85351482D01*
X175112800Y-85157978D01*
X175212629Y-84943892D01*
X175212632Y-84943886D01*
X175269836Y-84730400D01*
X174372212Y-84730400D01*
X174405125Y-84673393D01*
X174439200Y-84546226D01*
X174439200Y-84414574D01*
X174405125Y-84287407D01*
X174372212Y-84230400D01*
X175269836Y-84230400D01*
X175269835Y-84230399D01*
X175212632Y-84016913D01*
X175212629Y-84016907D01*
X175112800Y-83802822D01*
X175112799Y-83802820D01*
X174977313Y-83609326D01*
X174977308Y-83609320D01*
X174810278Y-83442290D01*
X174624605Y-83312279D01*
X174580980Y-83257702D01*
X174573788Y-83188204D01*
X174605310Y-83125849D01*
X174624606Y-83109130D01*
X174713341Y-83046997D01*
X174810601Y-82978895D01*
X174977695Y-82811801D01*
X175113235Y-82618230D01*
X175213103Y-82404063D01*
X175274263Y-82175808D01*
X175294859Y-81940400D01*
X175274263Y-81704992D01*
X175215455Y-81485514D01*
X175213105Y-81476744D01*
X175213104Y-81476743D01*
X175213103Y-81476737D01*
X175113235Y-81262571D01*
X175082163Y-81218196D01*
X174977696Y-81069000D01*
X174928777Y-81020081D01*
X174855767Y-80947071D01*
X174822284Y-80885751D01*
X174827268Y-80816059D01*
X174869139Y-80760125D01*
X174900115Y-80743210D01*
X175031531Y-80694196D01*
X175146746Y-80607946D01*
X175232996Y-80492731D01*
X175283291Y-80357883D01*
X175289700Y-80298273D01*
X175289699Y-78502528D01*
X175283291Y-78442917D01*
X175232996Y-78308069D01*
X175232995Y-78308068D01*
X175232993Y-78308064D01*
X175146747Y-78192855D01*
X175146744Y-78192852D01*
X175031535Y-78106606D01*
X175031528Y-78106602D01*
X174896682Y-78056308D01*
X174896683Y-78056308D01*
X174837083Y-78049901D01*
X174837081Y-78049900D01*
X174837073Y-78049900D01*
X174837064Y-78049900D01*
X173041329Y-78049900D01*
X173041323Y-78049901D01*
X172981716Y-78056308D01*
X172846871Y-78106602D01*
X172846864Y-78106606D01*
X172731655Y-78192852D01*
X172731652Y-78192855D01*
X172645406Y-78308064D01*
X172645402Y-78308071D01*
X172595108Y-78442917D01*
X172588701Y-78502516D01*
X172588701Y-78502523D01*
X172588700Y-78502535D01*
X172588700Y-78648900D01*
X172569015Y-78715939D01*
X172516211Y-78761694D01*
X172464700Y-78772900D01*
X143549792Y-78772900D01*
X143428573Y-78797011D01*
X143428573Y-78797012D01*
X143428570Y-78797013D01*
X143428566Y-78797014D01*
X143361670Y-78824723D01*
X143361668Y-78824723D01*
X143314370Y-78844315D01*
X143211591Y-78912989D01*
X143147396Y-78977185D01*
X143083198Y-79041382D01*
X143021878Y-79074866D01*
X142995519Y-79077700D01*
X142960151Y-79077700D01*
X142778903Y-79116224D01*
X142778895Y-79116226D01*
X142609622Y-79191592D01*
X142459709Y-79300511D01*
X142459706Y-79300513D01*
X142335722Y-79438214D01*
X142243074Y-79598685D01*
X142185814Y-79774911D01*
X142185813Y-79774913D01*
X142166444Y-79959200D01*
X142185813Y-80143486D01*
X142185814Y-80143488D01*
X142243074Y-80319714D01*
X142335721Y-80480185D01*
X142393450Y-80544299D01*
X142423680Y-80607290D01*
X142425300Y-80627271D01*
X142425300Y-80968719D01*
X142405615Y-81035758D01*
X142388981Y-81056400D01*
X141508400Y-81936981D01*
X141447077Y-81970466D01*
X141420719Y-81973300D01*
X141385351Y-81973300D01*
X141204103Y-82011824D01*
X141204095Y-82011826D01*
X141034822Y-82087192D01*
X140884909Y-82196111D01*
X140884906Y-82196113D01*
X140760922Y-82333814D01*
X140668274Y-82494285D01*
X140611014Y-82670511D01*
X140611013Y-82670513D01*
X140596164Y-82811795D01*
X140591644Y-82854800D01*
X127500500Y-82854800D01*
X127500500Y-77624600D01*
X127520185Y-77557561D01*
X127572989Y-77511806D01*
X127624500Y-77500600D01*
X176375400Y-77500600D01*
X176442439Y-77520285D01*
G37*
%TD.AperFunction*%
%TD*%
M02*
