M48
; DRILL file {KiCad 8.0.0} date 2024-12-08T13:18:34+0530
; FORMAT={-:-/ absolute / inch / decimal}
; #@! TF.CreationDate,2024-12-08T13:18:34+05:30
; #@! TF.GenerationSoftware,Kicad,Pcbnew,8.0.0
; #@! TF.FileFunction,Plated,1,2,PTH
FMAT,2
INCH
; #@! TA.AperFunction,Plated,PTH,ComponentDrill
T1C0.0079
; #@! TA.AperFunction,Plated,PTH,ViaDrill
T2C0.0150
; #@! TA.AperFunction,Plated,PTH,ComponentDrill
T3C0.0394
%
G90
G05
T1
X5.9567Y-3.35
X5.9567Y-3.41
X5.9867Y-3.3199
X5.9867Y-3.38
X5.9867Y-3.44
X6.0167Y-3.35
X6.0167Y-3.41
X6.0468Y-3.3199
X6.0468Y-3.38
X6.0468Y-3.44
X6.0768Y-3.35
X6.0768Y-3.41
T2
X5.15Y-4.5
X5.15Y-4.55
X5.15Y-4.6
X5.15Y-4.65
X5.15Y-4.7
X5.15Y-4.75
X5.15Y-4.8
X5.2Y-4.5
X5.2Y-4.55
X5.2Y-4.6
X5.2Y-4.65
X5.2Y-4.7
X5.2Y-4.75
X5.2Y-4.8
X5.25Y-4.5
X5.25Y-4.55
X5.25Y-4.6
X5.25Y-4.65
X5.25Y-4.7
X5.25Y-4.75
X5.25Y-4.8
X5.3Y-4.5
X5.3Y-4.55
X5.3Y-4.6
X5.3Y-4.65
X5.3Y-4.7
X5.3Y-4.75
X5.3Y-4.8
X5.35Y-4.5
X5.35Y-4.55
X5.35Y-4.6
X5.35Y-4.65
X5.35Y-4.7
X5.35Y-4.75
X5.35Y-4.8
X5.4Y-4.5
X5.4Y-4.55
X5.4Y-4.6
X5.4Y-4.65
X5.4Y-4.7
X5.4Y-4.75
X5.4Y-4.8
X5.57Y-3.262
X5.632Y-3.148
X5.6329Y-3.0945
X6.0009Y-4.5006
X6.0009Y-4.5506
X6.0009Y-4.6006
X6.0009Y-4.6506
X6.0009Y-4.7006
X6.0009Y-4.7506
X6.0009Y-4.8006
X6.0509Y-4.5006
X6.0509Y-4.5506
X6.0509Y-4.6006
X6.0509Y-4.6506
X6.0509Y-4.7006
X6.0509Y-4.7506
X6.0509Y-4.8006
X6.1009Y-4.5006
X6.1009Y-4.5506
X6.1009Y-4.6006
X6.1009Y-4.6506
X6.1009Y-4.7006
X6.1009Y-4.7506
X6.1009Y-4.8006
X6.1509Y-4.5006
X6.1509Y-4.5506
X6.1509Y-4.6006
X6.1509Y-4.6506
X6.1509Y-4.7006
X6.1509Y-4.7506
X6.1509Y-4.8006
X6.2009Y-4.5006
X6.2009Y-4.5506
X6.2009Y-4.6006
X6.2009Y-4.6506
X6.2009Y-4.7006
X6.2009Y-4.7506
X6.2009Y-4.8006
X6.2509Y-4.5006
X6.2509Y-4.5506
X6.2509Y-4.6006
X6.2509Y-4.6506
X6.2509Y-4.7006
X6.2509Y-4.7506
X6.2509Y-4.8006
X6.306Y-3.242
X6.306Y-3.294
X6.3848Y-4.3652
X6.437Y-3.0886
X6.45Y-4.25
X6.4528Y-3.1939
X6.463Y-3.443
X6.464Y-3.494
X6.464Y-3.745
X6.55Y-4.25
X6.69Y-4.0364
X6.75Y-3.3297
X6.75Y-4.375
T3
X5.8644Y-4.1416
X5.9644Y-4.1416
X6.0644Y-4.1416
X6.1644Y-4.1416
X6.848Y-3.126
X6.848Y-3.226
X6.848Y-3.326
X6.848Y-3.426
X6.848Y-3.526
X6.848Y-3.626
X6.848Y-3.726
X6.848Y-3.826
X6.85Y-4.273
X6.85Y-4.373
X6.85Y-4.473
X6.85Y-4.573
M30
