%TF.GenerationSoftware,KiCad,Pcbnew,8.0.0*%
%TF.CreationDate,2024-12-08T13:18:30+05:30*%
%TF.ProjectId,RFID_1,52464944-5f31-42e6-9b69-6361645f7063,rev?*%
%TF.SameCoordinates,Original*%
%TF.FileFunction,Copper,L1,Top*%
%TF.FilePolarity,Positive*%
%FSLAX46Y46*%
G04 Gerber Fmt 4.6, Leading zero omitted, Abs format (unit mm)*
G04 Created by KiCad (PCBNEW 8.0.0) date 2024-12-08 13:18:30*
%MOMM*%
%LPD*%
G01*
G04 APERTURE LIST*
G04 Aperture macros list*
%AMRoundRect*
0 Rectangle with rounded corners*
0 $1 Rounding radius*
0 $2 $3 $4 $5 $6 $7 $8 $9 X,Y pos of 4 corners*
0 Add a 4 corners polygon primitive as box body*
4,1,4,$2,$3,$4,$5,$6,$7,$8,$9,$2,$3,0*
0 Add four circle primitives for the rounded corners*
1,1,$1+$1,$2,$3*
1,1,$1+$1,$4,$5*
1,1,$1+$1,$6,$7*
1,1,$1+$1,$8,$9*
0 Add four rect primitives between the rounded corners*
20,1,$1+$1,$2,$3,$4,$5,0*
20,1,$1+$1,$4,$5,$6,$7,0*
20,1,$1+$1,$6,$7,$8,$9,0*
20,1,$1+$1,$8,$9,$2,$3,0*%
G04 Aperture macros list end*
%TA.AperFunction,SMDPad,CuDef*%
%ADD10RoundRect,0.250000X0.450000X-0.350000X0.450000X0.350000X-0.450000X0.350000X-0.450000X-0.350000X0*%
%TD*%
%TA.AperFunction,ComponentPad*%
%ADD11R,1.700000X1.700000*%
%TD*%
%TA.AperFunction,ComponentPad*%
%ADD12O,1.700000X1.700000*%
%TD*%
%TA.AperFunction,SMDPad,CuDef*%
%ADD13RoundRect,0.250000X-0.475000X0.337500X-0.475000X-0.337500X0.475000X-0.337500X0.475000X0.337500X0*%
%TD*%
%TA.AperFunction,SMDPad,CuDef*%
%ADD14RoundRect,0.250000X-0.450000X0.350000X-0.450000X-0.350000X0.450000X-0.350000X0.450000X0.350000X0*%
%TD*%
%TA.AperFunction,SMDPad,CuDef*%
%ADD15R,1.550000X1.300000*%
%TD*%
%TA.AperFunction,SMDPad,CuDef*%
%ADD16R,3.505200X1.397000*%
%TD*%
%TA.AperFunction,SMDPad,CuDef*%
%ADD17R,8.407400X10.718800*%
%TD*%
%TA.AperFunction,SMDPad,CuDef*%
%ADD18RoundRect,0.250000X-0.337500X-0.475000X0.337500X-0.475000X0.337500X0.475000X-0.337500X0.475000X0*%
%TD*%
%TA.AperFunction,SMDPad,CuDef*%
%ADD19RoundRect,0.250000X0.450000X-0.325000X0.450000X0.325000X-0.450000X0.325000X-0.450000X-0.325000X0*%
%TD*%
%TA.AperFunction,SMDPad,CuDef*%
%ADD20R,1.500000X0.900000*%
%TD*%
%TA.AperFunction,SMDPad,CuDef*%
%ADD21R,0.900000X1.500000*%
%TD*%
%TA.AperFunction,SMDPad,CuDef*%
%ADD22R,1.050000X1.050000*%
%TD*%
%TA.AperFunction,HeatsinkPad*%
%ADD23C,0.600000*%
%TD*%
%TA.AperFunction,SMDPad,CuDef*%
%ADD24R,4.200000X4.200000*%
%TD*%
%TA.AperFunction,ViaPad*%
%ADD25C,0.762000*%
%TD*%
%TA.AperFunction,Conductor*%
%ADD26C,0.254000*%
%TD*%
%TA.AperFunction,Conductor*%
%ADD27C,0.635000*%
%TD*%
%TA.AperFunction,Conductor*%
%ADD28C,1.066800*%
%TD*%
G04 APERTURE END LIST*
D10*
%TO.P,R3,1*%
%TO.N,VDD*%
X131241800Y-96037400D03*
%TO.P,R3,2*%
%TO.N,/BOOT*%
X131241800Y-94037400D03*
%TD*%
D11*
%TO.P,J3,1,Pin_1*%
%TO.N,/5V*%
X173990000Y-108534200D03*
D12*
%TO.P,J3,2,Pin_2*%
%TO.N,GND*%
X173990000Y-111074200D03*
%TO.P,J3,3,Pin_3*%
%TO.N,/12V*%
X173990000Y-113614200D03*
%TO.P,J3,4,Pin_4*%
%TO.N,Net-(J3-Pin_4)*%
X173990000Y-116154200D03*
%TD*%
D13*
%TO.P,C3,1*%
%TO.N,/12V*%
X170815000Y-121115000D03*
%TO.P,C3,2*%
%TO.N,GND*%
X170815000Y-123190000D03*
%TD*%
%TO.P,C4,1*%
%TO.N,/5V*%
X149225000Y-121285000D03*
%TO.P,C4,2*%
%TO.N,GND*%
X149225000Y-123360000D03*
%TD*%
D14*
%TO.P,R4,1*%
%TO.N,/BOOT*%
X137718800Y-94012000D03*
%TO.P,R4,2*%
%TO.N,Net-(R4-Pad2)*%
X137718800Y-96012000D03*
%TD*%
D15*
%TO.P,SW1,1,1*%
%TO.N,Net-(R2-Pad2)*%
X130454600Y-84222200D03*
X138404600Y-84222200D03*
%TO.P,SW1,2,2*%
%TO.N,GND*%
X130454600Y-88722200D03*
X138404600Y-88722200D03*
%TD*%
D14*
%TO.P,R2,1*%
%TO.N,/EN*%
X130479800Y-78873600D03*
%TO.P,R2,2*%
%TO.N,Net-(R2-Pad2)*%
X130479800Y-80873600D03*
%TD*%
D16*
%TO.P,U3,1,INPUT*%
%TO.N,/12V*%
X167192600Y-121046000D03*
%TO.P,U3,2,GROUND*%
%TO.N,GND*%
X167192600Y-118506000D03*
%TO.P,U3,3,OUTPUT*%
%TO.N,/5V*%
X167192600Y-115966000D03*
D17*
%TO.P,U3,4,GROUND*%
%TO.N,GND*%
X155851500Y-118506000D03*
%TD*%
D18*
%TO.P,C1,1*%
%TO.N,/5V*%
X167077500Y-112395000D03*
%TO.P,C1,2*%
%TO.N,GND*%
X169152500Y-112395000D03*
%TD*%
D19*
%TO.P,D4,1,K*%
%TO.N,GND*%
X166674800Y-106045000D03*
%TO.P,D4,2,A*%
%TO.N,Net-(D4-A)*%
X166674800Y-103995000D03*
%TD*%
D11*
%TO.P,J1,1,Pin_1*%
%TO.N,Net-(J1-Pin_1)*%
X148955600Y-105196800D03*
D12*
%TO.P,J1,2,Pin_2*%
%TO.N,Net-(J1-Pin_2)*%
X151495600Y-105196800D03*
%TO.P,J1,3,Pin_3*%
%TO.N,/BOOT*%
X154035600Y-105196800D03*
%TO.P,J1,4,Pin_4*%
%TO.N,/EN*%
X156575600Y-105196800D03*
%TD*%
D18*
%TO.P,C2,1*%
%TO.N,VDD*%
X145245000Y-109855000D03*
%TO.P,C2,2*%
%TO.N,GND*%
X147320000Y-109855000D03*
%TD*%
D20*
%TO.P,U1,1,GND*%
%TO.N,GND*%
X144755200Y-78511400D03*
%TO.P,U1,2,VDD*%
%TO.N,VDD*%
X144755200Y-79781400D03*
%TO.P,U1,3,EN*%
%TO.N,/EN*%
X144755200Y-81051400D03*
%TO.P,U1,4,SENSOR_VP*%
%TO.N,unconnected-(U1-SENSOR_VP-Pad4)*%
X144755200Y-82321400D03*
%TO.P,U1,5,SENSOR_VN*%
%TO.N,unconnected-(U1-SENSOR_VN-Pad5)*%
X144755200Y-83591400D03*
%TO.P,U1,6,IO34*%
%TO.N,unconnected-(U1-IO34-Pad6)*%
X144755200Y-84861400D03*
%TO.P,U1,7,IO35*%
%TO.N,unconnected-(U1-IO35-Pad7)*%
X144755200Y-86131400D03*
%TO.P,U1,8,IO32*%
%TO.N,unconnected-(U1-IO32-Pad8)*%
X144755200Y-87401400D03*
%TO.P,U1,9,IO33*%
%TO.N,unconnected-(U1-IO33-Pad9)*%
X144755200Y-88671400D03*
%TO.P,U1,10,IO25*%
%TO.N,unconnected-(U1-IO25-Pad10)*%
X144755200Y-89941400D03*
%TO.P,U1,11,IO26*%
%TO.N,unconnected-(U1-IO26-Pad11)*%
X144755200Y-91211400D03*
%TO.P,U1,12,IO27*%
%TO.N,unconnected-(U1-IO27-Pad12)*%
X144755200Y-92481400D03*
%TO.P,U1,13,IO14*%
%TO.N,unconnected-(U1-IO14-Pad13)*%
X144755200Y-93751400D03*
%TO.P,U1,14,IO12*%
%TO.N,unconnected-(U1-IO12-Pad14)*%
X144755200Y-95021400D03*
D21*
%TO.P,U1,15,GND*%
%TO.N,GND*%
X147795200Y-96271400D03*
%TO.P,U1,16,IO13*%
%TO.N,unconnected-(U1-IO13-Pad16)*%
X149065200Y-96271400D03*
%TO.P,U1,17,SHD/SD2*%
%TO.N,unconnected-(U1-SHD{slash}SD2-Pad17)*%
X150335200Y-96271400D03*
%TO.P,U1,18,SWP/SD3*%
%TO.N,unconnected-(U1-SWP{slash}SD3-Pad18)*%
X151605200Y-96271400D03*
%TO.P,U1,19,SCS/CMD*%
%TO.N,unconnected-(U1-SCS{slash}CMD-Pad19)*%
X152875200Y-96271400D03*
%TO.P,U1,20,SCK/CLK*%
%TO.N,unconnected-(U1-SCK{slash}CLK-Pad20)*%
X154145200Y-96271400D03*
%TO.P,U1,21,SDO/SD0*%
%TO.N,unconnected-(U1-SDO{slash}SD0-Pad21)*%
X155415200Y-96271400D03*
%TO.P,U1,22,SDI/SD1*%
%TO.N,unconnected-(U1-SDI{slash}SD1-Pad22)*%
X156685200Y-96271400D03*
%TO.P,U1,23,IO15*%
%TO.N,/Blue*%
X157955200Y-96271400D03*
%TO.P,U1,24,IO2*%
%TO.N,/Green*%
X159225200Y-96271400D03*
D20*
%TO.P,U1,25,IO0*%
%TO.N,/BOOT*%
X162255200Y-95021400D03*
%TO.P,U1,26,IO4*%
%TO.N,/RED*%
X162255200Y-93751400D03*
%TO.P,U1,27,IO16*%
%TO.N,unconnected-(U1-IO16-Pad27)*%
X162255200Y-92481400D03*
%TO.P,U1,28,IO17*%
%TO.N,unconnected-(U1-IO17-Pad28)*%
X162255200Y-91211400D03*
%TO.P,U1,29,IO5*%
%TO.N,Net-(J3-Pin_4)*%
X162255200Y-89941400D03*
%TO.P,U1,30,IO18*%
%TO.N,/SCK*%
X162255200Y-88671400D03*
%TO.P,U1,31,IO19*%
%TO.N,/MISO*%
X162255200Y-87401400D03*
%TO.P,U1,32,NC*%
%TO.N,unconnected-(U1-NC-Pad32)*%
X162255200Y-86131400D03*
%TO.P,U1,33,IO21*%
%TO.N,/SDA*%
X162255200Y-84861400D03*
%TO.P,U1,34,RXD0/IO3*%
%TO.N,Net-(J1-Pin_1)*%
X162255200Y-83591400D03*
%TO.P,U1,35,TXD0/IO1*%
%TO.N,Net-(J1-Pin_2)*%
X162255200Y-82321400D03*
%TO.P,U1,36,IO22*%
%TO.N,/RST*%
X162255200Y-81051400D03*
%TO.P,U1,37,IO23*%
%TO.N,/MOSI*%
X162255200Y-79781400D03*
%TO.P,U1,38,GND*%
%TO.N,GND*%
X162255200Y-78511400D03*
D22*
%TO.P,U1,39,GND*%
X151300200Y-84326400D03*
D23*
X151300200Y-85088900D03*
D22*
X151300200Y-85851400D03*
D23*
X151300200Y-86613900D03*
D22*
X151300200Y-87376400D03*
D23*
X152062700Y-84326400D03*
X152062700Y-85851400D03*
X152062700Y-87376400D03*
D22*
X152825200Y-84326400D03*
D23*
X152825200Y-85088900D03*
D22*
X152825200Y-85851400D03*
D24*
X152825200Y-85851400D03*
D23*
X152825200Y-86613900D03*
D22*
X152825200Y-87376400D03*
D23*
X153587700Y-84326400D03*
X153587700Y-85851400D03*
X153587700Y-87376400D03*
D22*
X154350200Y-84326400D03*
D23*
X154350200Y-85088900D03*
D22*
X154350200Y-85851400D03*
D23*
X154350200Y-86613900D03*
D22*
X154350200Y-87376400D03*
%TD*%
D15*
%TO.P,SW2,1,1*%
%TO.N,Net-(R4-Pad2)*%
X130492600Y-100315200D03*
X138442600Y-100315200D03*
%TO.P,SW2,2,2*%
%TO.N,GND*%
X130492600Y-104815200D03*
X138442600Y-104815200D03*
%TD*%
D16*
%TO.P,U2,1,INPUT*%
%TO.N,/5V*%
X145427700Y-121132600D03*
%TO.P,U2,2,GROUND*%
%TO.N,GND*%
X145427700Y-118592600D03*
%TO.P,U2,3,OUTPUT*%
%TO.N,VDD*%
X145427700Y-116052600D03*
D17*
%TO.P,U2,4,4*%
%TO.N,GND*%
X134086600Y-118592600D03*
%TD*%
D14*
%TO.P,R5,1*%
%TO.N,/Green*%
X163439600Y-99346400D03*
%TO.P,R5,2*%
%TO.N,Net-(D1-A)*%
X163439600Y-101346400D03*
%TD*%
D19*
%TO.P,D1,1,K*%
%TO.N,GND*%
X163634800Y-106045000D03*
%TO.P,D1,2,A*%
%TO.N,Net-(D1-A)*%
X163634800Y-103995000D03*
%TD*%
D10*
%TO.P,R1,1*%
%TO.N,VDD*%
X138506200Y-80949800D03*
%TO.P,R1,2*%
%TO.N,/EN*%
X138506200Y-78949800D03*
%TD*%
D11*
%TO.P,J2,1,Pin_1*%
%TO.N,VDD*%
X173939200Y-79400400D03*
D12*
%TO.P,J2,2,Pin_2*%
%TO.N,/RST*%
X173939200Y-81940400D03*
%TO.P,J2,3,Pin_3*%
%TO.N,GND*%
X173939200Y-84480400D03*
%TO.P,J2,4,Pin_4*%
%TO.N,/NC*%
X173939200Y-87020400D03*
%TO.P,J2,5,Pin_5*%
%TO.N,/MISO*%
X173939200Y-89560400D03*
%TO.P,J2,6,Pin_6*%
%TO.N,/MOSI*%
X173939200Y-92100400D03*
%TO.P,J2,7,Pin_7*%
%TO.N,/SCK*%
X173939200Y-94640400D03*
%TO.P,J2,8,Pin_8*%
%TO.N,/SDA*%
X173939200Y-97180400D03*
%TD*%
D14*
%TO.P,R8,1*%
%TO.N,/RED*%
X166538400Y-99397200D03*
%TO.P,R8,2*%
%TO.N,Net-(D4-A)*%
X166538400Y-101397200D03*
%TD*%
D25*
%TO.N,Net-(J3-Pin_4)*%
X169925000Y-102525000D03*
%TO.N,GND*%
X171450000Y-111125000D03*
X135890000Y-116840000D03*
X137160000Y-115570000D03*
X137160000Y-120650000D03*
X154962500Y-118125000D03*
X158772500Y-116855000D03*
X135890000Y-119380000D03*
X156232500Y-114315000D03*
X133350000Y-115570000D03*
X135890000Y-115570000D03*
X137160000Y-114300000D03*
X134620000Y-115570000D03*
X163830000Y-107950000D03*
X163500000Y-78450000D03*
X156232500Y-116855000D03*
X158772500Y-118125000D03*
X157502500Y-115585000D03*
X132080000Y-119380000D03*
X133350000Y-114300000D03*
X162175000Y-110875000D03*
X132080000Y-114300000D03*
X153692500Y-121935000D03*
X153692500Y-120665000D03*
X153692500Y-115585000D03*
X157502500Y-116855000D03*
X158772500Y-114315000D03*
X158772500Y-119395000D03*
X134620000Y-114300000D03*
X132080000Y-115570000D03*
X156232500Y-118125000D03*
X157502500Y-120665000D03*
X156232500Y-120665000D03*
X157502500Y-114315000D03*
X134620000Y-120650000D03*
X137160000Y-118110000D03*
X157502500Y-118125000D03*
X157502500Y-121935000D03*
X133350000Y-119380000D03*
X130810000Y-119380000D03*
X137160000Y-119380000D03*
X154962500Y-121935000D03*
X130810000Y-114300000D03*
X135890000Y-121920000D03*
X130810000Y-118110000D03*
X130810000Y-121920000D03*
X153692500Y-119395000D03*
X158772500Y-120665000D03*
X130810000Y-120650000D03*
X166370000Y-107950000D03*
X153692500Y-114315000D03*
X137160000Y-121920000D03*
X135890000Y-118110000D03*
X158772500Y-121935000D03*
X130810000Y-116840000D03*
X132080000Y-118110000D03*
X154962500Y-120665000D03*
X143075000Y-78600000D03*
X153692500Y-116855000D03*
X154962500Y-119395000D03*
X135890000Y-120650000D03*
X152422500Y-119395000D03*
X135890000Y-114300000D03*
X152422500Y-121935000D03*
X134620000Y-116840000D03*
X133350000Y-120650000D03*
X134620000Y-121920000D03*
X153692500Y-118125000D03*
X157502500Y-119395000D03*
X132080000Y-121920000D03*
X152422500Y-114315000D03*
X132080000Y-120650000D03*
X152422500Y-120665000D03*
X137160000Y-116840000D03*
X156232500Y-121935000D03*
X171450000Y-84575000D03*
X152422500Y-118125000D03*
X152422500Y-115585000D03*
X154962500Y-116855000D03*
X158772500Y-115585000D03*
X133350000Y-118110000D03*
X156232500Y-115585000D03*
X156232500Y-119395000D03*
X130810000Y-115570000D03*
X134620000Y-118110000D03*
X132080000Y-116840000D03*
X152422500Y-116855000D03*
X154962500Y-115585000D03*
X134620000Y-119380000D03*
X133350000Y-121920000D03*
X133350000Y-116840000D03*
X154962500Y-114315000D03*
%TO.N,VDD*%
X143052800Y-79959200D03*
X141478000Y-82854800D03*
%TO.N,Net-(J1-Pin_2)*%
X160172400Y-82346800D03*
%TO.N,Net-(J1-Pin_1)*%
X160172400Y-83667600D03*
%TO.N,/BOOT*%
X164185600Y-95123000D03*
%TO.N,/SCK*%
X164185600Y-88747600D03*
%TO.N,/MISO*%
X164160200Y-87452200D03*
%TO.N,/RST*%
X163900000Y-81125000D03*
%TD*%
D26*
%TO.N,Net-(J3-Pin_4)*%
X169925000Y-96919200D02*
X169925000Y-102525000D01*
X162255200Y-89941400D02*
X162947200Y-89941400D01*
X162947200Y-89941400D02*
X169925000Y-96919200D01*
D27*
%TO.N,/5V*%
X172871500Y-109652700D02*
X160857300Y-109652700D01*
X173990000Y-108534200D02*
X172871500Y-109652700D01*
X167152500Y-112590000D02*
X167152500Y-115925900D01*
X160655000Y-111328200D02*
X152196800Y-111328200D01*
X161176800Y-111850000D02*
X164375000Y-111850000D01*
X167192600Y-115966000D02*
X166138500Y-115966000D01*
X146481800Y-121132600D02*
X145427700Y-121132600D01*
X149225000Y-114300000D02*
X149225000Y-121285000D01*
X149225000Y-121285000D02*
X145580100Y-121285000D01*
X164920000Y-112395000D02*
X167077500Y-112395000D01*
X145580100Y-121285000D02*
X145427700Y-121132600D01*
X167152500Y-115925900D02*
X167192600Y-115966000D01*
X164375000Y-111850000D02*
X164920000Y-112395000D01*
X160857300Y-109652700D02*
X160655000Y-109855000D01*
X160655000Y-109855000D02*
X160655000Y-111328200D01*
X160655000Y-111328200D02*
X161176800Y-111850000D01*
X152196800Y-111328200D02*
X149225000Y-114300000D01*
D26*
%TO.N,GND*%
X163634800Y-106045000D02*
X163634800Y-107754800D01*
X166674800Y-107645200D02*
X166370000Y-107950000D01*
X143163600Y-78511400D02*
X143075000Y-78600000D01*
X163438600Y-78511400D02*
X162255200Y-78511400D01*
X163467600Y-106212200D02*
X163634800Y-106045000D01*
X166674800Y-106045000D02*
X166674800Y-107645200D01*
X144755200Y-78511400D02*
X143163600Y-78511400D01*
X163500000Y-78450000D02*
X163438600Y-78511400D01*
X163634800Y-107754800D02*
X163830000Y-107950000D01*
%TO.N,VDD*%
X140125000Y-92300000D02*
X130850000Y-92300000D01*
X139573000Y-80949800D02*
X138506200Y-80949800D01*
X141478000Y-90947000D02*
X140125000Y-92300000D01*
X129625000Y-95375000D02*
X130287400Y-96037400D01*
X138595100Y-109220000D02*
X128092200Y-109220000D01*
X141478000Y-82854800D02*
X141478000Y-90947000D01*
X128092200Y-100282800D02*
X131241800Y-97133200D01*
X130850000Y-92300000D02*
X129625000Y-93525000D01*
X131241800Y-97133200D02*
X131241800Y-96037400D01*
X144755200Y-79781400D02*
X143230600Y-79781400D01*
X141478000Y-82854800D02*
X139573000Y-80949800D01*
X139230100Y-109855000D02*
X138595100Y-109220000D01*
X145245000Y-109855000D02*
X139230100Y-109855000D01*
X130287400Y-96037400D02*
X131241800Y-96037400D01*
X145245000Y-115869900D02*
X145427700Y-116052600D01*
X128092200Y-109220000D02*
X128092200Y-100282800D01*
X129625000Y-93525000D02*
X129625000Y-95375000D01*
X143230600Y-79781400D02*
X143052800Y-79959200D01*
X145427700Y-116052600D02*
X144373600Y-116052600D01*
X145245000Y-109855000D02*
X145245000Y-115869900D01*
D28*
%TO.N,/12V*%
X170815000Y-114810000D02*
X170815000Y-121115000D01*
X172010800Y-113614200D02*
X170815000Y-114810000D01*
X173990000Y-113614200D02*
X172010800Y-113614200D01*
X170815000Y-121115000D02*
X167261600Y-121115000D01*
X167261600Y-121115000D02*
X167192600Y-121046000D01*
D26*
%TO.N,Net-(D1-A)*%
X163439600Y-101346400D02*
X163439600Y-103799800D01*
X163439600Y-103799800D02*
X163634800Y-103995000D01*
%TO.N,Net-(D4-A)*%
X166538400Y-101397200D02*
X166538400Y-103858600D01*
X166538400Y-103858600D02*
X166674800Y-103995000D01*
%TO.N,/EN*%
X142240000Y-94411800D02*
X146100800Y-98272600D01*
X154047600Y-98272600D02*
X156575600Y-100800600D01*
X142240000Y-80540000D02*
X140649800Y-78949800D01*
X138506200Y-78949800D02*
X130556000Y-78949800D01*
X142240000Y-81051400D02*
X142240000Y-81889600D01*
X130556000Y-78949800D02*
X130479800Y-78873600D01*
X156575600Y-100800600D02*
X156575600Y-105196800D01*
X142240000Y-81889600D02*
X142240000Y-94411800D01*
X146100800Y-98272600D02*
X154047600Y-98272600D01*
X142240000Y-81889600D02*
X142240000Y-80540000D01*
X144755200Y-81051400D02*
X142240000Y-81051400D01*
X140649800Y-78949800D02*
X138506200Y-78949800D01*
%TO.N,Net-(J1-Pin_2)*%
X162255200Y-82321400D02*
X160197800Y-82321400D01*
X160197800Y-82321400D02*
X160172400Y-82346800D01*
%TO.N,Net-(J1-Pin_1)*%
X162255200Y-83591400D02*
X160248600Y-83591400D01*
X160248600Y-83591400D02*
X160172400Y-83667600D01*
%TO.N,/BOOT*%
X153100000Y-99200000D02*
X154035600Y-100135600D01*
X146100000Y-99200000D02*
X153100000Y-99200000D01*
X131267200Y-94012000D02*
X131241800Y-94037400D01*
X162255200Y-95021400D02*
X164084000Y-95021400D01*
X154035600Y-100135600D02*
X154035600Y-105196800D01*
X140912000Y-94012000D02*
X146100000Y-99200000D01*
X137718800Y-94012000D02*
X140912000Y-94012000D01*
X137718800Y-94012000D02*
X131267200Y-94012000D01*
X164084000Y-95021400D02*
X164185600Y-95123000D01*
%TO.N,/SDA*%
X167325000Y-86225000D02*
X167325000Y-92175000D01*
X162255200Y-84861400D02*
X165961400Y-84861400D01*
X165961400Y-84861400D02*
X167325000Y-86225000D01*
X172330400Y-97180400D02*
X173939200Y-97180400D01*
X167325000Y-92175000D02*
X172330400Y-97180400D01*
%TO.N,/SCK*%
X162255200Y-88671400D02*
X164109400Y-88671400D01*
X164109400Y-88671400D02*
X164185600Y-88747600D01*
%TO.N,/MISO*%
X162255200Y-87401400D02*
X164109400Y-87401400D01*
X164109400Y-87401400D02*
X164160200Y-87452200D01*
%TO.N,/MOSI*%
X168025000Y-88200000D02*
X171925400Y-92100400D01*
X164531400Y-79781400D02*
X168025000Y-83275000D01*
X171925400Y-92100400D02*
X173939200Y-92100400D01*
X162255200Y-79781400D02*
X164531400Y-79781400D01*
X168025000Y-83275000D02*
X168025000Y-88200000D01*
%TO.N,/RST*%
X163826400Y-81051400D02*
X163900000Y-81125000D01*
X162255200Y-81051400D02*
X163826400Y-81051400D01*
%TO.N,Net-(R2-Pad2)*%
X130479800Y-84197000D02*
X130454600Y-84222200D01*
X130454600Y-84222200D02*
X138404600Y-84222200D01*
X130479800Y-80873600D02*
X130479800Y-84197000D01*
%TO.N,Net-(R4-Pad2)*%
X138375000Y-100247600D02*
X138442600Y-100315200D01*
X137718800Y-97993800D02*
X138375000Y-98650000D01*
X138375000Y-98650000D02*
X138375000Y-100247600D01*
X137718800Y-96012000D02*
X137718800Y-97993800D01*
X138442600Y-100315200D02*
X130492600Y-100315200D01*
%TO.N,/Green*%
X159822200Y-96271400D02*
X161366200Y-97815400D01*
X161366200Y-97815400D02*
X161908600Y-97815400D01*
X159225200Y-96271400D02*
X159822200Y-96271400D01*
X161908600Y-97815400D02*
X163439600Y-99346400D01*
%TO.N,/RED*%
X162255200Y-93751400D02*
X164973000Y-93751400D01*
X164973000Y-93751400D02*
X166538400Y-95316800D01*
X166538400Y-95316800D02*
X166538400Y-99397200D01*
%TD*%
%TA.AperFunction,Conductor*%
%TO.N,GND*%
G36*
X143619751Y-77520285D02*
G01*
X143665506Y-77573089D01*
X143675450Y-77642247D01*
X143651978Y-77698911D01*
X143561849Y-77819306D01*
X143561845Y-77819313D01*
X143511603Y-77954020D01*
X143511601Y-77954027D01*
X143505200Y-78013555D01*
X143505200Y-78261400D01*
X146005200Y-78261400D01*
X146005200Y-78013572D01*
X146005199Y-78013555D01*
X145998798Y-77954027D01*
X145998796Y-77954020D01*
X145948554Y-77819313D01*
X145948550Y-77819306D01*
X145858422Y-77698911D01*
X145834004Y-77633447D01*
X145848855Y-77565174D01*
X145898260Y-77515768D01*
X145957688Y-77500600D01*
X161052712Y-77500600D01*
X161119751Y-77520285D01*
X161165506Y-77573089D01*
X161175450Y-77642247D01*
X161151978Y-77698911D01*
X161061849Y-77819306D01*
X161061845Y-77819313D01*
X161011603Y-77954020D01*
X161011601Y-77954027D01*
X161005200Y-78013555D01*
X161005200Y-78261400D01*
X163505200Y-78261400D01*
X163505200Y-78013572D01*
X163505199Y-78013555D01*
X163498798Y-77954027D01*
X163498796Y-77954020D01*
X163448554Y-77819313D01*
X163448550Y-77819306D01*
X163358422Y-77698911D01*
X163334004Y-77633447D01*
X163348855Y-77565174D01*
X163398260Y-77515768D01*
X163457688Y-77500600D01*
X176375400Y-77500600D01*
X176442439Y-77520285D01*
X176488194Y-77573089D01*
X176499400Y-77624600D01*
X176499400Y-126375500D01*
X176479715Y-126442539D01*
X176426911Y-126488294D01*
X176375400Y-126499500D01*
X127624500Y-126499500D01*
X127557461Y-126479815D01*
X127511706Y-126427011D01*
X127500500Y-126375500D01*
X127500500Y-118842600D01*
X129382900Y-118842600D01*
X129382900Y-123999844D01*
X129389301Y-124059372D01*
X129389303Y-124059379D01*
X129439545Y-124194086D01*
X129439549Y-124194093D01*
X129525709Y-124309187D01*
X129525712Y-124309190D01*
X129640806Y-124395350D01*
X129640813Y-124395354D01*
X129775520Y-124445596D01*
X129775527Y-124445598D01*
X129835055Y-124451999D01*
X129835072Y-124452000D01*
X133836600Y-124452000D01*
X133836600Y-118842600D01*
X134336600Y-118842600D01*
X134336600Y-124452000D01*
X138338128Y-124452000D01*
X138338144Y-124451999D01*
X138397672Y-124445598D01*
X138397679Y-124445596D01*
X138532386Y-124395354D01*
X138532393Y-124395350D01*
X138647487Y-124309190D01*
X138647490Y-124309187D01*
X138733650Y-124194093D01*
X138733654Y-124194086D01*
X138783896Y-124059379D01*
X138783898Y-124059372D01*
X138790299Y-123999844D01*
X138790300Y-123999827D01*
X138790300Y-123610000D01*
X148000001Y-123610000D01*
X148000001Y-123747486D01*
X148010494Y-123850197D01*
X148065641Y-124016619D01*
X148065643Y-124016624D01*
X148157684Y-124165845D01*
X148281654Y-124289815D01*
X148430875Y-124381856D01*
X148430880Y-124381858D01*
X148597302Y-124437005D01*
X148597309Y-124437006D01*
X148700019Y-124447499D01*
X148974999Y-124447499D01*
X148975000Y-124447498D01*
X148975000Y-123610000D01*
X149475000Y-123610000D01*
X149475000Y-124447499D01*
X149749972Y-124447499D01*
X149749986Y-124447498D01*
X149852697Y-124437005D01*
X150019119Y-124381858D01*
X150019124Y-124381856D01*
X150168345Y-124289815D01*
X150292315Y-124165845D01*
X150384356Y-124016624D01*
X150384358Y-124016619D01*
X150439505Y-123850197D01*
X150439506Y-123850190D01*
X150449999Y-123747486D01*
X150450000Y-123747473D01*
X150450000Y-123610000D01*
X149475000Y-123610000D01*
X148975000Y-123610000D01*
X148000001Y-123610000D01*
X138790300Y-123610000D01*
X138790300Y-121878970D01*
X143174600Y-121878970D01*
X143174601Y-121878976D01*
X143181008Y-121938583D01*
X143231302Y-122073428D01*
X143231306Y-122073435D01*
X143317552Y-122188644D01*
X143317555Y-122188647D01*
X143432764Y-122274893D01*
X143432771Y-122274897D01*
X143567617Y-122325191D01*
X143567616Y-122325191D01*
X143574544Y-122325935D01*
X143627227Y-122331600D01*
X147228172Y-122331599D01*
X147287783Y-122325191D01*
X147422631Y-122274896D01*
X147537846Y-122188646D01*
X147538108Y-122188297D01*
X147564763Y-122152690D01*
X147620696Y-122110818D01*
X147664030Y-122103000D01*
X148117770Y-122103000D01*
X148184809Y-122122685D01*
X148205451Y-122139319D01*
X148281344Y-122215212D01*
X148284628Y-122217237D01*
X148284653Y-122217253D01*
X148286445Y-122219246D01*
X148287011Y-122219693D01*
X148286934Y-122219789D01*
X148331379Y-122269199D01*
X148342603Y-122338161D01*
X148314761Y-122402244D01*
X148284665Y-122428326D01*
X148281660Y-122430179D01*
X148281655Y-122430183D01*
X148157684Y-122554154D01*
X148065643Y-122703375D01*
X148065641Y-122703380D01*
X148010494Y-122869802D01*
X148010493Y-122869809D01*
X148000000Y-122972513D01*
X148000000Y-123110000D01*
X150449999Y-123110000D01*
X150449999Y-122972528D01*
X150449998Y-122972513D01*
X150439505Y-122869802D01*
X150384358Y-122703380D01*
X150384356Y-122703375D01*
X150292315Y-122554154D01*
X150168344Y-122430183D01*
X150168341Y-122430181D01*
X150165339Y-122428329D01*
X150163713Y-122426521D01*
X150162677Y-122425702D01*
X150162817Y-122425524D01*
X150118617Y-122376380D01*
X150107397Y-122307417D01*
X150135243Y-122243336D01*
X150165344Y-122217254D01*
X150168656Y-122215212D01*
X150292712Y-122091156D01*
X150384814Y-121941834D01*
X150439999Y-121775297D01*
X150450500Y-121672509D01*
X150450499Y-120897492D01*
X150439999Y-120794703D01*
X150384814Y-120628166D01*
X150292712Y-120478844D01*
X150168656Y-120354788D01*
X150168655Y-120354787D01*
X150101902Y-120313613D01*
X150055178Y-120261665D01*
X150043000Y-120208075D01*
X150043000Y-118756000D01*
X151147800Y-118756000D01*
X151147800Y-123913244D01*
X151154201Y-123972772D01*
X151154203Y-123972779D01*
X151204445Y-124107486D01*
X151204449Y-124107493D01*
X151290609Y-124222587D01*
X151290612Y-124222590D01*
X151405706Y-124308750D01*
X151405713Y-124308754D01*
X151540420Y-124358996D01*
X151540427Y-124358998D01*
X151599955Y-124365399D01*
X151599972Y-124365400D01*
X155601500Y-124365400D01*
X155601500Y-118756000D01*
X156101500Y-118756000D01*
X156101500Y-124365400D01*
X160103028Y-124365400D01*
X160103044Y-124365399D01*
X160162572Y-124358998D01*
X160162579Y-124358996D01*
X160297286Y-124308754D01*
X160297293Y-124308750D01*
X160412387Y-124222590D01*
X160412390Y-124222587D01*
X160498550Y-124107493D01*
X160498554Y-124107486D01*
X160548796Y-123972779D01*
X160548798Y-123972772D01*
X160555199Y-123913244D01*
X160555200Y-123913227D01*
X160555200Y-123440000D01*
X169590001Y-123440000D01*
X169590001Y-123577486D01*
X169600494Y-123680197D01*
X169655641Y-123846619D01*
X169655643Y-123846624D01*
X169747684Y-123995845D01*
X169871654Y-124119815D01*
X170020875Y-124211856D01*
X170020880Y-124211858D01*
X170187302Y-124267005D01*
X170187309Y-124267006D01*
X170290019Y-124277499D01*
X170564999Y-124277499D01*
X170565000Y-124277498D01*
X170565000Y-123440000D01*
X171065000Y-123440000D01*
X171065000Y-124277499D01*
X171339972Y-124277499D01*
X171339986Y-124277498D01*
X171442697Y-124267005D01*
X171609119Y-124211858D01*
X171609124Y-124211856D01*
X171758345Y-124119815D01*
X171882315Y-123995845D01*
X171974356Y-123846624D01*
X171974358Y-123846619D01*
X172029505Y-123680197D01*
X172029506Y-123680190D01*
X172039999Y-123577486D01*
X172040000Y-123577473D01*
X172040000Y-123440000D01*
X171065000Y-123440000D01*
X170565000Y-123440000D01*
X169590001Y-123440000D01*
X160555200Y-123440000D01*
X160555200Y-118756000D01*
X156101500Y-118756000D01*
X155601500Y-118756000D01*
X151147800Y-118756000D01*
X150043000Y-118756000D01*
X150043000Y-114690188D01*
X150062685Y-114623149D01*
X150079319Y-114602507D01*
X150936119Y-113745707D01*
X150997442Y-113712222D01*
X151067134Y-113717206D01*
X151123067Y-113759078D01*
X151147484Y-113824542D01*
X151147800Y-113833388D01*
X151147800Y-118256000D01*
X155601500Y-118256000D01*
X155601500Y-112646600D01*
X156101500Y-112646600D01*
X156101500Y-118256000D01*
X160555200Y-118256000D01*
X160555200Y-113098772D01*
X160555199Y-113098755D01*
X160548798Y-113039227D01*
X160548796Y-113039220D01*
X160498554Y-112904513D01*
X160498550Y-112904506D01*
X160412390Y-112789412D01*
X160412387Y-112789409D01*
X160297293Y-112703249D01*
X160297286Y-112703245D01*
X160162579Y-112653003D01*
X160162572Y-112653001D01*
X160103044Y-112646600D01*
X156101500Y-112646600D01*
X155601500Y-112646600D01*
X152334588Y-112646600D01*
X152267549Y-112626915D01*
X152221794Y-112574111D01*
X152211850Y-112504953D01*
X152240875Y-112441397D01*
X152246907Y-112434919D01*
X152499307Y-112182519D01*
X152560630Y-112149034D01*
X152586988Y-112146200D01*
X160264811Y-112146200D01*
X160331850Y-112165885D01*
X160352492Y-112182519D01*
X160537077Y-112367104D01*
X160537087Y-112367115D01*
X160655352Y-112485380D01*
X160684645Y-112504953D01*
X160691352Y-112509434D01*
X160789332Y-112574903D01*
X160898284Y-112620032D01*
X160938198Y-112636565D01*
X161096229Y-112667999D01*
X161096233Y-112668000D01*
X161096234Y-112668000D01*
X161096235Y-112668000D01*
X161257366Y-112668000D01*
X163984811Y-112668000D01*
X164051850Y-112687685D01*
X164072492Y-112704319D01*
X164398551Y-113030379D01*
X164398554Y-113030382D01*
X164411792Y-113039227D01*
X164532531Y-113119902D01*
X164546819Y-113125820D01*
X164576124Y-113137959D01*
X164576129Y-113137960D01*
X164576133Y-113137962D01*
X164681398Y-113181565D01*
X164839429Y-113212999D01*
X164839433Y-113213000D01*
X164839434Y-113213000D01*
X165000565Y-113213000D01*
X166000576Y-113213000D01*
X166067615Y-113232685D01*
X166106113Y-113271901D01*
X166147288Y-113338656D01*
X166271344Y-113462712D01*
X166275589Y-113465330D01*
X166322317Y-113517273D01*
X166334500Y-113570873D01*
X166334500Y-114643000D01*
X166314815Y-114710039D01*
X166262011Y-114755794D01*
X166210500Y-114767000D01*
X165392129Y-114767000D01*
X165392123Y-114767001D01*
X165332516Y-114773408D01*
X165197671Y-114823702D01*
X165197664Y-114823706D01*
X165082455Y-114909952D01*
X165082452Y-114909955D01*
X164996206Y-115025164D01*
X164996202Y-115025171D01*
X164945908Y-115160017D01*
X164941402Y-115201936D01*
X164939501Y-115219623D01*
X164939500Y-115219635D01*
X164939500Y-116712370D01*
X164939501Y-116712376D01*
X164945908Y-116771983D01*
X164996202Y-116906828D01*
X164996206Y-116906835D01*
X165082452Y-117022044D01*
X165082455Y-117022047D01*
X165197664Y-117108293D01*
X165197673Y-117108298D01*
X165229273Y-117120084D01*
X165285207Y-117161954D01*
X165309625Y-117227419D01*
X165294774Y-117295692D01*
X165245369Y-117345098D01*
X165229276Y-117352447D01*
X165197916Y-117364144D01*
X165197906Y-117364149D01*
X165082812Y-117450309D01*
X165082809Y-117450312D01*
X164996649Y-117565406D01*
X164996645Y-117565413D01*
X164946403Y-117700120D01*
X164946401Y-117700127D01*
X164940000Y-117759655D01*
X164940000Y-118256000D01*
X169445200Y-118256000D01*
X169445200Y-117759672D01*
X169445199Y-117759655D01*
X169438798Y-117700127D01*
X169438796Y-117700120D01*
X169388554Y-117565413D01*
X169388550Y-117565406D01*
X169302390Y-117450312D01*
X169302387Y-117450309D01*
X169187293Y-117364149D01*
X169187281Y-117364143D01*
X169155924Y-117352447D01*
X169099990Y-117310576D01*
X169075574Y-117245111D01*
X169090426Y-117176838D01*
X169139832Y-117127433D01*
X169155920Y-117120085D01*
X169187531Y-117108296D01*
X169302746Y-117022046D01*
X169388996Y-116906831D01*
X169439291Y-116771983D01*
X169445700Y-116712373D01*
X169445699Y-115219628D01*
X169439291Y-115160017D01*
X169422762Y-115115701D01*
X169388997Y-115025171D01*
X169388993Y-115025164D01*
X169302747Y-114909955D01*
X169302744Y-114909952D01*
X169187535Y-114823706D01*
X169187528Y-114823702D01*
X169052682Y-114773408D01*
X169052683Y-114773408D01*
X168993083Y-114767001D01*
X168993081Y-114767000D01*
X168993073Y-114767000D01*
X168993065Y-114767000D01*
X168094500Y-114767000D01*
X168027461Y-114747315D01*
X167981706Y-114694511D01*
X167970500Y-114643000D01*
X167970500Y-113427230D01*
X167990185Y-113360191D01*
X168006819Y-113339549D01*
X168007712Y-113338656D01*
X168009752Y-113335347D01*
X168011745Y-113333555D01*
X168012193Y-113332989D01*
X168012289Y-113333065D01*
X168061694Y-113288623D01*
X168130656Y-113277395D01*
X168194740Y-113305234D01*
X168220829Y-113335339D01*
X168222681Y-113338341D01*
X168222683Y-113338344D01*
X168346654Y-113462315D01*
X168495875Y-113554356D01*
X168495880Y-113554358D01*
X168662302Y-113609505D01*
X168662309Y-113609506D01*
X168765019Y-113619999D01*
X168902499Y-113619999D01*
X168902500Y-113619998D01*
X168902500Y-112645000D01*
X169402500Y-112645000D01*
X169402500Y-113619999D01*
X169539972Y-113619999D01*
X169539986Y-113619998D01*
X169642697Y-113609505D01*
X169809119Y-113554358D01*
X169809124Y-113554356D01*
X169958345Y-113462315D01*
X170082315Y-113338345D01*
X170174356Y-113189124D01*
X170174358Y-113189119D01*
X170229505Y-113022697D01*
X170229506Y-113022690D01*
X170239999Y-112919986D01*
X170240000Y-112919973D01*
X170240000Y-112645000D01*
X169402500Y-112645000D01*
X168902500Y-112645000D01*
X168902500Y-111170000D01*
X169402500Y-111170000D01*
X169402500Y-112145000D01*
X170239999Y-112145000D01*
X170239999Y-111870028D01*
X170239998Y-111870013D01*
X170229505Y-111767302D01*
X170174358Y-111600880D01*
X170174356Y-111600875D01*
X170082315Y-111451654D01*
X169958345Y-111327684D01*
X169809124Y-111235643D01*
X169809119Y-111235641D01*
X169642697Y-111180494D01*
X169642690Y-111180493D01*
X169539986Y-111170000D01*
X169402500Y-111170000D01*
X168902500Y-111170000D01*
X168765027Y-111170000D01*
X168765012Y-111170001D01*
X168662302Y-111180494D01*
X168495880Y-111235641D01*
X168495875Y-111235643D01*
X168346654Y-111327684D01*
X168222683Y-111451655D01*
X168222679Y-111451660D01*
X168220826Y-111454665D01*
X168219018Y-111456290D01*
X168218202Y-111457323D01*
X168218025Y-111457183D01*
X168168874Y-111501385D01*
X168099911Y-111512601D01*
X168035831Y-111484752D01*
X168009753Y-111454653D01*
X168009737Y-111454628D01*
X168007712Y-111451344D01*
X167883656Y-111327288D01*
X167734334Y-111235186D01*
X167567797Y-111180001D01*
X167567795Y-111180000D01*
X167465010Y-111169500D01*
X166689998Y-111169500D01*
X166689980Y-111169501D01*
X166587203Y-111180000D01*
X166587200Y-111180001D01*
X166420668Y-111235185D01*
X166420663Y-111235187D01*
X166271342Y-111327289D01*
X166147289Y-111451342D01*
X166144237Y-111456290D01*
X166109505Y-111512601D01*
X166106115Y-111518097D01*
X166054167Y-111564821D01*
X166000576Y-111577000D01*
X165310189Y-111577000D01*
X165243150Y-111557315D01*
X165222508Y-111540681D01*
X164896448Y-111214620D01*
X164896444Y-111214617D01*
X164762471Y-111125098D01*
X164762468Y-111125097D01*
X164676764Y-111089598D01*
X164613602Y-111063435D01*
X164613594Y-111063433D01*
X164455570Y-111032000D01*
X164455566Y-111032000D01*
X161597000Y-111032000D01*
X161529961Y-111012315D01*
X161484206Y-110959511D01*
X161473000Y-110908000D01*
X161473000Y-110594700D01*
X161492685Y-110527661D01*
X161545489Y-110481906D01*
X161597000Y-110470700D01*
X172592485Y-110470700D01*
X172659524Y-110490385D01*
X172705279Y-110543189D01*
X172715223Y-110612347D01*
X172712260Y-110626794D01*
X172659364Y-110824199D01*
X172659364Y-110824200D01*
X173556988Y-110824200D01*
X173524075Y-110881207D01*
X173490000Y-111008374D01*
X173490000Y-111140026D01*
X173524075Y-111267193D01*
X173556988Y-111324200D01*
X172659364Y-111324200D01*
X172716567Y-111537686D01*
X172716570Y-111537692D01*
X172816399Y-111751778D01*
X172951894Y-111945282D01*
X173118917Y-112112305D01*
X173304595Y-112242319D01*
X173348219Y-112296896D01*
X173355412Y-112366395D01*
X173323890Y-112428749D01*
X173304595Y-112445469D01*
X173144063Y-112557875D01*
X173077857Y-112580202D01*
X173072939Y-112580300D01*
X172118765Y-112580300D01*
X172118745Y-112580299D01*
X172112631Y-112580299D01*
X171908970Y-112580299D01*
X171908968Y-112580299D01*
X171709227Y-112620030D01*
X171709217Y-112620033D01*
X171521071Y-112697965D01*
X171521058Y-112697972D01*
X171351727Y-112811116D01*
X171351723Y-112811119D01*
X170450622Y-113712222D01*
X170155929Y-114006915D01*
X170155927Y-114006917D01*
X170101451Y-114061393D01*
X170011915Y-114150928D01*
X169898772Y-114320258D01*
X169898765Y-114320271D01*
X169820833Y-114508417D01*
X169820830Y-114508429D01*
X169781100Y-114708165D01*
X169781100Y-119957100D01*
X169761415Y-120024139D01*
X169708611Y-120069894D01*
X169657100Y-120081100D01*
X169433047Y-120081100D01*
X169366008Y-120061415D01*
X169333782Y-120031413D01*
X169302746Y-119989954D01*
X169258859Y-119957100D01*
X169187535Y-119903706D01*
X169187530Y-119903703D01*
X169155924Y-119891915D01*
X169099991Y-119850043D01*
X169075574Y-119784579D01*
X169090426Y-119716306D01*
X169139831Y-119666901D01*
X169155926Y-119659551D01*
X169187284Y-119647855D01*
X169187293Y-119647850D01*
X169302387Y-119561690D01*
X169302390Y-119561687D01*
X169388550Y-119446593D01*
X169388554Y-119446586D01*
X169438796Y-119311879D01*
X169438798Y-119311872D01*
X169445199Y-119252344D01*
X169445200Y-119252327D01*
X169445200Y-118756000D01*
X164940000Y-118756000D01*
X164940000Y-119252344D01*
X164946401Y-119311872D01*
X164946403Y-119311879D01*
X164996645Y-119446586D01*
X164996649Y-119446593D01*
X165082809Y-119561687D01*
X165082812Y-119561690D01*
X165197906Y-119647850D01*
X165197913Y-119647854D01*
X165229274Y-119659551D01*
X165285208Y-119701422D01*
X165309625Y-119766886D01*
X165294774Y-119835159D01*
X165245369Y-119884565D01*
X165229276Y-119891914D01*
X165197674Y-119903701D01*
X165197664Y-119903706D01*
X165082455Y-119989952D01*
X165082452Y-119989955D01*
X164996206Y-120105164D01*
X164996202Y-120105171D01*
X164945908Y-120240017D01*
X164939501Y-120299616D01*
X164939500Y-120299635D01*
X164939500Y-121792370D01*
X164939501Y-121792376D01*
X164945908Y-121851983D01*
X164996202Y-121986828D01*
X164996206Y-121986835D01*
X165082452Y-122102044D01*
X165082455Y-122102047D01*
X165197664Y-122188293D01*
X165197671Y-122188297D01*
X165332517Y-122238591D01*
X165332516Y-122238591D01*
X165339444Y-122239335D01*
X165392127Y-122245000D01*
X168993072Y-122244999D01*
X169052683Y-122238591D01*
X169187531Y-122188296D01*
X169187656Y-122188201D01*
X169207118Y-122173634D01*
X169272582Y-122149216D01*
X169281429Y-122148900D01*
X169683577Y-122148900D01*
X169750616Y-122168585D01*
X169796371Y-122221389D01*
X169806315Y-122290547D01*
X169777290Y-122354103D01*
X169771258Y-122360581D01*
X169747684Y-122384154D01*
X169655643Y-122533375D01*
X169655641Y-122533380D01*
X169600494Y-122699802D01*
X169600493Y-122699809D01*
X169590000Y-122802513D01*
X169590000Y-122940000D01*
X172039999Y-122940000D01*
X172039999Y-122802528D01*
X172039998Y-122802513D01*
X172029505Y-122699802D01*
X171974358Y-122533380D01*
X171974356Y-122533375D01*
X171882315Y-122384154D01*
X171758344Y-122260183D01*
X171758341Y-122260181D01*
X171755339Y-122258329D01*
X171753713Y-122256521D01*
X171752677Y-122255702D01*
X171752817Y-122255524D01*
X171708617Y-122206380D01*
X171697397Y-122137417D01*
X171725243Y-122073336D01*
X171755344Y-122047254D01*
X171758656Y-122045212D01*
X171882712Y-121921156D01*
X171974814Y-121771834D01*
X172029999Y-121605297D01*
X172040500Y-121502509D01*
X172040499Y-120727492D01*
X172029999Y-120624703D01*
X171974814Y-120458166D01*
X171882712Y-120308844D01*
X171882709Y-120308841D01*
X171878234Y-120303181D01*
X171879996Y-120301787D01*
X171851734Y-120250028D01*
X171848900Y-120223670D01*
X171848900Y-115289617D01*
X171868585Y-115222578D01*
X171885219Y-115201936D01*
X172402737Y-114684419D01*
X172464060Y-114650934D01*
X172490418Y-114648100D01*
X173072939Y-114648100D01*
X173139978Y-114667785D01*
X173144062Y-114670525D01*
X173304158Y-114782625D01*
X173347783Y-114837202D01*
X173354977Y-114906700D01*
X173323454Y-114969055D01*
X173304158Y-114985775D01*
X173118597Y-115115705D01*
X172951505Y-115282797D01*
X172815965Y-115476369D01*
X172815964Y-115476371D01*
X172716098Y-115690535D01*
X172716094Y-115690544D01*
X172654938Y-115918786D01*
X172654936Y-115918796D01*
X172634341Y-116154199D01*
X172634341Y-116154200D01*
X172654936Y-116389603D01*
X172654938Y-116389613D01*
X172716094Y-116617855D01*
X172716096Y-116617859D01*
X172716097Y-116617863D01*
X172760173Y-116712383D01*
X172815965Y-116832030D01*
X172815967Y-116832034D01*
X172868339Y-116906828D01*
X172951505Y-117025601D01*
X173118599Y-117192695D01*
X173149073Y-117214033D01*
X173312165Y-117328232D01*
X173312167Y-117328233D01*
X173312170Y-117328235D01*
X173526337Y-117428103D01*
X173754592Y-117489263D01*
X173942918Y-117505739D01*
X173989999Y-117509859D01*
X173990000Y-117509859D01*
X173990001Y-117509859D01*
X174029234Y-117506426D01*
X174225408Y-117489263D01*
X174453663Y-117428103D01*
X174667830Y-117328235D01*
X174861401Y-117192695D01*
X175028495Y-117025601D01*
X175164035Y-116832030D01*
X175263903Y-116617863D01*
X175325063Y-116389608D01*
X175345659Y-116154200D01*
X175325063Y-115918792D01*
X175263903Y-115690537D01*
X175164035Y-115476371D01*
X175044900Y-115306227D01*
X175028494Y-115282797D01*
X174861402Y-115115706D01*
X174861396Y-115115701D01*
X174675842Y-114985775D01*
X174632217Y-114931198D01*
X174625023Y-114861700D01*
X174656546Y-114799345D01*
X174675842Y-114782625D01*
X174698157Y-114767000D01*
X174861401Y-114652695D01*
X175028495Y-114485601D01*
X175164035Y-114292030D01*
X175263903Y-114077863D01*
X175325063Y-113849608D01*
X175345659Y-113614200D01*
X175325063Y-113378792D01*
X175278626Y-113205485D01*
X175263905Y-113150544D01*
X175263904Y-113150543D01*
X175263903Y-113150537D01*
X175164035Y-112936371D01*
X175152579Y-112920009D01*
X175028494Y-112742797D01*
X174861402Y-112575706D01*
X174861401Y-112575705D01*
X174675405Y-112445469D01*
X174631781Y-112390892D01*
X174624588Y-112321393D01*
X174656110Y-112259039D01*
X174675405Y-112242319D01*
X174861082Y-112112305D01*
X175028105Y-111945282D01*
X175163600Y-111751778D01*
X175263429Y-111537692D01*
X175263432Y-111537686D01*
X175320636Y-111324200D01*
X174423012Y-111324200D01*
X174455925Y-111267193D01*
X174490000Y-111140026D01*
X174490000Y-111008374D01*
X174455925Y-110881207D01*
X174423012Y-110824200D01*
X175320636Y-110824200D01*
X175320635Y-110824199D01*
X175263432Y-110610713D01*
X175263429Y-110610707D01*
X175163600Y-110396622D01*
X175163599Y-110396620D01*
X175028113Y-110203126D01*
X175028108Y-110203120D01*
X174906053Y-110081065D01*
X174872568Y-110019742D01*
X174877552Y-109950050D01*
X174919424Y-109894117D01*
X174950400Y-109877202D01*
X175082331Y-109827996D01*
X175197546Y-109741746D01*
X175283796Y-109626531D01*
X175334091Y-109491683D01*
X175340500Y-109432073D01*
X175340499Y-107636328D01*
X175334091Y-107576717D01*
X175283796Y-107441869D01*
X175283795Y-107441868D01*
X175283793Y-107441864D01*
X175197547Y-107326655D01*
X175197544Y-107326652D01*
X175082335Y-107240406D01*
X175082328Y-107240402D01*
X174947482Y-107190108D01*
X174947483Y-107190108D01*
X174887883Y-107183701D01*
X174887881Y-107183700D01*
X174887873Y-107183700D01*
X174887864Y-107183700D01*
X173092129Y-107183700D01*
X173092123Y-107183701D01*
X173032516Y-107190108D01*
X172897671Y-107240402D01*
X172897664Y-107240406D01*
X172782455Y-107326652D01*
X172782452Y-107326655D01*
X172696206Y-107441864D01*
X172696202Y-107441871D01*
X172645908Y-107576717D01*
X172639501Y-107636316D01*
X172639501Y-107636323D01*
X172639500Y-107636335D01*
X172639500Y-108676509D01*
X172619815Y-108743548D01*
X172603183Y-108764189D01*
X172568993Y-108798380D01*
X172507670Y-108831866D01*
X172481310Y-108834700D01*
X160776729Y-108834700D01*
X160618705Y-108866133D01*
X160618693Y-108866136D01*
X160513432Y-108909737D01*
X160469833Y-108927796D01*
X160469828Y-108927799D01*
X160335859Y-109017314D01*
X160335851Y-109017320D01*
X160019620Y-109333551D01*
X160019617Y-109333555D01*
X159930098Y-109467528D01*
X159930097Y-109467531D01*
X159909511Y-109517231D01*
X159909511Y-109517232D01*
X159868435Y-109616397D01*
X159868433Y-109616405D01*
X159837000Y-109774429D01*
X159837000Y-110386200D01*
X159817315Y-110453239D01*
X159764511Y-110498994D01*
X159713000Y-110510200D01*
X152116229Y-110510200D01*
X151958205Y-110541633D01*
X151958193Y-110541636D01*
X151809336Y-110603294D01*
X151809334Y-110603295D01*
X151740433Y-110649334D01*
X151675354Y-110692818D01*
X151630778Y-110737395D01*
X151561418Y-110806755D01*
X151561416Y-110806757D01*
X148589620Y-113778551D01*
X148589617Y-113778555D01*
X148500100Y-113912525D01*
X148500093Y-113912538D01*
X148438436Y-114061393D01*
X148438433Y-114061405D01*
X148407000Y-114219429D01*
X148407000Y-120208075D01*
X148387315Y-120275114D01*
X148348098Y-120313613D01*
X148281344Y-120354787D01*
X148281343Y-120354788D01*
X148205451Y-120430681D01*
X148144128Y-120464166D01*
X148117770Y-120467000D01*
X147800867Y-120467000D01*
X147733828Y-120447315D01*
X147688073Y-120394511D01*
X147677577Y-120356254D01*
X147677218Y-120352917D01*
X147674391Y-120326617D01*
X147624096Y-120191769D01*
X147624095Y-120191768D01*
X147624093Y-120191764D01*
X147537847Y-120076555D01*
X147537844Y-120076552D01*
X147422635Y-119990306D01*
X147422630Y-119990303D01*
X147391024Y-119978515D01*
X147335091Y-119936643D01*
X147310674Y-119871179D01*
X147325526Y-119802906D01*
X147374931Y-119753501D01*
X147391026Y-119746151D01*
X147422384Y-119734455D01*
X147422393Y-119734450D01*
X147537487Y-119648290D01*
X147537490Y-119648287D01*
X147623650Y-119533193D01*
X147623654Y-119533186D01*
X147673896Y-119398479D01*
X147673898Y-119398472D01*
X147680299Y-119338944D01*
X147680300Y-119338927D01*
X147680300Y-118842600D01*
X143175100Y-118842600D01*
X143175100Y-119338944D01*
X143181501Y-119398472D01*
X143181503Y-119398479D01*
X143231745Y-119533186D01*
X143231749Y-119533193D01*
X143317909Y-119648287D01*
X143317912Y-119648290D01*
X143433006Y-119734450D01*
X143433013Y-119734454D01*
X143464374Y-119746151D01*
X143520308Y-119788022D01*
X143544725Y-119853486D01*
X143529874Y-119921759D01*
X143480469Y-119971165D01*
X143464376Y-119978514D01*
X143432774Y-119990301D01*
X143432764Y-119990306D01*
X143317555Y-120076552D01*
X143317552Y-120076555D01*
X143231306Y-120191764D01*
X143231302Y-120191771D01*
X143181008Y-120326617D01*
X143174601Y-120386216D01*
X143174600Y-120386235D01*
X143174600Y-121878970D01*
X138790300Y-121878970D01*
X138790300Y-118842600D01*
X134336600Y-118842600D01*
X133836600Y-118842600D01*
X129382900Y-118842600D01*
X127500500Y-118842600D01*
X127500500Y-118342600D01*
X129382900Y-118342600D01*
X133836600Y-118342600D01*
X133836600Y-112733200D01*
X134336600Y-112733200D01*
X134336600Y-118342600D01*
X138790300Y-118342600D01*
X138790300Y-113185372D01*
X138790299Y-113185355D01*
X138783898Y-113125827D01*
X138783896Y-113125820D01*
X138733654Y-112991113D01*
X138733650Y-112991106D01*
X138647490Y-112876012D01*
X138647487Y-112876009D01*
X138532393Y-112789849D01*
X138532386Y-112789845D01*
X138397679Y-112739603D01*
X138397672Y-112739601D01*
X138338144Y-112733200D01*
X134336600Y-112733200D01*
X133836600Y-112733200D01*
X129835055Y-112733200D01*
X129775527Y-112739601D01*
X129775520Y-112739603D01*
X129640813Y-112789845D01*
X129640806Y-112789849D01*
X129525712Y-112876009D01*
X129525709Y-112876012D01*
X129439549Y-112991106D01*
X129439545Y-112991113D01*
X129389303Y-113125820D01*
X129389301Y-113125827D01*
X129382900Y-113185355D01*
X129382900Y-118342600D01*
X127500500Y-118342600D01*
X127500500Y-109811314D01*
X127520185Y-109744275D01*
X127572989Y-109698520D01*
X127642147Y-109688576D01*
X127693391Y-109708212D01*
X127794960Y-109776079D01*
X127794973Y-109776086D01*
X127909160Y-109823383D01*
X127909165Y-109823385D01*
X127909169Y-109823385D01*
X127909170Y-109823386D01*
X128030394Y-109847500D01*
X128030397Y-109847500D01*
X128154003Y-109847500D01*
X138283819Y-109847500D01*
X138350858Y-109867185D01*
X138371500Y-109883819D01*
X138742689Y-110255008D01*
X138830092Y-110342411D01*
X138830094Y-110342413D01*
X138830096Y-110342414D01*
X138932856Y-110411076D01*
X138932858Y-110411077D01*
X138932867Y-110411083D01*
X138957872Y-110421440D01*
X138980171Y-110430677D01*
X139022354Y-110448149D01*
X139047066Y-110458386D01*
X139108974Y-110470700D01*
X139168292Y-110482499D01*
X139168296Y-110482500D01*
X139168297Y-110482500D01*
X144077862Y-110482500D01*
X144144901Y-110502185D01*
X144190656Y-110554989D01*
X144195564Y-110567488D01*
X144222686Y-110649334D01*
X144314788Y-110798656D01*
X144438844Y-110922712D01*
X144546919Y-110989373D01*
X144558596Y-110996575D01*
X144605321Y-111048523D01*
X144617500Y-111102114D01*
X144617500Y-114729600D01*
X144597815Y-114796639D01*
X144545011Y-114842394D01*
X144493500Y-114853600D01*
X143627229Y-114853600D01*
X143627223Y-114853601D01*
X143567616Y-114860008D01*
X143432771Y-114910302D01*
X143432764Y-114910306D01*
X143317555Y-114996552D01*
X143317552Y-114996555D01*
X143231306Y-115111764D01*
X143231302Y-115111771D01*
X143181008Y-115246617D01*
X143174601Y-115306216D01*
X143174601Y-115306223D01*
X143174600Y-115306235D01*
X143174600Y-116798970D01*
X143174601Y-116798976D01*
X143181008Y-116858583D01*
X143231302Y-116993428D01*
X143231306Y-116993435D01*
X143317552Y-117108644D01*
X143317555Y-117108647D01*
X143432764Y-117194893D01*
X143432773Y-117194898D01*
X143464373Y-117206684D01*
X143520307Y-117248554D01*
X143544725Y-117314019D01*
X143529874Y-117382292D01*
X143480469Y-117431698D01*
X143464376Y-117439047D01*
X143433016Y-117450744D01*
X143433006Y-117450749D01*
X143317912Y-117536909D01*
X143317909Y-117536912D01*
X143231749Y-117652006D01*
X143231745Y-117652013D01*
X143181503Y-117786720D01*
X143181501Y-117786727D01*
X143175100Y-117846255D01*
X143175100Y-118342600D01*
X147680300Y-118342600D01*
X147680300Y-117846272D01*
X147680299Y-117846255D01*
X147673898Y-117786727D01*
X147673896Y-117786720D01*
X147623654Y-117652013D01*
X147623650Y-117652006D01*
X147537490Y-117536912D01*
X147537487Y-117536909D01*
X147422393Y-117450749D01*
X147422381Y-117450743D01*
X147391024Y-117439047D01*
X147335090Y-117397176D01*
X147310674Y-117331711D01*
X147325526Y-117263438D01*
X147374932Y-117214033D01*
X147391020Y-117206685D01*
X147422631Y-117194896D01*
X147537846Y-117108646D01*
X147624096Y-116993431D01*
X147674391Y-116858583D01*
X147680800Y-116798973D01*
X147680799Y-115306228D01*
X147674391Y-115246617D01*
X147671272Y-115238255D01*
X147624097Y-115111771D01*
X147624093Y-115111764D01*
X147537847Y-114996555D01*
X147537844Y-114996552D01*
X147422635Y-114910306D01*
X147422628Y-114910302D01*
X147287782Y-114860008D01*
X147287783Y-114860008D01*
X147228183Y-114853601D01*
X147228181Y-114853600D01*
X147228173Y-114853600D01*
X147228165Y-114853600D01*
X145996500Y-114853600D01*
X145929461Y-114833915D01*
X145883706Y-114781111D01*
X145872500Y-114729600D01*
X145872500Y-111102114D01*
X145892185Y-111035075D01*
X145931404Y-110996575D01*
X146051156Y-110922712D01*
X146175212Y-110798656D01*
X146177252Y-110795347D01*
X146179245Y-110793555D01*
X146179693Y-110792989D01*
X146179789Y-110793065D01*
X146229194Y-110748623D01*
X146298156Y-110737395D01*
X146362240Y-110765234D01*
X146388329Y-110795339D01*
X146390181Y-110798341D01*
X146390183Y-110798344D01*
X146514154Y-110922315D01*
X146663375Y-111014356D01*
X146663380Y-111014358D01*
X146829802Y-111069505D01*
X146829809Y-111069506D01*
X146932519Y-111079999D01*
X147069999Y-111079999D01*
X147070000Y-111079998D01*
X147070000Y-110105000D01*
X147570000Y-110105000D01*
X147570000Y-111079999D01*
X147707472Y-111079999D01*
X147707486Y-111079998D01*
X147810197Y-111069505D01*
X147976619Y-111014358D01*
X147976624Y-111014356D01*
X148125845Y-110922315D01*
X148249815Y-110798345D01*
X148341856Y-110649124D01*
X148341858Y-110649119D01*
X148397005Y-110482697D01*
X148397006Y-110482690D01*
X148407499Y-110379986D01*
X148407500Y-110379973D01*
X148407500Y-110105000D01*
X147570000Y-110105000D01*
X147070000Y-110105000D01*
X147070000Y-108630000D01*
X147570000Y-108630000D01*
X147570000Y-109605000D01*
X148407499Y-109605000D01*
X148407499Y-109330028D01*
X148407498Y-109330013D01*
X148397005Y-109227302D01*
X148341858Y-109060880D01*
X148341856Y-109060875D01*
X148249815Y-108911654D01*
X148125845Y-108787684D01*
X147976624Y-108695643D01*
X147976619Y-108695641D01*
X147810197Y-108640494D01*
X147810190Y-108640493D01*
X147707486Y-108630000D01*
X147570000Y-108630000D01*
X147070000Y-108630000D01*
X146932527Y-108630000D01*
X146932512Y-108630001D01*
X146829802Y-108640494D01*
X146663380Y-108695641D01*
X146663375Y-108695643D01*
X146514154Y-108787684D01*
X146390183Y-108911655D01*
X146390179Y-108911660D01*
X146388326Y-108914665D01*
X146386518Y-108916290D01*
X146385702Y-108917323D01*
X146385525Y-108917183D01*
X146336374Y-108961385D01*
X146267411Y-108972601D01*
X146203331Y-108944752D01*
X146177253Y-108914653D01*
X146177237Y-108914628D01*
X146175212Y-108911344D01*
X146051156Y-108787288D01*
X145901834Y-108695186D01*
X145735297Y-108640001D01*
X145735295Y-108640000D01*
X145632510Y-108629500D01*
X144857498Y-108629500D01*
X144857480Y-108629501D01*
X144754703Y-108640000D01*
X144754700Y-108640001D01*
X144588168Y-108695185D01*
X144588163Y-108695187D01*
X144438842Y-108787289D01*
X144314789Y-108911342D01*
X144222687Y-109060663D01*
X144222685Y-109060668D01*
X144195568Y-109142504D01*
X144155795Y-109199949D01*
X144091280Y-109226772D01*
X144077862Y-109227500D01*
X139541381Y-109227500D01*
X139474342Y-109207815D01*
X139453700Y-109191181D01*
X138995111Y-108732591D01*
X138995106Y-108732587D01*
X138957789Y-108707653D01*
X138939130Y-108695186D01*
X138892333Y-108663917D01*
X138892332Y-108663916D01*
X138892330Y-108663915D01*
X138892328Y-108663914D01*
X138858885Y-108650062D01*
X138778135Y-108616614D01*
X138778127Y-108616612D01*
X138656907Y-108592500D01*
X138656903Y-108592500D01*
X128843700Y-108592500D01*
X128776661Y-108572815D01*
X128730906Y-108520011D01*
X128719700Y-108468500D01*
X128719700Y-105065200D01*
X129217600Y-105065200D01*
X129217600Y-105513044D01*
X129224001Y-105572572D01*
X129224003Y-105572579D01*
X129274245Y-105707286D01*
X129274249Y-105707293D01*
X129360409Y-105822387D01*
X129360412Y-105822390D01*
X129475506Y-105908550D01*
X129475513Y-105908554D01*
X129610220Y-105958796D01*
X129610227Y-105958798D01*
X129669755Y-105965199D01*
X129669772Y-105965200D01*
X130242600Y-105965200D01*
X130242600Y-105065200D01*
X130742600Y-105065200D01*
X130742600Y-105965200D01*
X131315428Y-105965200D01*
X131315444Y-105965199D01*
X131374972Y-105958798D01*
X131374979Y-105958796D01*
X131509686Y-105908554D01*
X131509693Y-105908550D01*
X131624787Y-105822390D01*
X131624790Y-105822387D01*
X131710950Y-105707293D01*
X131710954Y-105707286D01*
X131761196Y-105572579D01*
X131761198Y-105572572D01*
X131767599Y-105513044D01*
X131767600Y-105513027D01*
X131767600Y-105065200D01*
X137167600Y-105065200D01*
X137167600Y-105513044D01*
X137174001Y-105572572D01*
X137174003Y-105572579D01*
X137224245Y-105707286D01*
X137224249Y-105707293D01*
X137310409Y-105822387D01*
X137310412Y-105822390D01*
X137425506Y-105908550D01*
X137425513Y-105908554D01*
X137560220Y-105958796D01*
X137560227Y-105958798D01*
X137619755Y-105965199D01*
X137619772Y-105965200D01*
X138192600Y-105965200D01*
X138192600Y-105065200D01*
X138692600Y-105065200D01*
X138692600Y-105965200D01*
X139265428Y-105965200D01*
X139265444Y-105965199D01*
X139324972Y-105958798D01*
X139324979Y-105958796D01*
X139459686Y-105908554D01*
X139459693Y-105908550D01*
X139574787Y-105822390D01*
X139574790Y-105822387D01*
X139660950Y-105707293D01*
X139660954Y-105707286D01*
X139711196Y-105572579D01*
X139711198Y-105572572D01*
X139717599Y-105513044D01*
X139717600Y-105513027D01*
X139717600Y-105065200D01*
X138692600Y-105065200D01*
X138192600Y-105065200D01*
X137167600Y-105065200D01*
X131767600Y-105065200D01*
X130742600Y-105065200D01*
X130242600Y-105065200D01*
X129217600Y-105065200D01*
X128719700Y-105065200D01*
X128719700Y-104565200D01*
X129217600Y-104565200D01*
X130242600Y-104565200D01*
X130242600Y-103665200D01*
X130742600Y-103665200D01*
X130742600Y-104565200D01*
X131767600Y-104565200D01*
X137167600Y-104565200D01*
X138192600Y-104565200D01*
X138192600Y-103665200D01*
X138692600Y-103665200D01*
X138692600Y-104565200D01*
X139717600Y-104565200D01*
X139717600Y-104117372D01*
X139717599Y-104117355D01*
X139711198Y-104057827D01*
X139711196Y-104057820D01*
X139660954Y-103923113D01*
X139660950Y-103923106D01*
X139574790Y-103808012D01*
X139574787Y-103808009D01*
X139459693Y-103721849D01*
X139459686Y-103721845D01*
X139324979Y-103671603D01*
X139324972Y-103671601D01*
X139265444Y-103665200D01*
X138692600Y-103665200D01*
X138192600Y-103665200D01*
X137619755Y-103665200D01*
X137560227Y-103671601D01*
X137560220Y-103671603D01*
X137425513Y-103721845D01*
X137425506Y-103721849D01*
X137310412Y-103808009D01*
X137310409Y-103808012D01*
X137224249Y-103923106D01*
X137224245Y-103923113D01*
X137174003Y-104057820D01*
X137174001Y-104057827D01*
X137167600Y-104117355D01*
X137167600Y-104565200D01*
X131767600Y-104565200D01*
X131767600Y-104117372D01*
X131767599Y-104117355D01*
X131761198Y-104057827D01*
X131761196Y-104057820D01*
X131710954Y-103923113D01*
X131710950Y-103923106D01*
X131624790Y-103808012D01*
X131624787Y-103808009D01*
X131509693Y-103721849D01*
X131509686Y-103721845D01*
X131374979Y-103671603D01*
X131374972Y-103671601D01*
X131315444Y-103665200D01*
X130742600Y-103665200D01*
X130242600Y-103665200D01*
X129669755Y-103665200D01*
X129610227Y-103671601D01*
X129610220Y-103671603D01*
X129475513Y-103721845D01*
X129475506Y-103721849D01*
X129360412Y-103808009D01*
X129360409Y-103808012D01*
X129274249Y-103923106D01*
X129274245Y-103923113D01*
X129224003Y-104057820D01*
X129224001Y-104057827D01*
X129217600Y-104117355D01*
X129217600Y-104565200D01*
X128719700Y-104565200D01*
X128719700Y-100594080D01*
X128739385Y-100527041D01*
X128756015Y-100506403D01*
X129005419Y-100256998D01*
X129066742Y-100223514D01*
X129136434Y-100228498D01*
X129192367Y-100270370D01*
X129216784Y-100335834D01*
X129217100Y-100344680D01*
X129217100Y-101013070D01*
X129217101Y-101013076D01*
X129223508Y-101072683D01*
X129273802Y-101207528D01*
X129273806Y-101207535D01*
X129360052Y-101322744D01*
X129360055Y-101322747D01*
X129475264Y-101408993D01*
X129475271Y-101408997D01*
X129610117Y-101459291D01*
X129610116Y-101459291D01*
X129617044Y-101460035D01*
X129669727Y-101465700D01*
X131315472Y-101465699D01*
X131375083Y-101459291D01*
X131509931Y-101408996D01*
X131625146Y-101322746D01*
X131711396Y-101207531D01*
X131761691Y-101072683D01*
X131762999Y-101060519D01*
X131763760Y-101053443D01*
X131790499Y-100988892D01*
X131847892Y-100949045D01*
X131887049Y-100942700D01*
X137048151Y-100942700D01*
X137115190Y-100962385D01*
X137160945Y-101015189D01*
X137171441Y-101053446D01*
X137173509Y-101072683D01*
X137223802Y-101207528D01*
X137223806Y-101207535D01*
X137310052Y-101322744D01*
X137310055Y-101322747D01*
X137425264Y-101408993D01*
X137425271Y-101408997D01*
X137560117Y-101459291D01*
X137560116Y-101459291D01*
X137567044Y-101460035D01*
X137619727Y-101465700D01*
X139265472Y-101465699D01*
X139325083Y-101459291D01*
X139459931Y-101408996D01*
X139575146Y-101322746D01*
X139661396Y-101207531D01*
X139711691Y-101072683D01*
X139718100Y-101013073D01*
X139718099Y-99617328D01*
X139711691Y-99557717D01*
X139661396Y-99422869D01*
X139661395Y-99422868D01*
X139661393Y-99422864D01*
X139575147Y-99307655D01*
X139575144Y-99307652D01*
X139459935Y-99221406D01*
X139459928Y-99221402D01*
X139325082Y-99171108D01*
X139325083Y-99171108D01*
X139265483Y-99164701D01*
X139265481Y-99164700D01*
X139265473Y-99164700D01*
X139265465Y-99164700D01*
X139126500Y-99164700D01*
X139059461Y-99145015D01*
X139013706Y-99092211D01*
X139002500Y-99040700D01*
X139002500Y-98588195D01*
X138992129Y-98536059D01*
X138990475Y-98527744D01*
X138988032Y-98515463D01*
X138978387Y-98466972D01*
X138978386Y-98466965D01*
X138933412Y-98358392D01*
X138931764Y-98353786D01*
X138862414Y-98249996D01*
X138862413Y-98249994D01*
X138822000Y-98209581D01*
X138775008Y-98162589D01*
X138382619Y-97770200D01*
X138349134Y-97708877D01*
X138346300Y-97682519D01*
X138346300Y-97183353D01*
X138365985Y-97116314D01*
X138418789Y-97070559D01*
X138431282Y-97065652D01*
X138488134Y-97046814D01*
X138637456Y-96954712D01*
X138761512Y-96830656D01*
X138853614Y-96681334D01*
X138908799Y-96514797D01*
X138919300Y-96412009D01*
X138919299Y-95611992D01*
X138913786Y-95558027D01*
X138908799Y-95509203D01*
X138908798Y-95509200D01*
X138884808Y-95436803D01*
X138853614Y-95342666D01*
X138761512Y-95193344D01*
X138667849Y-95099681D01*
X138634364Y-95038358D01*
X138639348Y-94968666D01*
X138667849Y-94924319D01*
X138688263Y-94903905D01*
X138761512Y-94830656D01*
X138843085Y-94698403D01*
X138895033Y-94651679D01*
X138948624Y-94639500D01*
X140600719Y-94639500D01*
X140667758Y-94659185D01*
X140688400Y-94675819D01*
X145612589Y-99600008D01*
X145660770Y-99648189D01*
X145699994Y-99687413D01*
X145699996Y-99687414D01*
X145700451Y-99687718D01*
X145802767Y-99756083D01*
X145836215Y-99769937D01*
X145916965Y-99803386D01*
X146038192Y-99827499D01*
X146038196Y-99827500D01*
X146038197Y-99827500D01*
X146161803Y-99827500D01*
X152788719Y-99827500D01*
X152855758Y-99847185D01*
X152876400Y-99863819D01*
X153371781Y-100359200D01*
X153405266Y-100420523D01*
X153408100Y-100446881D01*
X153408100Y-103922973D01*
X153388415Y-103990012D01*
X153355224Y-104024548D01*
X153164194Y-104158308D01*
X152997105Y-104325397D01*
X152867175Y-104510958D01*
X152812598Y-104554583D01*
X152743100Y-104561777D01*
X152680745Y-104530254D01*
X152664025Y-104510958D01*
X152534094Y-104325397D01*
X152367002Y-104158306D01*
X152366995Y-104158301D01*
X152173434Y-104022767D01*
X152173430Y-104022765D01*
X152173428Y-104022764D01*
X151959263Y-103922897D01*
X151959259Y-103922896D01*
X151959255Y-103922894D01*
X151731013Y-103861738D01*
X151731003Y-103861736D01*
X151495601Y-103841141D01*
X151495599Y-103841141D01*
X151260196Y-103861736D01*
X151260186Y-103861738D01*
X151031944Y-103922894D01*
X151031935Y-103922898D01*
X150817771Y-104022764D01*
X150817769Y-104022765D01*
X150624200Y-104158303D01*
X150502273Y-104280230D01*
X150440950Y-104313714D01*
X150371258Y-104308730D01*
X150315325Y-104266858D01*
X150298410Y-104235881D01*
X150249397Y-104104471D01*
X150249393Y-104104464D01*
X150163147Y-103989255D01*
X150163144Y-103989252D01*
X150047935Y-103903006D01*
X150047928Y-103903002D01*
X149913082Y-103852708D01*
X149913083Y-103852708D01*
X149853483Y-103846301D01*
X149853481Y-103846300D01*
X149853473Y-103846300D01*
X149853464Y-103846300D01*
X148057729Y-103846300D01*
X148057723Y-103846301D01*
X147998116Y-103852708D01*
X147863271Y-103903002D01*
X147863264Y-103903006D01*
X147748055Y-103989252D01*
X147748052Y-103989255D01*
X147661806Y-104104464D01*
X147661802Y-104104471D01*
X147611508Y-104239317D01*
X147605101Y-104298916D01*
X147605100Y-104298935D01*
X147605100Y-106094670D01*
X147605101Y-106094676D01*
X147611508Y-106154283D01*
X147661802Y-106289128D01*
X147661806Y-106289135D01*
X147748052Y-106404344D01*
X147748055Y-106404347D01*
X147863264Y-106490593D01*
X147863271Y-106490597D01*
X147998117Y-106540891D01*
X147998116Y-106540891D01*
X148005044Y-106541635D01*
X148057727Y-106547300D01*
X149853472Y-106547299D01*
X149913083Y-106540891D01*
X150047931Y-106490596D01*
X150163146Y-106404346D01*
X150249396Y-106289131D01*
X150298410Y-106157716D01*
X150340281Y-106101784D01*
X150405745Y-106077366D01*
X150474018Y-106092217D01*
X150502273Y-106113369D01*
X150624199Y-106235295D01*
X150720984Y-106303065D01*
X150817765Y-106370832D01*
X150817767Y-106370833D01*
X150817770Y-106370835D01*
X151031937Y-106470703D01*
X151260192Y-106531863D01*
X151436634Y-106547300D01*
X151495599Y-106552459D01*
X151495600Y-106552459D01*
X151495601Y-106552459D01*
X151554566Y-106547300D01*
X151731008Y-106531863D01*
X151959263Y-106470703D01*
X152173430Y-106370835D01*
X152367001Y-106235295D01*
X152534095Y-106068201D01*
X152664025Y-105882642D01*
X152718602Y-105839017D01*
X152788100Y-105831823D01*
X152850455Y-105863346D01*
X152867175Y-105882642D01*
X152997100Y-106068195D01*
X152997105Y-106068201D01*
X153164199Y-106235295D01*
X153260984Y-106303065D01*
X153357765Y-106370832D01*
X153357767Y-106370833D01*
X153357770Y-106370835D01*
X153571937Y-106470703D01*
X153800192Y-106531863D01*
X153976634Y-106547300D01*
X154035599Y-106552459D01*
X154035600Y-106552459D01*
X154035601Y-106552459D01*
X154094566Y-106547300D01*
X154271008Y-106531863D01*
X154499263Y-106470703D01*
X154713430Y-106370835D01*
X154907001Y-106235295D01*
X155074095Y-106068201D01*
X155204025Y-105882642D01*
X155258602Y-105839017D01*
X155328100Y-105831823D01*
X155390455Y-105863346D01*
X155407175Y-105882642D01*
X155537100Y-106068195D01*
X155537105Y-106068201D01*
X155704199Y-106235295D01*
X155800984Y-106303065D01*
X155897765Y-106370832D01*
X155897767Y-106370833D01*
X155897770Y-106370835D01*
X156111937Y-106470703D01*
X156340192Y-106531863D01*
X156516634Y-106547300D01*
X156575599Y-106552459D01*
X156575600Y-106552459D01*
X156575601Y-106552459D01*
X156634566Y-106547300D01*
X156811008Y-106531863D01*
X157039263Y-106470703D01*
X157253430Y-106370835D01*
X157361734Y-106295000D01*
X162434801Y-106295000D01*
X162434801Y-106419986D01*
X162445294Y-106522697D01*
X162500441Y-106689119D01*
X162500443Y-106689124D01*
X162592484Y-106838345D01*
X162716454Y-106962315D01*
X162865675Y-107054356D01*
X162865680Y-107054358D01*
X163032102Y-107109505D01*
X163032109Y-107109506D01*
X163134819Y-107119999D01*
X163384799Y-107119999D01*
X163384800Y-107119998D01*
X163384800Y-106295000D01*
X163884800Y-106295000D01*
X163884800Y-107119999D01*
X164134772Y-107119999D01*
X164134786Y-107119998D01*
X164237497Y-107109505D01*
X164403919Y-107054358D01*
X164403924Y-107054356D01*
X164553145Y-106962315D01*
X164677115Y-106838345D01*
X164769156Y-106689124D01*
X164769158Y-106689119D01*
X164824305Y-106522697D01*
X164824306Y-106522690D01*
X164834799Y-106419986D01*
X164834800Y-106419973D01*
X164834800Y-106295000D01*
X165474801Y-106295000D01*
X165474801Y-106419986D01*
X165485294Y-106522697D01*
X165540441Y-106689119D01*
X165540443Y-106689124D01*
X165632484Y-106838345D01*
X165756454Y-106962315D01*
X165905675Y-107054356D01*
X165905680Y-107054358D01*
X166072102Y-107109505D01*
X166072109Y-107109506D01*
X166174819Y-107119999D01*
X166424799Y-107119999D01*
X166424800Y-107119998D01*
X166424800Y-106295000D01*
X166924800Y-106295000D01*
X166924800Y-107119999D01*
X167174772Y-107119999D01*
X167174786Y-107119998D01*
X167277497Y-107109505D01*
X167443919Y-107054358D01*
X167443924Y-107054356D01*
X167593145Y-106962315D01*
X167717115Y-106838345D01*
X167809156Y-106689124D01*
X167809158Y-106689119D01*
X167864305Y-106522697D01*
X167864306Y-106522690D01*
X167874799Y-106419986D01*
X167874800Y-106419973D01*
X167874800Y-106295000D01*
X166924800Y-106295000D01*
X166424800Y-106295000D01*
X165474801Y-106295000D01*
X164834800Y-106295000D01*
X163884800Y-106295000D01*
X163384800Y-106295000D01*
X162434801Y-106295000D01*
X157361734Y-106295000D01*
X157447001Y-106235295D01*
X157614095Y-106068201D01*
X157749635Y-105874630D01*
X157849503Y-105660463D01*
X157910663Y-105432208D01*
X157931259Y-105196800D01*
X157910663Y-104961392D01*
X157849503Y-104733137D01*
X157749635Y-104518971D01*
X157744025Y-104510958D01*
X157614094Y-104325397D01*
X157447002Y-104158306D01*
X157447001Y-104158305D01*
X157370108Y-104104464D01*
X157255975Y-104024547D01*
X157212352Y-103969971D01*
X157203100Y-103922973D01*
X157203100Y-100738796D01*
X157198408Y-100715210D01*
X157198408Y-100715208D01*
X157178986Y-100617565D01*
X157134012Y-100508992D01*
X157132364Y-100504386D01*
X157063014Y-100400596D01*
X157063013Y-100400594D01*
X157021619Y-100359200D01*
X156975608Y-100313189D01*
X155720742Y-99058323D01*
X154447614Y-97785194D01*
X154447607Y-97785188D01*
X154445504Y-97783783D01*
X154445504Y-97783782D01*
X154393450Y-97749002D01*
X154348644Y-97695390D01*
X154339937Y-97626065D01*
X154370091Y-97563037D01*
X154429534Y-97526317D01*
X154462338Y-97521899D01*
X154643072Y-97521899D01*
X154702683Y-97515491D01*
X154736867Y-97502740D01*
X154806558Y-97497757D01*
X154823527Y-97502738D01*
X154857717Y-97515491D01*
X154917327Y-97521900D01*
X155913072Y-97521899D01*
X155972683Y-97515491D01*
X156006867Y-97502740D01*
X156076558Y-97497757D01*
X156093527Y-97502738D01*
X156127717Y-97515491D01*
X156187327Y-97521900D01*
X157183072Y-97521899D01*
X157242683Y-97515491D01*
X157276867Y-97502740D01*
X157346558Y-97497757D01*
X157363527Y-97502738D01*
X157397717Y-97515491D01*
X157457327Y-97521900D01*
X158453072Y-97521899D01*
X158512683Y-97515491D01*
X158546867Y-97502740D01*
X158616558Y-97497757D01*
X158633527Y-97502738D01*
X158667717Y-97515491D01*
X158727327Y-97521900D01*
X159723072Y-97521899D01*
X159782683Y-97515491D01*
X159917531Y-97465196D01*
X159917804Y-97464991D01*
X159952210Y-97439236D01*
X160017674Y-97414818D01*
X160085947Y-97429669D01*
X160114202Y-97450821D01*
X160878789Y-98215408D01*
X160954410Y-98291029D01*
X160966194Y-98302813D01*
X160966196Y-98302814D01*
X161068956Y-98371476D01*
X161068958Y-98371477D01*
X161068967Y-98371483D01*
X161093972Y-98381840D01*
X161116271Y-98391077D01*
X161158454Y-98408549D01*
X161183166Y-98418786D01*
X161304392Y-98442899D01*
X161304396Y-98442900D01*
X161304397Y-98442900D01*
X161597319Y-98442900D01*
X161664358Y-98462585D01*
X161685000Y-98479219D01*
X162202781Y-98997000D01*
X162236266Y-99058323D01*
X162239100Y-99084681D01*
X162239100Y-99746401D01*
X162239101Y-99746419D01*
X162249600Y-99849196D01*
X162249601Y-99849199D01*
X162304785Y-100015731D01*
X162304787Y-100015736D01*
X162396889Y-100165057D01*
X162490551Y-100258719D01*
X162524036Y-100320042D01*
X162519052Y-100389734D01*
X162490551Y-100434081D01*
X162396889Y-100527742D01*
X162304787Y-100677063D01*
X162304785Y-100677068D01*
X162287952Y-100727868D01*
X162249601Y-100843603D01*
X162249601Y-100843604D01*
X162249600Y-100843604D01*
X162239100Y-100946383D01*
X162239100Y-101746401D01*
X162239101Y-101746419D01*
X162249600Y-101849196D01*
X162249601Y-101849199D01*
X162304785Y-102015731D01*
X162304787Y-102015736D01*
X162336121Y-102066536D01*
X162396888Y-102165056D01*
X162520944Y-102289112D01*
X162670266Y-102381214D01*
X162727105Y-102400048D01*
X162784548Y-102439818D01*
X162811372Y-102504334D01*
X162812100Y-102517753D01*
X162812100Y-102948894D01*
X162792415Y-103015933D01*
X162753199Y-103054432D01*
X162716142Y-103077289D01*
X162592089Y-103201342D01*
X162499987Y-103350663D01*
X162499986Y-103350666D01*
X162444801Y-103517203D01*
X162444801Y-103517204D01*
X162444800Y-103517204D01*
X162434300Y-103619983D01*
X162434300Y-104370001D01*
X162434301Y-104370019D01*
X162444800Y-104472796D01*
X162444801Y-104472799D01*
X162471902Y-104554583D01*
X162499986Y-104639334D01*
X162592088Y-104788656D01*
X162716144Y-104912712D01*
X162719428Y-104914737D01*
X162719453Y-104914753D01*
X162721245Y-104916746D01*
X162721811Y-104917193D01*
X162721734Y-104917289D01*
X162766179Y-104966699D01*
X162777403Y-105035661D01*
X162749561Y-105099744D01*
X162719465Y-105125826D01*
X162716460Y-105127679D01*
X162716455Y-105127683D01*
X162592484Y-105251654D01*
X162500443Y-105400875D01*
X162500441Y-105400880D01*
X162445294Y-105567302D01*
X162445293Y-105567309D01*
X162434800Y-105670013D01*
X162434800Y-105795000D01*
X164834799Y-105795000D01*
X164834799Y-105670028D01*
X164834798Y-105670013D01*
X164824305Y-105567302D01*
X164769158Y-105400880D01*
X164769156Y-105400875D01*
X164677115Y-105251654D01*
X164553144Y-105127683D01*
X164553141Y-105127681D01*
X164550139Y-105125829D01*
X164548513Y-105124021D01*
X164547477Y-105123202D01*
X164547617Y-105123024D01*
X164503417Y-105073880D01*
X164492197Y-105004917D01*
X164520043Y-104940836D01*
X164550144Y-104914754D01*
X164553456Y-104912712D01*
X164677512Y-104788656D01*
X164769614Y-104639334D01*
X164824799Y-104472797D01*
X164835300Y-104370009D01*
X164835299Y-103619992D01*
X164824799Y-103517203D01*
X164769614Y-103350666D01*
X164677512Y-103201344D01*
X164553456Y-103077288D01*
X164404134Y-102985186D01*
X164237597Y-102930001D01*
X164237594Y-102930000D01*
X164178497Y-102923963D01*
X164113805Y-102897567D01*
X164073654Y-102840386D01*
X164067100Y-102800605D01*
X164067100Y-102517753D01*
X164086785Y-102450714D01*
X164139589Y-102404959D01*
X164152082Y-102400052D01*
X164208934Y-102381214D01*
X164358256Y-102289112D01*
X164482312Y-102165056D01*
X164574414Y-102015734D01*
X164629599Y-101849197D01*
X164640100Y-101746409D01*
X164640099Y-100946392D01*
X164629599Y-100843603D01*
X164574414Y-100677066D01*
X164482312Y-100527744D01*
X164388649Y-100434081D01*
X164355164Y-100372758D01*
X164360148Y-100303066D01*
X164388649Y-100258719D01*
X164431512Y-100215856D01*
X164482312Y-100165056D01*
X164574414Y-100015734D01*
X164629599Y-99849197D01*
X164640100Y-99746409D01*
X164640099Y-98946392D01*
X164638927Y-98934923D01*
X164629599Y-98843603D01*
X164629598Y-98843600D01*
X164591246Y-98727863D01*
X164574414Y-98677066D01*
X164482312Y-98527744D01*
X164358256Y-98403688D01*
X164208934Y-98311586D01*
X164042397Y-98256401D01*
X164042395Y-98256400D01*
X163939616Y-98245900D01*
X163939609Y-98245900D01*
X163277881Y-98245900D01*
X163210842Y-98226215D01*
X163190200Y-98209581D01*
X162308611Y-97327991D01*
X162308610Y-97327990D01*
X162290133Y-97315645D01*
X162235202Y-97278941D01*
X162235200Y-97278940D01*
X162235200Y-97278939D01*
X162205830Y-97259315D01*
X162205828Y-97259314D01*
X162164517Y-97242203D01*
X162091635Y-97212014D01*
X162091627Y-97212012D01*
X161970407Y-97187900D01*
X161970403Y-97187900D01*
X161677481Y-97187900D01*
X161610442Y-97168215D01*
X161589800Y-97151581D01*
X160222211Y-95783991D01*
X160221035Y-95783026D01*
X160220584Y-95782364D01*
X160217901Y-95779681D01*
X160218409Y-95779172D01*
X160181700Y-95725280D01*
X160175699Y-95687172D01*
X160175699Y-95473529D01*
X160175698Y-95473523D01*
X160171751Y-95436807D01*
X160169291Y-95413917D01*
X160152190Y-95368068D01*
X160118997Y-95279071D01*
X160118993Y-95279064D01*
X160032747Y-95163855D01*
X160032744Y-95163852D01*
X159917535Y-95077606D01*
X159917528Y-95077602D01*
X159782682Y-95027308D01*
X159782683Y-95027308D01*
X159723083Y-95020901D01*
X159723081Y-95020900D01*
X159723073Y-95020900D01*
X159723064Y-95020900D01*
X158727329Y-95020900D01*
X158727323Y-95020901D01*
X158667718Y-95027308D01*
X158633531Y-95040059D01*
X158563839Y-95045042D01*
X158546869Y-95040059D01*
X158529340Y-95033521D01*
X158512683Y-95027309D01*
X158512682Y-95027308D01*
X158453083Y-95020901D01*
X158453081Y-95020900D01*
X158453073Y-95020900D01*
X158453064Y-95020900D01*
X157457329Y-95020900D01*
X157457323Y-95020901D01*
X157397718Y-95027308D01*
X157363531Y-95040059D01*
X157293839Y-95045042D01*
X157276869Y-95040059D01*
X157259340Y-95033521D01*
X157242683Y-95027309D01*
X157242682Y-95027308D01*
X157183083Y-95020901D01*
X157183081Y-95020900D01*
X157183073Y-95020900D01*
X157183064Y-95020900D01*
X156187329Y-95020900D01*
X156187323Y-95020901D01*
X156127718Y-95027308D01*
X156093531Y-95040059D01*
X156023839Y-95045042D01*
X156006869Y-95040059D01*
X155989340Y-95033521D01*
X155972683Y-95027309D01*
X155972682Y-95027308D01*
X155913083Y-95020901D01*
X155913081Y-95020900D01*
X155913073Y-95020900D01*
X155913064Y-95020900D01*
X154917329Y-95020900D01*
X154917323Y-95020901D01*
X154857718Y-95027308D01*
X154823531Y-95040059D01*
X154753839Y-95045042D01*
X154736869Y-95040059D01*
X154719340Y-95033521D01*
X154702683Y-95027309D01*
X154702682Y-95027308D01*
X154643083Y-95020901D01*
X154643081Y-95020900D01*
X154643073Y-95020900D01*
X154643064Y-95020900D01*
X153647329Y-95020900D01*
X153647323Y-95020901D01*
X153587718Y-95027308D01*
X153553531Y-95040059D01*
X153483839Y-95045042D01*
X153466869Y-95040059D01*
X153449340Y-95033521D01*
X153432683Y-95027309D01*
X153432682Y-95027308D01*
X153373083Y-95020901D01*
X153373081Y-95020900D01*
X153373073Y-95020900D01*
X153373064Y-95020900D01*
X152377329Y-95020900D01*
X152377323Y-95020901D01*
X152317718Y-95027308D01*
X152283531Y-95040059D01*
X152213839Y-95045042D01*
X152196869Y-95040059D01*
X152179340Y-95033521D01*
X152162683Y-95027309D01*
X152162682Y-95027308D01*
X152103083Y-95020901D01*
X152103081Y-95020900D01*
X152103073Y-95020900D01*
X152103064Y-95020900D01*
X151107329Y-95020900D01*
X151107323Y-95020901D01*
X151047718Y-95027308D01*
X151013531Y-95040059D01*
X150943839Y-95045042D01*
X150926869Y-95040059D01*
X150909340Y-95033521D01*
X150892683Y-95027309D01*
X150892682Y-95027308D01*
X150833083Y-95020901D01*
X150833081Y-95020900D01*
X150833073Y-95020900D01*
X150833064Y-95020900D01*
X149837329Y-95020900D01*
X149837323Y-95020901D01*
X149777718Y-95027308D01*
X149743531Y-95040059D01*
X149673839Y-95045042D01*
X149656869Y-95040059D01*
X149639340Y-95033521D01*
X149622683Y-95027309D01*
X149622682Y-95027308D01*
X149563083Y-95020901D01*
X149563081Y-95020900D01*
X149563073Y-95020900D01*
X149563064Y-95020900D01*
X148567329Y-95020900D01*
X148567323Y-95020901D01*
X148507720Y-95027308D01*
X148507717Y-95027308D01*
X148507717Y-95027309D01*
X148472820Y-95040325D01*
X148472817Y-95040326D01*
X148403125Y-95045309D01*
X148386152Y-95040325D01*
X148352579Y-95027803D01*
X148352572Y-95027801D01*
X148293044Y-95021400D01*
X148045200Y-95021400D01*
X148045200Y-96397400D01*
X148025515Y-96464439D01*
X147972711Y-96510194D01*
X147921200Y-96521400D01*
X146845200Y-96521400D01*
X146845200Y-97069244D01*
X146851601Y-97128772D01*
X146851603Y-97128779D01*
X146901845Y-97263486D01*
X146901849Y-97263493D01*
X146988009Y-97378587D01*
X146988012Y-97378590D01*
X147045778Y-97421834D01*
X147087649Y-97477767D01*
X147092633Y-97547459D01*
X147059147Y-97608782D01*
X146997824Y-97642266D01*
X146971467Y-97645100D01*
X146412081Y-97645100D01*
X146345042Y-97625415D01*
X146324400Y-97608781D01*
X144899199Y-96183580D01*
X144865714Y-96122257D01*
X144870698Y-96052565D01*
X144894028Y-96021400D01*
X146845200Y-96021400D01*
X147545200Y-96021400D01*
X147545200Y-95021400D01*
X147297355Y-95021400D01*
X147237827Y-95027801D01*
X147237820Y-95027803D01*
X147103113Y-95078045D01*
X147103106Y-95078049D01*
X146988012Y-95164209D01*
X146988009Y-95164212D01*
X146901849Y-95279306D01*
X146901845Y-95279313D01*
X146851603Y-95414020D01*
X146851601Y-95414027D01*
X146845200Y-95473555D01*
X146845200Y-96021400D01*
X144894028Y-96021400D01*
X144912570Y-95996632D01*
X144978034Y-95972215D01*
X144986880Y-95971899D01*
X145553071Y-95971899D01*
X145553072Y-95971899D01*
X145612683Y-95965491D01*
X145747531Y-95915196D01*
X145862746Y-95828946D01*
X145948996Y-95713731D01*
X145999291Y-95578883D01*
X146005700Y-95519273D01*
X146005699Y-94523528D01*
X145999291Y-94463917D01*
X145986540Y-94429732D01*
X145981557Y-94360042D01*
X145986540Y-94343069D01*
X145999291Y-94308883D01*
X146005700Y-94249273D01*
X146005699Y-93253528D01*
X145999291Y-93193917D01*
X145986540Y-93159732D01*
X145981557Y-93090042D01*
X145986540Y-93073069D01*
X145999291Y-93038883D01*
X146005700Y-92979273D01*
X146005699Y-91983528D01*
X145999291Y-91923917D01*
X145986540Y-91889732D01*
X145981557Y-91820042D01*
X145986540Y-91803069D01*
X145999291Y-91768883D01*
X146005700Y-91709273D01*
X146005699Y-90713528D01*
X145999291Y-90653917D01*
X145986540Y-90619732D01*
X145981557Y-90550042D01*
X145986540Y-90533069D01*
X145999291Y-90498883D01*
X146005700Y-90439273D01*
X146005699Y-89443528D01*
X145999291Y-89383917D01*
X145986540Y-89349732D01*
X145981557Y-89280042D01*
X145986540Y-89263069D01*
X145999291Y-89228883D01*
X146005700Y-89169273D01*
X146005699Y-88173528D01*
X145999291Y-88113917D01*
X145986540Y-88079732D01*
X145981557Y-88010042D01*
X145986540Y-87993069D01*
X145999291Y-87958883D01*
X146005700Y-87899273D01*
X146005699Y-86903528D01*
X145999291Y-86843917D01*
X145986540Y-86809732D01*
X145981557Y-86740042D01*
X145986540Y-86723069D01*
X145999291Y-86688883D01*
X146005700Y-86629273D01*
X146005699Y-86101400D01*
X150225200Y-86101400D01*
X150225200Y-87999244D01*
X150231601Y-88058772D01*
X150231603Y-88058779D01*
X150281845Y-88193486D01*
X150281849Y-88193493D01*
X150368009Y-88308587D01*
X150368012Y-88308590D01*
X150483106Y-88394750D01*
X150483113Y-88394754D01*
X150617820Y-88444996D01*
X150617827Y-88444998D01*
X150677355Y-88451399D01*
X150677372Y-88451400D01*
X152575200Y-88451400D01*
X153075200Y-88451400D01*
X154973028Y-88451400D01*
X154973044Y-88451399D01*
X155032572Y-88444998D01*
X155032579Y-88444996D01*
X155167286Y-88394754D01*
X155167293Y-88394750D01*
X155282387Y-88308590D01*
X155282390Y-88308587D01*
X155368550Y-88193493D01*
X155368554Y-88193486D01*
X155418796Y-88058779D01*
X155418798Y-88058772D01*
X155425199Y-87999244D01*
X155425200Y-87999227D01*
X155425200Y-86101400D01*
X154600200Y-86101400D01*
X154600200Y-86510347D01*
X154616072Y-86526219D01*
X154649557Y-86587542D01*
X154644573Y-86657234D01*
X154616072Y-86701581D01*
X154600200Y-86717452D01*
X154600200Y-87502400D01*
X154580515Y-87569439D01*
X154527711Y-87615194D01*
X154476200Y-87626400D01*
X153691252Y-87626400D01*
X153675381Y-87642272D01*
X153614058Y-87675757D01*
X153544366Y-87670773D01*
X153500019Y-87642272D01*
X153484147Y-87626400D01*
X153075200Y-87626400D01*
X153075200Y-88451400D01*
X152575200Y-88451400D01*
X152575200Y-87626400D01*
X152166252Y-87626400D01*
X152150381Y-87642272D01*
X152089058Y-87675757D01*
X152019366Y-87670773D01*
X151975019Y-87642272D01*
X151959147Y-87626400D01*
X151174200Y-87626400D01*
X151107161Y-87606715D01*
X151061406Y-87553911D01*
X151050200Y-87502400D01*
X151050200Y-87396291D01*
X151962700Y-87396291D01*
X151977924Y-87433045D01*
X152006055Y-87461176D01*
X152042809Y-87476400D01*
X152082591Y-87476400D01*
X152119345Y-87461176D01*
X152147476Y-87433045D01*
X152162700Y-87396291D01*
X153487700Y-87396291D01*
X153502924Y-87433045D01*
X153531055Y-87461176D01*
X153567809Y-87476400D01*
X153607591Y-87476400D01*
X153644345Y-87461176D01*
X153672476Y-87433045D01*
X153687700Y-87396291D01*
X153687700Y-87356509D01*
X153672476Y-87319755D01*
X153644345Y-87291624D01*
X153607591Y-87276400D01*
X153567809Y-87276400D01*
X153531055Y-87291624D01*
X153502924Y-87319755D01*
X153487700Y-87356509D01*
X153487700Y-87396291D01*
X152162700Y-87396291D01*
X152162700Y-87356509D01*
X152147476Y-87319755D01*
X152119345Y-87291624D01*
X152082591Y-87276400D01*
X152042809Y-87276400D01*
X152006055Y-87291624D01*
X151977924Y-87319755D01*
X151962700Y-87356509D01*
X151962700Y-87396291D01*
X151050200Y-87396291D01*
X151050200Y-86717453D01*
X151034328Y-86701581D01*
X151000843Y-86640258D01*
X151001305Y-86633791D01*
X151200200Y-86633791D01*
X151215424Y-86670545D01*
X151243555Y-86698676D01*
X151280309Y-86713900D01*
X151320091Y-86713900D01*
X151356845Y-86698676D01*
X151384976Y-86670545D01*
X151400200Y-86633791D01*
X151400200Y-86613899D01*
X151653753Y-86613899D01*
X152062700Y-87022846D01*
X152451755Y-86633791D01*
X152725200Y-86633791D01*
X152740424Y-86670545D01*
X152768555Y-86698676D01*
X152805309Y-86713900D01*
X152845091Y-86713900D01*
X152881845Y-86698676D01*
X152909976Y-86670545D01*
X152925200Y-86633791D01*
X152925200Y-86613899D01*
X153178753Y-86613899D01*
X153587700Y-87022846D01*
X153976755Y-86633791D01*
X154250200Y-86633791D01*
X154265424Y-86670545D01*
X154293555Y-86698676D01*
X154330309Y-86713900D01*
X154370091Y-86713900D01*
X154406845Y-86698676D01*
X154434976Y-86670545D01*
X154450200Y-86633791D01*
X154450200Y-86594009D01*
X154434976Y-86557255D01*
X154406845Y-86529124D01*
X154370091Y-86513900D01*
X154330309Y-86513900D01*
X154293555Y-86529124D01*
X154265424Y-86557255D01*
X154250200Y-86594009D01*
X154250200Y-86633791D01*
X153976755Y-86633791D01*
X153996646Y-86613900D01*
X153643092Y-86260346D01*
X153587700Y-86204953D01*
X153532308Y-86260346D01*
X153532307Y-86260347D01*
X153178753Y-86613899D01*
X152925200Y-86613899D01*
X152925200Y-86594009D01*
X152909976Y-86557255D01*
X152881845Y-86529124D01*
X152845091Y-86513900D01*
X152805309Y-86513900D01*
X152768555Y-86529124D01*
X152740424Y-86557255D01*
X152725200Y-86594009D01*
X152725200Y-86633791D01*
X152451755Y-86633791D01*
X152471646Y-86613900D01*
X152118092Y-86260346D01*
X152062700Y-86204953D01*
X152007308Y-86260346D01*
X152007307Y-86260347D01*
X151653753Y-86613899D01*
X151400200Y-86613899D01*
X151400200Y-86594009D01*
X151384976Y-86557255D01*
X151356845Y-86529124D01*
X151320091Y-86513900D01*
X151280309Y-86513900D01*
X151243555Y-86529124D01*
X151215424Y-86557255D01*
X151200200Y-86594009D01*
X151200200Y-86633791D01*
X151001305Y-86633791D01*
X151005827Y-86570566D01*
X151034328Y-86526219D01*
X151050199Y-86510347D01*
X151050200Y-86510346D01*
X151050200Y-86101400D01*
X150225200Y-86101400D01*
X146005699Y-86101400D01*
X146005699Y-85871291D01*
X151962700Y-85871291D01*
X151977924Y-85908045D01*
X152006055Y-85936176D01*
X152042809Y-85951400D01*
X152082591Y-85951400D01*
X152119345Y-85936176D01*
X152147476Y-85908045D01*
X152162700Y-85871291D01*
X153487700Y-85871291D01*
X153502924Y-85908045D01*
X153531055Y-85936176D01*
X153567809Y-85951400D01*
X153607591Y-85951400D01*
X153644345Y-85936176D01*
X153672476Y-85908045D01*
X153687700Y-85871291D01*
X153687700Y-85831509D01*
X153672476Y-85794755D01*
X153644345Y-85766624D01*
X153607591Y-85751400D01*
X153567809Y-85751400D01*
X153531055Y-85766624D01*
X153502924Y-85794755D01*
X153487700Y-85831509D01*
X153487700Y-85871291D01*
X152162700Y-85871291D01*
X152162700Y-85831509D01*
X152147476Y-85794755D01*
X152119345Y-85766624D01*
X152082591Y-85751400D01*
X152042809Y-85751400D01*
X152006055Y-85766624D01*
X151977924Y-85794755D01*
X151962700Y-85831509D01*
X151962700Y-85871291D01*
X146005699Y-85871291D01*
X146005699Y-85633528D01*
X146002245Y-85601400D01*
X150225200Y-85601400D01*
X151050200Y-85601400D01*
X151050200Y-85192453D01*
X151034328Y-85176581D01*
X151000843Y-85115258D01*
X151001305Y-85108791D01*
X151200200Y-85108791D01*
X151215424Y-85145545D01*
X151243555Y-85173676D01*
X151280309Y-85188900D01*
X151320091Y-85188900D01*
X151356845Y-85173676D01*
X151384976Y-85145545D01*
X151400200Y-85108791D01*
X151400200Y-85088899D01*
X151653753Y-85088899D01*
X152062700Y-85497846D01*
X152451755Y-85108791D01*
X152725200Y-85108791D01*
X152740424Y-85145545D01*
X152768555Y-85173676D01*
X152805309Y-85188900D01*
X152845091Y-85188900D01*
X152881845Y-85173676D01*
X152909976Y-85145545D01*
X152925200Y-85108791D01*
X152925200Y-85088899D01*
X153178753Y-85088899D01*
X153587700Y-85497846D01*
X153976755Y-85108791D01*
X154250200Y-85108791D01*
X154265424Y-85145545D01*
X154293555Y-85173676D01*
X154330309Y-85188900D01*
X154370091Y-85188900D01*
X154406845Y-85173676D01*
X154434976Y-85145545D01*
X154450200Y-85108791D01*
X154450200Y-85069009D01*
X154434976Y-85032255D01*
X154406845Y-85004124D01*
X154370091Y-84988900D01*
X154330309Y-84988900D01*
X154293555Y-85004124D01*
X154265424Y-85032255D01*
X154250200Y-85069009D01*
X154250200Y-85108791D01*
X153976755Y-85108791D01*
X153996646Y-85088900D01*
X153623466Y-84715720D01*
X153587700Y-84679953D01*
X153551934Y-84715720D01*
X153551933Y-84715721D01*
X153178753Y-85088899D01*
X152925200Y-85088899D01*
X152925200Y-85069009D01*
X152909976Y-85032255D01*
X152881845Y-85004124D01*
X152845091Y-84988900D01*
X152805309Y-84988900D01*
X152768555Y-85004124D01*
X152740424Y-85032255D01*
X152725200Y-85069009D01*
X152725200Y-85108791D01*
X152451755Y-85108791D01*
X152471646Y-85088900D01*
X152098466Y-84715720D01*
X152062700Y-84679953D01*
X152026934Y-84715720D01*
X152026933Y-84715721D01*
X151653753Y-85088899D01*
X151400200Y-85088899D01*
X151400200Y-85069009D01*
X151384976Y-85032255D01*
X151356845Y-85004124D01*
X151320091Y-84988900D01*
X151280309Y-84988900D01*
X151243555Y-85004124D01*
X151215424Y-85032255D01*
X151200200Y-85069009D01*
X151200200Y-85108791D01*
X151001305Y-85108791D01*
X151005827Y-85045566D01*
X151034328Y-85001219D01*
X151050199Y-84985347D01*
X151050200Y-84985346D01*
X151050200Y-84346291D01*
X151962700Y-84346291D01*
X151977924Y-84383045D01*
X152006055Y-84411176D01*
X152042809Y-84426400D01*
X152082591Y-84426400D01*
X152119345Y-84411176D01*
X152147476Y-84383045D01*
X152162700Y-84346291D01*
X153487700Y-84346291D01*
X153502924Y-84383045D01*
X153531055Y-84411176D01*
X153567809Y-84426400D01*
X153607591Y-84426400D01*
X153644345Y-84411176D01*
X153672476Y-84383045D01*
X153687700Y-84346291D01*
X153687700Y-84306509D01*
X153672476Y-84269755D01*
X153644345Y-84241624D01*
X153607591Y-84226400D01*
X153567809Y-84226400D01*
X153531055Y-84241624D01*
X153502924Y-84269755D01*
X153487700Y-84306509D01*
X153487700Y-84346291D01*
X152162700Y-84346291D01*
X152162700Y-84306509D01*
X152147476Y-84269755D01*
X152119345Y-84241624D01*
X152082591Y-84226400D01*
X152042809Y-84226400D01*
X152006055Y-84241624D01*
X151977924Y-84269755D01*
X151962700Y-84306509D01*
X151962700Y-84346291D01*
X151050200Y-84346291D01*
X151050200Y-84200400D01*
X151069885Y-84133361D01*
X151122689Y-84087606D01*
X151174200Y-84076400D01*
X151959147Y-84076400D01*
X151959147Y-84076399D01*
X151975019Y-84060528D01*
X152036342Y-84027043D01*
X152106034Y-84032027D01*
X152150381Y-84060528D01*
X152166253Y-84076400D01*
X152575200Y-84076400D01*
X152575200Y-83251400D01*
X153075200Y-83251400D01*
X153075200Y-84076400D01*
X153484147Y-84076400D01*
X153484147Y-84076399D01*
X153500019Y-84060528D01*
X153561342Y-84027043D01*
X153631034Y-84032027D01*
X153675381Y-84060528D01*
X153691253Y-84076400D01*
X154476200Y-84076400D01*
X154543239Y-84096085D01*
X154588994Y-84148889D01*
X154600200Y-84200400D01*
X154600200Y-84985347D01*
X154616072Y-85001219D01*
X154649557Y-85062542D01*
X154644573Y-85132234D01*
X154616072Y-85176581D01*
X154600200Y-85192452D01*
X154600200Y-85601400D01*
X155425200Y-85601400D01*
X155425200Y-83703572D01*
X155425199Y-83703555D01*
X155421333Y-83667600D01*
X159286044Y-83667600D01*
X159305413Y-83851886D01*
X159305414Y-83851888D01*
X159362674Y-84028114D01*
X159435743Y-84154674D01*
X159455323Y-84188587D01*
X159478399Y-84214215D01*
X159579306Y-84326286D01*
X159579309Y-84326288D01*
X159579312Y-84326291D01*
X159658259Y-84383649D01*
X159729222Y-84435207D01*
X159898495Y-84510573D01*
X159898498Y-84510573D01*
X159898501Y-84510575D01*
X160079751Y-84549100D01*
X160265049Y-84549100D01*
X160446299Y-84510575D01*
X160446302Y-84510573D01*
X160446304Y-84510573D01*
X160503322Y-84485186D01*
X160615578Y-84435207D01*
X160765488Y-84326291D01*
X160788551Y-84300676D01*
X160848035Y-84264029D01*
X160917892Y-84265358D01*
X160975941Y-84304243D01*
X161003751Y-84368340D01*
X161004700Y-84383649D01*
X161004700Y-85359270D01*
X161004701Y-85359276D01*
X161011108Y-85418881D01*
X161023859Y-85453069D01*
X161028842Y-85522761D01*
X161023859Y-85539731D01*
X161011108Y-85573918D01*
X161008154Y-85601400D01*
X161004701Y-85633523D01*
X161004700Y-85633535D01*
X161004700Y-86629270D01*
X161004701Y-86629276D01*
X161011108Y-86688881D01*
X161023859Y-86723069D01*
X161028842Y-86792761D01*
X161023859Y-86809731D01*
X161011108Y-86843918D01*
X161004701Y-86903516D01*
X161004701Y-86903523D01*
X161004700Y-86903535D01*
X161004700Y-87899270D01*
X161004701Y-87899276D01*
X161011108Y-87958881D01*
X161023859Y-87993069D01*
X161028842Y-88062761D01*
X161023859Y-88079731D01*
X161011108Y-88113918D01*
X161005212Y-88168767D01*
X161004701Y-88173523D01*
X161004700Y-88173535D01*
X161004700Y-89169270D01*
X161004701Y-89169276D01*
X161011108Y-89228881D01*
X161023859Y-89263069D01*
X161028842Y-89332761D01*
X161023859Y-89349731D01*
X161011108Y-89383918D01*
X161004701Y-89443516D01*
X161004701Y-89443523D01*
X161004700Y-89443535D01*
X161004700Y-90439270D01*
X161004701Y-90439276D01*
X161011108Y-90498881D01*
X161023859Y-90533069D01*
X161028842Y-90602761D01*
X161023859Y-90619731D01*
X161011108Y-90653918D01*
X161007543Y-90687081D01*
X161004701Y-90713523D01*
X161004700Y-90713535D01*
X161004700Y-91709270D01*
X161004701Y-91709276D01*
X161011108Y-91768881D01*
X161023859Y-91803069D01*
X161028842Y-91872761D01*
X161023859Y-91889731D01*
X161011108Y-91923918D01*
X161008154Y-91951400D01*
X161004701Y-91983523D01*
X161004700Y-91983535D01*
X161004700Y-92979270D01*
X161004701Y-92979276D01*
X161011108Y-93038881D01*
X161023859Y-93073069D01*
X161028842Y-93142761D01*
X161023859Y-93159731D01*
X161011108Y-93193918D01*
X161004701Y-93253516D01*
X161004701Y-93253523D01*
X161004700Y-93253535D01*
X161004700Y-94249270D01*
X161004701Y-94249276D01*
X161011108Y-94308881D01*
X161023859Y-94343069D01*
X161028842Y-94412761D01*
X161023859Y-94429731D01*
X161011108Y-94463918D01*
X161006626Y-94505612D01*
X161004701Y-94523523D01*
X161004700Y-94523535D01*
X161004700Y-95519270D01*
X161004701Y-95519276D01*
X161011108Y-95578883D01*
X161061402Y-95713728D01*
X161061406Y-95713735D01*
X161147652Y-95828944D01*
X161147655Y-95828947D01*
X161262864Y-95915193D01*
X161262871Y-95915197D01*
X161397717Y-95965491D01*
X161397716Y-95965491D01*
X161404644Y-95966235D01*
X161457327Y-95971900D01*
X163053072Y-95971899D01*
X163112683Y-95965491D01*
X163247531Y-95915196D01*
X163362746Y-95828946D01*
X163395931Y-95784615D01*
X163451863Y-95742745D01*
X163521555Y-95737761D01*
X163582878Y-95771245D01*
X163587346Y-95775954D01*
X163592512Y-95781691D01*
X163704978Y-95863402D01*
X163742422Y-95890607D01*
X163911695Y-95965973D01*
X163911698Y-95965973D01*
X163911701Y-95965975D01*
X164092951Y-96004500D01*
X164278249Y-96004500D01*
X164459499Y-95965975D01*
X164459502Y-95965973D01*
X164459504Y-95965973D01*
X164516522Y-95940586D01*
X164628778Y-95890607D01*
X164778688Y-95781691D01*
X164780957Y-95779172D01*
X164813755Y-95742745D01*
X164902677Y-95643987D01*
X164995326Y-95483513D01*
X165052587Y-95307284D01*
X165071956Y-95123000D01*
X165063313Y-95040774D01*
X165075882Y-94972048D01*
X165123614Y-94921023D01*
X165191354Y-94903905D01*
X165257595Y-94926127D01*
X165274315Y-94940134D01*
X165874581Y-95540400D01*
X165908066Y-95601723D01*
X165910900Y-95628081D01*
X165910900Y-98225845D01*
X165891215Y-98292884D01*
X165838411Y-98338639D01*
X165825905Y-98343550D01*
X165769070Y-98362383D01*
X165769069Y-98362384D01*
X165619742Y-98454489D01*
X165495689Y-98578542D01*
X165403587Y-98727863D01*
X165403586Y-98727866D01*
X165348401Y-98894403D01*
X165348401Y-98894404D01*
X165348400Y-98894404D01*
X165337900Y-98997183D01*
X165337900Y-99797201D01*
X165337901Y-99797219D01*
X165348400Y-99899996D01*
X165348401Y-99899999D01*
X165386753Y-100015736D01*
X165403586Y-100066534D01*
X165464354Y-100165056D01*
X165495689Y-100215857D01*
X165589351Y-100309519D01*
X165622836Y-100370842D01*
X165617852Y-100440534D01*
X165589351Y-100484881D01*
X165495689Y-100578542D01*
X165403587Y-100727863D01*
X165403586Y-100727866D01*
X165348401Y-100894403D01*
X165348401Y-100894404D01*
X165348400Y-100894404D01*
X165337900Y-100997183D01*
X165337900Y-101797201D01*
X165337901Y-101797219D01*
X165348400Y-101899996D01*
X165348401Y-101899999D01*
X165386753Y-102015736D01*
X165403586Y-102066534D01*
X165495688Y-102215856D01*
X165619744Y-102339912D01*
X165769066Y-102432014D01*
X165825905Y-102450848D01*
X165883348Y-102490618D01*
X165910172Y-102555134D01*
X165910900Y-102568553D01*
X165910900Y-102912627D01*
X165891215Y-102979666D01*
X165851997Y-103018166D01*
X165756142Y-103077289D01*
X165632089Y-103201342D01*
X165539987Y-103350663D01*
X165539986Y-103350666D01*
X165484801Y-103517203D01*
X165484801Y-103517204D01*
X165484800Y-103517204D01*
X165474300Y-103619983D01*
X165474300Y-104370001D01*
X165474301Y-104370019D01*
X165484800Y-104472796D01*
X165484801Y-104472799D01*
X165511902Y-104554583D01*
X165539986Y-104639334D01*
X165632088Y-104788656D01*
X165756144Y-104912712D01*
X165759428Y-104914737D01*
X165759453Y-104914753D01*
X165761245Y-104916746D01*
X165761811Y-104917193D01*
X165761734Y-104917289D01*
X165806179Y-104966699D01*
X165817403Y-105035661D01*
X165789561Y-105099744D01*
X165759465Y-105125826D01*
X165756460Y-105127679D01*
X165756455Y-105127683D01*
X165632484Y-105251654D01*
X165540443Y-105400875D01*
X165540441Y-105400880D01*
X165485294Y-105567302D01*
X165485293Y-105567309D01*
X165474800Y-105670013D01*
X165474800Y-105795000D01*
X167874799Y-105795000D01*
X167874799Y-105670028D01*
X167874798Y-105670013D01*
X167864305Y-105567302D01*
X167809158Y-105400880D01*
X167809156Y-105400875D01*
X167717115Y-105251654D01*
X167593144Y-105127683D01*
X167593141Y-105127681D01*
X167590139Y-105125829D01*
X167588513Y-105124021D01*
X167587477Y-105123202D01*
X167587617Y-105123024D01*
X167543417Y-105073880D01*
X167532197Y-105004917D01*
X167560043Y-104940836D01*
X167590144Y-104914754D01*
X167593456Y-104912712D01*
X167717512Y-104788656D01*
X167809614Y-104639334D01*
X167864799Y-104472797D01*
X167875300Y-104370009D01*
X167875299Y-103619992D01*
X167864799Y-103517203D01*
X167809614Y-103350666D01*
X167717512Y-103201344D01*
X167593456Y-103077288D01*
X167444134Y-102985186D01*
X167277597Y-102930001D01*
X167277593Y-102930000D01*
X167277588Y-102929999D01*
X167277291Y-102929969D01*
X167277119Y-102929899D01*
X167270973Y-102928583D01*
X167271207Y-102927486D01*
X167212600Y-102903570D01*
X167172452Y-102846387D01*
X167165900Y-102806612D01*
X167165900Y-102568553D01*
X167185585Y-102501514D01*
X167238389Y-102455759D01*
X167250882Y-102450852D01*
X167307734Y-102432014D01*
X167457056Y-102339912D01*
X167581112Y-102215856D01*
X167673214Y-102066534D01*
X167728399Y-101899997D01*
X167738900Y-101797209D01*
X167738899Y-100997192D01*
X167735343Y-100962385D01*
X167728399Y-100894403D01*
X167728398Y-100894400D01*
X167711566Y-100843604D01*
X167673214Y-100727866D01*
X167581112Y-100578544D01*
X167487449Y-100484881D01*
X167453964Y-100423558D01*
X167458948Y-100353866D01*
X167487449Y-100309519D01*
X167526598Y-100270370D01*
X167581112Y-100215856D01*
X167673214Y-100066534D01*
X167728399Y-99899997D01*
X167738900Y-99797209D01*
X167738899Y-98997192D01*
X167738879Y-98997000D01*
X167728399Y-98894403D01*
X167728398Y-98894400D01*
X167673214Y-98727866D01*
X167581112Y-98578544D01*
X167457056Y-98454488D01*
X167307734Y-98362386D01*
X167307732Y-98362385D01*
X167307730Y-98362384D01*
X167307729Y-98362383D01*
X167250895Y-98343550D01*
X167193450Y-98303777D01*
X167166628Y-98239261D01*
X167165900Y-98225845D01*
X167165900Y-95346881D01*
X167185585Y-95279842D01*
X167238389Y-95234087D01*
X167307547Y-95224143D01*
X167371103Y-95253168D01*
X167377581Y-95259200D01*
X169261181Y-97142800D01*
X169294666Y-97204123D01*
X169297500Y-97230481D01*
X169297500Y-101856927D01*
X169277815Y-101923966D01*
X169265650Y-101939899D01*
X169207926Y-102004007D01*
X169207921Y-102004014D01*
X169115274Y-102164485D01*
X169058014Y-102340711D01*
X169058013Y-102340713D01*
X169038644Y-102525000D01*
X169058013Y-102709286D01*
X169058014Y-102709288D01*
X169115274Y-102885514D01*
X169169633Y-102979666D01*
X169207923Y-103045987D01*
X169251112Y-103093954D01*
X169331906Y-103183686D01*
X169331909Y-103183688D01*
X169331912Y-103183691D01*
X169481822Y-103292607D01*
X169651095Y-103367973D01*
X169651098Y-103367973D01*
X169651101Y-103367975D01*
X169832351Y-103406500D01*
X170017649Y-103406500D01*
X170198899Y-103367975D01*
X170198902Y-103367973D01*
X170198904Y-103367973D01*
X170255922Y-103342586D01*
X170368178Y-103292607D01*
X170518088Y-103183691D01*
X170642077Y-103045987D01*
X170734726Y-102885513D01*
X170791987Y-102709284D01*
X170811356Y-102525000D01*
X170791987Y-102340716D01*
X170734726Y-102164487D01*
X170734725Y-102164485D01*
X170642078Y-102004014D01*
X170642073Y-102004007D01*
X170584350Y-101939899D01*
X170554120Y-101876907D01*
X170552500Y-101856927D01*
X170552500Y-96857396D01*
X170548237Y-96835969D01*
X170548237Y-96835968D01*
X170528385Y-96736165D01*
X170516193Y-96706731D01*
X170481086Y-96621972D01*
X170481079Y-96621960D01*
X170412411Y-96519192D01*
X170412408Y-96519188D01*
X163613463Y-89720244D01*
X163579978Y-89658921D01*
X163584962Y-89589229D01*
X163626834Y-89533296D01*
X163692298Y-89508879D01*
X163751578Y-89519283D01*
X163812426Y-89546374D01*
X163911695Y-89590573D01*
X163911698Y-89590573D01*
X163911701Y-89590575D01*
X164092951Y-89629100D01*
X164278249Y-89629100D01*
X164459499Y-89590575D01*
X164459502Y-89590573D01*
X164459504Y-89590573D01*
X164527275Y-89560399D01*
X164628778Y-89515207D01*
X164778688Y-89406291D01*
X164902677Y-89268587D01*
X164995326Y-89108113D01*
X165052587Y-88931884D01*
X165071956Y-88747600D01*
X165052587Y-88563316D01*
X164995326Y-88387087D01*
X164902677Y-88226613D01*
X164850591Y-88168766D01*
X164820362Y-88105776D01*
X164828987Y-88036441D01*
X164850593Y-88002822D01*
X164877277Y-87973187D01*
X164969926Y-87812713D01*
X165027187Y-87636484D01*
X165046556Y-87452200D01*
X165027187Y-87267916D01*
X164969926Y-87091687D01*
X164877277Y-86931213D01*
X164828714Y-86877278D01*
X164753293Y-86793513D01*
X164753290Y-86793511D01*
X164753289Y-86793510D01*
X164753288Y-86793509D01*
X164609280Y-86688881D01*
X164603377Y-86684592D01*
X164434104Y-86609226D01*
X164434096Y-86609224D01*
X164252849Y-86570700D01*
X164067551Y-86570700D01*
X163886303Y-86609224D01*
X163886295Y-86609226D01*
X163717022Y-86684593D01*
X163717015Y-86684596D01*
X163702580Y-86695084D01*
X163636773Y-86718561D01*
X163568720Y-86702733D01*
X163520027Y-86652625D01*
X163505699Y-86594766D01*
X163505699Y-85633528D01*
X163505698Y-85633526D01*
X163505698Y-85633514D01*
X163504907Y-85626157D01*
X163517311Y-85557398D01*
X163564920Y-85506259D01*
X163628196Y-85488900D01*
X165650119Y-85488900D01*
X165717158Y-85508585D01*
X165737800Y-85525219D01*
X166661181Y-86448600D01*
X166694666Y-86509923D01*
X166697500Y-86536281D01*
X166697500Y-92236807D01*
X166721612Y-92358027D01*
X166721614Y-92358035D01*
X166755062Y-92438785D01*
X166768916Y-92472231D01*
X166768919Y-92472237D01*
X166776131Y-92483030D01*
X166776133Y-92483033D01*
X166776135Y-92483035D01*
X166816920Y-92544075D01*
X166837590Y-92575010D01*
X166837591Y-92575011D01*
X171842989Y-97580408D01*
X171887996Y-97625415D01*
X171930393Y-97667812D01*
X172033160Y-97736479D01*
X172033173Y-97736486D01*
X172074483Y-97753597D01*
X172074484Y-97753597D01*
X172147366Y-97783786D01*
X172268592Y-97807899D01*
X172268596Y-97807900D01*
X172268597Y-97807900D01*
X172392204Y-97807900D01*
X172665373Y-97807900D01*
X172732412Y-97827585D01*
X172766947Y-97860775D01*
X172900705Y-98051801D01*
X173067799Y-98218895D01*
X173112210Y-98249992D01*
X173261365Y-98354432D01*
X173261367Y-98354433D01*
X173261370Y-98354435D01*
X173475537Y-98454303D01*
X173703792Y-98515463D01*
X173892118Y-98531939D01*
X173939199Y-98536059D01*
X173939200Y-98536059D01*
X173939201Y-98536059D01*
X173978434Y-98532626D01*
X174174608Y-98515463D01*
X174402863Y-98454303D01*
X174617030Y-98354435D01*
X174810601Y-98218895D01*
X174977695Y-98051801D01*
X175113235Y-97858230D01*
X175213103Y-97644063D01*
X175274263Y-97415808D01*
X175294859Y-97180400D01*
X175274263Y-96944992D01*
X175213103Y-96716737D01*
X175113235Y-96502571D01*
X175067609Y-96437409D01*
X174977694Y-96308997D01*
X174810602Y-96141906D01*
X174810596Y-96141901D01*
X174625042Y-96011975D01*
X174581417Y-95957398D01*
X174574223Y-95887900D01*
X174605746Y-95825545D01*
X174625042Y-95808825D01*
X174663793Y-95781691D01*
X174810601Y-95678895D01*
X174977695Y-95511801D01*
X175113235Y-95318230D01*
X175213103Y-95104063D01*
X175274263Y-94875808D01*
X175294859Y-94640400D01*
X175291500Y-94602013D01*
X175283066Y-94505612D01*
X175274263Y-94404992D01*
X175227826Y-94231685D01*
X175213105Y-94176744D01*
X175213104Y-94176743D01*
X175213103Y-94176737D01*
X175113235Y-93962571D01*
X174977695Y-93768999D01*
X174977694Y-93768997D01*
X174810602Y-93601906D01*
X174810596Y-93601901D01*
X174625042Y-93471975D01*
X174581417Y-93417398D01*
X174574223Y-93347900D01*
X174605746Y-93285545D01*
X174625042Y-93268825D01*
X174732020Y-93193918D01*
X174810601Y-93138895D01*
X174977695Y-92971801D01*
X175113235Y-92778230D01*
X175213103Y-92564063D01*
X175274263Y-92335808D01*
X175294859Y-92100400D01*
X175274263Y-91864992D01*
X175213103Y-91636737D01*
X175113235Y-91422571D01*
X174977695Y-91228999D01*
X174977694Y-91228997D01*
X174810602Y-91061906D01*
X174810596Y-91061901D01*
X174625042Y-90931975D01*
X174581417Y-90877398D01*
X174574223Y-90807900D01*
X174605746Y-90745545D01*
X174625042Y-90728825D01*
X174732020Y-90653918D01*
X174810601Y-90598895D01*
X174977695Y-90431801D01*
X175113235Y-90238230D01*
X175213103Y-90024063D01*
X175274263Y-89795808D01*
X175294859Y-89560400D01*
X175274263Y-89324992D01*
X175227826Y-89151685D01*
X175213105Y-89096744D01*
X175213104Y-89096743D01*
X175213103Y-89096737D01*
X175113235Y-88882571D01*
X174977695Y-88688999D01*
X174977694Y-88688997D01*
X174810602Y-88521906D01*
X174810596Y-88521901D01*
X174625042Y-88391975D01*
X174581417Y-88337398D01*
X174574223Y-88267900D01*
X174605746Y-88205545D01*
X174625042Y-88188825D01*
X174732020Y-88113918D01*
X174810601Y-88058895D01*
X174977695Y-87891801D01*
X175113235Y-87698230D01*
X175213103Y-87484063D01*
X175274263Y-87255808D01*
X175294859Y-87020400D01*
X175274263Y-86784992D01*
X175216844Y-86570700D01*
X175213105Y-86556744D01*
X175213104Y-86556743D01*
X175213103Y-86556737D01*
X175113235Y-86342571D01*
X175055662Y-86260347D01*
X174977694Y-86148997D01*
X174810602Y-85981906D01*
X174810601Y-85981905D01*
X174624605Y-85851669D01*
X174580981Y-85797092D01*
X174573788Y-85727593D01*
X174605310Y-85665239D01*
X174624605Y-85648519D01*
X174810282Y-85518505D01*
X174977305Y-85351482D01*
X175112800Y-85157978D01*
X175212629Y-84943892D01*
X175212632Y-84943886D01*
X175269836Y-84730400D01*
X174372212Y-84730400D01*
X174405125Y-84673393D01*
X174439200Y-84546226D01*
X174439200Y-84414574D01*
X174405125Y-84287407D01*
X174372212Y-84230400D01*
X175269836Y-84230400D01*
X175269835Y-84230399D01*
X175212632Y-84016913D01*
X175212629Y-84016907D01*
X175112800Y-83802822D01*
X175112799Y-83802820D01*
X174977313Y-83609326D01*
X174977308Y-83609320D01*
X174810278Y-83442290D01*
X174624605Y-83312279D01*
X174580980Y-83257702D01*
X174573788Y-83188204D01*
X174605310Y-83125849D01*
X174624606Y-83109130D01*
X174646878Y-83093535D01*
X174810601Y-82978895D01*
X174977695Y-82811801D01*
X175113235Y-82618230D01*
X175213103Y-82404063D01*
X175274263Y-82175808D01*
X175294859Y-81940400D01*
X175274263Y-81704992D01*
X175215455Y-81485514D01*
X175213105Y-81476744D01*
X175213104Y-81476743D01*
X175213103Y-81476737D01*
X175113235Y-81262571D01*
X174997203Y-81096860D01*
X174977696Y-81069000D01*
X174977695Y-81068999D01*
X174855767Y-80947071D01*
X174822284Y-80885751D01*
X174827268Y-80816059D01*
X174869139Y-80760125D01*
X174900115Y-80743210D01*
X175031531Y-80694196D01*
X175146746Y-80607946D01*
X175232996Y-80492731D01*
X175283291Y-80357883D01*
X175289700Y-80298273D01*
X175289699Y-78502528D01*
X175283291Y-78442917D01*
X175256394Y-78370803D01*
X175232997Y-78308071D01*
X175232993Y-78308064D01*
X175146747Y-78192855D01*
X175146744Y-78192852D01*
X175031535Y-78106606D01*
X175031528Y-78106602D01*
X174896682Y-78056308D01*
X174896683Y-78056308D01*
X174837083Y-78049901D01*
X174837081Y-78049900D01*
X174837073Y-78049900D01*
X174837064Y-78049900D01*
X173041329Y-78049900D01*
X173041323Y-78049901D01*
X172981716Y-78056308D01*
X172846871Y-78106602D01*
X172846864Y-78106606D01*
X172731655Y-78192852D01*
X172731652Y-78192855D01*
X172645406Y-78308064D01*
X172645402Y-78308071D01*
X172595108Y-78442917D01*
X172588701Y-78502516D01*
X172588701Y-78502523D01*
X172588700Y-78502535D01*
X172588700Y-80298270D01*
X172588701Y-80298276D01*
X172595108Y-80357883D01*
X172645402Y-80492728D01*
X172645406Y-80492735D01*
X172731652Y-80607944D01*
X172731655Y-80607947D01*
X172846864Y-80694193D01*
X172846871Y-80694197D01*
X172978281Y-80743210D01*
X173034215Y-80785081D01*
X173058632Y-80850545D01*
X173043780Y-80918818D01*
X173022630Y-80947073D01*
X172900703Y-81069000D01*
X172765165Y-81262569D01*
X172765164Y-81262571D01*
X172665298Y-81476735D01*
X172665294Y-81476744D01*
X172604138Y-81704986D01*
X172604136Y-81704996D01*
X172583541Y-81940399D01*
X172583541Y-81940400D01*
X172604136Y-82175803D01*
X172604138Y-82175813D01*
X172665294Y-82404055D01*
X172665296Y-82404059D01*
X172665297Y-82404063D01*
X172724528Y-82531084D01*
X172765165Y-82618230D01*
X172765167Y-82618234D01*
X172827542Y-82707314D01*
X172900705Y-82811801D01*
X173067799Y-82978895D01*
X173231510Y-83093527D01*
X173253794Y-83109130D01*
X173297419Y-83163707D01*
X173304613Y-83233205D01*
X173273090Y-83295560D01*
X173253795Y-83312280D01*
X173068122Y-83442290D01*
X173068120Y-83442291D01*
X172901091Y-83609320D01*
X172901086Y-83609326D01*
X172765600Y-83802820D01*
X172765599Y-83802822D01*
X172665770Y-84016907D01*
X172665767Y-84016913D01*
X172608564Y-84230399D01*
X172608564Y-84230400D01*
X173506188Y-84230400D01*
X173473275Y-84287407D01*
X173439200Y-84414574D01*
X173439200Y-84546226D01*
X173473275Y-84673393D01*
X173506188Y-84730400D01*
X172608564Y-84730400D01*
X172665767Y-84943886D01*
X172665770Y-84943892D01*
X172765599Y-85157978D01*
X172901094Y-85351482D01*
X173068117Y-85518505D01*
X173253795Y-85648519D01*
X173297419Y-85703096D01*
X173304612Y-85772595D01*
X173273090Y-85834949D01*
X173253795Y-85851669D01*
X173067794Y-85981908D01*
X172900705Y-86148997D01*
X172765165Y-86342569D01*
X172765164Y-86342571D01*
X172665298Y-86556735D01*
X172665294Y-86556744D01*
X172604138Y-86784986D01*
X172604136Y-86784996D01*
X172583541Y-87020399D01*
X172583541Y-87020400D01*
X172604136Y-87255803D01*
X172604138Y-87255813D01*
X172665294Y-87484055D01*
X172665296Y-87484059D01*
X172665297Y-87484063D01*
X172673848Y-87502400D01*
X172765165Y-87698230D01*
X172765167Y-87698234D01*
X172900701Y-87891795D01*
X172900706Y-87891802D01*
X173067797Y-88058893D01*
X173067803Y-88058898D01*
X173253358Y-88188825D01*
X173296983Y-88243402D01*
X173304177Y-88312900D01*
X173272654Y-88375255D01*
X173253358Y-88391975D01*
X173067797Y-88521905D01*
X172900705Y-88688997D01*
X172765165Y-88882569D01*
X172765164Y-88882571D01*
X172665298Y-89096735D01*
X172665294Y-89096744D01*
X172604138Y-89324986D01*
X172604136Y-89324996D01*
X172583541Y-89560399D01*
X172583541Y-89560400D01*
X172604136Y-89795803D01*
X172604138Y-89795813D01*
X172665294Y-90024055D01*
X172665296Y-90024059D01*
X172665297Y-90024063D01*
X172765165Y-90238230D01*
X172765167Y-90238234D01*
X172900701Y-90431795D01*
X172900706Y-90431802D01*
X173067797Y-90598893D01*
X173067803Y-90598898D01*
X173253358Y-90728825D01*
X173296983Y-90783402D01*
X173304177Y-90852900D01*
X173272654Y-90915255D01*
X173253358Y-90931975D01*
X173067797Y-91061905D01*
X172900705Y-91228997D01*
X172766949Y-91420023D01*
X172712372Y-91463648D01*
X172665374Y-91472900D01*
X172236681Y-91472900D01*
X172169642Y-91453215D01*
X172149000Y-91436581D01*
X168688819Y-87976400D01*
X168655334Y-87915077D01*
X168652500Y-87888719D01*
X168652500Y-83213196D01*
X168650185Y-83201558D01*
X168645555Y-83178282D01*
X168628386Y-83091966D01*
X168593982Y-83008909D01*
X168592566Y-83005491D01*
X168584998Y-82987220D01*
X168581083Y-82977767D01*
X168571817Y-82963900D01*
X168512414Y-82874996D01*
X168512413Y-82874994D01*
X168493406Y-82855987D01*
X168425008Y-82787589D01*
X166706418Y-81068999D01*
X164931411Y-79293991D01*
X164931408Y-79293989D01*
X164915753Y-79283529D01*
X164900907Y-79273609D01*
X164900895Y-79273601D01*
X164828638Y-79225320D01*
X164828626Y-79225313D01*
X164795185Y-79211462D01*
X164714435Y-79178014D01*
X164714427Y-79178012D01*
X164593207Y-79153900D01*
X164593203Y-79153900D01*
X163627692Y-79153900D01*
X163560653Y-79134215D01*
X163514898Y-79081411D01*
X163504403Y-79016638D01*
X163505199Y-79009229D01*
X163505200Y-79009227D01*
X163505200Y-78761400D01*
X161005200Y-78761400D01*
X161005200Y-79009244D01*
X161011601Y-79068772D01*
X161011603Y-79068779D01*
X161024125Y-79102352D01*
X161029109Y-79172043D01*
X161024125Y-79189017D01*
X161011109Y-79223914D01*
X161011108Y-79223916D01*
X161005767Y-79273601D01*
X161004701Y-79283523D01*
X161004700Y-79283535D01*
X161004700Y-80279270D01*
X161004701Y-80279276D01*
X161011108Y-80338881D01*
X161023859Y-80373069D01*
X161028842Y-80442761D01*
X161023859Y-80459731D01*
X161011108Y-80493918D01*
X161004701Y-80553516D01*
X161004701Y-80553523D01*
X161004700Y-80553535D01*
X161004700Y-81549270D01*
X161004701Y-81549285D01*
X161005493Y-81556643D01*
X160993089Y-81625402D01*
X160945480Y-81676541D01*
X160882204Y-81693900D01*
X160813748Y-81693900D01*
X160746709Y-81674215D01*
X160740881Y-81670231D01*
X160615578Y-81579193D01*
X160615577Y-81579192D01*
X160446304Y-81503826D01*
X160446296Y-81503824D01*
X160265049Y-81465300D01*
X160079751Y-81465300D01*
X159898503Y-81503824D01*
X159898495Y-81503826D01*
X159729222Y-81579192D01*
X159579309Y-81688111D01*
X159579306Y-81688113D01*
X159455322Y-81825814D01*
X159362674Y-81986285D01*
X159305414Y-82162511D01*
X159305413Y-82162513D01*
X159286044Y-82346800D01*
X159305413Y-82531086D01*
X159305414Y-82531088D01*
X159362674Y-82707314D01*
X159448510Y-82855987D01*
X159455323Y-82867787D01*
X159506143Y-82924228D01*
X159536372Y-82987220D01*
X159527746Y-83056555D01*
X159506143Y-83090170D01*
X159455323Y-83146613D01*
X159455321Y-83146614D01*
X159455320Y-83146617D01*
X159362674Y-83307085D01*
X159305414Y-83483311D01*
X159305413Y-83483313D01*
X159286044Y-83667600D01*
X155421333Y-83667600D01*
X155418798Y-83644027D01*
X155418796Y-83644020D01*
X155368554Y-83509313D01*
X155368550Y-83509306D01*
X155282390Y-83394212D01*
X155282387Y-83394209D01*
X155167293Y-83308049D01*
X155167286Y-83308045D01*
X155032579Y-83257803D01*
X155032572Y-83257801D01*
X154973044Y-83251400D01*
X153075200Y-83251400D01*
X152575200Y-83251400D01*
X150677355Y-83251400D01*
X150617827Y-83257801D01*
X150617820Y-83257803D01*
X150483113Y-83308045D01*
X150483106Y-83308049D01*
X150368012Y-83394209D01*
X150368009Y-83394212D01*
X150281849Y-83509306D01*
X150281845Y-83509313D01*
X150231603Y-83644020D01*
X150231601Y-83644027D01*
X150225200Y-83703555D01*
X150225200Y-85601400D01*
X146002245Y-85601400D01*
X145999291Y-85573917D01*
X145986540Y-85539732D01*
X145981557Y-85470042D01*
X145986540Y-85453069D01*
X145999291Y-85418883D01*
X146005700Y-85359273D01*
X146005699Y-84363528D01*
X145999291Y-84303917D01*
X145986540Y-84269732D01*
X145981557Y-84200042D01*
X145986540Y-84183069D01*
X145999291Y-84148883D01*
X146005700Y-84089273D01*
X146005699Y-83093528D01*
X145999291Y-83033917D01*
X145986540Y-82999732D01*
X145981557Y-82930042D01*
X145986540Y-82913069D01*
X145999291Y-82878883D01*
X146005700Y-82819273D01*
X146005699Y-81823528D01*
X145999291Y-81763917D01*
X145986540Y-81729732D01*
X145981557Y-81660042D01*
X145986538Y-81643072D01*
X145999291Y-81608883D01*
X146005700Y-81549273D01*
X146005699Y-80553528D01*
X145999291Y-80493917D01*
X145986540Y-80459732D01*
X145981557Y-80390042D01*
X145986540Y-80373069D01*
X145999291Y-80338883D01*
X146005700Y-80279273D01*
X146005699Y-79283528D01*
X145999291Y-79223917D01*
X145986273Y-79189016D01*
X145981290Y-79119326D01*
X145986275Y-79102349D01*
X145998797Y-79068775D01*
X145998798Y-79068772D01*
X146005199Y-79009244D01*
X146005200Y-79009227D01*
X146005200Y-78761400D01*
X143505200Y-78761400D01*
X143505200Y-79004755D01*
X143485515Y-79071794D01*
X143432711Y-79117549D01*
X143363553Y-79127493D01*
X143330766Y-79118035D01*
X143326705Y-79116227D01*
X143326696Y-79116224D01*
X143145449Y-79077700D01*
X142960151Y-79077700D01*
X142778903Y-79116224D01*
X142778895Y-79116226D01*
X142609622Y-79191592D01*
X142459709Y-79300511D01*
X142459706Y-79300513D01*
X142335723Y-79438212D01*
X142303021Y-79494854D01*
X142252453Y-79543069D01*
X142183846Y-79556291D01*
X142118982Y-79530323D01*
X142107953Y-79520534D01*
X141049811Y-78462391D01*
X141049810Y-78462390D01*
X141020667Y-78442918D01*
X141020666Y-78442917D01*
X140947038Y-78393720D01*
X140947026Y-78393713D01*
X140913585Y-78379862D01*
X140832835Y-78346414D01*
X140832827Y-78346412D01*
X140711607Y-78322300D01*
X140711603Y-78322300D01*
X139736024Y-78322300D01*
X139668985Y-78302615D01*
X139630485Y-78263396D01*
X139586973Y-78192852D01*
X139548912Y-78131144D01*
X139424856Y-78007088D01*
X139301317Y-77930889D01*
X139275536Y-77914987D01*
X139275531Y-77914985D01*
X139274062Y-77914498D01*
X139108997Y-77859801D01*
X139108995Y-77859800D01*
X139006210Y-77849300D01*
X138006198Y-77849300D01*
X138006180Y-77849301D01*
X137903403Y-77859800D01*
X137903400Y-77859801D01*
X137736868Y-77914985D01*
X137736863Y-77914987D01*
X137587542Y-78007089D01*
X137463487Y-78131144D01*
X137381915Y-78263396D01*
X137329967Y-78310121D01*
X137276376Y-78322300D01*
X131743268Y-78322300D01*
X131676229Y-78302615D01*
X131630474Y-78249811D01*
X131625563Y-78237306D01*
X131614616Y-78204272D01*
X131614615Y-78204271D01*
X131614614Y-78204266D01*
X131522512Y-78054944D01*
X131398456Y-77930888D01*
X131249134Y-77838786D01*
X131082597Y-77783601D01*
X131082595Y-77783600D01*
X130979810Y-77773100D01*
X129979798Y-77773100D01*
X129979780Y-77773101D01*
X129877003Y-77783600D01*
X129877000Y-77783601D01*
X129710468Y-77838785D01*
X129710463Y-77838787D01*
X129561142Y-77930889D01*
X129437089Y-78054942D01*
X129344987Y-78204263D01*
X129344985Y-78204268D01*
X129329894Y-78249811D01*
X129289801Y-78370803D01*
X129289801Y-78370804D01*
X129289800Y-78370804D01*
X129279300Y-78473583D01*
X129279300Y-79273601D01*
X129279301Y-79273619D01*
X129289800Y-79376396D01*
X129289801Y-79376399D01*
X129344985Y-79542931D01*
X129344987Y-79542936D01*
X129366183Y-79577300D01*
X129437087Y-79692255D01*
X129437089Y-79692257D01*
X129530751Y-79785919D01*
X129564236Y-79847242D01*
X129559252Y-79916934D01*
X129530751Y-79961281D01*
X129437089Y-80054942D01*
X129344987Y-80204263D01*
X129344986Y-80204266D01*
X129289801Y-80370803D01*
X129289801Y-80370804D01*
X129289800Y-80370804D01*
X129279300Y-80473583D01*
X129279300Y-81273601D01*
X129279301Y-81273619D01*
X129289800Y-81376396D01*
X129289801Y-81376399D01*
X129332027Y-81503826D01*
X129344986Y-81542934D01*
X129437088Y-81692256D01*
X129561144Y-81816312D01*
X129710466Y-81908414D01*
X129767305Y-81927248D01*
X129824748Y-81967018D01*
X129851572Y-82031534D01*
X129852300Y-82044953D01*
X129852300Y-82947700D01*
X129832615Y-83014739D01*
X129779811Y-83060494D01*
X129728301Y-83071700D01*
X129631730Y-83071700D01*
X129631723Y-83071701D01*
X129572116Y-83078108D01*
X129437271Y-83128402D01*
X129437264Y-83128406D01*
X129322055Y-83214652D01*
X129322052Y-83214655D01*
X129235806Y-83329864D01*
X129235802Y-83329871D01*
X129185508Y-83464717D01*
X129179101Y-83524316D01*
X129179101Y-83524323D01*
X129179100Y-83524335D01*
X129179100Y-84920070D01*
X129179101Y-84920076D01*
X129185508Y-84979683D01*
X129235802Y-85114528D01*
X129235806Y-85114535D01*
X129322052Y-85229744D01*
X129322055Y-85229747D01*
X129437264Y-85315993D01*
X129437271Y-85315997D01*
X129572117Y-85366291D01*
X129572116Y-85366291D01*
X129579044Y-85367035D01*
X129631727Y-85372700D01*
X131277472Y-85372699D01*
X131337083Y-85366291D01*
X131471931Y-85315996D01*
X131587146Y-85229746D01*
X131673396Y-85114531D01*
X131723691Y-84979683D01*
X131723691Y-84979682D01*
X131725760Y-84960443D01*
X131752499Y-84895892D01*
X131809892Y-84856045D01*
X131849049Y-84849700D01*
X137010151Y-84849700D01*
X137077190Y-84869385D01*
X137122945Y-84922189D01*
X137133441Y-84960446D01*
X137135509Y-84979683D01*
X137185802Y-85114528D01*
X137185806Y-85114535D01*
X137272052Y-85229744D01*
X137272055Y-85229747D01*
X137387264Y-85315993D01*
X137387271Y-85315997D01*
X137522117Y-85366291D01*
X137522116Y-85366291D01*
X137529044Y-85367035D01*
X137581727Y-85372700D01*
X139227472Y-85372699D01*
X139287083Y-85366291D01*
X139421931Y-85315996D01*
X139537146Y-85229746D01*
X139623396Y-85114531D01*
X139673691Y-84979683D01*
X139680100Y-84920073D01*
X139680099Y-83524328D01*
X139673691Y-83464717D01*
X139665326Y-83442290D01*
X139623397Y-83329871D01*
X139623393Y-83329864D01*
X139537147Y-83214655D01*
X139537144Y-83214652D01*
X139421935Y-83128406D01*
X139421928Y-83128402D01*
X139287082Y-83078108D01*
X139287083Y-83078108D01*
X139227483Y-83071701D01*
X139227481Y-83071700D01*
X139227473Y-83071700D01*
X139227464Y-83071700D01*
X137581729Y-83071700D01*
X137581723Y-83071701D01*
X137522116Y-83078108D01*
X137387271Y-83128402D01*
X137387264Y-83128406D01*
X137272055Y-83214652D01*
X137272052Y-83214655D01*
X137185806Y-83329864D01*
X137185802Y-83329871D01*
X137135508Y-83464716D01*
X137133440Y-83483957D01*
X137106701Y-83548508D01*
X137049308Y-83588355D01*
X137010151Y-83594700D01*
X131849049Y-83594700D01*
X131782010Y-83575015D01*
X131736255Y-83522211D01*
X131725759Y-83483954D01*
X131725586Y-83482346D01*
X131723691Y-83464717D01*
X131673396Y-83329869D01*
X131673395Y-83329868D01*
X131673393Y-83329864D01*
X131587147Y-83214655D01*
X131587144Y-83214652D01*
X131471935Y-83128406D01*
X131471928Y-83128402D01*
X131337082Y-83078108D01*
X131337083Y-83078108D01*
X131277483Y-83071701D01*
X131277481Y-83071700D01*
X131277473Y-83071700D01*
X131277465Y-83071700D01*
X131231300Y-83071700D01*
X131164261Y-83052015D01*
X131118506Y-82999211D01*
X131107300Y-82947700D01*
X131107300Y-82044953D01*
X131126985Y-81977914D01*
X131179789Y-81932159D01*
X131192282Y-81927252D01*
X131249134Y-81908414D01*
X131398456Y-81816312D01*
X131522512Y-81692256D01*
X131614614Y-81542934D01*
X131669799Y-81376397D01*
X131680300Y-81273609D01*
X131680299Y-80473592D01*
X131678883Y-80459734D01*
X131669799Y-80370803D01*
X131669798Y-80370800D01*
X131645765Y-80298273D01*
X131614614Y-80204266D01*
X131522512Y-80054944D01*
X131428849Y-79961281D01*
X131395364Y-79899958D01*
X131400348Y-79830266D01*
X131428849Y-79785919D01*
X131446313Y-79768455D01*
X131522512Y-79692256D01*
X131557085Y-79636204D01*
X131609033Y-79589479D01*
X131662624Y-79577300D01*
X137276376Y-79577300D01*
X137343415Y-79596985D01*
X137381915Y-79636204D01*
X137463487Y-79768455D01*
X137557151Y-79862119D01*
X137590636Y-79923442D01*
X137585652Y-79993134D01*
X137557151Y-80037481D01*
X137463489Y-80131142D01*
X137371387Y-80280463D01*
X137371385Y-80280468D01*
X137316200Y-80447004D01*
X137305700Y-80549783D01*
X137305700Y-81349801D01*
X137305701Y-81349819D01*
X137316200Y-81452596D01*
X137316201Y-81452599D01*
X137358151Y-81579193D01*
X137371386Y-81619134D01*
X137463488Y-81768456D01*
X137587544Y-81892512D01*
X137736866Y-81984614D01*
X137903403Y-82039799D01*
X138006191Y-82050300D01*
X139006208Y-82050299D01*
X139006216Y-82050298D01*
X139006219Y-82050298D01*
X139062502Y-82044548D01*
X139108997Y-82039799D01*
X139275534Y-81984614D01*
X139424856Y-81892512D01*
X139438892Y-81878475D01*
X139500210Y-81844990D01*
X139569901Y-81849971D01*
X139614255Y-81878474D01*
X140560718Y-82824937D01*
X140594203Y-82886260D01*
X140596357Y-82899652D01*
X140611013Y-83039084D01*
X140611014Y-83039086D01*
X140611014Y-83039088D01*
X140668274Y-83215314D01*
X140760921Y-83375785D01*
X140818650Y-83439899D01*
X140848880Y-83502890D01*
X140850500Y-83522871D01*
X140850500Y-90635719D01*
X140830815Y-90702758D01*
X140814181Y-90723400D01*
X139901400Y-91636181D01*
X139840077Y-91669666D01*
X139813719Y-91672500D01*
X130788192Y-91672500D01*
X130666973Y-91696611D01*
X130666973Y-91696612D01*
X130666970Y-91696613D01*
X130666966Y-91696614D01*
X130600070Y-91724323D01*
X130600068Y-91724323D01*
X130552768Y-91743916D01*
X130552764Y-91743918D01*
X130464092Y-91803167D01*
X130464092Y-91803168D01*
X130449989Y-91812590D01*
X130449988Y-91812591D01*
X129514996Y-92747585D01*
X129224992Y-93037589D01*
X129193434Y-93069147D01*
X129137586Y-93124994D01*
X129137585Y-93124996D01*
X129068233Y-93228789D01*
X129066586Y-93233393D01*
X129021614Y-93341964D01*
X129021612Y-93341972D01*
X129003724Y-93431897D01*
X129003725Y-93431898D01*
X128997500Y-93463196D01*
X128997500Y-95436807D01*
X129021612Y-95558027D01*
X129021614Y-95558035D01*
X129054485Y-95637392D01*
X129068915Y-95672230D01*
X129097704Y-95715316D01*
X129097706Y-95715318D01*
X129137587Y-95775006D01*
X129137591Y-95775011D01*
X129799989Y-96437408D01*
X129862604Y-96500023D01*
X129887393Y-96524812D01*
X129990160Y-96593479D01*
X129990167Y-96593483D01*
X130029663Y-96609842D01*
X130084065Y-96653681D01*
X130099915Y-96685397D01*
X130106984Y-96706731D01*
X130106986Y-96706734D01*
X130186698Y-96835969D01*
X130199089Y-96856057D01*
X130327625Y-96984593D01*
X130361110Y-97045916D01*
X130356126Y-97115608D01*
X130327625Y-97159955D01*
X127712181Y-99775399D01*
X127650858Y-99808884D01*
X127581166Y-99803900D01*
X127525233Y-99762028D01*
X127500816Y-99696564D01*
X127500500Y-99687718D01*
X127500500Y-88972200D01*
X129179600Y-88972200D01*
X129179600Y-89420044D01*
X129186001Y-89479572D01*
X129186003Y-89479579D01*
X129236245Y-89614286D01*
X129236249Y-89614293D01*
X129322409Y-89729387D01*
X129322412Y-89729390D01*
X129437506Y-89815550D01*
X129437513Y-89815554D01*
X129572220Y-89865796D01*
X129572227Y-89865798D01*
X129631755Y-89872199D01*
X129631772Y-89872200D01*
X130204600Y-89872200D01*
X130204600Y-88972200D01*
X130704600Y-88972200D01*
X130704600Y-89872200D01*
X131277428Y-89872200D01*
X131277444Y-89872199D01*
X131336972Y-89865798D01*
X131336979Y-89865796D01*
X131471686Y-89815554D01*
X131471693Y-89815550D01*
X131586787Y-89729390D01*
X131586790Y-89729387D01*
X131672950Y-89614293D01*
X131672954Y-89614286D01*
X131723196Y-89479579D01*
X131723198Y-89479572D01*
X131729599Y-89420044D01*
X131729600Y-89420027D01*
X131729600Y-88972200D01*
X137129600Y-88972200D01*
X137129600Y-89420044D01*
X137136001Y-89479572D01*
X137136003Y-89479579D01*
X137186245Y-89614286D01*
X137186249Y-89614293D01*
X137272409Y-89729387D01*
X137272412Y-89729390D01*
X137387506Y-89815550D01*
X137387513Y-89815554D01*
X137522220Y-89865796D01*
X137522227Y-89865798D01*
X137581755Y-89872199D01*
X137581772Y-89872200D01*
X138154600Y-89872200D01*
X138154600Y-88972200D01*
X138654600Y-88972200D01*
X138654600Y-89872200D01*
X139227428Y-89872200D01*
X139227444Y-89872199D01*
X139286972Y-89865798D01*
X139286979Y-89865796D01*
X139421686Y-89815554D01*
X139421693Y-89815550D01*
X139536787Y-89729390D01*
X139536790Y-89729387D01*
X139622950Y-89614293D01*
X139622954Y-89614286D01*
X139673196Y-89479579D01*
X139673198Y-89479572D01*
X139679599Y-89420044D01*
X139679600Y-89420027D01*
X139679600Y-88972200D01*
X138654600Y-88972200D01*
X138154600Y-88972200D01*
X137129600Y-88972200D01*
X131729600Y-88972200D01*
X130704600Y-88972200D01*
X130204600Y-88972200D01*
X129179600Y-88972200D01*
X127500500Y-88972200D01*
X127500500Y-88472200D01*
X129179600Y-88472200D01*
X130204600Y-88472200D01*
X130204600Y-87572200D01*
X130704600Y-87572200D01*
X130704600Y-88472200D01*
X131729600Y-88472200D01*
X137129600Y-88472200D01*
X138154600Y-88472200D01*
X138154600Y-87572200D01*
X138654600Y-87572200D01*
X138654600Y-88472200D01*
X139679600Y-88472200D01*
X139679600Y-88024372D01*
X139679599Y-88024355D01*
X139673198Y-87964827D01*
X139673196Y-87964820D01*
X139622954Y-87830113D01*
X139622950Y-87830106D01*
X139536790Y-87715012D01*
X139536787Y-87715009D01*
X139421693Y-87628849D01*
X139421686Y-87628845D01*
X139286979Y-87578603D01*
X139286972Y-87578601D01*
X139227444Y-87572200D01*
X138654600Y-87572200D01*
X138154600Y-87572200D01*
X137581755Y-87572200D01*
X137522227Y-87578601D01*
X137522220Y-87578603D01*
X137387513Y-87628845D01*
X137387506Y-87628849D01*
X137272412Y-87715009D01*
X137272409Y-87715012D01*
X137186249Y-87830106D01*
X137186245Y-87830113D01*
X137136003Y-87964820D01*
X137136001Y-87964827D01*
X137129600Y-88024355D01*
X137129600Y-88472200D01*
X131729600Y-88472200D01*
X131729600Y-88024372D01*
X131729599Y-88024355D01*
X131723198Y-87964827D01*
X131723196Y-87964820D01*
X131672954Y-87830113D01*
X131672950Y-87830106D01*
X131586790Y-87715012D01*
X131586787Y-87715009D01*
X131471693Y-87628849D01*
X131471686Y-87628845D01*
X131336979Y-87578603D01*
X131336972Y-87578601D01*
X131277444Y-87572200D01*
X130704600Y-87572200D01*
X130204600Y-87572200D01*
X129631755Y-87572200D01*
X129572227Y-87578601D01*
X129572220Y-87578603D01*
X129437513Y-87628845D01*
X129437506Y-87628849D01*
X129322412Y-87715009D01*
X129322409Y-87715012D01*
X129236249Y-87830106D01*
X129236245Y-87830113D01*
X129186003Y-87964820D01*
X129186001Y-87964827D01*
X129179600Y-88024355D01*
X129179600Y-88472200D01*
X127500500Y-88472200D01*
X127500500Y-77624600D01*
X127520185Y-77557561D01*
X127572989Y-77511806D01*
X127624500Y-77500600D01*
X143552712Y-77500600D01*
X143619751Y-77520285D01*
G37*
%TD.AperFunction*%
%TD*%
M02*
